<?xml version="1.0" encoding="utf-8"?>
<!-- Generator: Adobe Illustrator 22.0.0, SVG Export Plug-In . SVG Version: 6.00 Build 0)  -->
<svg version="1.1" id="Layer_1" xmlns="http://www.w3.org/2000/svg" xmlns:xlink="http://www.w3.org/1999/xlink" x="0px" y="0px"
	 viewBox="0 0 1920 1080" style="enable-background:new 0 0 1920 1080;" xml:space="preserve">
<style type="text/css">
	.st0{fill:#FFFBF2;}
	.st1{fill:#F7F4DD;}
	.st2{fill:#593218;}
	.st3{opacity:0.51;fill:url(#);}
	.st4{fill:#565B21;}
	.st5{fill:#ABBF1A;}
	.st6{fill:#A0B21F;}
	.st7{fill:#4FB8B5;}
	.st8{fill:#F39100;}
	.st9{fill:#38A59E;}
	.st10{fill:#E73A2E;}
	.st11{fill:#E53212;}
	.st12{fill:#CA2718;}
	.st13{fill:#E57B08;}
	.st14{fill:#D5CDB0;}
	.st15{fill:#8F9B26;}
	.st16{fill:#268C87;}
	.st17{fill:#225B55;}
	.st18{fill:#28716A;}
	.st19{fill:#764119;}
	.st20{fill:#302015;}
	.st21{fill:#EA4E40;}
	.st22{fill:#FABA66;}
	.st23{fill:#91D0D4;}
	.st24{fill:#E37D08;}
	.st25{fill:#D06815;}
	.st26{fill:#F6A235;}
	.st27{fill:#F9C284;}
	.st28{fill:#F59A26;}
	.st29{fill:#C36317;}
	.st30{fill:#F8AD5C;}
	.st31{fill:#392215;}
	.st32{fill:#76411C;}
	.st33{fill:#743E18;}
	.st34{fill:#281B12;}
	.st35{fill:#8D9F27;}
	.st36{fill:#D2DB53;}
	.st37{fill:#5D6424;}
	.st38{fill:#2B9992;}
	.st39{fill:#77C6C4;}
	.st40{fill:#339C95;}
	.st41{fill:#1B675F;}
	.st42{fill:#C4B991;}
	.st43{fill:#3DA7A1;}
	.st44{fill:#41AAA4;}
	.st45{fill:#37988F;}
	.st46{fill:#70C4C3;}
	.st47{fill:#F9B050;}
	.st48{fill:#FABE77;}
	.st49{fill:#E2780B;}
	.st50{fill:#CE6716;}
	.st51{fill:none;stroke:#7F4014;stroke-width:4;}
	.st52{fill:none;stroke:#7F4014;stroke-width:3.1902;}
	.st53{fill:#92D0D2;}
	.st54{fill:#EA5345;}
	.st55{fill:#BB1E18;}
	.st56{opacity:0.6;fill:url(#);}
	.st57{fill:url(#);}
	.st58{fill:#492A17;}
	.st59{fill:#95A824;}
	.st60{opacity:0.7;fill:#E3DEC2;}
	.st61{fill:#E62E25;}
	.st62{fill:#E01D1C;}
	.st63{fill:#E0770D;}
	.st64{fill:#C86716;}
	.st65{fill:#FBC88D;}
	.st66{fill:#F1B261;}
	.st67{fill:#FFFFFF;}
	.st68{fill:none;stroke:#F39100;}
	.st69{fill:#5C3018;}
	.st70{fill:#26817A;}
	.st71{fill:#F7B695;}
	.st72{fill:none;stroke:#EE7370;stroke-width:2.0151;stroke-linecap:round;stroke-miterlimit:10;}
	.st73{fill:#CC2418;}
	.st74{fill:#DF8562;}
	.st75{fill:none;stroke:#593218;stroke-width:4.3735;stroke-linecap:round;stroke-miterlimit:10;}
	.st76{fill:#FAFAFB;}
	.st77{fill:#382B25;}
	.st78{fill:#5E463E;}
	.st79{fill:#DC750F;}
	.st80{fill:none;stroke:#7BC8C5;stroke-width:2.0151;stroke-linecap:round;stroke-miterlimit:10;}
	.st81{fill:#339993;}
	.st82{fill:#BB674B;}
	.st83{fill:none;stroke:#593218;stroke-width:1.9011;stroke-linecap:round;stroke-miterlimit:10;}
	.st84{fill:#341F15;}
	.st85{fill:none;stroke:#593218;stroke-width:1.1468;stroke-linecap:round;stroke-miterlimit:10;}
	.st86{fill:#398482;}
	.st87{fill:#45B8B4;}
	.st88{fill:#41ABA8;}
	.st89{fill:#3EA29F;}
	.st90{fill:#64605F;}
	.st91{opacity:0.2;fill:#4FB8B5;}
	.st92{opacity:0.16;fill:#1C481B;}
	.st93{fill:#495508;}
	.st94{fill:#3E4B04;}
	.st95{fill:#5E6C0D;}
	.st96{fill:#809114;}
	.st97{fill:#41ACA9;}
	.st98{fill:#3FA6A2;}
	.st99{fill:#58660C;}
	.st100{fill:#515F0A;}
	.st101{fill:#62710E;}
	.st102{fill:#54620B;}
	.st103{fill:#6E7D11;}
	.st104{fill:#22722E;}
	.st105{fill:#175823;}
	.st106{fill:#257E34;}
	.st107{fill:#278939;}
	.st108{fill:#E1DBC9;}
	.st109{fill:#C3BFB9;}
	.st110{fill:#F4EEE6;}
	.st111{fill:#E9E5E3;}
	.st112{fill:#C2D131;}
	.st113{fill:#97A918;}
	.st114{fill:#EDE1CD;}
	.st115{fill:#D98300;}
	.st116{fill:#C47800;}
	.st117{fill:#371A03;}
	.st118{fill:#834428;}
	.st119{fill:#934C2E;}
	.st120{fill:#814327;}
	.st121{fill:none;stroke:#4FB8B5;stroke-width:8.9839;stroke-linecap:round;}
	.st122{fill:#3B3734;}
	.st123{fill:#299137;}
	.st124{fill:#3F1F08;}
	.st125{opacity:0.87;fill:url(#);}
	.st126{fill:#2B948E;}
	.st127{fill:#2B7673;}
	.st128{fill:#358C89;}
	.st129{fill:#307F7C;}
	.st130{fill:#3FA7A4;}
	.st131{fill:#3B9B98;}
	.st132{fill:#D58100;}
	.st133{fill:#F6A544;}
	.st134{fill:#48250E;}
	.st135{fill:#F9FAFB;}
	.st136{fill:#B72C0A;}
	.st137{fill:#368D8A;}
	.st138{fill:#C9D644;}
	.st139{fill:#3B4703;}
	.st140{fill:#6F7F11;}
	.st141{fill:#616F0E;}
	.st142{fill:#53600B;}
	.st143{fill:#773E23;}
	.st144{fill:#BA2C0A;}
	.st145{fill:none;stroke:#7BC8C5;stroke-width:1.3449;stroke-linecap:round;stroke-miterlimit:10;}
	.st146{fill:none;stroke:#593218;stroke-width:2.919;stroke-linecap:round;stroke-miterlimit:10;}
	.st147{fill:#45230C;}
	.st148{fill:#2C1300;}
	.st149{fill:#EFE8C9;}
	.st150{fill:#308983;}
	.st151{fill:#69371D;}
	.st152{fill:#942503;}
	.st153{fill:#DD8500;}
	.st154{fill:#D14D96;}
	.st155{fill:#A41F69;}
	.st156{fill:#A79A62;}
	.st157{fill:#781A4A;}
	.st158{fill:#CC3A8D;}
	.st159{fill:#E67B07;}
	.st160{fill:#D46814;}
	.st161{fill:#E2760B;}
	.st162{fill:#E9E4C3;}
	.st163{fill:#E5DEBA;}
	.st164{fill:#F8EEDF;}
	.st165{fill:#CBD342;}
	.st166{fill:#439997;}
	.st167{fill:#CA7B00;}
	.st168{fill:#C02D0C;}
	.st169{fill:#8E9E1C;}
	.st170{fill:#206C2C;}
	.st171{fill:#1B5F26;}
	.st172{fill:#A1B21E;}
	.st173{fill:#8FA117;}
	.st174{fill:#DBDF5A;}
	.st175{fill:#328380;}
	.st176{fill:#1E6729;}
	.st177{fill:#257D34;}
	.st178{fill:#47240D;}
	.st179{fill:none;stroke:#C07842;stroke-width:2.3031;stroke-linecap:round;stroke-miterlimit:10;}
	.st180{fill:#C5D32D;}
	.st181{fill:#32712F;}
	.st182{fill:#2E6A2C;}
	.st183{fill:#88C05F;}
	.st184{fill:#278532;}
	.st185{fill:#9CAF21;}
	.st186{fill:#4EA535;}
	.st187{fill:#225221;}
	.st188{fill:#301500;}
	.st189{fill:#68361D;}
	.st190{fill:none;stroke:#C07842;stroke-width:1.9011;stroke-linecap:round;stroke-miterlimit:10;}
	.st191{fill:#2C662A;}
	.st192{fill:#CFCDC6;}
	.st193{fill:#E3E0D8;}
	.st194{fill:#A25935;}
	.st195{fill:none;stroke:#683C11;stroke-width:1.9011;stroke-linecap:round;stroke-miterlimit:10;}
	.st196{fill:#319D97;}
	.st197{fill:#814828;}
	.st198{fill:#1A4519;}
	.st199{fill:#265A24;}
	.st200{fill:#A9B632;}
	.st201{fill:none;stroke:#FFFBF2;stroke-width:2;stroke-linecap:round;stroke-miterlimit:10;}
	.st202{fill:#7B8B1A;}
	.st203{fill:#AD5D52;}
	.st204{fill:#BC6459;}
	.st205{fill:none;stroke:#432918;stroke-width:1.729;stroke-linecap:round;stroke-miterlimit:10;}
	.st206{fill:#F0867E;}
	.st207{fill:#A2574D;}
	.st208{fill:#CBBBA0;}
	.st209{fill:#F2E0D7;}
	.st210{fill:none;stroke:#A48A7B;stroke-linecap:round;stroke-miterlimit:10;}
	.st211{fill:none;stroke:#432918;stroke-width:2;stroke-linecap:round;stroke-miterlimit:10;}
	.st212{fill:#499932;}
	.st213{fill:#81921B;}
	.st214{opacity:0.11;fill:#175823;}
	.st215{fill:#337976;}
	.st216{fill:#A12806;}
	.st217{fill:#D0300E;}
</style>
<rect id="XMLID_1591_" x="0.1" y="-179.8" class="st0" width="1925.1" height="1442.3"/>
<rect id="XMLID_1489_" x="0.1" y="-179.8" class="st0" width="1920" height="1440"/>
<ellipse id="XMLID_1413_" transform="matrix(9.482528e-02 -0.9955 0.9955 9.482528e-02 14.3706 351.8328)" class="st91" cx="200.7" cy="168" rx="84" ry="84"/>
<g id="XMLID_1307_">
	<polygon id="XMLID_10_" class="st93" points="191.7,491.4 131,335.7 60.4,291.6 31.7,136.9 0.1,119.2 0.1,495.2 	"/>
	<polygon id="XMLID_780_" class="st94" points="60.4,291.6 88.3,328.7 110,502.2 36,456.7 	"/>
	<polygon id="XMLID_509_" class="st95" points="88.3,328.7 109.5,498.2 196.2,502.2 131,335.7 	"/>
	<polygon id="XMLID_511_" class="st96" points="60.4,291.6 88.3,328.7 131,335.7 	"/>
	<polygon id="XMLID_786_" class="st95" points="31.7,136.9 0.1,140.7 0.1,119.2 	"/>
</g>
<g id="XMLID_47_">
	<path id="XMLID_1903_" class="st93" d="M105.4,477.8L283.7,74.3H357l73.3,123.3l111-11.6l49.5,151.6l294.4,80.4l211.3,70.1
		l-24.8,94c0,0-684.1,4.7-891.1-45.5L105.4,477.8z"/>
	<polygon id="XMLID_376_" class="st139" points="320.4,142.1 263.9,517.1 105.4,477.8 283.7,74.3 	"/>
	<polygon id="XMLID_497_" class="st96" points="541.3,186.1 430.3,197.6 557.5,237.2 	"/>
	<polygon id="XMLID_498_" class="st139" points="430.3,197.6 590.7,337.6 557.5,237.2 	"/>
	<polygon id="XMLID_499_" class="st95" points="357,74.3 283.7,74.3 320.4,142.1 	"/>
	<g id="XMLID_50_">
		<path id="XMLID_49_" class="st139" d="M406.1,202.2c0,1.5-7,2.6-15.6,2.6c-8.6,0-15.6-1.2-15.6-2.6c0-1.5,7-2.6,15.6-2.6
			C399.1,199.6,406.1,200.8,406.1,202.2z"/>
		<ellipse id="XMLID_51_" class="st139" cx="374" cy="210.7" rx="15.6" ry="2.6"/>
		<ellipse id="XMLID_52_" class="st139" cx="408.8" cy="210.7" rx="15.6" ry="2.6"/>
		<ellipse id="XMLID_53_" class="st139" cx="391.4" cy="219.9" rx="15.6" ry="2.6"/>
		<ellipse id="XMLID_55_" class="st139" cx="358.4" cy="218.9" rx="15.6" ry="2.6"/>
		<ellipse id="XMLID_56_" class="st139" cx="426.1" cy="219.9" rx="15.6" ry="2.6"/>
		<path id="XMLID_57_" class="st139" d="M425.1,228.7c0,1.5-7,2.6-15.6,2.6s-15.6-1.2-15.6-2.6c0-1.5,7-2.6,15.6-2.6
			S425.1,227.3,425.1,228.7z"/>
		<path id="XMLID_276_" class="st139" d="M389.7,228.7c0,1.5-7,2.6-15.6,2.6s-15.6-1.2-15.6-2.6c0-1.5,7-2.6,15.6-2.6
			S389.7,227.3,389.7,228.7z"/>
		<ellipse id="XMLID_279_" class="st139" cx="337.8" cy="227.7" rx="15.6" ry="2.6"/>
		<ellipse id="XMLID_349_" class="st139" cx="354.8" cy="235.4" rx="15.6" ry="2.6"/>
		<ellipse id="XMLID_351_" class="st139" cx="391.4" cy="235.4" rx="15.6" ry="2.6"/>
		<ellipse id="XMLID_416_" class="st139" cx="370.4" cy="243.8" rx="15.6" ry="2.6"/>
		<ellipse id="XMLID_479_" class="st139" cx="405.3" cy="243.8" rx="15.6" ry="2.6"/>
		<ellipse id="XMLID_480_" class="st139" cx="386.1" cy="253" rx="15.6" ry="2.6"/>
	</g>
	<g id="XMLID_482_">
		<ellipse id="XMLID_512_" class="st139" cx="581.3" cy="416" rx="27.2" ry="4.6"/>
		<ellipse id="XMLID_510_" class="st139" cx="552.7" cy="430.6" rx="27.2" ry="4.6"/>
		<ellipse id="XMLID_508_" class="st139" cx="613.2" cy="430.6" rx="27.2" ry="4.6"/>
		<ellipse id="XMLID_507_" class="st139" cx="582.9" cy="446.7" rx="27.2" ry="4.6"/>
		<ellipse id="XMLID_506_" class="st139" cx="525.5" cy="444.9" rx="27.2" ry="4.6"/>
		<ellipse id="XMLID_504_" class="st139" cx="643.2" cy="446.7" rx="27.2" ry="4.6"/>
		<path id="XMLID_502_" class="st139" d="M641.5,462c0,2.5-12.2,4.6-27.2,4.6s-27.2-2.1-27.2-4.6c0-2.5,12.2-4.6,27.2-4.6
			S641.5,459.5,641.5,462z"/>
		<path id="XMLID_492_" class="st139" d="M579.9,462c0,2.5-12.2,4.6-27.2,4.6c-15,0-27.2-2.1-27.2-4.6c0-2.5,12.2-4.6,27.2-4.6
			C567.7,457.4,579.9,459.5,579.9,462z"/>
		<path id="XMLID_491_" class="st139" d="M516.9,460.3c0,2.5-12.2,4.6-27.2,4.6c-15,0-27.2-2.1-27.2-4.6s12.2-4.6,27.2-4.6
			C504.7,455.7,516.9,457.8,516.9,460.3z"/>
		<path id="XMLID_490_" class="st139" d="M546.4,473.6c0,2.5-12.2,4.6-27.2,4.6c-15,0-27.2-2.1-27.2-4.6c0-2.5,12.2-4.6,27.2-4.6
			C534.3,469,546.4,471,546.4,473.6z"/>
		<path id="XMLID_489_" class="st139" d="M610.1,473.6c0,2.5-12.2,4.6-27.2,4.6c-15,0-27.2-2.1-27.2-4.6c0-2.5,12.2-4.6,27.2-4.6
			C598,469,610.1,471,610.1,473.6z"/>
		<path id="XMLID_487_" class="st139" d="M573.6,488.3c0,2.5-12.2,4.6-27.2,4.6s-27.2-2.1-27.2-4.6s12.2-4.6,27.2-4.6
			S573.6,485.8,573.6,488.3z"/>
		<path id="XMLID_485_" class="st139" d="M634.3,488.3c0,2.5-12.2,4.6-27.2,4.6c-15,0-27.2-2.1-27.2-4.6s12.2-4.6,27.2-4.6
			C622.1,483.7,634.3,485.8,634.3,488.3z"/>
		<path id="XMLID_484_" class="st139" d="M600.8,504.2c0,2.5-12.2,4.6-27.2,4.6c-15,0-27.2-2.1-27.2-4.6c0-2.5,12.2-4.6,27.2-4.6
			C588.7,499.6,600.8,501.6,600.8,504.2z"/>
	</g>
</g>
<g id="XMLID_48_">
	<polygon id="XMLID_1904_" class="st140" points="1253.4,397 1366.9,263.3 1532.8,226.3 1719,-94.1 1920.1,-179.8 1920.1,611.8 
		1253.4,585.7 	"/>
	<polygon id="XMLID_274_" class="st95" points="1601.9,274 1650.6,572.8 1208,564.8 1366.9,263.3 	"/>
	<polygon id="XMLID_311_" class="st96" points="1366.9,263.3 1601.9,274 1532.8,226.3 	"/>
	<polygon id="XMLID_313_" class="st141" points="1719,-94.1 1785.7,485.2 1921.6,97.9 1920.1,-113.4 	"/>
</g>
<g id="XMLID_46_">
	<path id="XMLID_1900_" class="st95" d="M1029.1,573.6c-285-34.4-307.7-50.4-307.7-50.4l145-156.4l250.8-8.2l175.2-160.2h123.9
		l73.1,359.3C1489.5,557.8,1314.2,608,1029.1,573.6z"/>
	<polygon id="XMLID_500_" class="st142" points="866.4,366.9 946.8,417.2 994.6,547.5 744,497.3 	"/>
	<polygon id="XMLID_503_" class="st93" points="1345.7,248.7 1492.4,561.8 1416.4,198.5 	"/>
	<polygon id="XMLID_501_" class="st96" points="1292.5,198.5 1345.7,248.7 1416.4,198.5 	"/>
	<polygon id="XMLID_505_" class="st96" points="866.4,366.9 946.8,417.2 1117.2,358.7 	"/>
</g>
<path id="XMLID_309_" class="st87" d="M571.1,524.1c-9.6-0.1-19.1-0.1-28.5-0.1l0,0c-237-3.4-454.1-31.8-542.5-92v141.8v38.7v647.7
	h1920V573.8C1920.1,573.8,1021,527,571.1,524.1z"/>
<g id="XMLID_2226_">
	<ellipse id="XMLID_275_" class="st97" cx="444.8" cy="592.3" rx="90.6" ry="2.3"/>
	<ellipse id="XMLID_2275_" class="st97" cx="382.2" cy="582.5" rx="90.6" ry="2.3"/>
	<ellipse id="XMLID_2283_" class="st97" cx="281.2" cy="568.6" rx="90.6" ry="2.3"/>
	<ellipse id="XMLID_2284_" class="st97" cx="349" cy="558.4" rx="90.6" ry="2.3"/>
	<ellipse id="XMLID_2282_" class="st97" cx="472.8" cy="573.3" rx="90.6" ry="2.3"/>
</g>
<g id="XMLID_2286_">
	<ellipse id="XMLID_2338_" class="st97" cx="1489.4" cy="591.2" rx="50.7" ry="1.8"/>
	<path id="XMLID_2337_" class="st97" d="M1505.1,583.6c0,1-22.7,1.8-50.7,1.8s-50.7-0.8-50.7-1.8c0-1,22.7-1.8,50.7-1.8
		S1505.1,582.6,1505.1,583.6z"/>
	<path id="XMLID_2336_" class="st97" d="M1448.6,572.8c0,1-22.7,1.8-50.7,1.8c-28,0-50.7-0.8-50.7-1.8c0-1,22.7-1.8,50.7-1.8
		C1425.9,571,1448.6,571.8,1448.6,572.8z"/>
	<ellipse id="XMLID_2335_" class="st97" cx="1435.8" cy="564.8" rx="50.7" ry="1.8"/>
	<ellipse id="XMLID_2334_" class="st97" cx="1505.1" cy="576.5" rx="50.7" ry="1.8"/>
</g>
<g id="XMLID_2339_">
	<ellipse id="XMLID_2346_" class="st97" cx="1173.2" cy="1022.6" rx="95.9" ry="3.4"/>
	<ellipse id="XMLID_2344_" class="st97" cx="1106.9" cy="1008.1" rx="95.9" ry="3.4"/>
	<ellipse id="XMLID_2342_" class="st97" cx="1000" cy="987.8" rx="95.9" ry="3.4"/>
	<ellipse id="XMLID_2341_" class="st97" cx="1071.7" cy="972.7" rx="95.9" ry="3.4"/>
	<path id="XMLID_2340_" class="st97" d="M1298.7,994.7c0,1.9-42.9,3.4-95.9,3.4s-95.9-1.5-95.9-3.4c0-1.9,42.9-3.4,95.9-3.4
		S1298.7,992.8,1298.7,994.7z"/>
</g>
<g id="XMLID_352_">
	<polygon id="XMLID_347_" class="st98" points="314.9,933.4 254.9,1073.5 191.7,1136.5 0.1,1229.2 0.1,1186.3 	"/>
	<path id="XMLID_791_" class="st95" d="M323.7,883c0.2,37.6-17.8,110.1-107.6,170.6C168,1085.9,55.8,1170,0.1,1186.3V968.5
		L323.7,883z"/>
	<path id="XMLID_790_" class="st5" d="M0.1,1037.7c0,0,339.6-66.1,323-164.1c-16.6-98-323-145.3-323-145.3V1037.7z"/>
	<ellipse id="XMLID_833_" class="st112" cx="53.5" cy="961.7" rx="27" ry="8"/>
	<ellipse id="XMLID_835_" class="st112" cx="4.9" cy="988.3" rx="27" ry="8"/>
	<ellipse id="XMLID_953_" class="st112" cx="0.1" cy="937.2" rx="27" ry="8"/>
	<ellipse id="XMLID_1450_" class="st112" cx="72.1" cy="996.3" rx="27" ry="8"/>
	<ellipse id="XMLID_1451_" class="st112" cx="126.1" cy="967" rx="27" ry="8"/>
	<ellipse id="XMLID_1496_" class="st112" cx="88.1" cy="929.2" rx="27" ry="8"/>
	<ellipse id="XMLID_1497_" class="st112" cx="39.5" cy="897.9" rx="27" ry="8"/>
	<g id="XMLID_2123_">
		<g id="XMLID_2167_">
			<path id="XMLID_2169_" class="st99" d="M21.5,1056.7c-6,5.1-13.3,6.4-16.4,2.8c-3.1-3.6-0.8-10.7,5.2-15.8s21.6-7.2,21.6-7.2
				S27.4,1051.6,21.5,1056.7z"/>
			<path id="XMLID_2168_" class="st99" d="M42.2,1058.3c5.1,6,12.2,8.3,15.8,5.2c3.6-3.1,2.4-10.4-2.8-16.4S35,1036.8,35,1036.8
				S37.1,1052.4,42.2,1058.3z"/>
		</g>
		<g id="XMLID_2164_">
			<path id="XMLID_2166_" class="st99" d="M21.5,1085.1c-6,5.1-13.3,6.4-16.4,2.8c-3.1-3.6-0.8-10.7,5.2-15.8
				c6-5.1,21.6-7.2,21.6-7.2S27.4,1080,21.5,1085.1z"/>
			<path id="XMLID_2165_" class="st99" d="M42.2,1086.7c5.1,6,12.2,8.3,15.8,5.2c3.6-3.1,2.4-10.4-2.8-16.4S35,1065.1,35,1065.1
				S37.1,1080.7,42.2,1086.7z"/>
		</g>
	</g>
</g>
<g id="XMLID_834_">
	<polygon id="XMLID_787_" class="st98" points="4.9,535.3 12.7,558.8 35.7,569 52.2,582.9 89.7,576.6 106.2,541.9 	"/>
	<path id="XMLID_789_" class="st5" d="M54.5,512.2c51.9,14.9,95.7,45.8-26.2,33.2C-24,540.1,21.7,502.8,54.5,512.2z"/>
	<g id="XMLID_797_">
		<path id="XMLID_792_" class="st112" d="M82.5,544.2c0,0.6-2.4,1.1-5.4,1.1c-3,0-5.4-0.5-5.4-1.1c0-0.6,2.4-1.1,5.4-1.1
			C80.1,543.1,82.5,543.6,82.5,544.2z"/>
		<path id="XMLID_799_" class="st112" d="M77.1,540.7c0,0.6-2.4,1.1-5.4,1.1c-3,0-5.4-0.5-5.4-1.1s2.4-1.1,5.4-1.1
			C74.7,539.6,77.1,540.1,77.1,540.7z"/>
		<path id="XMLID_802_" class="st112" d="M89.4,540.7c0,0.6-2.4,1.1-5.4,1.1c-3,0-5.4-0.5-5.4-1.1s2.4-1.1,5.4-1.1
			C87,539.6,89.4,540.1,89.4,540.7z"/>
		<ellipse id="XMLID_804_" class="st112" cx="78.1" cy="537.2" rx="5.4" ry="1.1"/>
		<path id="XMLID_805_" class="st112" d="M71.1,536.9c0,0.6-2.4,1.1-5.4,1.1c-3,0-5.4-0.5-5.4-1.1s2.4-1.1,5.4-1.1
			C68.7,535.8,71.1,536.3,71.1,536.9z"/>
		<path id="XMLID_807_" class="st112" d="M78.1,533.7c0,0.6-2.4,1.1-5.4,1.1c-3,0-5.4-0.5-5.4-1.1c0-0.6,2.4-1.1,5.4-1.1
			C75.7,532.6,78.1,533.1,78.1,533.7z"/>
		<ellipse id="XMLID_809_" class="st112" cx="91.1" cy="537.2" rx="5.4" ry="1.1"/>
		<path id="XMLID_811_" class="st112" d="M90.2,533.7c0,0.6-2.4,1.1-5.4,1.1c-3,0-5.4-0.5-5.4-1.1c0-0.6,2.4-1.1,5.4-1.1
			C87.8,532.6,90.2,533.1,90.2,533.7z"/>
		<path id="XMLID_832_" class="st112" d="M84.1,531c0,0.6-2.4,1.1-5.4,1.1s-5.4-0.5-5.4-1.1s2.4-1.1,5.4-1.1S84.1,530.4,84.1,531z"
			/>
	</g>
</g>
<g id="XMLID_2244_">
	<polygon id="XMLID_2264_" class="st98" points="4.3,471.4 8.1,480.6 23.4,486.3 38.5,491.4 57.6,486.8 63.1,475.2 	"/>
	<path id="XMLID_2263_" class="st96" d="M33.1,458c30.1,8.7,55.6,26.6-15.2,19.3C-12.5,474.2,14.1,452.5,33.1,458z"/>
	<g id="XMLID_2245_">
		<ellipse id="XMLID_2262_" class="st103" cx="46.2" cy="476.5" rx="3.1" ry="0.6"/>
		<ellipse id="XMLID_2261_" class="st103" cx="43.1" cy="474.5" rx="3.1" ry="0.6"/>
		<ellipse id="XMLID_2256_" class="st103" cx="50.3" cy="474.5" rx="3.1" ry="0.6"/>
		<ellipse id="XMLID_2255_" class="st103" cx="46.8" cy="472.5" rx="3.1" ry="0.6"/>
		<path id="XMLID_2254_" class="st103" d="M42.8,472.3c0,0.4-1.4,0.6-3.1,0.6c-1.7,0-3.1-0.3-3.1-0.6s1.4-0.6,3.1-0.6
			C41.4,471.7,42.8,471.9,42.8,472.3z"/>
		<ellipse id="XMLID_2253_" class="st103" cx="43.7" cy="470.4" rx="3.1" ry="0.6"/>
		<ellipse id="XMLID_2252_" class="st103" cx="54.4" cy="472.5" rx="3.1" ry="0.6"/>
		<ellipse id="XMLID_2251_" class="st103" cx="50.7" cy="470.4" rx="3.1" ry="0.6"/>
		<ellipse id="XMLID_2246_" class="st103" cx="47.2" cy="468.9" rx="3.1" ry="0.6"/>
	</g>
</g>
<g id="XMLID_1633_">
	<ellipse id="XMLID_2227_" class="st98" cx="422.7" cy="1057" rx="51.2" ry="20"/>
	<ellipse id="XMLID_2228_" class="st98" cx="348.2" cy="1050.8" rx="51.2" ry="20"/>
	<g id="XMLID_1523_">
		<path id="XMLID_1517_" class="st104" d="M399.6,1077.1c-1-4-4.7-8.4-6.5-10.4c-17,2.3-30.2,12-29.9,22.9
			c0.6,11.9,20.3,20.8,43.6,20c23.1-0.8,37.7-11.3,33-23.3c-4.2-11.1-20.6-19.6-37.9-20C399.5,1070.4,399.6,1077.1,399.6,1077.1z"/>
	</g>
	<g id="XMLID_1612_">
		<path id="XMLID_1614_" class="st104" d="M316,1020.9c-1-4-4.7-8.4-6.5-10.4c-17,2.3-30.2,12-29.9,22.9c0.6,11.9,20.3,20.8,43.6,20
			c23.1-0.8,37.7-11.3,33-23.3c-4.2-11.1-20.6-19.6-37.9-20C315.9,1014.2,316,1020.9,316,1020.9z"/>
		<path id="XMLID_1613_" class="st105" d="M321.7,1033.9c0,0.6-1.6,1.2-3.5,1.2c-1.9,0-3.5-0.5-3.5-1.2c0-0.6,1.6-1.2,3.5-1.2
			C320.2,1032.7,321.7,1033.2,321.7,1033.9z"/>
	</g>
	<g id="XMLID_1544_">
		<path id="XMLID_1521_" class="st106" d="M441.3,1043c7.8,0,15.9-1.8,19.4-2.7c-6.8-10.9-26-19.3-45.4-19.4
			c-21.1-0.1-37.7,9.5-37,21.5c0.6,12,21.6,21.9,46.9,22.3c23.3,0.3,39.3-7.9,37.8-18.7C454.6,1043.9,441.3,1043,441.3,1043z"/>
		<ellipse id="XMLID_1509_" class="st104" cx="422.7" cy="1042.8" rx="4.3" ry="1.2"/>
	</g>
	<g id="XMLID_1571_">
		<path id="XMLID_1520_" class="st105" d="M343.8,1045.1c-8.1,0.9-16.9,3.6-20.8,4.9c5.4,10,27.4,16.2,51,14
			c25.1-2.4,39.4-13.9,32.9-25.7c-5.9-11.7-27.2-19-48.5-16.4c-20.1,2.4-35.8,12.3-36.5,22.8
			C330.2,1045.8,343.8,1045.1,343.8,1045.1z"/>
		<ellipse id="XMLID_1512_" class="st107" cx="368.5" cy="1041.6" rx="4.7" ry="1.2"/>
	</g>
	<g id="XMLID_1572_">
		<path id="XMLID_1519_" class="st107" d="M314.9,1096.8c-5.6,3-9.3,7.5-10.8,9.6c20.4,6.3,48.2,5.4,63.1-2.7
			c15.1-8.8,9.4-22.7-10.5-30.9c-18.8-8.1-44.9-7.5-60.5,1.3c-15.4,8.1-16.3,20.3-1.3,28.5C304.1,1101.2,314.9,1096.8,314.9,1096.8z
			"/>
	</g>
	<g id="XMLID_1588_">
		<path id="XMLID_1586_" class="st108" d="M369.4,1044.1c19.1,0.1,28.7-10.9,27.5-11C384.3,1031.8,359.9,1044.1,369.4,1044.1z"/>
		<path id="XMLID_1589_" class="st108" d="M369.8,1044.1c-19.1,0.1-28.7-10.9-27.5-11C355,1031.8,379.4,1044.1,369.8,1044.1z"/>
		<g id="XMLID_1585_">
			<path id="XMLID_1584_" class="st109" d="M368,1036.5c-8.7-0.5-17.1-9.4-17.3-19.1C350.7,1017.4,374.2,1036.8,368,1036.5z"/>
			<path id="XMLID_1583_" class="st109" d="M369.9,1036.1c8.7-0.5,16.8-10.1,17-19.8C386.9,1016.3,363.6,1036.4,369.9,1036.1z"/>
			<path id="XMLID_1582_" class="st108" d="M365.1,1036.2c-5.7,0.4-6.4-22.8-6-24.2C359.5,1010.5,374.4,1035.6,365.1,1036.2z"/>
			<path id="XMLID_1581_" class="st108" d="M366.7,1035.1c5.3,2,12.6-20,12.6-21.5C379.4,1012.1,358,1031.9,366.7,1035.1z"/>
			<path id="XMLID_1580_" class="st109" d="M371.1,1035c-5.7,1.7-7.5-20.9-6.4-21.3S378.1,1032.9,371.1,1035z"/>
			<path id="XMLID_1587_" class="st109" d="M367.2,1035c5.7,1.7,7.5-20.9,6.4-21.3S360.3,1032.9,367.2,1035z"/>
		</g>
		<path id="XMLID_1578_" class="st110" d="M368.4,1040.2c-7.7,0-1.5-28.7,0-28.8S377.8,1040.2,368.4,1040.2z"/>
		<path id="XMLID_1574_" class="st111" d="M368.4,1042.9c-6.9,2.6-16.3-25.9-16.3-27.9C352.1,1013.1,379.8,1038.7,368.4,1042.9z"/>
		<path id="XMLID_1579_" class="st111" d="M367.8,1042.9c6.9,2.6,16.3-25.9,16.3-27.9C384.2,1013.1,356.5,1038.7,367.8,1042.9z"/>
		<path id="XMLID_1576_" class="st110" d="M369.4,1044.1c-11.3-0.6-22.1-12.1-22.3-24.7C347.1,1019.4,377.5,1044.5,369.4,1044.1z"/>
		<path id="XMLID_1577_" class="st110" d="M369.1,1044.1c11.3-0.6,21.7-13,22-25.6C391.1,1018.5,361,1044.5,369.1,1044.1z"/>
	</g>
	<g id="XMLID_1592_">
		<path id="XMLID_1611_" class="st108" d="M374.4,1081.3c19.1,0.1,28.7-10.9,27.5-11C389.3,1069,364.9,1081.3,374.4,1081.3z"/>
		<path id="XMLID_1610_" class="st108" d="M374.8,1081.3c-19.1,0.1-28.7-10.9-27.5-11C360,1069,384.4,1081.3,374.8,1081.3z"/>
		<g id="XMLID_1603_">
			<path id="XMLID_1609_" class="st109" d="M373,1073.7c-8.7-0.5-17.1-9.4-17.3-19.1C355.7,1054.6,379.2,1074.1,373,1073.7z"/>
			<path id="XMLID_1608_" class="st109" d="M374.9,1073.3c8.7-0.5,16.8-10.1,17-19.8C391.9,1053.5,368.6,1073.6,374.9,1073.3z"/>
			<path id="XMLID_1607_" class="st108" d="M370.1,1073.4c-5.7,0.4-6.4-22.8-6-24.2C364.5,1047.7,379.4,1072.8,370.1,1073.4z"/>
			<path id="XMLID_1606_" class="st108" d="M371.7,1072.4c5.3,2,12.6-20,12.6-21.5S363,1069.1,371.7,1072.4z"/>
			<path id="XMLID_1605_" class="st109" d="M376.1,1072.2c-5.7,1.7-7.5-20.9-6.4-21.3C370.7,1050.5,383.1,1070.2,376.1,1072.2z"/>
			<path id="XMLID_1604_" class="st109" d="M372.2,1072.2c5.7,1.7,7.5-20.9,6.4-21.3C377.6,1050.5,365.2,1070.2,372.2,1072.2z"/>
		</g>
		<path id="XMLID_1602_" class="st110" d="M373.4,1077.4c-7.7,0-1.5-28.7,0-28.8C374.9,1048.5,382.8,1077.4,373.4,1077.4z"/>
		<path id="XMLID_1601_" class="st111" d="M373.4,1080.2c-6.9,2.6-16.3-25.9-16.3-27.8C357.1,1050.4,384.8,1075.9,373.4,1080.2z"/>
		<path id="XMLID_1600_" class="st111" d="M372.8,1080.2c6.9,2.6,16.3-25.9,16.3-27.8C389.2,1050.4,361.5,1075.9,372.8,1080.2z"/>
		<path id="XMLID_1599_" class="st110" d="M374.4,1081.3c-11.3-0.6-22.1-12.1-22.3-24.7C352.1,1056.6,382.5,1081.8,374.4,1081.3z"/>
		<path id="XMLID_1598_" class="st110" d="M374.1,1081.3c11.3-0.6,21.7-13,22-25.6C396.1,1055.8,366,1081.8,374.1,1081.3z"/>
	</g>
</g>
<g id="XMLID_1634_">
	<ellipse id="XMLID_2234_" class="st98" cx="74.4" cy="702" rx="31" ry="12.1"/>
	<path id="XMLID_2235_" class="st98" d="M26.3,678c0,2.1-4.4,3.8-9.8,3.8s-9.8-1.7-9.8-3.8c0-2.1,4.4-3.8,9.8-3.8
		S26.3,675.8,26.3,678z"/>
	<ellipse id="XMLID_2237_" class="st98" cx="25" cy="715.3" rx="20.2" ry="9.8"/>
	<ellipse id="XMLID_2238_" class="st98" cx="70" cy="720.9" rx="17.6" ry="9.8"/>
	<ellipse id="XMLID_2236_" class="st98" cx="27.2" cy="666.6" rx="6.6" ry="3"/>
	<g id="XMLID_1939_">
		<path id="XMLID_1941_" class="st104" d="M67.1,682.3c-0.4-1.6-1.9-3.4-2.6-4.2c-6.9,0.9-12.2,4.8-12,9.2c0.2,4.8,8.2,8.4,17.6,8.1
			c9.3-0.3,15.2-4.6,13.3-9.4c-1.7-4.5-8.3-7.9-15.3-8.1C67.1,679.6,67.1,682.3,67.1,682.3z"/>
		<path id="XMLID_1940_" class="st105" d="M69.4,687.6c0,0.3-0.6,0.5-1.4,0.5c-0.8,0-1.4-0.2-1.4-0.5s0.6-0.5,1.4-0.5
			C68.8,687.1,69.4,687.3,69.4,687.6z"/>
	</g>
	<g id="XMLID_1936_">
		<path id="XMLID_1938_" class="st106" d="M100.9,704.2c3.1,0,6.4-0.7,7.8-1.1c-2.7-4.4-10.5-7.8-18.3-7.8c-8.5,0-15.2,3.8-14.9,8.7
			c0.3,4.8,8.7,8.9,18.9,9c9.4,0.1,15.9-3.2,15.2-7.6C106.2,704.6,100.9,704.2,100.9,704.2z"/>
		<path id="XMLID_1937_" class="st104" d="M95.1,704.2c0,0.3-0.8,0.5-1.7,0.5s-1.7-0.2-1.7-0.5c0-0.3,0.8-0.5,1.7-0.5
			S95.1,703.9,95.1,704.2z"/>
	</g>
	<g id="XMLID_1950_">
		<path id="XMLID_1968_" class="st106" d="M22.8,675.7c1.6-0.3,3.3-0.9,4-1.2c-1.8-2.1-6-3.2-10.1-2.6c-4.4,0.6-7.6,3.2-7.1,5.7
			c0.5,2.5,5.2,3.9,10.5,3.2c4.9-0.7,8-2.9,7.3-5.1C25.6,675.5,22.8,675.7,22.8,675.7z"/>
		<path id="XMLID_1967_" class="st104" d="M19.8,676.1c0,0.1-0.4,0.3-0.8,0.4c-0.5,0.1-0.9,0-0.9-0.1c0-0.1,0.4-0.3,0.8-0.4
			C19.4,675.9,19.8,676,19.8,676.1z"/>
	</g>
	<g id="XMLID_1933_">
		<path id="XMLID_1935_" class="st105" d="M47,699.2c-3.3,0.4-6.8,1.4-8.4,2c2.2,4,11.1,6.5,20.6,5.6c10.1-1,15.9-5.6,13.3-10.4
			c-2.4-4.7-11-7.7-19.6-6.6c-8.1,1-14.4,5-14.7,9.2C41.5,699.5,47,699.2,47,699.2z"/>
		<path id="XMLID_1934_" class="st107" d="M58.9,697.8c0,0.3-0.8,0.5-1.9,0.5c-1,0-1.9-0.2-1.9-0.5c0-0.3,0.8-0.5,1.9-0.5
			C58,697.3,58.9,697.5,58.9,697.8z"/>
	</g>
	<g id="XMLID_1945_">
		<path id="XMLID_1949_" class="st105" d="M48.4,716.1c-2.5,0.3-5.3,1.1-6.6,1.5c1.7,3.2,8.6,5.1,16.1,4.4
			c7.9-0.8,12.4-4.4,10.4-8.1c-1.9-3.7-8.6-6-15.3-5.2c-6.3,0.8-11.3,3.9-11.5,7.2C44.1,716.3,48.4,716.1,48.4,716.1z"/>
		<ellipse id="XMLID_1946_" class="st107" cx="56.2" cy="715" rx="1.5" ry="0.4"/>
	</g>
	<g id="XMLID_1972_">
		<path id="XMLID_2006_" class="st105" d="M8.7,672.2c-1.5,0.2-3.1,0.7-3.8,0.9c1,1.8,5,2.9,9.3,2.5c4.6-0.4,7.2-2.5,6-4.7
			c-1.1-2.1-5-3.5-8.8-3c-3.7,0.4-6.5,2.2-6.6,4.2C6.3,672.3,8.7,672.2,8.7,672.2z"/>
		<path id="XMLID_1994_" class="st107" d="M14.1,671.5c0,0.1-0.4,0.2-0.8,0.2c-0.5,0-0.8-0.1-0.8-0.2c0-0.1,0.4-0.2,0.8-0.2
			C13.7,671.3,14.1,671.4,14.1,671.5z"/>
	</g>
	<g id="XMLID_1930_">
		<path id="XMLID_1932_" class="st107" d="M16.5,716.4c-2.3,1.2-3.8,3-4.4,3.9c8.2,2.6,19.5,2.2,25.5-1.1c6.1-3.6,3.8-9.2-4.2-12.5
			c-7.6-3.3-18.1-3-24.4,0.5c-6.2,3.3-6.6,8.2-0.5,11.5C12.1,718.2,16.5,716.4,16.5,716.4z"/>
		<path id="XMLID_1931_" class="st104" d="M24.3,713.2c0,0.4-0.7,0.7-1.5,0.7c-0.9,0-1.5-0.3-1.5-0.7s0.7-0.7,1.5-0.7
			C23.6,712.4,24.3,712.8,24.3,713.2z"/>
	</g>
	<g id="XMLID_2007_">
		<path id="XMLID_2009_" class="st107" d="M24.8,666.9c-0.7,0.4-1.1,0.9-1.3,1.2c2.4,0.8,5.8,0.6,7.6-0.3c1.8-1.1,1.1-2.7-1.3-3.7
			c-2.3-1-5.4-0.9-7.3,0.2c-1.8,1-2,2.4-0.2,3.4C23.5,667.4,24.8,666.9,24.8,666.9z"/>
		<path id="XMLID_2008_" class="st104" d="M27.2,665.9c0,0.1-0.2,0.2-0.5,0.2c-0.3,0-0.5-0.1-0.5-0.2s0.2-0.2,0.5-0.2
			C27,665.7,27.2,665.8,27.2,665.9z"/>
	</g>
	<g id="XMLID_1796_">
		<path id="XMLID_1929_" class="st108" d="M91.7,703.4c7.7,0,11.6-4.4,11.1-4.4C97.7,698.4,87.9,703.4,91.7,703.4z"/>
		<path id="XMLID_1928_" class="st108" d="M91.9,703.4c-7.7,0-11.6-4.4-11.1-4.4C85.9,698.4,95.8,703.4,91.9,703.4z"/>
		<g id="XMLID_1871_">
			<path id="XMLID_1927_" class="st109" d="M91.1,700.3c-3.5-0.2-6.9-3.8-7-7.7C84.2,692.6,93.7,700.5,91.1,700.3z"/>
			<path id="XMLID_1906_" class="st109" d="M91.9,700.2c3.5-0.2,6.8-4.1,6.9-8C98.8,692.2,89.4,700.3,91.9,700.2z"/>
			<path id="XMLID_1905_" class="st108" d="M90,700.2c-2.3,0.2-2.6-9.2-2.4-9.8C87.7,689.9,93.7,700,90,700.2z"/>
			<path id="XMLID_1901_" class="st108" d="M90.6,699.8c2.2,0.8,5.1-8.1,5.1-8.7C95.7,690.5,87.1,698.5,90.6,699.8z"/>
			<path id="XMLID_1873_" class="st109" d="M92.4,699.7c-2.3,0.7-3-8.4-2.6-8.6C90.2,691,95.2,698.9,92.4,699.7z"/>
			<path id="XMLID_1872_" class="st109" d="M90.8,699.7c2.3,0.7,3-8.4,2.6-8.6C93,691,88,698.9,90.8,699.7z"/>
		</g>
		<path id="XMLID_1866_" class="st110" d="M91.3,701.8c-3.1,0-0.6-11.6,0-11.6C91.9,690.2,95.1,701.8,91.3,701.8z"/>
		<path id="XMLID_1858_" class="st111" d="M91.3,702.9c-2.8,1-6.6-10.4-6.6-11.2S95.9,701.2,91.3,702.9z"/>
		<path id="XMLID_1820_" class="st111" d="M91.1,702.9c2.8,1,6.6-10.4,6.6-11.2S86.5,701.2,91.1,702.9z"/>
		<path id="XMLID_1815_" class="st110" d="M91.7,703.4c-4.6-0.2-8.9-4.9-9-10C82.7,693.5,95,703.6,91.7,703.4z"/>
		<path id="XMLID_1807_" class="st110" d="M91.6,703.4c4.6-0.2,8.8-5.2,8.9-10.3C100.5,693.1,88.3,703.6,91.6,703.4z"/>
	</g>
	<g id="XMLID_1632_">
		<path id="XMLID_1795_" class="st108" d="M19.6,708c7.7,0,11.6-4.4,11.1-4.4C25.6,703.1,15.7,708,19.6,708z"/>
		<path id="XMLID_1794_" class="st108" d="M19.8,708c-7.7,0-11.6-4.4-11.1-4.4C13.8,703.1,23.6,708,19.8,708z"/>
		<g id="XMLID_1776_">
			<path id="XMLID_1793_" class="st109" d="M19,705c-3.5-0.2-6.9-3.8-7-7.7C12.1,697.3,21.5,705.1,19,705z"/>
			<path id="XMLID_1792_" class="st109" d="M19.8,704.8c3.5-0.2,6.8-4.1,6.9-8C26.6,696.8,17.3,704.9,19.8,704.8z"/>
			<path id="XMLID_1791_" class="st108" d="M17.8,704.8c-2.3,0.2-2.6-9.2-2.4-9.8C15.6,694.5,21.6,704.6,17.8,704.8z"/>
			<path id="XMLID_1784_" class="st108" d="M18.5,704.4c2.2,0.8,5.1-8.1,5.1-8.7C23.6,695.1,15,703.1,18.5,704.4z"/>
			<path id="XMLID_1783_" class="st109" d="M20.3,704.4c-2.3,0.7-3-8.4-2.6-8.6C18.1,695.6,23.1,703.5,20.3,704.4z"/>
			<path id="XMLID_1777_" class="st109" d="M18.7,704.4c2.3,0.7,3-8.4,2.6-8.6C20.9,695.6,15.9,703.5,18.7,704.4z"/>
		</g>
		<path id="XMLID_1775_" class="st110" d="M19.2,706.5c-3.1,0-0.6-11.6,0-11.6C19.8,694.8,23,706.5,19.2,706.5z"/>
		<path id="XMLID_1774_" class="st111" d="M19.2,707.6c-2.8,1-6.6-10.4-6.6-11.2S23.8,705.9,19.2,707.6z"/>
		<path id="XMLID_1773_" class="st111" d="M19,707.6c2.8,1,6.6-10.4,6.6-11.2S14.4,705.9,19,707.6z"/>
		<path id="XMLID_1772_" class="st110" d="M19.6,708c-4.6-0.2-8.9-4.9-9-10C10.6,698.1,22.9,708.2,19.6,708z"/>
		<path id="XMLID_1754_" class="st110" d="M19.5,708c4.6-0.2,8.8-5.2,8.9-10.3C28.3,697.7,16.2,708.2,19.5,708z"/>
	</g>
	<g id="XMLID_1942_">
		<path id="XMLID_1944_" class="st104" d="M72.1,715.2c-0.4-1.6-1.9-3.4-2.6-4.2c-6.9,0.9-12.2,4.8-12,9.2c0.2,4.8,8.2,8.4,17.6,8.1
			c9.3-0.3,15.2-4.6,13.3-9.4c-1.7-4.5-8.3-7.9-15.3-8.1C72.1,712.4,72.1,715.2,72.1,715.2z"/>
		<path id="XMLID_1943_" class="st105" d="M74.4,720.4c0,0.3-0.6,0.5-1.4,0.5c-0.8,0-1.4-0.2-1.4-0.5s0.6-0.5,1.4-0.5
			C73.8,719.9,74.4,720.1,74.4,720.4z"/>
	</g>
</g>
<g id="XMLID_1969_">
	<g id="XMLID_58_">
		<path id="XMLID_683_" class="st7" d="M1901.3,151.5c-35.1-3.9-69.7,10.4-91.8,37.9c-3.1-2.5-6.3-5-9.4-7.5
			c24.7-30.7,63.4-46.7,102.6-42.3C1902.2,143.5,1901.8,147.5,1901.3,151.5z"/>
		<path id="XMLID_681_" class="st69" d="M1845.6,147.7c1,2.3,3.1,4,5.8,4.4c4.1,0.6,8-2.2,8.6-6.3c0.2-1,0.1-2-0.1-2.9
			C1855,144.1,1850.2,145.8,1845.6,147.7z"/>
		<path id="XMLID_680_" class="st7" d="M1881.7,281.4c-34.7-6.6-63.5-30.5-76.5-63.3c-3.7,1.5-7.5,3-11.2,4.4
			c14.5,36.7,46.7,63.3,85.5,70.7C1880.2,289.3,1880.9,285.4,1881.7,281.4z"/>
		<path id="XMLID_678_" class="st69" d="M1827.3,268.6c1.6-1.9,4.2-2.9,6.8-2.5c4.1,0.6,6.9,4.5,6.3,8.6c-0.2,1-0.5,2-1,2.8
			C1835.2,274.8,1831.2,271.8,1827.3,268.6z"/>
		<path id="XMLID_677_" class="st7" d="M1819.4,167.1c-18.7,2.9-23.9,7.8-23.9,7.8c-7.3,5.6-17,33.3-7.7,50.7c0.4,0.8,1,1.5,1.7,2.1
			c2.4,2.5,7.7,7,18.8,12.4l0,0c31,17.1,72.3,9.1,108.6-8.5c1.2-8.1,2.5-16.2,3.7-24.3C1891.2,179.8,1854,159.9,1819.4,167.1z"/>
		<line id="XMLID_676_" class="st145" x1="1844.6" y1="207.2" x2="1859.4" y2="209.4"/>
		<polygon id="XMLID_675_" class="st81" points="1815.7,190.1 1844.6,207.1 1812,214.8 		"/>
		<path id="XMLID_674_" class="st71" d="M1785.5,153.8c23.9,3.6,40.3,25.9,36.7,49.8c-3.6,23.9-25.9,40.3-49.8,36.7
			c-23.9-3.6-40.3-25.9-36.7-49.8C1739.4,166.6,1761.6,150.2,1785.5,153.8z"/>
		<g id="XMLID_671_">
			<path id="XMLID_673_" class="st11" d="M1749.4,191.7c0,0,6.7,3.6,9.7,45c0,0-12-3.4-14.6-16.1
				C1741.8,207.9,1745.3,195.9,1749.4,191.7z"/>
			<path id="XMLID_672_" class="st11" d="M1749.1,193.6c0,0,7.5-1.4,22.6-40.1c0,0-12.7-0.2-19,11.2
				C1746.4,176,1746.5,188.4,1749.1,193.6z"/>
		</g>
		<g id="XMLID_668_">
			<polygon id="XMLID_670_" class="st71" points="1785.6,157.3 1785.4,157.4 1785.1,157.3 1784.9,157.2 1784.7,157.1 1784.4,157.1 
				1784.2,156.9 1784.1,156.7 1783.9,156.6 1783.6,156.5 1783.5,156.3 1783.3,156.1 1783.2,155.9 1783,155.7 1782.8,155.6 
				1782.8,155.3 1782.7,155.1 1782.6,154.9 1782.5,154.6 1782.5,154.4 1782.3,154.2 1782.3,153.9 1782.3,153.7 1782.3,153.4 
				1782.3,153.2 1782.3,153 1782.4,152.7 1782.5,152.5 1782.6,152.3 1782.7,152 1782.7,151.8 1782.9,151.6 1783,151.4 1783.2,151.2 
				1783.2,151 1783.5,150.9 1783.6,150.6 1783.8,150.5 1784,150.4 1784.2,150.3 1784.4,150.1 1784.6,150 1784.8,149.9 1785.1,149.8 
				1785.3,149.7 1785.6,149.8 1785.8,149.7 1786,149.7 1786.3,149.7 1786.5,149.8 1786.8,149.7 1787,149.7 1787.3,149.8 
				1787.5,149.9 1787.7,150 1787.9,150.1 1788.2,150.2 1788.4,150.3 1788.5,150.5 1788.7,150.7 1788.9,150.8 1789.1,150.9 
				1789.3,151.1 1789.4,151.3 1789.5,151.5 1789.6,151.8 1789.7,152 1789.9,152.2 1789.9,152.4 1789.9,152.7 1790,152.9 
				1790.1,153.1 1790.1,153.4 1790,153.6 1790.1,153.9 1789.9,154.1 1789.9,154.4 1789.9,154.6 1789.8,154.8 1789.8,155.1 
				1789.7,155.3 1789.5,155.5 1789.4,155.7 1789.3,155.9 1789.1,156 1789,156.3 1788.8,156.4 1788.6,156.6 1788.4,156.7 
				1788.2,156.8 1787.9,156.9 1787.7,157 1787.5,157.1 1787.3,157.3 1787,157.3 1786.8,157.4 1786.6,157.5 1786.3,157.4 
				1786.1,157.4 1785.9,157.4 			"/>
			<polygon id="XMLID_669_" class="st71" points="1772.5,244.1 1772.2,244.2 1772,244.2 1771.8,244.1 1771.5,244 1771.3,243.9 
				1771.1,243.8 1770.9,243.5 1770.7,243.4 1770.5,243.4 1770.4,243.1 1770.1,243 1770,242.8 1769.9,242.6 1769.7,242.4 
				1769.7,242.1 1769.6,241.9 1769.4,241.7 1769.4,241.5 1769.4,241.3 1769.2,241 1769.2,240.8 1769.1,240.5 1769.1,240.3 
				1769.2,240.1 1769.2,239.8 1769.2,239.6 1769.4,239.4 1769.5,239.1 1769.5,238.9 1769.6,238.7 1769.8,238.5 1769.8,238.2 
				1770,238.1 1770.1,237.8 1770.3,237.7 1770.5,237.5 1770.7,237.4 1770.9,237.2 1771.1,237.1 1771.3,237 1771.5,236.9 
				1771.7,236.7 1771.9,236.7 1772.2,236.6 1772.4,236.6 1772.7,236.5 1772.9,236.6 1773.2,236.5 1773.4,236.6 1773.6,236.6 
				1773.9,236.6 1774.1,236.6 1774.3,236.8 1774.6,236.8 1774.8,236.9 1775,237 1775.2,237.2 1775.4,237.4 1775.5,237.5 
				1775.7,237.7 1776,237.8 1776.2,238 1776.2,238.2 1776.4,238.4 1776.4,238.7 1776.5,238.9 1776.7,239 1776.8,239.3 1776.8,239.5 
				1776.8,239.8 1776.9,240 1777,240.2 1776.9,240.5 1776.9,240.7 1776.8,241 1776.8,241.2 1776.8,241.5 1776.7,241.7 1776.6,241.9 
				1776.5,242.1 1776.4,242.3 1776.2,242.5 1776.2,242.8 1775.9,242.9 1775.8,243.1 1775.6,243.3 1775.4,243.4 1775.3,243.6 
				1775,243.7 1774.8,243.8 1774.6,243.9 1774.4,244 1774.2,244.2 1773.9,244.1 1773.7,244.3 1773.5,244.3 1773.2,244.3 1773,244.3 
				1772.7,244.2 			"/>
		</g>
		<polygon id="XMLID_667_" class="st69" points="1660.2,179.1 1748.8,234.4 1761.2,152.5 		"/>
		<polygon id="XMLID_666_" class="st8" points="1690.5,171.1 1660.2,179.1 1692.2,199.1 1700.6,193.4 1689.4,182.6 1699.6,178.6 		
			"/>
		<g id="XMLID_660_">
			<path id="XMLID_665_" class="st7" d="M1713.8,186.2c1.9,0.3,4.1,1.7,4.1,1.7s-2.5,0.7-4.4,0.4c-1.9-0.3-2.7-0.9-2.6-1.4
				C1711,186.2,1711.9,185.9,1713.8,186.2z"/>
			<path id="XMLID_664_" class="st7" d="M1733.2,173.7c-0.3,1.9-1.7,4.1-1.7,4.1s-0.7-2.5-0.4-4.4c0.3-1.9,0.9-2.7,1.4-2.6
				C1733.2,170.9,1733.5,171.8,1733.2,173.7z"/>
			<path id="XMLID_663_" class="st7" d="M1728.3,205.8c0.3-1.9-0.4-4.4-0.4-4.4s-1.4,2.2-1.7,4.1c-0.3,1.9,0,2.8,0.6,2.9
				C1727.5,208.5,1728.1,207.8,1728.3,205.8z"/>
			<path id="XMLID_662_" class="st7" d="M1716.3,199.9c1.6-1.2,2.9-3.4,2.9-3.4s-2.5,0.6-4.1,1.7c-1.6,1.2-1.9,2-1.6,2.5
				C1713.8,201.2,1714.7,201.1,1716.3,199.9z"/>
			<path id="XMLID_661_" class="st7" d="M1720,175.8c1.2,1.6,1.7,4.1,1.7,4.1s-2.2-1.3-3.4-2.9c-1.2-1.6-1.3-2.5-0.8-2.8
				C1717.9,173.9,1718.8,174.2,1720,175.8z"/>
		</g>
		
			<rect id="XMLID_659_" x="1896.4" y="205" transform="matrix(0.1495 -0.9888 0.9888 0.1495 1405.5763 2069.7371)" class="st69" width="19" height="25.7"/>
		<g id="XMLID_654_">
			<polygon id="XMLID_658_" class="st69" points="1889,242.8 1893.1,216.7 1944.2,224.4 1943.5,229.1 			"/>
			<path id="XMLID_656_" class="st7" d="M1914.6,233.9c-0.1,0.8-0.1,1.7,0.1,2.4l13.6-3.4c-0.8-2.5-2.9-4.5-5.7-4.9
				C1918.8,227.4,1915.2,230.1,1914.6,233.9z"/>
		</g>
		<g id="XMLID_650_">
			<polygon id="XMLID_653_" class="st69" points="1897.2,188.3 1893.5,214.5 1944.6,222.2 1945.3,217.5 			"/>
			<path id="XMLID_651_" class="st7" d="M1919.1,204.4c0.1-0.8,0.4-1.6,0.8-2.3l11.9,7.3c-1.5,2.2-4.1,3.4-6.9,3
				C1921.1,211.8,1918.5,208.2,1919.1,204.4z"/>
		</g>
		<g id="XMLID_646_">
			<path id="XMLID_649_" class="st1" d="M1846,197.9c2.2,0.3,3.7,2.4,3.4,4.6c-0.3,2.2-2.4,3.7-4.6,3.4c-2.2-0.3-3.7-2.4-3.4-4.6
				C1841.7,199.1,1843.8,197.6,1846,197.9z"/>
			<path id="XMLID_648_" class="st1" d="M1844.5,208.1c2.2,0.3,3.7,2.4,3.4,4.6c-0.3,2.2-2.4,3.7-4.6,3.4c-2.2-0.3-3.7-2.4-3.4-4.6
				C1840.2,209.2,1842.2,207.7,1844.5,208.1z"/>
			<path id="XMLID_647_" class="st8" d="M1845,204.6c1.4,0.2,2.4,1.6,2.2,3c-0.2,1.4-1.6,2.4-3,2.2c-1.4-0.2-2.4-1.6-2.2-3
				C1842.2,205.3,1843.5,204.3,1845,204.6z"/>
		</g>
		<path id="XMLID_645_" class="st8" d="M1859.8,206.8c1.4,0.2,2.4,1.6,2.2,3c-0.2,1.4-1.6,2.4-3,2.2c-1.4-0.2-2.4-1.6-2.2-3
			C1857,207.6,1858.4,206.6,1859.8,206.8z"/>
		<path id="XMLID_644_" class="st11" d="M1732.1,181.2c4.8,0.7,8,5.2,7.3,9.9c-0.7,4.8-5.2,8-9.9,7.3c-4.8-0.7-8-5.2-7.3-9.9
			C1722.9,183.7,1727.3,180.4,1732.1,181.2z"/>
		<path id="XMLID_643_" class="st8" d="M1889,242.8l6-1.5l7.5-49.7l-5.3-3.2c0,0-2.5,11.4-4.7,25.6
			C1890.7,226.2,1889,242.8,1889,242.8z"/>
		<path id="XMLID_611_" class="st11" d="M1895.9,213.6c1.5,0.2,2.5,1.6,2.3,3.1c-0.2,1.5-1.6,2.5-3.1,2.3c-1.5-0.2-2.5-1.6-2.3-3.1
			C1893,214.4,1894.4,213.3,1895.9,213.6z"/>
		<path id="XMLID_604_" class="st11" d="M1764.8,177.1c0.5-3.2,1.8-5.6,2.9-5.4l-1.8,11.5C1764.8,183,1764.3,180.3,1764.8,177.1z"/>
		<path id="XMLID_603_" class="st11" d="M1759.7,211.2c0.5-3.2,1.8-5.6,2.9-5.4l-1.8,11.5C1759.6,217.1,1759.2,214.4,1759.7,211.2z"
			/>
		<path id="XMLID_602_" class="st82" d="M1777.6,196.5l13.2-5.3c0,0,2.4,3.2,0.4,9.4L1777.6,196.5z"/>
		<g id="XMLID_598_">
			<polygon id="XMLID_601_" class="st74" points="1790.4,214.2 1791,214 1791.5,214.1 1792,214.4 1792.4,214.6 1792.9,214.7 
				1793.4,215 1793.7,215.5 1794.1,215.7 1794.7,215.9 1794.9,216.3 1795.4,216.6 1795.6,217.1 1795.9,217.5 1796.3,217.9 
				1796.3,218.5 1796.6,218.9 1796.9,219.3 1797.1,219.8 1797.1,220.3 1797.4,220.8 1797.4,221.3 1797.5,221.8 1797.5,222.4 
				1797.5,222.9 1797.4,223.4 1797.3,223.9 1797,224.4 1796.8,224.8 1796.7,225.3 1796.6,225.8 1796.2,226.2 1796.1,226.7 
				1795.6,227 1795.5,227.6 1795,227.8 1794.7,228.3 1794.2,228.5 1793.9,228.9 1793.4,229.1 1793,229.5 1792.5,229.6 1792.1,229.9 
				1791.6,230.1 1791.1,230.2 1790.5,230.1 1790.1,230.4 1789.5,230.3 1789,230.4 1788.5,230.2 1788,230.3 1787.5,230.2 1787,230.1 
				1786.5,229.8 1786,229.8 1785.5,229.5 1785,229.3 1784.6,229 1784.3,228.6 1783.9,228.2 1783.5,227.9 1783,227.7 1782.7,227.3 
				1782.5,226.8 1782.1,226.4 1782.1,225.9 1781.8,225.4 1781.4,225 1781.4,224.5 1781.2,224 1781.2,223.5 1781,223 1780.9,222.5 
				1781.1,222 1781,221.4 1781.2,220.9 1781.2,220.4 1781.3,219.9 1781.5,219.4 1781.6,218.9 1781.8,218.4 1782.1,218 1782.5,217.6 
				1782.6,217.1 1783.1,216.9 1783.3,216.3 1783.8,216.1 1784.2,215.8 1784.6,215.4 1785,215.2 1785.5,215 1786,214.8 1786.4,214.6 
				1786.8,214.2 1787.4,214.3 1787.9,213.9 1788.4,213.9 1788.9,214 1789.4,213.9 1789.9,214.1 			"/>
			<polygon id="XMLID_599_" class="st74" points="1795.4,182 1794.8,182.1 1794.3,182 1793.8,181.8 1793.4,181.5 1792.8,181.4 
				1792.4,181.1 1792.1,180.7 1791.7,180.4 1791.1,180.3 1790.8,179.8 1790.4,179.5 1790.1,179.1 1789.9,178.6 1789.5,178.3 
				1789.4,177.7 1789.2,177.2 1788.9,176.8 1788.7,176.3 1788.7,175.8 1788.4,175.4 1788.4,174.8 1788.3,174.3 1788.2,173.8 
				1788.3,173.3 1788.4,172.8 1788.4,172.2 1788.7,171.8 1789,171.3 1789.1,170.8 1789.2,170.3 1789.6,169.9 1789.7,169.4 
				1790.2,169.1 1790.3,168.6 1790.8,168.3 1791.1,167.8 1791.6,167.6 1791.9,167.2 1792.4,167.1 1792.8,166.7 1793.3,166.5 
				1793.7,166.2 1794.2,166.1 1794.7,165.9 1795.2,166 1795.7,165.7 1796.3,165.9 1796.8,165.7 1797.3,165.9 1797.8,165.9 
				1798.3,165.9 1798.8,166 1799.3,166.3 1799.8,166.4 1800.3,166.6 1800.8,166.8 1801.2,167.1 1801.5,167.6 1801.8,167.9 
				1802.2,168.2 1802.8,168.4 1803.1,168.8 1803.3,169.3 1803.7,169.7 1803.7,170.3 1804,170.7 1804.4,171.1 1804.4,171.7 
				1804.5,172.2 1804.6,172.7 1804.8,173.2 1804.9,173.7 1804.7,174.2 1804.8,174.7 1804.5,175.2 1804.5,175.7 1804.5,176.2 
				1804.3,176.7 1804.2,177.2 1804,177.7 1803.6,178.1 1803.3,178.5 1803.2,179.1 1802.6,179.3 1802.5,179.8 1802,180.1 
				1801.6,180.4 1801.2,180.7 1800.8,181 1800.3,181.1 1799.8,181.4 1799.4,181.6 1798.9,182 1798.4,181.9 1797.9,182.2 
				1797.4,182.3 1796.9,182.2 1796.4,182.2 1795.9,182.1 			"/>
		</g>
		<path id="XMLID_578_" class="st146" d="M1801.1,208.3c6.4-3.6,7.7-12.3,2.7-17.6"/>
		<g id="XMLID_59_">
			<g id="XMLID_567_">
				<path id="XMLID_577_" class="st76" d="M1775.7,187.7c5,0.8,9.6-2.7,10.4-7.6c0.8-5-2.7-9.6-7.6-10.4c-5-0.8-9.6,2.7-10.4,7.6
					C1767.3,182.3,1770.8,187,1775.7,187.7z"/>
				<path id="XMLID_576_" class="st77" d="M1775.2,184c3,0.5,5.8-1.6,6.3-4.6c0.5-3-1.6-5.8-4.6-6.3c-3-0.5-5.8,1.6-6.3,4.6
					C1770.1,180.7,1772.2,183.5,1775.2,184z"/>
				<path id="XMLID_575_" class="st78" d="M1774.2,176.1c1.2,0.2,2,1.3,1.8,2.4c-0.2,1.2-1.3,2-2.4,1.8c-1.2-0.2-2-1.3-1.8-2.4
					C1772,176.7,1773,175.9,1774.2,176.1z"/>
			</g>
			<g id="XMLID_61_">
				<path id="XMLID_67_" class="st76" d="M1773.2,204.3c5,0.8,8.4,5.4,7.6,10.4c-0.8,5-5.4,8.4-10.4,7.6c-5-0.8-8.4-5.4-7.6-10.4
					C1763.6,207,1768.2,203.6,1773.2,204.3z"/>
				<path id="XMLID_65_" class="st77" d="M1771.6,207.8c3,0.5,5.1,3.3,4.6,6.3c-0.5,3-3.3,5.1-6.3,4.6c-3-0.5-5.1-3.3-4.6-6.3
					C1765.8,209.4,1768.6,207.3,1771.6,207.8z"/>
				<path id="XMLID_63_" class="st78" d="M1769,210.8c1.2,0.2,2,1.3,1.8,2.4c-0.2,1.2-1.3,2-2.4,1.8c-1.2-0.2-2-1.3-1.8-2.4
					C1766.7,211.4,1767.8,210.6,1769,210.8z"/>
			</g>
		</g>
	</g>
	<polygon id="XMLID_338_" class="st98" points="1283.2,877.9 1401.4,1022.1 1674.1,1091.3 1923.6,1106.4 1923.6,908.5 	"/>
	<g id="XMLID_1624_">
		<path id="XMLID_1875_" class="st95" d="M1350.4,674.2c-7.6,21.3-78.6,177.9-67.2,203.7c14.1,31.8,371.6,114.4,639,121V702.3
			L1350.4,674.2z"/>
		<g id="XMLID_2106_">
			<g id="XMLID_2104_">
				<path id="XMLID_1590_" class="st99" d="M1864.9,800.4c-6.7,5.7-14.9,7.1-18.4,3.1c-3.5-4-0.8-11.9,5.8-17.7
					c6.7-5.7,24.1-8.1,24.1-8.1S1871.5,794.6,1864.9,800.4z"/>
				<path id="XMLID_2105_" class="st99" d="M1888.1,802.1c5.7,6.7,13.6,9.3,17.7,5.8c4-3.5,2.6-11.7-3.1-18.4
					c-5.7-6.7-22.6-11.6-22.6-11.6S1882.3,795.5,1888.1,802.1z"/>
			</g>
			<g id="XMLID_2107_">
				<path id="XMLID_2110_" class="st99" d="M1864.9,832.1c-6.7,5.7-14.9,7.1-18.4,3.1c-3.5-4-0.8-11.9,5.8-17.7
					c6.7-5.7,24.1-8.1,24.1-8.1S1871.5,826.4,1864.9,832.1z"/>
				<path id="XMLID_2108_" class="st99" d="M1888.1,833.9c5.7,6.7,13.6,9.3,17.7,5.8c4-3.5,2.6-11.7-3.1-18.4
					c-5.7-6.7-22.6-11.6-22.6-11.6S1882.3,827.2,1888.1,833.9z"/>
			</g>
			<g id="XMLID_2112_">
				<path id="XMLID_2114_" class="st99" d="M1866.3,859.3c-5.8,5-13,6.2-16.1,2.7c-3-3.5-0.7-10.5,5.1-15.5c5.8-5,21.1-7.1,21.1-7.1
					S1872.2,854.3,1866.3,859.3z"/>
				<path id="XMLID_2113_" class="st99" d="M1886.6,860.9c5,5.8,11.9,8.1,15.5,5.1c3.5-3,2.3-10.2-2.7-16.1
					c-5-5.8-19.8-10.2-19.8-10.2S1881.6,855,1886.6,860.9z"/>
			</g>
			<g id="XMLID_2115_">
				<path id="XMLID_2117_" class="st99" d="M1867.6,883.1c-5.1,4.4-11.5,5.5-14.1,2.4c-2.7-3.1-0.7-9.2,4.5-13.6
					c5.1-4.4,18.6-6.2,18.6-6.2S1872.7,878.7,1867.6,883.1z"/>
				<path id="XMLID_2116_" class="st99" d="M1885.4,884.5c4.4,5.1,10.5,7.1,13.6,4.5s2-9-2.4-14.1c-4.4-5.1-17.4-8.9-17.4-8.9
					S1881,879.4,1885.4,884.5z"/>
			</g>
			<g id="XMLID_2118_">
				<path id="XMLID_2121_" class="st99" d="M1869.4,903.6c-4.1,3.5-9.1,4.4-11.2,1.9c-2.1-2.5-0.5-7.3,3.6-10.8
					c4.1-3.5,14.8-4.9,14.8-4.9S1873.5,900.1,1869.4,903.6z"/>
				<path id="XMLID_2120_" class="st99" d="M1883.6,904.7c3.5,4.1,8.3,5.7,10.8,3.6c2.5-2.1,1.6-7.1-1.9-11.2
					c-3.5-4.1-13.8-7.1-13.8-7.1S1880.1,900.6,1883.6,904.7z"/>
			</g>
		</g>
		<g id="XMLID_2170_">
			<g id="XMLID_2198_">
				<path id="XMLID_2225_" class="st99" d="M1381.5,891.9c8.2-3.1,16.4-1.5,18.3,3.4c1.9,5-3.3,11.5-11.6,14.6
					c-8.2,3.1-25.4-0.8-25.4-0.8S1373.2,895,1381.5,891.9z"/>
				<path id="XMLID_2204_" class="st99" d="M1360.3,882.3c-3.1-8.2-9.6-13.4-14.6-11.6c-5,1.9-6.5,10-3.4,18.3
					c3.1,8.2,17.2,18.7,17.2,18.7S1363.4,890.5,1360.3,882.3z"/>
			</g>
			<g id="XMLID_2195_">
				<path id="XMLID_2197_" class="st99" d="M1392.4,862.1c8.2-3.1,16.4-1.5,18.3,3.4c1.9,5-3.3,11.5-11.6,14.6
					c-8.2,3.1-25.4-0.8-25.4-0.8S1384.2,865.2,1392.4,862.1z"/>
				<path id="XMLID_2196_" class="st99" d="M1371.3,852.5c-3.1-8.2-9.6-13.4-14.6-11.6c-5,1.9-6.5,10-3.4,18.3
					c3.1,8.2,17.2,18.7,17.2,18.7S1374.4,860.7,1371.3,852.5z"/>
			</g>
			<g id="XMLID_2192_">
				<path id="XMLID_2194_" class="st99" d="M1400.5,836.1c7.2-2.7,14.4-1.3,16,3c1.6,4.4-2.9,10.1-10.1,12.8
					c-7.2,2.7-22.3-0.7-22.3-0.7S1393.2,838.8,1400.5,836.1z"/>
				<path id="XMLID_2193_" class="st99" d="M1381.9,827.7c-2.7-7.2-8.4-11.8-12.8-10.1c-4.4,1.6-5.7,8.8-3,16
					c2.7,7.2,15.1,16.4,15.1,16.4S1384.6,834.9,1381.9,827.7z"/>
			</g>
			<g id="XMLID_2185_">
				<path id="XMLID_2191_" class="st99" d="M1407.5,813.3c6.3-2.4,12.6-1.2,14.1,2.6c1.4,3.8-2.6,8.8-8.9,11.2
					c-6.3,2.4-19.6-0.6-19.6-0.6S1401.2,815.7,1407.5,813.3z"/>
				<path id="XMLID_2190_" class="st99" d="M1391.2,805.9c-2.4-6.3-7.4-10.3-11.2-8.9c-3.8,1.4-5,7.7-2.6,14.1
					c2.4,6.3,13.3,14.4,13.3,14.4S1393.6,812.2,1391.2,805.9z"/>
			</g>
			<g id="XMLID_2173_">
				<path id="XMLID_2175_" class="st99" d="M1412.9,793.4c5-1.9,10.1-0.9,11.2,2.1c1.1,3-2,7-7.1,8.9c-5,1.9-15.6-0.5-15.6-0.5
					S1407.8,795.3,1412.9,793.4z"/>
				<path id="XMLID_2174_" class="st99" d="M1399.9,787.5c-1.9-5-5.9-8.2-8.9-7.1c-3,1.1-4,6.1-2.1,11.2c1.9,5,10.5,11.4,10.5,11.4
					S1401.8,792.6,1399.9,787.5z"/>
			</g>
		</g>
		<path id="XMLID_1874_" class="st5" d="M1922.2,626.4c-155,5.1-525.7-38.7-570,43.2s570,108.1,570,108.1V626.4z"/>
	</g>
	<g id="XMLID_1902_">
		<path id="XMLID_1876_" class="st100" d="M1639.6,642.6l92.9-316.7l82.5-26.7c0,0,44.4-238.7,44.8-242l62.3-18.5v616.1
			L1639.6,642.6z"/>
		<polygon id="XMLID_1877_" class="st101" points="1857.2,322.8 1889.9,653.4 1639.6,642.6 1732.5,325.9 		"/>
		<g id="XMLID_54_">
			<path id="XMLID_348_" class="st102" d="M1781.4,434.5c0-3.4-23.3-6.2-52.1-6.2c-9.9,0-19.2,0.3-27,0.9l-3,10.3
				c8.5,0.7,18.9,1.1,30.1,1.1C1758,440.7,1781.4,437.9,1781.4,434.5z"/>
			<path id="XMLID_350_" class="st102" d="M1758.5,488.1c0-3.4-23.3-6.2-52.1-6.2c-7,0-13.6,0.2-19.7,0.5l-3.3,11.2
				c6.9,0.4,14.7,0.6,23,0.6C1735.1,494.2,1758.5,491.5,1758.5,488.1z"/>
			<path id="XMLID_353_" class="st102" d="M1735,453.6c0-2.8-16.1-5.2-38.1-5.9l-3.5,12C1717.1,459,1735,456.6,1735,453.6z"/>
			<ellipse id="XMLID_354_" class="st102" cx="1778.5" cy="453.6" rx="33.4" ry="6.2"/>
			<ellipse id="XMLID_368_" class="st102" cx="1745.1" cy="471.1" rx="33.4" ry="6.2"/>
			<path id="XMLID_417_" class="st102" d="M1706.3,471.1c0-2.1-5.9-4-14.9-5.1l-3.1,10.6C1699,475.5,1706.3,473.5,1706.3,471.1z"/>
		</g>
		<polygon id="XMLID_1879_" class="st93" points="1857.2,322.8 1922.2,167.3 1922.2,654.8 1889.9,653.4 		"/>
		<polygon id="XMLID_1878_" class="st5" points="1732.5,325.9 1815,299.2 1857.2,322.8 		"/>
		<polygon id="XMLID_330_" class="st103" points="1859.8,57.2 1922.6,74.8 1922.2,38.7 		"/>
	</g>
	<g id="XMLID_42_">
		<path id="XMLID_45_" class="st71" d="M1838.3,145.6l4.7,6.5l8.8-6.4l0,0c0.1,0,0.1-0.1,0.2-0.1c1.8-1.3,2.2-3.8,0.9-5.6
			c-1.3-1.8-3.8-2.2-5.6-0.9c-0.1,0.1-0.1,0.1-0.2,0.2l0,0L1838.3,145.6z"/>
		<path id="XMLID_44_" class="st71" d="M1844.1,149.9l1.1,3l6-2.2l0,0c0,0,0.1,0,0.1,0c0.8-0.3,1.3-1.2,1-2.1
			c-0.3-0.8-1.2-1.3-2.1-1c0,0-0.1,0-0.1,0l0,0L1844.1,149.9z"/>
		
			<rect id="XMLID_43_" x="1839.7" y="143.3" transform="matrix(0.8082 -0.5889 0.5889 0.8082 265.0769 1113.6439)" class="st8" width="5.2" height="13.1"/>
	</g>
	<g id="XMLID_11_">
		<path id="XMLID_40_" class="st71" d="M1819.4,269.4l-1-8l10.8-1.4l0,0c0.1,0,0.2,0,0.2,0c2.2-0.3,4.2,1.3,4.5,3.5
			c0.3,2.2-1.3,4.2-3.5,4.5c-0.1,0-0.2,0-0.2,0l0,0L1819.4,269.4z"/>
		<path id="XMLID_28_" class="st71" d="M1820.6,262.3l-1.3-3l5.8-2.5l0,0c0,0,0.1,0,0.1,0c0.8-0.4,1.8,0,2.1,0.8
			c0.4,0.8,0,1.8-0.8,2.1c0,0-0.1,0-0.1,0l0,0L1820.6,262.3z"/>
		
			<rect id="XMLID_17_" x="1816.7" y="257" transform="matrix(0.9916 -0.129 0.129 0.9916 -18.7939 236.8875)" class="st8" width="5.2" height="13.1"/>
	</g>
</g>
<g id="XMLID_533_">
	<ellipse id="XMLID_2722_" class="st98" cx="580.8" cy="917" rx="33.5" ry="15.1"/>
	<ellipse id="XMLID_2721_" class="st98" cx="663.4" cy="932.2" rx="33.5" ry="15.1"/>
	<ellipse id="XMLID_2720_" class="st98" cx="704.8" cy="919.1" rx="33.5" ry="15.1"/>
	<g id="XMLID_2717_">
		<path id="XMLID_2719_" class="st104" d="M579.3,951.6c-0.7-3.1-3.6-6.4-4.9-7.9c-12.9,1.7-22.9,9.1-22.6,17.3
			c0.5,9,15.4,15.8,33.1,15.2c17.5-0.6,28.6-8.6,25-17.7c-3.2-8.4-15.6-14.8-28.7-15.2C579.2,946.5,579.3,951.6,579.3,951.6z"/>
		<path id="XMLID_2718_" class="st105" d="M583.6,961.4c0,0.5-1.2,0.9-2.7,0.9s-2.7-0.4-2.7-0.9c0-0.5,1.2-0.9,2.7-0.9
			S583.6,960.9,583.6,961.4z"/>
	</g>
	<g id="XMLID_2714_">
		<path id="XMLID_2716_" class="st107" d="M674.7,967.3c-3.5,1.9-5.9,4.8-6.9,6.1c12.9,4,30.5,3.4,39.9-1.7c9.5-5.6,6-14.4-6.6-19.6
			c-11.9-5.1-28.4-4.8-38.3,0.8c-9.7,5.1-10.3,12.8-0.8,18.1C667.9,970.1,674.7,967.3,674.7,967.3z"/>
		<path id="XMLID_2715_" class="st104" d="M687,962.3c0,0.6-1.1,1.2-2.4,1.2c-1.3,0-2.4-0.5-2.4-1.2s1.1-1.2,2.4-1.2
			C685.9,961.1,687,961.7,687,962.3z"/>
	</g>
	<g id="XMLID_2711_">
		<path id="XMLID_2713_" class="st105" d="M711.4,959.1c-5.2,1.9-8.9,5.4-10.4,7c16.8,7.8,40.9,10.3,54.6,5
			c14-5.9,10.8-18.5-5.4-27.8c-15.2-9.2-37.8-11.7-52.2-5.9c-14.2,5.2-16.4,15.6-4.4,24.4C701.6,961.6,711.4,959.1,711.4,959.1z"/>
		<path id="XMLID_2712_" class="st104" d="M729,954.5c-0.1,0.9-1.7,1.4-3.5,1.1c-1.8-0.2-3.2-1.2-3.1-2c0.1-0.9,1.7-1.4,3.5-1.1
			C727.7,952.7,729.1,953.6,729,954.5z"/>
	</g>
	<g id="XMLID_565_">
		<path id="XMLID_2710_" class="st107" d="M679.8,919.7c-4.3,2.3-7.1,5.7-8.2,7.3c15.5,4.8,36.6,4.1,47.9-2
			c11.4-6.7,7.1-17.2-8-23.5c-14.2-6.2-34.1-5.7-45.9,1c-11.7,6.1-12.3,15.4-1,21.6C671.6,923,679.8,919.7,679.8,919.7z"/>
		<path id="XMLID_2709_" class="st104" d="M694.5,913.6c0,0.8-1.3,1.4-2.9,1.4c-1.6,0-2.9-0.6-2.9-1.4s1.3-1.4,2.9-1.4
			C693.2,912.2,694.5,912.9,694.5,913.6z"/>
	</g>
	<g id="XMLID_562_">
		<path id="XMLID_564_" class="st104" d="M661.7,918.7c-0.7-3.1-3.6-6.4-4.9-7.9c-12.9,1.7-22.9,9.1-22.6,17.3
			c0.5,9,15.4,15.8,33.1,15.2c17.5-0.6,28.6-8.6,25-17.7c-3.2-8.4-15.6-14.8-28.7-15.2C661.6,913.6,661.7,918.7,661.7,918.7z"/>
		<path id="XMLID_563_" class="st105" d="M666,928.5c0,0.5-1.2,0.9-2.7,0.9c-1.5,0-2.7-0.4-2.7-0.9c0-0.5,1.2-0.9,2.7-0.9
			C664.9,927.6,666,928,666,928.5z"/>
	</g>
	<g id="XMLID_558_">
		<path id="XMLID_560_" class="st105" d="M568.2,910.4c-6.1,0.7-12.8,2.7-15.8,3.7c4.1,7.6,20.8,12.3,38.7,10.6
			c19-1.8,29.9-10.6,25-19.5c-4.5-8.9-20.6-14.4-36.8-12.5c-15.3,1.8-27.1,9.3-27.7,17.3C557.9,910.9,568.2,910.4,568.2,910.4z"/>
		<path id="XMLID_559_" class="st107" d="M590.5,907.7c0,0.5-1.6,0.9-3.5,0.9c-2,0-3.5-0.4-3.5-0.9c0-0.5,1.6-0.9,3.5-0.9
			C588.9,906.8,590.5,907.2,590.5,907.7z"/>
	</g>
	<g id="XMLID_555_">
		<path id="XMLID_557_" class="st107" d="M618,929.1c-4.3,2.3-7.1,5.7-8.2,7.3c15.5,4.8,36.6,4.1,47.9-2c11.4-6.7,7.1-17.2-8-23.5
			c-14.2-6.2-34.1-5.7-45.9,1c-11.7,6.1-12.3,15.4-1,21.6C609.8,932.4,618,929.1,618,929.1z"/>
		<path id="XMLID_556_" class="st104" d="M632.7,923c0,0.8-1.3,1.4-2.9,1.4c-1.6,0-2.9-0.6-2.9-1.4s1.3-1.4,2.9-1.4
			C631.4,921.6,632.7,922.2,632.7,923z"/>
	</g>
	<g id="XMLID_535_">
		<path id="XMLID_554_" class="st108" d="M642.8,913.6c24.4,0.1,36.7-13.9,35.1-14.1C661.8,897.9,630.6,913.6,642.8,913.6z"/>
		<path id="XMLID_553_" class="st108" d="M643.3,913.6c-24.4,0.1-36.7-13.9-35.1-14.1C624.3,897.9,655.6,913.6,643.3,913.6z"/>
		<g id="XMLID_544_">
			<path id="XMLID_552_" class="st109" d="M641,903.9c-11.2-0.6-21.8-12-22.1-24.4C618.9,879.5,649,904.4,641,903.9z"/>
			<path id="XMLID_551_" class="st109" d="M643.4,903.4c11.2-0.6,21.5-12.8,21.7-25.3C665.1,878.1,635.4,903.8,643.4,903.4z"/>
			<path id="XMLID_550_" class="st108" d="M637.2,903.5c-7.3,0.5-8.2-29.1-7.7-31C630.1,870.7,649.2,902.7,637.2,903.5z"/>
			<path id="XMLID_547_" class="st108" d="M639.4,902.2c6.8,2.5,16.1-25.6,16.1-27.5S628.2,898,639.4,902.2z"/>
			<path id="XMLID_546_" class="st109" d="M645,902c-7.3,2.2-9.6-26.7-8.2-27.3C638.1,874.2,653.8,899.3,645,902z"/>
			<path id="XMLID_545_" class="st109" d="M640,902c7.3,2.2,9.6-26.7,8.2-27.3C646.8,874.2,631.1,899.3,640,902z"/>
		</g>
		<path id="XMLID_543_" class="st110" d="M641.5,908.7c-9.8,0-1.9-36.7,0-36.8C643.4,871.7,653.5,908.7,641.5,908.7z"/>
		<path id="XMLID_542_" class="st111" d="M641.5,912.1c-8.8,3.3-20.9-33.1-20.9-35.6C620.7,874,656.1,906.7,641.5,912.1z"/>
		<path id="XMLID_541_" class="st111" d="M640.8,912.1c8.8,3.3,20.9-33.1,20.9-35.6C661.6,874,626.2,906.7,640.8,912.1z"/>
		<path id="XMLID_539_" class="st110" d="M642.8,913.6c-14.5-0.8-28.2-15.5-28.5-31.6C614.3,882.1,653.2,914.2,642.8,913.6z"/>
		<path id="XMLID_537_" class="st110" d="M642.4,913.6c14.5-0.8,27.8-16.6,28.1-32.7C670.5,881,632.1,914.2,642.4,913.6z"/>
	</g>
</g>
</svg>
