<?xml version="1.0" encoding="utf-8"?>
<!-- Generator: Adobe Illustrator 22.0.0, SVG Export Plug-In . SVG Version: 6.00 Build 0)  -->
<svg version="1.1" id="Layer_1" xmlns="http://www.w3.org/2000/svg" xmlns:xlink="http://www.w3.org/1999/xlink" x="0px" y="0px"
	 viewBox="0 0 572.1 276.1" style="enable-background:new 0 0 572.1 276.1;" xml:space="preserve">
<style type="text/css">
	.st0{fill:#FFFBF2;}
	.st1{fill:#F7F4DD;}
	.st2{fill:#593218;}
	.st3{opacity:0.51;fill:url(#);}
	.st4{fill:#565B21;}
	.st5{fill:#ABBF1A;}
	.st6{fill:#A0B21F;}
	.st7{fill:#4FB8B5;}
	.st8{fill:#F39100;}
	.st9{fill:#38A59E;}
	.st10{fill:#E73A2E;}
	.st11{fill:#E53212;}
	.st12{fill:#CA2718;}
	.st13{fill:#E57B08;}
	.st14{fill:#D5CDB0;}
	.st15{fill:#8F9B26;}
	.st16{fill:#268C87;}
	.st17{fill:#225B55;}
	.st18{fill:#28716A;}
	.st19{fill:#764119;}
	.st20{fill:#302015;}
	.st21{fill:#EA4E40;}
	.st22{fill:#FABA66;}
	.st23{fill:#91D0D4;}
	.st24{fill:#E37D08;}
	.st25{fill:#D06815;}
	.st26{fill:#F6A235;}
	.st27{fill:#F9C284;}
	.st28{fill:#F59A26;}
	.st29{fill:#C36317;}
	.st30{fill:#F8AD5C;}
	.st31{fill:#392215;}
	.st32{fill:#76411C;}
	.st33{fill:#743E18;}
	.st34{fill:#281B12;}
	.st35{fill:#8D9F27;}
	.st36{fill:#D2DB53;}
	.st37{fill:#5D6424;}
	.st38{fill:#2B9992;}
	.st39{fill:#77C6C4;}
	.st40{fill:#339C95;}
	.st41{fill:#1B675F;}
	.st42{fill:#C4B991;}
	.st43{fill:#3DA7A1;}
	.st44{fill:#41AAA4;}
	.st45{fill:#37988F;}
	.st46{fill:#70C4C3;}
	.st47{fill:#F9B050;}
	.st48{fill:#FABE77;}
	.st49{fill:#E2780B;}
	.st50{fill:#CE6716;}
	.st51{fill:none;stroke:#7F4014;stroke-width:4;}
	.st52{fill:none;stroke:#7F4014;stroke-width:3.1902;}
	.st53{fill:#92D0D2;}
	.st54{fill:#EA5345;}
	.st55{fill:#BB1E18;}
	.st56{opacity:0.6;fill:url(#);}
	.st57{fill:url(#);}
	.st58{fill:#492A17;}
	.st59{fill:#95A824;}
	.st60{opacity:0.7;fill:#E3DEC2;}
	.st61{fill:#E62E25;}
	.st62{fill:#E01D1C;}
	.st63{fill:#E0770D;}
	.st64{fill:#C86716;}
	.st65{fill:#FBC88D;}
	.st66{fill:#F1B261;}
	.st67{fill:#FFFFFF;}
	.st68{fill:none;stroke:#F39100;}
	.st69{fill:#5C3018;}
	.st70{fill:#26817A;}
	.st71{fill:#F7B695;}
	.st72{fill:none;stroke:#EE7370;stroke-width:2.0151;stroke-linecap:round;stroke-miterlimit:10;}
	.st73{fill:#CC2418;}
	.st74{fill:#DF8562;}
	.st75{fill:none;stroke:#593218;stroke-width:4.3735;stroke-linecap:round;stroke-miterlimit:10;}
	.st76{fill:#FAFAFB;}
	.st77{fill:#382B25;}
	.st78{fill:#5E463E;}
	.st79{fill:#DC750F;}
	.st80{fill:none;stroke:#7BC8C5;stroke-width:2.0151;stroke-linecap:round;stroke-miterlimit:10;}
	.st81{fill:#339993;}
	.st82{fill:#BB674B;}
	.st83{fill:none;stroke:#593218;stroke-width:1.9011;stroke-linecap:round;stroke-miterlimit:10;}
	.st84{fill:#341F15;}
	.st85{fill:none;stroke:#593218;stroke-width:1.1468;stroke-linecap:round;stroke-miterlimit:10;}
	.st86{fill:#398482;}
	.st87{fill:#45B8B4;}
	.st88{fill:#41ABA8;}
	.st89{fill:#3EA29F;}
	.st90{fill:#64605F;}
	.st91{opacity:0.2;fill:#4FB8B5;}
	.st92{opacity:0.16;fill:#1C481B;}
	.st93{fill:#495508;}
	.st94{fill:#3E4B04;}
	.st95{fill:#5E6C0D;}
	.st96{fill:#809114;}
	.st97{fill:#41ACA9;}
	.st98{fill:#3FA6A2;}
	.st99{fill:#58660C;}
	.st100{fill:#515F0A;}
	.st101{fill:#62710E;}
	.st102{fill:#54620B;}
	.st103{fill:#6E7D11;}
	.st104{fill:#22722E;}
	.st105{fill:#175823;}
	.st106{fill:#257E34;}
	.st107{fill:#278939;}
	.st108{fill:#E1DBC9;}
	.st109{fill:#C3BFB9;}
	.st110{fill:#F4EEE6;}
	.st111{fill:#E9E5E3;}
	.st112{fill:#C2D131;}
	.st113{fill:#97A918;}
	.st114{fill:#EDE1CD;}
	.st115{fill:#D98300;}
	.st116{fill:#C47800;}
	.st117{fill:#371A03;}
	.st118{fill:#834428;}
	.st119{fill:#934C2E;}
	.st120{fill:#814327;}
	.st121{fill:none;stroke:#4FB8B5;stroke-width:8.9839;stroke-linecap:round;}
	.st122{fill:#3B3734;}
	.st123{fill:#299137;}
	.st124{fill:#3F1F08;}
	.st125{opacity:0.87;fill:url(#);}
	.st126{fill:#2B948E;}
	.st127{fill:#2B7673;}
	.st128{fill:#358C89;}
	.st129{fill:#307F7C;}
	.st130{fill:#3FA7A4;}
	.st131{fill:#3B9B98;}
	.st132{fill:#D58100;}
	.st133{fill:#F6A544;}
	.st134{fill:#48250E;}
	.st135{fill:#F9FAFB;}
	.st136{fill:#B72C0A;}
	.st137{fill:#368D8A;}
	.st138{fill:#C9D644;}
	.st139{fill:#3B4703;}
	.st140{fill:#6F7F11;}
	.st141{fill:#616F0E;}
	.st142{fill:#53600B;}
	.st143{fill:#773E23;}
	.st144{fill:#BA2C0A;}
	.st145{fill:none;stroke:#7BC8C5;stroke-width:1.3449;stroke-linecap:round;stroke-miterlimit:10;}
	.st146{fill:none;stroke:#593218;stroke-width:2.919;stroke-linecap:round;stroke-miterlimit:10;}
	.st147{fill:#45230C;}
	.st148{fill:#2C1300;}
	.st149{fill:#EFE8C9;}
	.st150{fill:#308983;}
	.st151{fill:#69371D;}
	.st152{fill:#942503;}
	.st153{fill:#DD8500;}
	.st154{fill:#D14D96;}
	.st155{fill:#A41F69;}
	.st156{fill:#A79A62;}
	.st157{fill:#781A4A;}
	.st158{fill:#CC3A8D;}
	.st159{fill:#E67B07;}
	.st160{fill:#D46814;}
	.st161{fill:#E2760B;}
	.st162{fill:#E9E4C3;}
	.st163{fill:#E5DEBA;}
	.st164{fill:#F8EEDF;}
	.st165{fill:#CBD342;}
	.st166{fill:#439997;}
	.st167{fill:#CA7B00;}
	.st168{fill:#C02D0C;}
	.st169{fill:#8E9E1C;}
	.st170{fill:#206C2C;}
	.st171{fill:#1B5F26;}
	.st172{fill:#A1B21E;}
	.st173{fill:#8FA117;}
	.st174{fill:#DBDF5A;}
	.st175{fill:#328380;}
	.st176{fill:#1E6729;}
	.st177{fill:#257D34;}
	.st178{fill:#47240D;}
	.st179{fill:none;stroke:#C07842;stroke-width:2.3031;stroke-linecap:round;stroke-miterlimit:10;}
	.st180{fill:#C5D32D;}
	.st181{fill:#32712F;}
	.st182{fill:#2E6A2C;}
	.st183{fill:#88C05F;}
	.st184{fill:#278532;}
	.st185{fill:#9CAF21;}
	.st186{fill:#4EA535;}
	.st187{fill:#225221;}
	.st188{fill:#301500;}
	.st189{fill:#68361D;}
	.st190{fill:none;stroke:#C07842;stroke-width:1.9011;stroke-linecap:round;stroke-miterlimit:10;}
	.st191{fill:#2C662A;}
	.st192{fill:#CFCDC6;}
	.st193{fill:#E3E0D8;}
	.st194{fill:#A25935;}
	.st195{fill:none;stroke:#683C11;stroke-width:1.9011;stroke-linecap:round;stroke-miterlimit:10;}
	.st196{fill:#319D97;}
	.st197{fill:#814828;}
	.st198{fill:#1A4519;}
	.st199{fill:#265A24;}
	.st200{fill:#A9B632;}
	.st201{fill:none;stroke:#FFFBF2;stroke-width:2;stroke-linecap:round;stroke-miterlimit:10;}
	.st202{fill:#7B8B1A;}
	.st203{fill:#AD5D52;}
	.st204{fill:#BC6459;}
	.st205{fill:none;stroke:#432918;stroke-width:1.729;stroke-linecap:round;stroke-miterlimit:10;}
	.st206{fill:#F0867E;}
	.st207{fill:#A2574D;}
	.st208{fill:#CBBBA0;}
	.st209{fill:#F2E0D7;}
	.st210{fill:none;stroke:#A48A7B;stroke-linecap:round;stroke-miterlimit:10;}
	.st211{fill:none;stroke:#432918;stroke-width:2;stroke-linecap:round;stroke-miterlimit:10;}
	.st212{fill:#499932;}
	.st213{fill:#81921B;}
	.st214{opacity:0.11;fill:#175823;}
	.st215{fill:#337976;}
	.st216{fill:#A12806;}
	.st217{fill:#D0300E;}
</style>
<g id="XMLID_2573_">
	<path id="XMLID_2628_" class="st147" d="M559,72.9c0,0-80.9,74.1-249.6,60.6c-115.8-9.2-177.3-31.4-263.2-62.7
		c0,0,65.1,86.7,250.7,101.9c185.7,15.2,245.4-44.6,253.3-60.1C558.1,97.1,559,72.9,559,72.9z"/>
	<path id="XMLID_2627_" class="st148" d="M118,96.1c-4.6,3.4-6.8,9.1-7.6,14.6c-0.5,3.5,4.6,9.2,4.5,12.7
		C66,97.1,46.2,70.8,46.2,70.8C73.3,80.7,93.3,88.1,118,96.1z"/>
	<path id="XMLID_2626_" class="st69" d="M308.7,143.5c-108.5-8.6-169.3-28.7-247.2-56.9c-10.5-9.5-15.3-15.8-15.3-15.8
		c85.9,31.3,147.4,53.5,263.2,62.7C478.1,147,559,72.9,559,72.9s-0.1,4.2-0.9,10.1C554.3,86.4,473.3,156.6,308.7,143.5z"/>
	<path id="XMLID_2625_" class="st11" d="M46.2,70.8c0,0,62.1,68.4,279.6,86.7S559,72.9,559,72.9S662,304,291.1,273.3
		C-79.8,242.5,46.2,70.8,46.2,70.8z"/>
	<path id="XMLID_2624_" class="st0" d="M507.8,132.5c46-25.4,51.2-59.6,51.2-59.6s58.3,130.9-70.8,182.6
		C508.7,217.4,517.4,150.4,507.8,132.5z"/>
	<path id="XMLID_2623_" class="st0" d="M507.8,132.5c46-25.4,51.2-59.6,51.2-59.6s58.3,130.9-70.8,182.6
		C508.7,217.4,517.4,150.4,507.8,132.5z"/>
	<path id="XMLID_2622_" class="st149" d="M518.3,126.1c7.2,22.8,0.4,80.1-16.2,123.2c-4.4,2.2-9,4.3-13.9,6.2
		c20.6-38,29.3-105.1,19.7-123C511.6,130.4,515.1,128.3,518.3,126.1z"/>
	<g id="XMLID_2613_">
		<path id="XMLID_2621_" class="st8" d="M285.2,197.8c-16.6-1.2-29.1-15.6-27.9-32.2c0.4-5.7,2.4-10.9,5.5-15.3
			c16.4,2.4,33.8,4.5,52.5,6.3c1.6,4.1,2.4,8.6,2.1,13.3C316.2,186.5,301.8,199,285.2,197.8z"/>
		<path id="XMLID_2620_" class="st8" d="M228.5,159c-0.7,10.2-9.6,17.8-19.7,17.1c-10.2-0.7-17.8-9.6-17.1-19.7
			c0.6-8.2,6.4-14.7,14-16.6c5.1,1.1,10.3,2.2,15.6,3.3C226.1,146.8,228.9,152.6,228.5,159z"/>
		<path id="XMLID_2619_" class="st8" d="M379.4,174.3c-0.7,10.2-9.6,17.8-19.7,17.1c-10.2-0.7-17.8-9.6-17.1-19.7
			c0.4-5.1,2.8-9.6,6.4-12.7c8.6,0.4,16.8,0.6,24.7,0.6C377.6,163.3,379.8,168.6,379.4,174.3z"/>
		<path id="XMLID_2618_" class="st8" d="M442.7,174.4c-0.7,10.2-9.6,17.8-19.7,17.1c-10.2-0.7-17.8-9.6-17.1-19.7
			c0.4-5.7,3.4-10.6,7.7-13.7c6.2-0.5,12.1-1.2,17.7-2C438.5,159,443.3,166.3,442.7,174.4z"/>
		<path id="XMLID_2617_" class="st8" d="M500.6,160.1c-0.7,10.2-9.6,17.8-19.7,17.1c-10.2-0.7-17.8-9.6-17.1-19.7
			c0.2-3.2,1.2-6.1,2.8-8.5c8-2.2,15.4-4.7,22.1-7.4C496.1,144.3,501.2,151.7,500.6,160.1z"/>
		<path id="XMLID_2616_" class="st8" d="M149.7,157.9c-10.2-0.7-17.8-9.6-17.1-19.7c0.5-7,4.9-12.8,10.9-15.5
			c7.3,2.5,15,4.9,23.2,7.3c1.9,3.2,2.9,6.9,2.6,10.9C168.7,150.9,159.9,158.6,149.7,157.9z"/>
		<path id="XMLID_2615_" class="st8" d="M93,135.3c-10.2-0.7-17.8-9.6-17.1-19.7c0.5-7.6,5.6-13.8,12.5-16.1
			c6.8,3.5,14.5,7.2,23.2,10.9c0.9,2.4,1.4,5.1,1.2,7.8C112,128.4,103.1,136,93,135.3z"/>
		<path id="XMLID_2614_" class="st8" d="M42.5,107.4c-4.5-0.3-8.6-2.3-11.6-5.2C37,83.3,46.2,70.8,46.2,70.8s4.4,4.9,15.1,12.4
			c0.7,2.2,1.1,4.6,0.9,7.1C61.5,100.5,52.7,108.1,42.5,107.4z"/>
	</g>
	<g id="XMLID_2602_">
		<path id="XMLID_2612_" class="st0" d="M286.5,180.3c-7.6-0.5-13.3-7.2-12.8-14.8c0.2-2.6,1.1-5,2.5-7c7.5,1.1,15.5,2.1,24.1,2.9
			c0.8,1.9,1.1,4,0.9,6.1C300.7,175.1,294.1,180.9,286.5,180.3z"/>
		<path id="XMLID_2611_" class="st0" d="M217.3,158.5c-0.3,4-3.7,7-7.7,6.7c-4-0.3-7-3.7-6.7-7.7c0.2-3.2,2.5-5.8,5.5-6.5
			c2,0.4,4,0.9,6.1,1.3C216.3,153.7,217.5,156,217.3,158.5z"/>
		<path id="XMLID_2610_" class="st0" d="M367.4,174.8c-0.3,3.6-3.4,6.3-7,6.1c-3.6-0.3-6.3-3.4-6.1-7c0.1-1.8,1-3.4,2.3-4.5
			c3,0.1,6,0.2,8.8,0.2C366.8,170.9,367.6,172.8,367.4,174.8z"/>
		<path id="XMLID_2609_" class="st0" d="M435.7,174.1c-0.4,6.3-5.9,11-12.2,10.5c-6.3-0.4-11-5.9-10.5-12.2c0.3-3.5,2.1-6.6,4.8-8.5
			c3.8-0.3,7.4-0.8,10.9-1.2C433.1,164.6,436,169.1,435.7,174.1z"/>
		<path id="XMLID_2608_" class="st0" d="M490.5,159.6c-0.3,4.6-4.3,8.1-9,7.8c-4.6-0.3-8.1-4.3-7.8-9c0.1-1.4,0.6-2.8,1.3-3.9
			c3.7-1,7-2.1,10-3.4C488.5,152.4,490.8,155.8,490.5,159.6z"/>
		<path id="XMLID_2607_" class="st0" d="M150.1,151.7c-6.5-0.5-11.5-6.2-11-12.7c0.3-4.5,3.1-8.3,7-10c4.7,1.6,9.7,3.2,15,4.7
			c1.2,2,1.9,4.5,1.7,7C162.4,147.2,156.7,152.2,150.1,151.7z"/>
		<path id="XMLID_2605_" class="st0" d="M93.9,122.6c-2.9-0.2-5-2.7-4.8-5.5c0.2-2.1,1.6-3.9,3.5-4.5c1.9,1,4.1,2,6.5,3.1
			c0.3,0.7,0.4,1.4,0.3,2.2C99.2,120.7,96.7,122.8,93.9,122.6z"/>
		<path id="XMLID_2604_" class="st0" d="M39.7,99.2c-2.6-0.2-4.9-1.3-6.6-3c3.5-10.7,8.7-17.8,8.7-17.8s2.5,2.8,8.6,7
			c0.4,1.3,0.6,2.6,0.5,4.1C50.4,95.3,45.4,99.7,39.7,99.2z"/>
	</g>
	<path id="XMLID_2601_" class="st148" d="M95,107.7c10.4,3.7,19.3-2.6,23-11.6C89.2,60.9,71.1,2.6,52.3,2.1
		C30.6,1.5,10.4,16.2,10.9,17.8c0.6,1.7,24.1,16.3,26.8,19.3c4,4.2,8.5,33.7,8.5,33.7s7.4,8.4,23.8,18.8C82,97.1,95,107.7,95,107.7z
		"/>
	<path id="XMLID_2600_" class="st11" d="M52.3,2.1c11.3,0.3,23.5,19.2,33.5,42.1c-8,5.2-17.7-3.9-17.7-3.9s5.4,16.9-0.8,19.2
		c-6.2,2.3-13.6-10.6-13.6-10.6s1.5,17.4-8.3,17.6h0c-1.4-8.4-4.8-26.1-7.8-29.3C35,34.2,11.5,19.5,10.9,17.8
		C10.4,16.2,30.6,1.5,52.3,2.1z"/>
	<path id="XMLID_2599_" class="st150" d="M82.2,41.8c-2.4-0.2-4.2-2.2-4-4.6c0.1-1.6,1.2-3,2.6-3.6c1.3,2.5,2.5,5.1,3.7,7.7
		C83.8,41.7,83,41.9,82.2,41.8z"/>
	<path id="XMLID_2598_" class="st150" d="M43.5,55.6c0.4-0.1,0.8-0.1,1.2-0.1c2.4,0.2,4.2,2.2,4,4.6c-0.1,2-1.7,3.6-3.6,3.9
		C44.6,61.5,44.1,58.6,43.5,55.6z"/>
	<path id="XMLID_2597_" class="st150" d="M59.3,51.4c-0.2,2.4,1.6,4.4,4,4.6c2.4,0.2,4.4-1.6,4.6-4c0.2-2.4-1.6-4.4-4-4.6
		C61.5,47.3,59.5,49,59.3,51.4z"/>
	<path id="XMLID_2596_" class="st151" d="M328,170.6c168.4,14.2,222.1-42.1,238.8-73.6c-3.6-14.7-7.8-24.1-7.8-24.1
		s-15.6,102.9-233.1,84.6C108.3,139.2,46.2,70.8,46.2,70.8s-3.3,4.5-7.2,12.1C63.3,102.9,143,155,328,170.6z"/>
	<path id="XMLID_2595_" class="st147" d="M23,9.3c-0.1,6.7-4.3,7.3-4.3,7.3s3.1,3.2,1.3,8.1c0,0-20.3-6.2-20-7.8
		C0.3,15.1,23,9.3,23,9.3z"/>
	<path id="XMLID_2594_" class="st8" d="M0,16.8c0.1-0.6,2.9-1.7,6.5-2.8c-0.1,2.5-1.7,2.7-1.7,2.7s1.1,1.2,0.6,3
		C2.3,18.4-0.1,17.3,0,16.8z"/>
	<g id="XMLID_2590_">
		<path id="XMLID_2593_" class="st0" d="M33.9,14.8c-0.2,2.6,5.2,5.1,12.1,5.6c6.9,0.5,12.6-1.2,12.8-3.8c0.2-2.6-5.2-5.1-12.1-5.6
			C39.8,10.6,34.1,12.3,33.9,14.8z"/>
		<path id="XMLID_2592_" class="st8" d="M42.2,15.4c-0.2,2.3,1.5,4.2,3.8,4.4c2.3,0.2,4.2-1.5,4.4-3.8c0.2-2.3-1.5-4.2-3.8-4.4
			C44.4,11.5,42.4,13.2,42.2,15.4z"/>
		<path id="XMLID_2591_" class="st147" d="M43.6,15.5c-0.1,1.5,1,2.8,2.5,2.9c1.5,0.1,2.8-1,2.9-2.5c0.1-1.5-1-2.8-2.5-2.9
			C45,12.9,43.7,14,43.6,15.5z"/>
	</g>
	<path id="XMLID_2589_" class="st8" d="M46.8,2.3c37.7-7.2,52.5,4.7,51,8.7c-1.5,4-20.4-1.5-20.4-1.5s13.2,3.4,11.6,8.2
		C87.4,22.6,70.9,12,70.9,12s8.7,9.7,4.2,11.4C72.3,24.6,67,12.7,60.5,7.2C53.6,1.3,46.8,2.3,46.8,2.3z"/>
	<g id="XMLID_2585_">
		<path id="XMLID_2588_" class="st7" d="M46.2,5.5c-0.1,1,0.7,3.1,0.7,3.1s1-2,1.1-3s-0.3-1.9-0.8-1.9C46.7,3.7,46.2,4.5,46.2,5.5z"
			/>
		<path id="XMLID_2587_" class="st7" d="M53,6.7c-0.8,0.7-1.7,2.7-1.7,2.7s2.1-0.6,2.9-1.3c0.8-0.7,1.1-1.5,0.8-1.9
			C54.6,5.8,53.7,6,53,6.7z"/>
		<path id="XMLID_2586_" class="st7" d="M41.4,5.8c0.7,0.8,1.3,2.9,1.3,2.9S40.7,7.8,40,7c-0.7-0.8-0.9-1.7-0.5-2
			C39.8,4.7,40.7,5.1,41.4,5.8z"/>
	</g>
	<g id="XMLID_2581_">
		<path id="XMLID_2584_" class="st7" d="M46.7,27.3c0.1-1-0.7-3.1-0.7-3.1s-1,2-1.1,3c-0.1,1,0.3,1.9,0.8,1.9
			C46.1,29.1,46.6,28.3,46.7,27.3z"/>
		<path id="XMLID_2583_" class="st7" d="M39.9,26.2c0.8-0.7,1.7-2.7,1.7-2.7s-2.1,0.6-2.9,1.3c-0.8,0.7-1.1,1.5-0.8,1.9
			C38.2,27.1,39.1,26.9,39.9,26.2z"/>
		<path id="XMLID_2582_" class="st7" d="M51.5,27c-0.7-0.8-1.3-2.9-1.3-2.9s2,0.9,2.7,1.7c0.7,0.8,0.9,1.7,0.5,2
			C53,28.2,52.2,27.8,51.5,27z"/>
	</g>
	<path id="XMLID_2580_" class="st8" d="M60.6,66c-0.8-2.8-4.3-7.9-4.3-7.9s-0.1,6.2,0.7,9c0.8,2.8,2.3,4.9,3.3,4.6
		C61.3,71.4,61.4,68.9,60.6,66z"/>
	<path id="XMLID_2579_" class="st8" d="M79.9,55.1c-1.4-2.6-5.7-6.9-5.7-6.9s1.1,6.1,2.4,8.7c1.4,2.6,3.2,4.3,4.1,3.9
		C81.6,60.2,81.3,57.7,79.9,55.1z"/>
	<g id="XMLID_2576_">
		<path id="XMLID_2578_" class="st152" d="M29,15.4c1,0.1,3.1-0.7,3.1-0.7s-2-1-3-1.1c-1-0.1-1.9,0.3-1.9,0.8
			C27.2,14.9,28,15.3,29,15.4z"/>
		<path id="XMLID_2577_" class="st152" d="M64.1,17.9c-1-0.1-3-1.1-3-1.1s2.1-0.8,3.1-0.7c1,0.1,1.8,0.5,1.8,1
			C66,17.6,65.1,18,64.1,17.9z"/>
	</g>
	<path id="XMLID_2575_" class="st153" d="M499.1,117.2c0,0-1.7-6.4-5.6-7.4c0,0,45.7-20.2,65.4-36.9c0,0,0.3,9.7-6,14.3
		C546.7,91.7,516.2,113.3,499.1,117.2z"/>
	<path id="XMLID_2574_" class="st8" d="M511.3,147.6c0,0-0.6-8.2-5.8-13.9c0,0,42.2-23.2,53.4-60.8c0,0,8.8,14.5,7.8,24.1
		C566.8,97,558.7,124.9,511.3,147.6z"/>
	<path id="XMLID_2633_" class="st98" d="M26.9,149.7c8.7,49.5,64.3,107.1,264.2,123.6C454,286.8,525.5,249.8,554.4,204
		c-34.6,12.4-120.7,36.6-264.5,36.2C139.2,239.8,56.1,177.1,26.9,149.7z"/>
</g>
</svg>
