<svg version="1.1" id="boat-with-water_svg__Layer_1" xmlns="http://www.w3.org/2000/svg" x="0" y="0" viewBox="0 0 572.1 276.1" xml:space="preserve"><style>.boat-with-water_svg__st0{fill:#fffbf2}.boat-with-water_svg__st7{fill:#4fb8b5}.boat-with-water_svg__st8{fill:#f39100}.boat-with-water_svg__st11{fill:#e53212}.boat-with-water_svg__st147{fill:#45230c}.boat-with-water_svg__st148{fill:#2c1300}.boat-with-water_svg__st150{fill:#308983}.boat-with-water_svg__st152{fill:#942503}</style><g id="boat-with-water_svg__XMLID_2573_"><path id="boat-with-water_svg__XMLID_2628_" class="boat-with-water_svg__st147" d="M559 72.9s-80.9 74.1-249.6 60.6c-115.8-9.2-177.3-31.4-263.2-62.7 0 0 65.1 86.7 250.7 101.9 185.7 15.2 245.4-44.6 253.3-60.1 7.9-15.5 8.8-39.7 8.8-39.7z"/><path id="boat-with-water_svg__XMLID_2627_" class="boat-with-water_svg__st148" d="M118 96.1c-4.6 3.4-6.8 9.1-7.6 14.6-.5 3.5 4.6 9.2 4.5 12.7C66 97.1 46.2 70.8 46.2 70.8c27.1 9.9 47.1 17.3 71.8 25.3z"/><path id="boat-with-water_svg__XMLID_2626_" d="M308.7 143.5c-108.5-8.6-169.3-28.7-247.2-56.9C51 77.1 46.2 70.8 46.2 70.8c85.9 31.3 147.4 53.5 263.2 62.7C478.1 147 559 72.9 559 72.9s-.1 4.2-.9 10.1c-3.8 3.4-84.8 73.6-249.4 60.5z" fill="#5c3018"/><path id="boat-with-water_svg__XMLID_2625_" class="boat-with-water_svg__st11" d="M46.2 70.8s62.1 68.4 279.6 86.7S559 72.9 559 72.9 662 304 291.1 273.3C-79.8 242.5 46.2 70.8 46.2 70.8z"/><path id="boat-with-water_svg__XMLID_2624_" class="boat-with-water_svg__st0" d="M507.8 132.5c46-25.4 51.2-59.6 51.2-59.6s58.3 130.9-70.8 182.6c20.5-38.1 29.2-105.1 19.6-123z"/><path id="boat-with-water_svg__XMLID_2623_" class="boat-with-water_svg__st0" d="M507.8 132.5c46-25.4 51.2-59.6 51.2-59.6s58.3 130.9-70.8 182.6c20.5-38.1 29.2-105.1 19.6-123z"/><path id="boat-with-water_svg__XMLID_2622_" d="M518.3 126.1c7.2 22.8.4 80.1-16.2 123.2-4.4 2.2-9 4.3-13.9 6.2 20.6-38 29.3-105.1 19.7-123 3.7-2.1 7.2-4.2 10.4-6.4z" fill="#efe8c9"/><g id="boat-with-water_svg__XMLID_2613_"><path id="boat-with-water_svg__XMLID_2621_" class="boat-with-water_svg__st8" d="M285.2 197.8c-16.6-1.2-29.1-15.6-27.9-32.2.4-5.7 2.4-10.9 5.5-15.3 16.4 2.4 33.8 4.5 52.5 6.3 1.6 4.1 2.4 8.6 2.1 13.3-1.2 16.6-15.6 29.1-32.2 27.9z"/><path id="boat-with-water_svg__XMLID_2620_" class="boat-with-water_svg__st8" d="M228.5 159c-.7 10.2-9.6 17.8-19.7 17.1-10.2-.7-17.8-9.6-17.1-19.7.6-8.2 6.4-14.7 14-16.6 5.1 1.1 10.3 2.2 15.6 3.3 4.8 3.7 7.6 9.5 7.2 15.9z"/><path id="boat-with-water_svg__XMLID_2619_" class="boat-with-water_svg__st8" d="M379.4 174.3c-.7 10.2-9.6 17.8-19.7 17.1-10.2-.7-17.8-9.6-17.1-19.7.4-5.1 2.8-9.6 6.4-12.7 8.6.4 16.8.6 24.7.6 3.9 3.7 6.1 9 5.7 14.7z"/><path id="boat-with-water_svg__XMLID_2618_" class="boat-with-water_svg__st8" d="M442.7 174.4c-.7 10.2-9.6 17.8-19.7 17.1-10.2-.7-17.8-9.6-17.1-19.7.4-5.7 3.4-10.6 7.7-13.7 6.2-.5 12.1-1.2 17.7-2 7.2 2.9 12 10.2 11.4 18.3z"/><path id="boat-with-water_svg__XMLID_2617_" class="boat-with-water_svg__st8" d="M500.6 160.1c-.7 10.2-9.6 17.8-19.7 17.1-10.2-.7-17.8-9.6-17.1-19.7.2-3.2 1.2-6.1 2.8-8.5 8-2.2 15.4-4.7 22.1-7.4 7.4 2.7 12.5 10.1 11.9 18.5z"/><path id="boat-with-water_svg__XMLID_2616_" class="boat-with-water_svg__st8" d="M149.7 157.9c-10.2-.7-17.8-9.6-17.1-19.7.5-7 4.9-12.8 10.9-15.5 7.3 2.5 15 4.9 23.2 7.3 1.9 3.2 2.9 6.9 2.6 10.9-.6 10-9.4 17.7-19.6 17z"/><path id="boat-with-water_svg__XMLID_2615_" class="boat-with-water_svg__st8" d="M93 135.3c-10.2-.7-17.8-9.6-17.1-19.7.5-7.6 5.6-13.8 12.5-16.1 6.8 3.5 14.5 7.2 23.2 10.9.9 2.4 1.4 5.1 1.2 7.8-.8 10.2-9.7 17.8-19.8 17.1z"/><path id="boat-with-water_svg__XMLID_2614_" class="boat-with-water_svg__st8" d="M42.5 107.4c-4.5-.3-8.6-2.3-11.6-5.2C37 83.3 46.2 70.8 46.2 70.8s4.4 4.9 15.1 12.4c.7 2.2 1.1 4.6.9 7.1-.7 10.2-9.5 17.8-19.7 17.1z"/></g><g id="boat-with-water_svg__XMLID_2602_"><path id="boat-with-water_svg__XMLID_2612_" class="boat-with-water_svg__st0" d="M286.5 180.3c-7.6-.5-13.3-7.2-12.8-14.8.2-2.6 1.1-5 2.5-7 7.5 1.1 15.5 2.1 24.1 2.9.8 1.9 1.1 4 .9 6.1-.5 7.6-7.1 13.4-14.7 12.8z"/><path id="boat-with-water_svg__XMLID_2611_" class="boat-with-water_svg__st0" d="M217.3 158.5c-.3 4-3.7 7-7.7 6.7-4-.3-7-3.7-6.7-7.7.2-3.2 2.5-5.8 5.5-6.5 2 .4 4 .9 6.1 1.3 1.8 1.4 3 3.7 2.8 6.2z"/><path id="boat-with-water_svg__XMLID_2610_" class="boat-with-water_svg__st0" d="M367.4 174.8c-.3 3.6-3.4 6.3-7 6.1-3.6-.3-6.3-3.4-6.1-7 .1-1.8 1-3.4 2.3-4.5 3 .1 6 .2 8.8.2 1.4 1.3 2.2 3.2 2 5.2z"/><path id="boat-with-water_svg__XMLID_2609_" class="boat-with-water_svg__st0" d="M435.7 174.1c-.4 6.3-5.9 11-12.2 10.5-6.3-.4-11-5.9-10.5-12.2.3-3.5 2.1-6.6 4.8-8.5 3.8-.3 7.4-.8 10.9-1.2 4.4 1.9 7.3 6.4 7 11.4z"/><path id="boat-with-water_svg__XMLID_2608_" class="boat-with-water_svg__st0" d="M490.5 159.6c-.3 4.6-4.3 8.1-9 7.8-4.6-.3-8.1-4.3-7.8-9 .1-1.4.6-2.8 1.3-3.9 3.7-1 7-2.1 10-3.4 3.5 1.3 5.8 4.7 5.5 8.5z"/><path id="boat-with-water_svg__XMLID_2607_" class="boat-with-water_svg__st0" d="M150.1 151.7c-6.5-.5-11.5-6.2-11-12.7.3-4.5 3.1-8.3 7-10 4.7 1.6 9.7 3.2 15 4.7 1.2 2 1.9 4.5 1.7 7-.4 6.5-6.1 11.5-12.7 11z"/><path id="boat-with-water_svg__XMLID_2605_" class="boat-with-water_svg__st0" d="M93.9 122.6c-2.9-.2-5-2.7-4.8-5.5.2-2.1 1.6-3.9 3.5-4.5 1.9 1 4.1 2 6.5 3.1.3.7.4 1.4.3 2.2-.2 2.8-2.7 4.9-5.5 4.7z"/><path id="boat-with-water_svg__XMLID_2604_" class="boat-with-water_svg__st0" d="M39.7 99.2c-2.6-.2-4.9-1.3-6.6-3 3.5-10.7 8.7-17.8 8.7-17.8s2.5 2.8 8.6 7c.4 1.3.6 2.6.5 4.1-.5 5.8-5.5 10.2-11.2 9.7z"/></g><path id="boat-with-water_svg__XMLID_2601_" class="boat-with-water_svg__st148" d="M95 107.7c10.4 3.7 19.3-2.6 23-11.6-28.8-35.2-46.9-93.5-65.7-94-21.7-.6-41.9 14.1-41.4 15.7.6 1.7 24.1 16.3 26.8 19.3 4 4.2 8.5 33.7 8.5 33.7s7.4 8.4 23.8 18.8c12 7.5 25 18.1 25 18.1z"/><path id="boat-with-water_svg__XMLID_2600_" class="boat-with-water_svg__st11" d="M52.3 2.1c11.3.3 23.5 19.2 33.5 42.1-8 5.2-17.7-3.9-17.7-3.9s5.4 16.9-.8 19.2c-6.2 2.3-13.6-10.6-13.6-10.6s1.5 17.4-8.3 17.6c-1.4-8.4-4.8-26.1-7.8-29.3-2.6-3-26.1-17.7-26.7-19.4-.5-1.6 19.7-16.3 41.4-15.7z"/><path id="boat-with-water_svg__XMLID_2599_" class="boat-with-water_svg__st150" d="M82.2 41.8c-2.4-.2-4.2-2.2-4-4.6.1-1.6 1.2-3 2.6-3.6 1.3 2.5 2.5 5.1 3.7 7.7-.7.4-1.5.6-2.3.5z"/><path id="boat-with-water_svg__XMLID_2598_" class="boat-with-water_svg__st150" d="M43.5 55.6c.4-.1.8-.1 1.2-.1 2.4.2 4.2 2.2 4 4.6-.1 2-1.7 3.6-3.6 3.9-.5-2.5-1-5.4-1.6-8.4z"/><path id="boat-with-water_svg__XMLID_2597_" class="boat-with-water_svg__st150" d="M59.3 51.4c-.2 2.4 1.6 4.4 4 4.6 2.4.2 4.4-1.6 4.6-4 .2-2.4-1.6-4.4-4-4.6-2.4-.1-4.4 1.6-4.6 4z"/><path id="boat-with-water_svg__XMLID_2596_" d="M328 170.6c168.4 14.2 222.1-42.1 238.8-73.6-3.6-14.7-7.8-24.1-7.8-24.1s-15.6 102.9-233.1 84.6C108.3 139.2 46.2 70.8 46.2 70.8s-3.3 4.5-7.2 12.1c24.3 20 104 72.1 289 87.7z" fill="#69371d"/><path id="boat-with-water_svg__XMLID_2595_" class="boat-with-water_svg__st147" d="M23 9.3c-.1 6.7-4.3 7.3-4.3 7.3s3.1 3.2 1.3 8.1c0 0-20.3-6.2-20-7.8.3-1.8 23-7.6 23-7.6z"/><path id="boat-with-water_svg__XMLID_2594_" class="boat-with-water_svg__st8" d="M0 16.8c.1-.6 2.9-1.7 6.5-2.8-.1 2.5-1.7 2.7-1.7 2.7s1.1 1.2.6 3C2.3 18.4-.1 17.3 0 16.8z"/><g id="boat-with-water_svg__XMLID_2590_"><path id="boat-with-water_svg__XMLID_2593_" class="boat-with-water_svg__st0" d="M33.9 14.8c-.2 2.6 5.2 5.1 12.1 5.6 6.9.5 12.6-1.2 12.8-3.8.2-2.6-5.2-5.1-12.1-5.6-6.9-.4-12.6 1.3-12.8 3.8z"/><path id="boat-with-water_svg__XMLID_2592_" class="boat-with-water_svg__st8" d="M42.2 15.4c-.2 2.3 1.5 4.2 3.8 4.4 2.3.2 4.2-1.5 4.4-3.8.2-2.3-1.5-4.2-3.8-4.4-2.2-.1-4.2 1.6-4.4 3.8z"/><path id="boat-with-water_svg__XMLID_2591_" class="boat-with-water_svg__st147" d="M43.6 15.5c-.1 1.5 1 2.8 2.5 2.9 1.5.1 2.8-1 2.9-2.5.1-1.5-1-2.8-2.5-2.9-1.5-.1-2.8 1-2.9 2.5z"/></g><path id="boat-with-water_svg__XMLID_2589_" class="boat-with-water_svg__st8" d="M46.8 2.3C84.5-4.9 99.3 7 97.8 11c-1.5 4-20.4-1.5-20.4-1.5s13.2 3.4 11.6 8.2C87.4 22.6 70.9 12 70.9 12s8.7 9.7 4.2 11.4C72.3 24.6 67 12.7 60.5 7.2c-6.9-5.9-13.7-4.9-13.7-4.9z"/><g id="boat-with-water_svg__XMLID_2585_"><path id="boat-with-water_svg__XMLID_2588_" class="boat-with-water_svg__st7" d="M46.2 5.5c-.1 1 .7 3.1.7 3.1s1-2 1.1-3-.3-1.9-.8-1.9-1 .8-1 1.8z"/><path id="boat-with-water_svg__XMLID_2587_" class="boat-with-water_svg__st7" d="M53 6.7c-.8.7-1.7 2.7-1.7 2.7s2.1-.6 2.9-1.3c.8-.7 1.1-1.5.8-1.9-.4-.4-1.3-.2-2 .5z"/><path id="boat-with-water_svg__XMLID_2586_" class="boat-with-water_svg__st7" d="M41.4 5.8c.7.8 1.3 2.9 1.3 2.9s-2-.9-2.7-1.7c-.7-.8-.9-1.7-.5-2 .3-.3 1.2.1 1.9.8z"/></g><g id="boat-with-water_svg__XMLID_2581_"><path id="boat-with-water_svg__XMLID_2584_" class="boat-with-water_svg__st7" d="M46.7 27.3c.1-1-.7-3.1-.7-3.1s-1 2-1.1 3c-.1 1 .3 1.9.8 1.9.4 0 .9-.8 1-1.8z"/><path id="boat-with-water_svg__XMLID_2583_" class="boat-with-water_svg__st7" d="M39.9 26.2c.8-.7 1.7-2.7 1.7-2.7s-2.1.6-2.9 1.3c-.8.7-1.1 1.5-.8 1.9.3.4 1.2.2 2-.5z"/><path id="boat-with-water_svg__XMLID_2582_" class="boat-with-water_svg__st7" d="M51.5 27c-.7-.8-1.3-2.9-1.3-2.9s2 .9 2.7 1.7c.7.8.9 1.7.5 2-.4.4-1.2 0-1.9-.8z"/></g><path id="boat-with-water_svg__XMLID_2580_" class="boat-with-water_svg__st8" d="M60.6 66c-.8-2.8-4.3-7.9-4.3-7.9s-.1 6.2.7 9c.8 2.8 2.3 4.9 3.3 4.6 1-.3 1.1-2.8.3-5.7z"/><path id="boat-with-water_svg__XMLID_2579_" class="boat-with-water_svg__st8" d="M79.9 55.1c-1.4-2.6-5.7-6.9-5.7-6.9s1.1 6.1 2.4 8.7c1.4 2.6 3.2 4.3 4.1 3.9.9-.6.6-3.1-.8-5.7z"/><g id="boat-with-water_svg__XMLID_2576_"><path id="boat-with-water_svg__XMLID_2578_" class="boat-with-water_svg__st152" d="M29 15.4c1 .1 3.1-.7 3.1-.7s-2-1-3-1.1c-1-.1-1.9.3-1.9.8s.8.9 1.8 1z"/><path id="boat-with-water_svg__XMLID_2577_" class="boat-with-water_svg__st152" d="M64.1 17.9c-1-.1-3-1.1-3-1.1s2.1-.8 3.1-.7c1 .1 1.8.5 1.8 1s-.9.9-1.9.8z"/></g><path id="boat-with-water_svg__XMLID_2575_" d="M499.1 117.2s-1.7-6.4-5.6-7.4c0 0 45.7-20.2 65.4-36.9 0 0 .3 9.7-6 14.3-6.2 4.5-36.7 26.1-53.8 30z" fill="#dd8500"/><path id="boat-with-water_svg__XMLID_2574_" class="boat-with-water_svg__st8" d="M511.3 147.6s-.6-8.2-5.8-13.9c0 0 42.2-23.2 53.4-60.8 0 0 8.8 14.5 7.8 24.1.1 0-8 27.9-55.4 50.6z"/><path id="boat-with-water_svg__XMLID_2633_" d="M26.9 149.7c8.7 49.5 64.3 107.1 264.2 123.6C454 286.8 525.5 249.8 554.4 204c-34.6 12.4-120.7 36.6-264.5 36.2-150.7-.4-233.8-63.1-263-90.5z" fill="#3fa6a2"/></g></svg>