<?xml version="1.0" encoding="utf-8"?>
<!-- Generator: Adobe Illustrator 22.0.0, SVG Export Plug-In . SVG Version: 6.00 Build 0)  -->
<svg version="1.1" id="Layer_1" xmlns="http://www.w3.org/2000/svg" xmlns:xlink="http://www.w3.org/1999/xlink" x="0px" y="0px"
	 viewBox="0 0 119.7 115.9" style="enable-background:new 0 0 119.7 115.9;" xml:space="preserve">
<style type="text/css">
	.st0{fill:#FFFBF2;}
	.st1{fill:#F7F4DD;}
	.st2{fill:#593218;}
	.st3{opacity:0.51;fill:url(#);}
	.st4{fill:#565B21;}
	.st5{fill:#ABBF1A;}
	.st6{fill:#A0B21F;}
	.st7{fill:#4FB8B5;}
	.st8{fill:#F39100;}
	.st9{fill:#38A59E;}
	.st10{fill:#E73A2E;}
	.st11{fill:#E53212;}
	.st12{fill:#CA2718;}
	.st13{fill:#E57B08;}
	.st14{fill:#D5CDB0;}
	.st15{fill:#8F9B26;}
	.st16{fill:#268C87;}
	.st17{fill:#225B55;}
	.st18{fill:#28716A;}
	.st19{fill:#764119;}
	.st20{fill:#302015;}
	.st21{fill:#EA4E40;}
	.st22{fill:#FABA66;}
	.st23{fill:#91D0D4;}
	.st24{fill:#E37D08;}
	.st25{fill:#D06815;}
	.st26{fill:#F6A235;}
	.st27{fill:#F9C284;}
	.st28{fill:#F59A26;}
	.st29{fill:#C36317;}
	.st30{fill:#F8AD5C;}
	.st31{fill:#392215;}
	.st32{fill:#76411C;}
	.st33{fill:#743E18;}
	.st34{fill:#281B12;}
	.st35{fill:#8D9F27;}
	.st36{fill:#D2DB53;}
	.st37{fill:#5D6424;}
	.st38{fill:#2B9992;}
	.st39{fill:#77C6C4;}
	.st40{fill:#339C95;}
	.st41{fill:#1B675F;}
	.st42{fill:#C4B991;}
	.st43{fill:#3DA7A1;}
	.st44{fill:#41AAA4;}
	.st45{fill:#37988F;}
	.st46{fill:#70C4C3;}
	.st47{fill:#F9B050;}
	.st48{fill:#FABE77;}
	.st49{fill:#E2780B;}
	.st50{fill:#CE6716;}
	.st51{fill:none;stroke:#7F4014;stroke-width:4;}
	.st52{fill:none;stroke:#7F4014;stroke-width:3.1902;}
	.st53{fill:#92D0D2;}
	.st54{fill:#EA5345;}
	.st55{fill:#BB1E18;}
	.st56{opacity:0.6;fill:url(#);}
	.st57{fill:url(#);}
	.st58{fill:#492A17;}
	.st59{fill:#95A824;}
	.st60{opacity:0.7;fill:#E3DEC2;}
	.st61{fill:#E62E25;}
	.st62{fill:#E01D1C;}
	.st63{fill:#E0770D;}
	.st64{fill:#C86716;}
	.st65{fill:#FBC88D;}
	.st66{fill:#F1B261;}
	.st67{fill:#FFFFFF;}
	.st68{fill:none;stroke:#F39100;}
	.st69{fill:#5C3018;}
	.st70{fill:#26817A;}
	.st71{fill:#F7B695;}
	.st72{fill:none;stroke:#EE7370;stroke-width:2.0151;stroke-linecap:round;stroke-miterlimit:10;}
	.st73{fill:#CC2418;}
	.st74{fill:#DF8562;}
	.st75{fill:none;stroke:#593218;stroke-width:4.3735;stroke-linecap:round;stroke-miterlimit:10;}
	.st76{fill:#FAFAFB;}
	.st77{fill:#382B25;}
	.st78{fill:#5E463E;}
	.st79{fill:#DC750F;}
	.st80{fill:none;stroke:#7BC8C5;stroke-width:2.0151;stroke-linecap:round;stroke-miterlimit:10;}
	.st81{fill:#339993;}
	.st82{fill:#BB674B;}
	.st83{fill:none;stroke:#593218;stroke-width:1.9011;stroke-linecap:round;stroke-miterlimit:10;}
	.st84{fill:#341F15;}
	.st85{fill:none;stroke:#593218;stroke-width:1.1468;stroke-linecap:round;stroke-miterlimit:10;}
	.st86{fill:#398482;}
	.st87{fill:#45B8B4;}
	.st88{fill:#41ABA8;}
	.st89{fill:#3EA29F;}
	.st90{fill:#64605F;}
	.st91{opacity:0.2;fill:#4FB8B5;}
	.st92{opacity:0.16;fill:#1C481B;}
	.st93{fill:#495508;}
	.st94{fill:#3E4B04;}
	.st95{fill:#5E6C0D;}
	.st96{fill:#809114;}
	.st97{fill:#41ACA9;}
	.st98{fill:#3FA6A2;}
	.st99{fill:#58660C;}
	.st100{fill:#515F0A;}
	.st101{fill:#62710E;}
	.st102{fill:#54620B;}
	.st103{fill:#6E7D11;}
	.st104{fill:#22722E;}
	.st105{fill:#175823;}
	.st106{fill:#257E34;}
	.st107{fill:#278939;}
	.st108{fill:#E1DBC9;}
	.st109{fill:#C3BFB9;}
	.st110{fill:#F4EEE6;}
	.st111{fill:#E9E5E3;}
	.st112{fill:#C2D131;}
	.st113{fill:#97A918;}
	.st114{fill:#EDE1CD;}
	.st115{fill:#D98300;}
	.st116{fill:#C47800;}
	.st117{fill:#371A03;}
	.st118{fill:#834428;}
	.st119{fill:#934C2E;}
	.st120{fill:#814327;}
	.st121{fill:none;stroke:#4FB8B5;stroke-width:8.9839;stroke-linecap:round;}
	.st122{fill:#3B3734;}
	.st123{fill:#299137;}
	.st124{fill:#3F1F08;}
	.st125{opacity:0.87;fill:url(#);}
	.st126{fill:#2B948E;}
	.st127{fill:#2B7673;}
	.st128{fill:#358C89;}
	.st129{fill:#307F7C;}
	.st130{fill:#3FA7A4;}
	.st131{fill:#3B9B98;}
	.st132{fill:#D58100;}
	.st133{fill:#F6A544;}
	.st134{fill:#48250E;}
	.st135{fill:#F9FAFB;}
	.st136{fill:#B72C0A;}
	.st137{fill:#368D8A;}
	.st138{fill:#C9D644;}
	.st139{fill:#3B4703;}
	.st140{fill:#6F7F11;}
	.st141{fill:#616F0E;}
	.st142{fill:#53600B;}
	.st143{fill:#773E23;}
	.st144{fill:#BA2C0A;}
	.st145{fill:none;stroke:#7BC8C5;stroke-width:1.3449;stroke-linecap:round;stroke-miterlimit:10;}
	.st146{fill:none;stroke:#593218;stroke-width:2.919;stroke-linecap:round;stroke-miterlimit:10;}
	.st147{fill:#45230C;}
	.st148{fill:#2C1300;}
	.st149{fill:#EFE8C9;}
	.st150{fill:#308983;}
	.st151{fill:#69371D;}
	.st152{fill:#942503;}
	.st153{fill:#DD8500;}
	.st154{fill:#D14D96;}
	.st155{fill:#A41F69;}
	.st156{fill:#A79A62;}
	.st157{fill:#781A4A;}
	.st158{fill:#CC3A8D;}
	.st159{fill:#E67B07;}
	.st160{fill:#D46814;}
	.st161{fill:#E2760B;}
	.st162{fill:#E9E4C3;}
	.st163{fill:#E5DEBA;}
	.st164{fill:#F8EEDF;}
	.st165{fill:#CBD342;}
	.st166{fill:#439997;}
	.st167{fill:#CA7B00;}
	.st168{fill:#C02D0C;}
	.st169{fill:#8E9E1C;}
	.st170{fill:#206C2C;}
	.st171{fill:#1B5F26;}
	.st172{fill:#A1B21E;}
	.st173{fill:#8FA117;}
	.st174{fill:#DBDF5A;}
	.st175{fill:#328380;}
	.st176{fill:#1E6729;}
	.st177{fill:#257D34;}
	.st178{fill:#47240D;}
	.st179{fill:none;stroke:#C07842;stroke-width:2.3031;stroke-linecap:round;stroke-miterlimit:10;}
	.st180{fill:#C5D32D;}
	.st181{fill:#32712F;}
	.st182{fill:#2E6A2C;}
	.st183{fill:#88C05F;}
	.st184{fill:#278532;}
	.st185{fill:#9CAF21;}
	.st186{fill:#4EA535;}
	.st187{fill:#225221;}
	.st188{fill:#301500;}
	.st189{fill:#68361D;}
	.st190{fill:none;stroke:#C07842;stroke-width:1.9011;stroke-linecap:round;stroke-miterlimit:10;}
	.st191{fill:#2C662A;}
	.st192{fill:#CFCDC6;}
	.st193{fill:#E3E0D8;}
	.st194{fill:#A25935;}
	.st195{fill:none;stroke:#683C11;stroke-width:1.9011;stroke-linecap:round;stroke-miterlimit:10;}
	.st196{fill:#319D97;}
	.st197{fill:#814828;}
	.st198{fill:#1A4519;}
	.st199{fill:#265A24;}
	.st200{fill:#A9B632;}
	.st201{fill:none;stroke:#FFFBF2;stroke-width:2;stroke-linecap:round;stroke-miterlimit:10;}
	.st202{fill:#7B8B1A;}
	.st203{fill:#AD5D52;}
	.st204{fill:#BC6459;}
	.st205{fill:none;stroke:#432918;stroke-width:1.729;stroke-linecap:round;stroke-miterlimit:10;}
	.st206{fill:#F0867E;}
	.st207{fill:#A2574D;}
	.st208{fill:#CBBBA0;}
	.st209{fill:#F2E0D7;}
	.st210{fill:none;stroke:#A48A7B;stroke-linecap:round;stroke-miterlimit:10;}
	.st211{fill:none;stroke:#432918;stroke-width:2;stroke-linecap:round;stroke-miterlimit:10;}
	.st212{fill:#499932;}
	.st213{fill:#81921B;}
	.st214{opacity:0.11;fill:#175823;}
	.st215{fill:#337976;}
	.st216{fill:#A12806;}
	.st217{fill:#D0300E;}
</style>
<g id="XMLID_776_">
	<g id="XMLID_1334_">
		<path id="XMLID_1420_" class="st7" d="M117.5,115.6c-0.3,0.2-0.5-0.5-0.8-0.5c-0.4,0-0.4,0.4-0.7,0.4c-0.4,0-0.4,0.3-0.7,0.3
			c-0.4,0-0.4,0.1-0.7,0.1c-0.4,0-0.4-0.4-0.7-0.4c-0.4,0-0.4,0.1-0.7,0.1c-0.4,0-0.4,0.1-0.7,0.1s-0.4-0.5-0.7-0.5
			c-0.4,0-0.4,0.4-0.7,0.4c-0.4,0-0.4-0.2-0.7-0.2c-0.4,0-0.4,0.5-0.7,0.5c-0.4,0-0.4,0-0.7,0c-0.4,0-0.4-0.6-0.7-0.6
			c-0.4,0-0.4,0.7-0.7,0.7c-0.4,0-0.4-0.8-0.7-0.8c-0.4,0-0.4,0.6-0.7,0.6c-0.4,0-0.4-0.3-0.7-0.3c-0.4,0-0.4-0.3-0.7-0.3
			c-0.4,0-0.4,0.7-0.7,0.7c-0.4,0-0.4,0.1-0.7,0.1c-0.4,0-0.4-0.6-0.7-0.6c-0.4,0-0.4,0.3-0.7,0.3c-0.4,0-0.4-0.3-0.7-0.3
			c-0.4,0-0.4,0.1-0.7,0.1c-0.4,0-0.4-0.2-0.7-0.2c-0.4,0-0.4,0.5-0.7,0.5c-0.4,0-0.4-0.4-0.7-0.4c-0.4,0-0.4,0.1-0.7,0.1
			c-0.4,0-0.4,0.4-0.7,0.4c-0.4,0-0.4-0.6-0.7-0.6c-0.4,0-0.4,0.5-0.7,0.5c-0.4,0-0.4-0.8-0.7-0.8c-0.4,0-0.4,0-0.7,0
			c-0.4,0-0.4,0.8-0.7,0.8c-0.4,0-0.4-0.4-0.7-0.4c-0.4,0-0.4-0.4-0.7-0.4c-0.4,0-0.4,0-0.7,0c-0.4,0-0.4,0.3-0.7,0.3
			c-0.4,0-0.4,0.2-0.7,0.2c-0.4,0-0.4-0.5-0.7-0.5c-0.4,0-0.4,0-0.7,0c-0.4,0-0.4,0.2-0.7,0.2c-0.4,0-0.4,0.5-0.7,0.5
			c-0.4,0-0.4-0.6-0.7-0.6s-0.4,0-0.7,0c-0.4,0-0.4,0.5-0.7,0.5c-0.4,0-0.4-0.1-0.7-0.1c-0.4,0-0.4,0.3-0.7,0.3
			c-0.4,0-0.4-0.7-0.7-0.7c-0.4,0-0.4,0.2-0.7,0.2c-0.4,0-0.4-0.2-0.7-0.2s-0.4,0.1-0.7,0.1c-0.4,0-0.4-0.1-0.7-0.1
			c-0.4,0-0.4,0.7-0.7,0.7c-0.4,0-0.4,0-0.7,0c-0.4,0-0.4,0.1-0.7,0.1c-0.4,0-0.4-0.2-0.7-0.2c-0.4,0-0.4-0.4-0.7-0.4
			c-0.4,0-0.4,0.4-0.7,0.4c-0.4,0-0.4-0.3-0.7-0.3c-0.4,0-0.4-0.3-0.7-0.3c-0.4,0-0.4,0.3-0.7,0.3c-0.4,0-0.4,0.3-0.7,0.3
			c-0.4,0-0.4-0.5-0.7-0.5s-0.4,0.4-0.7,0.4c-0.4,0-0.4-0.5-0.7-0.5c-0.4,0-0.4,0.2-0.7,0.2c-0.4,0-0.4,0.6-0.7,0.6
			c-0.4,0-0.4-0.5-0.7-0.5s-0.4,0.5-0.7,0.5c-0.4,0-0.4-0.4-0.7-0.4c-0.4,0-0.4-0.1-0.7-0.1c-0.4,0-0.4,0.5-0.7,0.5
			c-0.4,0-0.4-0.7-0.7-0.7c-0.4,0-0.4,0.7-0.7,0.7c-0.4,0-0.4-0.2-0.7-0.2c-0.4,0-0.4-0.1-0.7-0.1c-0.4,0-0.4,0-0.7,0
			c-0.4,0-0.4-0.6-0.7-0.6c-0.4,0-0.4,0.7-0.7,0.7c-0.4,0-0.4-0.6-0.7-0.6c-0.4,0-0.4,0.4-0.7,0.4c-0.4,0-0.4-0.4-0.7-0.4
			c-0.4,0-0.4,0.1-0.7,0.1c-0.4,0-0.4,0.5-0.7,0.5c-0.4,0-0.4,0.1-0.7,0.1c-0.4,0-0.4-0.3-0.7-0.3c-0.4,0-0.4,0.3-0.7,0.3
			c-0.4,0-0.4-0.6-0.7-0.6c-0.4,0-0.4,0.3-0.7,0.3c-0.4,0-0.4,0.2-0.7,0.2c-0.4,0-0.4-0.2-0.7-0.2c-0.4,0-0.4-0.6-0.7-0.6
			c-0.4,0-0.4,0.5-0.7,0.5c-0.4,0-0.4,0.2-0.7,0.2c-0.4,0-0.4-0.7-0.7-0.7c-0.4,0-0.4,0-0.7,0c-0.4,0-0.4-0.1-0.7-0.1
			c-0.4,0-0.4,0.1-0.7,0.1c-0.4,0-0.4,0.6-0.7,0.6c-0.4,0-0.4,0.1-0.7,0.1c-0.4,0-0.4-0.1-0.7-0.1c-0.4,0-0.4-0.5-0.7-0.5
			c-0.4,0-0.4,0.4-0.7,0.4c-0.4,0-0.4-0.3-0.7-0.3c-0.4,0-0.4-0.1-0.7-0.1c-0.4,0-0.4-0.2-0.7-0.2c-0.4,0-0.4,0.8-0.7,0.8
			c-0.4,0-0.4-0.3-0.7-0.3c-0.4,0-0.4,0.1-0.7,0.1c-0.4,0-0.4-0.6-0.7-0.6c-0.4,0-0.4,0.4-0.7,0.4c-0.4,0-0.4-0.1-0.7-0.1
			c-0.4,0-0.4,0.5-0.7,0.5c-0.4,0-0.4-0.4-0.7-0.4c-0.4,0-0.4,0.3-0.7,0.3c-0.4,0-0.4-0.4-0.7-0.4c-0.4,0-0.4-0.1-0.7-0.1
			c-0.4,0-0.4,0-0.7,0c-0.4,0-0.4,0.7-0.7,0.7c-0.4,0-0.4-0.8-0.7-0.8c-0.4,0-0.4,0.5-0.7,0.5c-0.4,0-0.4,0.2-0.7,0.2
			s-0.4-0.2-0.7-0.2c-0.4,0-0.4-0.4-0.7-0.4c-0.4,0-0.4,0-0.7,0c-0.4,0-0.4,0.6-0.7,0.6c-0.4,0-0.4-0.2-0.7-0.2
			c-0.4,0-0.4-0.2-0.7-0.2c-0.4,0-0.4,0-0.7,0c-0.4,0-0.4,0.5-0.7,0.5c-0.4,0-0.4-0.3-0.7-0.3c-0.4,0-0.4-0.4-0.7-0.4
			c-0.4,0-0.4,0.2-0.7,0.2c-0.4,0-0.4,0.6-0.7,0.6c-0.4,0-0.4,0-0.7,0c-0.4,0-0.4-0.5-0.7-0.5c-0.4,0-0.4,0.3-0.7,0.3
			c-0.4,0-0.4-0.4-0.7-0.4c-0.4,0-0.4,0.4-0.7,0.4c-0.4,0-0.4-0.4-0.7-0.4c-0.4,0-0.4,0.5-0.7,0.5c-0.4,0-0.4-0.3-0.7-0.3
			c-0.4,0-0.4-0.5-0.7-0.5c-0.4,0-0.4,0.7-0.7,0.7c-0.4,0-0.4-0.1-0.7-0.1c-0.4,0-0.4-0.5-0.7-0.5c-0.4,0-0.4-0.1-0.7-0.1
			c-0.4,0-0.4,0.8-0.7,0.8c-0.4,0-0.4-0.4-0.7-0.4c-0.4,0-0.4,0.1-0.7,0.1c-0.4,0-0.4-0.1-0.7-0.1c-0.4,0-0.4,0.3-0.7,0.3
			c-0.4,0-0.4-0.5-0.7-0.5c-0.4,0-0.4,0-0.7,0c-0.4,0-0.4,0.5-0.7,0.5c-0.4,0-0.4-0.4-0.7-0.4c-0.4,0-0.4,0-0.7,0s-0.4,0.3-0.7,0.3
			c-0.4,0-0.4,0.3-0.7,0.3c-0.4,0-0.6,0-0.9-0.2c-0.3-0.2,0.4-0.6,0.4-0.9c0-0.4,0.1-0.4,0.1-0.7c0-0.4-0.6-0.3-0.6-0.7
			c0-0.4,0.3-0.4,0.3-0.7c0-0.4,0.4-0.4,0.4-0.7c0-0.4-0.1-0.3-0.1-0.7c0-0.4-0.2-0.3-0.2-0.7c0-0.4-0.1-0.4-0.1-0.7
			c0-0.4-0.1-0.2-0.2-0.6c0-0.4,0.2-0.5,0.2-0.8c0-0.4,0.3-0.4,0.2-0.7c0-0.4-0.1-0.4-0.1-0.7c0-0.4-0.8-0.3-0.8-0.7
			c0-0.4,0.1-0.4,0.1-0.7c0-0.4,0-0.4,0-0.7c0-0.4,0.3-0.4,0.3-0.7c0-0.4-0.3-0.3-0.3-0.7c0-0.4,0.3-0.4,0.3-0.7
			c0-0.4,0.3-0.4,0.3-0.7c0-0.4-0.5-0.3-0.5-0.7c0-0.4,0.6-0.4,0.6-0.7c0-0.4-0.7-0.3-0.7-0.7c0-0.4,0.5-0.4,0.5-0.7
			c0-0.4-0.6-0.3-0.6-0.7c0-0.4,0.6-0.4,0.5-0.7c0-0.4-0.6-0.3-0.6-0.7c0-0.4,0.7-0.4,0.7-0.7c0-0.4-0.1-0.4-0.1-0.7
			c0-0.4-0.4-0.3-0.4-0.7c0-0.4,0.6-0.4,0.6-0.7c0-0.4-0.7-0.3-0.8-0.7c0-0.4,0-0.4,0-0.7c0-0.4,0.3-0.4,0.3-0.7
			c0-0.4-0.1-0.4-0.1-0.7c0-0.4,0.3-0.4,0.3-0.7c0-0.4,0.1-0.4,0.1-0.7c0-0.4-0.4-0.3-0.4-0.7c0-0.4-0.4-0.3-0.4-0.7
			c0-0.4,0.5-0.4,0.5-0.7c0-0.4-0.4-0.3-0.4-0.7c0-0.4,0.4-0.4,0.4-0.7C1.4,86,1,86,1,85.7c0-0.4,0.5-0.4,0.5-0.7
			c0-0.4-0.2-0.3-0.2-0.7c0-0.4-0.5-0.3-0.5-0.7c0-0.4,0.2-0.4,0.2-0.7c0-0.4,0-0.4,0-0.7c0-0.4-0.3-0.3-0.3-0.7
			c0-0.4,0.1-0.4,0-0.7C0.7,80.3,1,80.3,1,80c0-0.4,0.4-0.4,0.4-0.7c0-0.4,0-0.4,0-0.7c0-0.4-0.5-0.3-0.5-0.7c0-0.4-0.2-0.3-0.3-0.7
			c0-0.4,0.2-0.4,0.2-0.7c0-0.4,0.1-0.4,0.1-0.7c0-0.4-0.4-0.3-0.5-0.7c0-0.4,0.3-0.4,0.3-0.7c0-0.4-0.3-0.3-0.3-0.7
			c0-0.4,0.6-0.4,0.6-0.7c0-0.4-0.3-0.3-0.3-0.7c0-0.4-0.1-0.4-0.1-0.7c0-0.4,0.7-0.4,0.6-0.7C1.2,70.4,1,70.4,1,70
			c0-0.4-0.1-0.4-0.1-0.7c0-0.4-0.4-0.3-0.4-0.7c0-0.4-0.3-0.3-0.4-0.7c0-0.4,0.1-0.4,0.1-0.7c0-0.4,0.3-0.4,0.3-0.7
			c0-0.4-0.2-0.3-0.2-0.7c0-0.4-0.2-0.3-0.2-0.7c0-0.4,0.3-0.4,0.3-0.7c0-0.4,0.4-0.4,0.4-0.7c0-0.4-0.4-0.3-0.4-0.7
			c0-0.4-0.2-0.3-0.2-0.7c0-0.4-0.2-0.3-0.2-0.7c0-0.4,0.2-0.4,0.2-0.7c0-0.4,0.5-0.4,0.5-0.7c0-0.4-0.3-0.3-0.3-0.7
			c0-0.4,0.1-0.4,0.1-0.7c0-0.4-0.4-0.4-0.4-0.7c0-0.4,0.5-0.3,0.5-0.7c0-0.4-0.2-0.4-0.2-0.7c0-0.4-0.2-0.4-0.1-0.7
			c0-0.4,0-0.4,0-0.7c0-0.4,0-0.4,0-0.7C0.2,54,0,54,0,53.7c0-0.4,0.6-0.3,0.6-0.7c0-0.4,0.2-0.3,0.2-0.7c0-0.4-0.6-0.4-0.5-0.7
			c0-0.4,0.2-0.3,0.2-0.7c0-0.4,0.3-0.3,0.3-0.7c0-0.4-0.3-0.4-0.3-0.7c0-0.4,0.4-0.3,0.4-0.7c0-0.4-0.3-0.4-0.3-0.7
			c0-0.4,0.2-0.3,0.2-0.7c0-0.4,0.1-0.4,0.1-0.7c0-0.4-0.4-0.4-0.4-0.7c0-0.4,0.5-0.3,0.5-0.7c0-0.4-0.6-0.4-0.6-0.7
			c0-0.4,0.4-0.3,0.5-0.7s0.2-0.3,0.2-0.7c0-0.4-0.6-0.4-0.6-0.7c0-0.4-0.1-0.4-0.1-0.7c0-0.4,0.1-0.4,0.1-0.7
			c0-0.4,0.1-0.4,0.2-0.7c0-0.4,0.1-0.4,0.1-0.7c0-0.4,0.3-0.3,0.3-0.7c0-0.4,0-0.4,0.1-0.7c0-0.4-0.4-0.4-0.4-0.7
			c0-0.4,0.3-0.3,0.4-0.7c0-0.4,0-0.4,0-0.7c0-0.4,0.4-0.3,0.4-0.7c0-0.4-0.3-0.4-0.3-0.7c0-0.4-0.2-0.4-0.2-0.7
			c0-0.4,0.5-0.3,0.6-0.7c0-0.4,0.1-0.4,0.1-0.7c0-0.4-0.7-0.4-0.7-0.7c0-0.4,0-0.4,0-0.7c0-0.4,0.2-0.3,0.2-0.7
			c0-0.4-0.2-0.4-0.2-0.7c0-0.4,0.1-0.4,0.1-0.7c0-0.4,0.8-0.3,0.8-0.7c0-0.4-0.1-0.4,0-0.7c0-0.4-0.2-0.4-0.2-0.7
			c0-0.4,0.1-0.4,0.1-0.7c0-0.4,0.2-0.3,0.2-0.7c0-0.4-0.6-0.4-0.6-0.7c0-0.4,0.6-0.3,0.7-0.7c0-0.4-0.3-0.4-0.3-0.7
			c0-0.4-0.3-0.4-0.3-0.7c0-0.4,0.3-0.3,0.3-0.7c0-0.4-0.4-0.4-0.4-0.7c0-0.4,0.3-0.3,0.3-0.7c0-0.4,0-0.4,0-0.7
			c0-0.4,0.2-0.3,0.2-0.7c0-0.4,0.1-0.4,0.1-0.7c0-0.4,0.3-0.3,0.3-0.7c0-0.4,0.1-0.4,0.1-0.7c0-0.4-0.6-0.4-0.6-0.7
			c0-0.4-0.1-0.4-0.1-0.7c0-0.4,0.2-0.3,0.2-0.7c0-0.4,0.4-0.3,0.4-0.7c0-0.4-0.6-0.4-0.6-0.7c0-0.4,0.1-0.4,0.1-0.7
			c0-0.4,0-0.4,0-0.7c0-0.4,0.8-0.3,0.8-0.7c0-0.4-0.2-0.4-0.2-0.7c0-0.4,0.2-0.3,0.2-0.7c0-0.4,0-0.4,0-0.7c0-0.4-0.2-0.4-0.2-0.7
			c0-0.4-0.2-0.4-0.2-0.7c0-0.4,0.4-0.3,0.4-0.7c0-0.4-0.1-0.4-0.1-0.7c0-0.4,0.3-0.3,0.3-0.7c0-0.4-0.6-0.4-0.6-0.7
			c0-0.4,0.6-0.3,0.6-0.7c0-0.4-0.6-0.4-0.6-0.7c0-0.4,0.7-0.3,0.8-0.7c0-0.4,0-0.4,0.1-0.7c0-0.4-0.2-0.4-0.2-0.7
			c0-0.4-0.5-0.5-0.3-0.8c0.3-0.2,0.4,0.4,0.8,0.4c0.4,0,0.4,0.1,0.7,0.1c0.4,0,0.4-0.7,0.7-0.7c0.4,0,0.4,0.1,0.7,0.1
			c0.4,0,0.4,0.6,0.7,0.6C6.3,0.8,6.3,0,6.6,0S7,0.2,7.3,0.2c0.4,0,0.4-0.1,0.7-0.1c0.4,0,0.4,0.4,0.7,0.4c0.4,0,0.4,0.2,0.7,0.2
			c0.4,0,0.4-0.1,0.7-0.1s0.4-0.5,0.7-0.5s0.4,0.3,0.7,0.3s0.4-0.2,0.7-0.2c0.4,0,0.4,0.1,0.7,0.1c0.4,0,0.4,0.3,0.7,0.3
			c0.4,0,0.4-0.2,0.7-0.2c0.4,0,0.4,0.2,0.7,0.2c0.4,0,0.4-0.5,0.7-0.5c0.4,0,0.4,0.6,0.7,0.6c0.4,0,0.4,0.2,0.7,0.2
			c0.4,0,0.4-0.2,0.7-0.2c0.4,0,0.4-0.5,0.7-0.5c0.4,0,0.4,0,0.7,0c0.4,0,0.4,0.2,0.7,0.2c0.4,0,0.4-0.1,0.7-0.1
			c0.4,0,0.4-0.2,0.7-0.2c0.4,0,0.4,0,0.7,0c0.4,0,0.4,0.1,0.7,0.1c0.4,0,0.4-0.1,0.7-0.1c0.4,0,0.4,0.4,0.7,0.4
			c0.4,0,0.4-0.3,0.7-0.3c0.4,0,0.4-0.3,0.7-0.3c0.4,0,0.4,0.6,0.7,0.6c0.4,0,0.4-0.5,0.7-0.5c0.4,0,0.4,0.3,0.7,0.3
			c0.4,0,0.4-0.3,0.7-0.3c0.4,0,0.4,0,0.7,0s0.4,0.4,0.7,0.4c0.4,0,0.4,0.2,0.7,0.2c0.4,0,0.4-0.2,0.7-0.2C32,0.5,32,0,32.3,0
			c0.4,0,0.4,0.1,0.7,0.1c0.4,0,0.4,0.4,0.7,0.4c0.4,0,0.4-0.2,0.7-0.2c0.4,0,0.4,0.6,0.7,0.6c0.4,0,0.4-0.7,0.7-0.7
			c0.4,0,0.4,0.4,0.7,0.4s0.4,0.2,0.7,0.2c0.4,0,0.4-0.2,0.7-0.2c0.4,0,0.4-0.5,0.7-0.5c0.4,0,0.4,0.4,0.7,0.4
			c0.4,0,0.4,0.5,0.7,0.5c0.4,0,0.4-0.3,0.7-0.3c0.4,0,0.4-0.5,0.7-0.5c0.4,0,0.4,0.1,0.7,0.1c0.4,0,0.4,0.4,0.7,0.4
			c0.4,0,0.4-0.3,0.7-0.3c0.4,0,0.4,0,0.7,0c0.4,0,0.4,0,0.7,0c0.4,0,0.4-0.1,0.7-0.1c0.4,0,0.4-0.2,0.7-0.2C47,0,47,0.8,47.3,0.8
			c0.4,0,0.4-0.3,0.7-0.3c0.4,0,0.4,0.2,0.7,0.2c0.4,0,0.4-0.5,0.7-0.5c0.4,0,0.4,0.2,0.7,0.2c0.4,0,0.4,0.2,0.7,0.2
			c0.4,0,0.4,0.1,0.7,0.1c0.4,0,0.4-0.2,0.7-0.2s0.4-0.3,0.7-0.3c0.4,0,0.4,0.3,0.7,0.3c0.4,0,0.4,0.2,0.7,0.2
			c0.4,0,0.4-0.3,0.7-0.3c0.4,0,0.4,0,0.7,0c0.4,0,0.4,0.1,0.7,0.1c0.4,0,0.4-0.5,0.7-0.5c0.4,0,0.4,0.8,0.7,0.8
			c0.4,0,0.4-0.8,0.7-0.8c0.4,0,0.4,0.3,0.7,0.3c0.4,0,0.4,0.3,0.7,0.3c0.4,0,0.4-0.5,0.7-0.5c0.4,0,0.4,0.6,0.7,0.6
			c0.4,0,0.4-0.2,0.7-0.2c0.4,0,0.4,0,0.7,0c0.4,0,0.4,0.1,0.7,0.1c0.4,0,0.4,0,0.7,0c0.4,0,0.4-0.5,0.7-0.5c0.4,0,0.4-0.2,0.7-0.2
			c0.4,0,0.4,0.2,0.7,0.2c0.4,0,0.4,0.1,0.7,0.1c0.4,0,0.4,0.4,0.7,0.4c0.4,0,0.4-0.1,0.7-0.1c0.4,0,0.4-0.3,0.7-0.3
			c0.4,0,0.4,0.6,0.7,0.6c0.4,0,0.4,0,0.7,0c0.4,0,0.4,0,0.7,0c0.4,0,0.4-0.6,0.7-0.6s0.4-0.2,0.7-0.2c0.4,0,0.4,0.7,0.7,0.7
			c0.4,0,0.4-0.5,0.7-0.5c0.4,0,0.4,0.2,0.7,0.2c0.4,0,0.4,0.1,0.7,0.1c0.4,0,0.4-0.1,0.7-0.1s0.4-0.4,0.7-0.4
			c0.4,0,0.4,0.4,0.7,0.4c0.4,0,0.4-0.1,0.7-0.1c0.4,0,0.4,0.3,0.7,0.3c0.4,0,0.4-0.5,0.7-0.5c0.4,0,0.4,0,0.7,0c0.4,0,0.4,0,0.7,0
			c0.4,0,0.4,0.8,0.7,0.8c0.4,0,0.4-0.1,0.7-0.1c0.4,0,0.4-0.8,0.7-0.8c0.4,0,0.4,0.8,0.7,0.8s0.4,0,0.7,0c0.4,0,0.4,0,0.7,0
			c0.4,0,0.4-0.4,0.7-0.4c0.4,0,0.4-0.3,0.7-0.3c0.4,0,0.4,0,0.7,0s0.4,0.4,0.7,0.4c0.4,0,0.4,0,0.7,0c0.4,0,0.4,0.1,0.7,0.1
			c0.4,0,0.4,0.3,0.7,0.3c0.4,0,0.4-0.8,0.7-0.8c0.4,0,0.4,0.7,0.7,0.7c0.4,0,0.4,0,0.7,0c0.4,0,0.4-0.2,0.7-0.2
			c0.4,0,0.4,0.2,0.7,0.2c0.4,0,0.4,0,0.7,0c0.4,0,0.4-0.6,0.7-0.6c0.4,0,0.4,0.6,0.7,0.6c0.4,0,0.4-0.8,0.7-0.8s0.4,0.4,0.7,0.4
			c0.4,0,0.4,0.1,0.7,0.1c0.4,0,0.4,0.2,0.7,0.2c0.4,0,0.4,0.1,0.7,0.1c0.4,0,0.4-0.2,0.7-0.2c0.4,0,0.4,0.2,0.7,0.2
			c0.4,0,0.4,0,0.7,0c0.4,0,0.4-0.3,0.7-0.3c0.4,0,0.4,0.1,0.7,0.1c0.4,0,0.4-0.3,0.7-0.3c0.4,0,0.4,0.4,0.7,0.4
			c0.4,0,0.4,0.2,0.7,0.2c0.4,0,0.4-0.5,0.7-0.5c0.4,0,0.4-0.1,0.7-0.1c0.4,0,0.4,0,0.7,0c0.4,0,0.4,0.2,0.7,0.2
			c0.4,0,0.4,0.1,0.7,0.1c0.4,0,0.4,0.5,0.7,0.5c0.4,0,0.4-0.5,0.7-0.5c0.4,0,0.4,0.5,0.7,0.5s0.4-0.3,0.7-0.3c0.4,0,0.4,0,0.7,0
			c0.4,0,0.4,0.1,0.7,0.1c0.4,0,0.4-0.4,0.7-0.4c0.4,0,0.4,0.2,0.7,0.2c0.4,0,0.4-0.2,0.7-0.2c0.4,0,0.4-0.1,0.7-0.1
			c0.4,0,0.7-0.1,1,0.1c0.3,0.2,0.2,0.6,0.2,1c0,0.4-0.2,0.4-0.2,0.7c0,0.4,0.2,0.3,0.2,0.7c0,0.4-0.6,0.4-0.6,0.7
			c0,0.4,0.6,0.3,0.6,0.7c0,0.4,0,0.4,0.1,0.7c0,0.4,0,0.4,0,0.7c0,0.4,0.1,0.4,0.1,0.7c0,0.4-0.4,0.4-0.4,0.7
			c0,0.4,0.2,0.3,0.2,0.7c0,0.4-0.1,0.4-0.1,0.7c0,0.4-0.2,0.4-0.1,0.7c0,0.4-0.1,0.4-0.1,0.7c0,0.4,0.6,0.3,0.6,0.7
			c0,0.4-0.1,0.4-0.1,0.7c0,0.4-0.5,0.4-0.5,0.7c0,0.4,0.5,0.3,0.5,0.7c0,0.4-0.5,0.4-0.5,0.7c0,0.4,0.8,0.3,0.8,0.7
			c0,0.4-0.1,0.4-0.1,0.7c0,0.4-0.3,0.4-0.3,0.7c0,0.4,0.6,0.3,0.6,0.7c0,0.4-0.7,0.4-0.7,0.7c0,0.4,0.5,0.3,0.5,0.7
			c0,0.4,0.1,0.4,0.1,0.7c0,0.4-0.2,0.4-0.2,0.7c0,0.4,0.1,0.4,0.1,0.7c0,0.4-0.4,0.4-0.4,0.7c0,0.4,0.6,0.3,0.6,0.7
			c0,0.4-0.5,0.4-0.5,0.7c0,0.4,0.4,0.3,0.4,0.7c0,0.4,0.2,0.3,0.2,0.7c0,0.4,0,0.4,0.1,0.7c0,0.4-0.1,0.4-0.1,0.7
			c0,0.4-0.2,0.4-0.2,0.7c0,0.4,0,0.4,0,0.7c0,0.4,0.4,0.3,0.4,0.7c0,0.4-0.3,0.4-0.2,0.7c0,0.4,0.1,0.4,0.1,0.7
			c0,0.4-0.5,0.4-0.4,0.7s0.2,0.3,0.2,0.7c0,0.4-0.4,0.4-0.4,0.7c0,0.4,0.8,0.3,0.8,0.7c0,0.4-0.4,0.4-0.3,0.7
			c0,0.4-0.3,0.4-0.3,0.7c0,0.4,0.5,0.3,0.5,0.7c0,0.4-0.5,0.4-0.5,0.7c0,0.4,0.6,0.3,0.6,0.7c0,0.4,0.1,0.4,0.1,0.7
			c0,0.4-0.1,0.4-0.1,0.7c0,0.4-0.6,0.4-0.6,0.7c0,0.4,0.2,0.3,0.2,0.7c0,0.4,0.2,0.3,0.2,0.7c0,0.4-0.3,0.4-0.3,0.7
			c0,0.4,0,0.4,0,0.7c0,0.4,0.3,0.3,0.3,0.7c0,0.4,0.2,0.3,0.2,0.7c0,0.4,0,0.4,0,0.7c0,0.4-0.5,0.4-0.5,0.7c0,0.4,0.6,0.3,0.6,0.7
			c0,0.4-0.5,0.4-0.5,0.7c0,0.4,0.6,0.3,0.6,0.7c0,0.4,0.2,0.3,0.2,0.7c0,0.4-0.9,0.4-0.8,0.7c0,0.4,0.4,0.3,0.4,0.7
			c0,0.4,0.5,0.3,0.5,0.7c0,0.4-0.3,0.4-0.3,0.7c0,0.4,0.1,0.4,0.2,0.7c0,0.4-0.1,0.4-0.1,0.7c0,0.4,0.2,0.3,0.3,0.7
			c0,0.4,0,0.4,0,0.7c0,0.4-0.3,0.4-0.3,0.7c0,0.4,0.3,0.3,0.3,0.7c0,0.4,0,0.4,0,0.7c0,0.4-0.1,0.4-0.1,0.7c0,0.4,0.3,0.3,0.3,0.7
			c0,0.4-0.7,0.4-0.7,0.7c0,0.4,0.5,0.3,0.5,0.7c0,0.4,0,0.4,0,0.7c0,0.4-0.1,0.4-0.1,0.7c0,0.4,0,0.4,0,0.7c0,0.4,0.2,0.4,0.2,0.7
			c0,0.4-0.3,0.3-0.3,0.7c0,0.4,0.1,0.4,0.1,0.7c0,0.4-0.2,0.3-0.2,0.7c0,0.4,0.2,0.4,0.2,0.7c0,0.4-0.5,0.3-0.5,0.7
			s0.3,0.4,0.3,0.7c0,0.4-0.1,0.4-0.1,0.7c0,0.4,0.1,0.4,0.1,0.7c0,0.4,0.4,0.4,0.4,0.7c0,0.4-0.4,0.3-0.4,0.7
			c0,0.4,0.2,0.4,0.2,0.7c0,0.4-0.1,0.4-0.1,0.7c0,0.4-0.2,0.3-0.2,0.7c0,0.4-0.2,0.3-0.2,0.7c0,0.4-0.1,0.4-0.1,0.7
			c0,0.4-0.2,0.3-0.2,0.7c0,0.4,0.8,0.4,0.8,0.7c0,0.4-0.3,0.3-0.3,0.7c0,0.4,0.2,0.4,0.1,0.7c0,0.4-0.1,0.4-0.1,0.7
			c0,0.4-0.2,0.3-0.2,0.7c0,0.4-0.2,0.3-0.2,0.7c0,0.4,0.2,0.4,0.2,0.7c0,0.4-0.5,0.3-0.5,0.7c0,0.4,0.2,0.4,0.2,0.7
			c0,0.4,0.4,0.4,0.4,0.7c0,0.4-0.2,0.3-0.2,0.7c0,0.4,0.2,0.4,0.2,0.7c0,0.4-0.4,0.3-0.4,0.7c0,0.4,0.4,0.4,0.4,0.7
			c0,0.4,0,0.4,0,0.7c0,0.4-0.7,0.3-0.7,0.7c0,0.4,0.6,0.4,0.5,0.7c0,0.4-0.6,0.3-0.6,0.7c0,0.4,0.7,0.4,0.7,0.7
			c0,0.4-0.7,0.3-0.7,0.7c0,0.4,0.5,0.4,0.5,0.7c0,0.4-0.1,0.3-0.2,0.7c0,0.4-0.2,0.3-0.2,0.7c0,0.4,0.6,0.4,0.5,0.7
			c0,0.4-0.7,0.3-0.7,0.7c0,0.4,0.5,0.4,0.4,0.7c0,0.4-0.2,0.3-0.2,0.7c0,0.4,0,0.4,0,0.7c0,0.4,0,0.4,0,0.7c0,0.4-0.2,0.3-0.2,0.7
			c0,0.4-0.2,0.3-0.2,0.7c0,0.4,0,0.4-0.1,0.7c0,0.4,0.7,0.4,0.6,0.7c0,0.4-0.4,0.3-0.4,0.7c0,0.4,0,0.4,0,0.7
			c0,0.4-0.2,0.3-0.2,0.7c0,0.4,0.2,0.4,0.2,0.7c0,0.4,0.3,0.4,0.3,0.7c0,0.4-0.2,0.3-0.2,0.7c0,0.4-0.2,0.3-0.2,0.7
			c0,0.4,0.4,0.4,0.4,0.7c0,0.4-0.6,0.3-0.6,0.7c0,0.4,0.2,0.4,0.1,0.7c0,0.4-0.2,0.3-0.2,0.7c0,0.4,0.5,0.4,0.5,0.7
			c0,0.4-0.4,0.3-0.4,0.7c0,0.4-0.3,0.3-0.3,0.7c0,0.4,0.4,0.4,0.4,0.7c0,0.4,0.1,0.4,0,0.7c0,0.4-0.2,0.3-0.2,0.7
			c0,0.4,0,0.4,0,0.7c0,0.4,0,0.4,0,0.7c0,0.4-0.3,0.3-0.3,0.7c0,0.4,0,0.4,0,0.7c0,0.4-0.2,0.3-0.2,0.7c0,0.4,0.6,0.4,0.6,0.7
			c0,0.4,0,0.4,0,0.7c0,0.4-0.1,0.4-0.1,0.7c0,0.4-0.2,0.3-0.2,0.7c0,0.4-0.1,0.4-0.2,0.7c0,0.4-0.1,0.4-0.1,0.7
			c0,0.4,0.1,0.4,0.1,0.7c0,0.4-0.4,0.5-0.3,0.8C117.1,115.2,117.7,115.3,117.5,115.6z"/>
		<path id="XMLID_1418_" class="st114" d="M9.8,8c0.2-0.2,0.4,0.5,0.7,0.5c0.3,0,0.3-0.3,0.6-0.3c0.3,0,0.3-0.3,0.6-0.3
			c0.3,0,0.3-0.1,0.6-0.1c0.3,0,0.3,0.4,0.6,0.4c0.3,0,0.3-0.1,0.6-0.1c0.3,0,0.3-0.1,0.6-0.1c0.3,0,0.3,0.4,0.6,0.4
			c0.3,0,0.3-0.3,0.6-0.3c0.3,0,0.3,0.2,0.6,0.2c0.3,0,0.3-0.5,0.6-0.5c0.3,0,0.3,0,0.6,0c0.3,0,0.3,0.5,0.6,0.5
			c0.3,0,0.3-0.6,0.6-0.6c0.3,0,0.3,0.7,0.6,0.7c0.3,0,0.3-0.5,0.6-0.5c0.3,0,0.3,0.3,0.6,0.3c0.3,0,0.3,0.3,0.6,0.3
			c0.3,0,0.3-0.6,0.6-0.6c0.3,0,0.3-0.1,0.6-0.1c0.3,0,0.3,0.5,0.6,0.5c0.3,0,0.3-0.2,0.6-0.2s0.3,0.2,0.6,0.2
			c0.3,0,0.3-0.1,0.6-0.1c0.3,0,0.3,0.1,0.6,0.1c0.3,0,0.3-0.5,0.6-0.5c0.3,0,0.3,0.4,0.6,0.4c0.3,0,0.3-0.1,0.6-0.1
			c0.3,0,0.3-0.4,0.6-0.4c0.3,0,0.3,0.6,0.6,0.6c0.3,0,0.3-0.5,0.6-0.5c0.3,0,0.3,0.7,0.6,0.7c0.3,0,0.3,0,0.6,0
			c0.3,0,0.3-0.7,0.6-0.7c0.3,0,0.3,0.4,0.6,0.4c0.3,0,0.3,0.3,0.6,0.3c0.3,0,0.3,0,0.6,0c0.3,0,0.3-0.3,0.6-0.3S33.7,8,34,8
			c0.3,0,0.3,0.4,0.6,0.4c0.3,0,0.3,0,0.6,0s0.3-0.1,0.6-0.1c0.3,0,0.3-0.4,0.6-0.4s0.3,0.6,0.6,0.6c0.3,0,0.3,0,0.6,0
			c0.3,0,0.3-0.4,0.6-0.4c0.3,0,0.3,0.1,0.6,0.1c0.3,0,0.3-0.2,0.6-0.2s0.3,0.6,0.6,0.6c0.3,0,0.3-0.2,0.6-0.2s0.3,0.1,0.6,0.1
			c0.3,0,0.3-0.1,0.6-0.1c0.3,0,0.3,0.1,0.6,0.1c0.3,0,0.3-0.6,0.6-0.6c0.3,0,0.3,0,0.6,0s0.3-0.1,0.6-0.1c0.3,0,0.3,0.1,0.6,0.1
			c0.3,0,0.3,0.3,0.6,0.3c0.3,0,0.3-0.4,0.6-0.4c0.3,0,0.3,0.3,0.6,0.3c0.3,0,0.3,0.2,0.6,0.2c0.3,0,0.3-0.3,0.6-0.3
			c0.3,0,0.3-0.3,0.6-0.3c0.3,0,0.3,0.4,0.6,0.4c0.3,0,0.3-0.3,0.6-0.3s0.3,0.4,0.6,0.4c0.3,0,0.3-0.1,0.6-0.1
			c0.3,0,0.3-0.5,0.6-0.5c0.3,0,0.3,0.4,0.6,0.4c0.3,0,0.3-0.5,0.6-0.5c0.3,0,0.3,0.3,0.6,0.3c0.3,0,0.3,0.1,0.6,0.1
			c0.3,0,0.3-0.4,0.6-0.4c0.3,0,0.3,0.6,0.6,0.6c0.3,0,0.3-0.6,0.6-0.6c0.3,0,0.3,0.1,0.6,0.1c0.3,0,0.3,0.1,0.6,0.1
			c0.3,0,0.3,0,0.6,0c0.3,0,0.3,0.5,0.6,0.5c0.3,0,0.3-0.6,0.6-0.6c0.3,0,0.3,0.5,0.6,0.5c0.3,0,0.3-0.3,0.6-0.3
			C61,8,61,8.4,61.4,8.4c0.3,0,0.3-0.1,0.6-0.1c0.3,0,0.3-0.4,0.6-0.4c0.3,0,0.3-0.1,0.6-0.1S63.5,8,63.8,8c0.3,0,0.3-0.3,0.6-0.3
			c0.3,0,0.3,0.5,0.6,0.5c0.3,0,0.3-0.3,0.6-0.3C66,8,66,7.7,66.3,7.7c0.3,0,0.3,0.1,0.6,0.1c0.3,0,0.3,0.5,0.6,0.5
			c0.3,0,0.3-0.4,0.6-0.4c0.3,0,0.3-0.2,0.6-0.2c0.3,0,0.3,0.6,0.6,0.6c0.3,0,0.3,0,0.6,0s0.3,0.1,0.6,0.1c0.3,0,0.3-0.1,0.6-0.1
			c0.3,0,0.3-0.5,0.6-0.5c0.3,0,0.3-0.1,0.6-0.1c0.3,0,0.3,0.1,0.6,0.1c0.3,0,0.3,0.4,0.6,0.4c0.3,0,0.3-0.4,0.6-0.4
			c0.3,0,0.3,0.2,0.6,0.2c0.3,0,0.3,0.1,0.6,0.1s0.3,0.2,0.6,0.2c0.3,0,0.3-0.7,0.6-0.7S77.2,8,77.5,8c0.3,0,0.3-0.1,0.6-0.1
			c0.3,0,0.3,0.5,0.6,0.5c0.3,0,0.3-0.3,0.6-0.3c0.3,0,0.3,0.1,0.6,0.1c0.3,0,0.3-0.4,0.6-0.4c0.3,0,0.3,0.4,0.6,0.4
			c0.3,0,0.3-0.3,0.6-0.3s0.3,0.3,0.6,0.3c0.3,0,0.3,0.1,0.6,0.1c0.3,0,0.3,0,0.6,0c0.3,0,0.3-0.6,0.6-0.6c0.3,0,0.3,0.7,0.6,0.7
			c0.3,0,0.3-0.4,0.6-0.4c0.3,0,0.3-0.2,0.6-0.2c0.3,0,0.3,0.2,0.6,0.2c0.3,0,0.3,0.3,0.6,0.3c0.3,0,0.3,0,0.6,0
			c0.3,0,0.3-0.5,0.6-0.5C89,7.9,89,8,89.3,8c0.3,0,0.3,0.2,0.6,0.2c0.3,0,0.3,0,0.6,0c0.3,0,0.3-0.4,0.6-0.4s0.3,0.3,0.6,0.3
			c0.3,0,0.3,0.4,0.6,0.4c0.3,0,0.3-0.2,0.6-0.2c0.3,0,0.3-0.5,0.6-0.5c0.3,0,0.3,0,0.6,0c0.3,0,0.3,0.4,0.6,0.4s0.3-0.3,0.6-0.3
			c0.3,0,0.3,0.3,0.6,0.3c0.3,0,0.3-0.4,0.6-0.4c0.3,0,0.3,0.3,0.6,0.3c0.3,0,0.3-0.4,0.6-0.4c0.3,0,0.3,0.3,0.6,0.3
			s0.3,0.4,0.6,0.4c0.3,0,0.3-0.6,0.6-0.6c0.3,0,0.3,0.1,0.6,0.1c0.3,0,0.3,0.4,0.6,0.4c0.3,0,0.3,0.1,0.6,0.1
			c0.3,0,0.3-0.7,0.6-0.7c0.3,0,0.3,0.4,0.6,0.4c0.3,0,0.3,0,0.6,0c0.3,0,0.3,0.1,0.6,0.1c0.3,0,0.3-0.3,0.6-0.3
			c0.3,0,0.3,0.4,0.6,0.4c0.3,0,0.3,0,0.6,0c0.3,0,0.3-0.4,0.6-0.4c0.3,0,0.3,0.3,0.6,0.3c0.3,0,0.3,0,0.6,0c0.3,0,0.3-0.2,0.6-0.2
			c0.3,0,0.3-0.2,0.6-0.2c0.3,0,0.6,0,0.8,0.2c0.2,0.2-0.3,0.5-0.3,0.8c0,0.3-0.1,0.3-0.1,0.6c0,0.3,0.5,0.3,0.6,0.6
			c0,0.3-0.2,0.3-0.2,0.6c0,0.3-0.3,0.3-0.3,0.6c0,0.3,0.1,0.3,0.1,0.6c0,0.3,0.2,0.3,0.2,0.6c0,0.3,0.1,0.3,0.1,0.6
			c0,0.3,0.2,0.3,0.2,0.6c0,0.3-0.3,0.3-0.3,0.6c0,0.3-0.2,0.3-0.2,0.6c0,0.3,0.1,0.3,0.1,0.6s0.7,0.3,0.7,0.6
			c0,0.3-0.1,0.3-0.1,0.6c0,0.3,0,0.3,0,0.6c0,0.3-0.2,0.3-0.2,0.6c0,0.3,0.3,0.3,0.3,0.6c0,0.3-0.2,0.3-0.2,0.6
			c0,0.3-0.3,0.3-0.2,0.6c0,0.3,0.4,0.3,0.4,0.6c0,0.3-0.5,0.3-0.5,0.6c0,0.3,0.6,0.3,0.6,0.6c0,0.3-0.4,0.3-0.4,0.6
			c0,0.3,0.5,0.3,0.5,0.6c0,0.3-0.5,0.3-0.5,0.6s0.5,0.3,0.5,0.6c0,0.3-0.6,0.3-0.6,0.6c0,0.3,0.1,0.3,0.1,0.6
			c0,0.3,0.4,0.3,0.4,0.6c0,0.3-0.5,0.3-0.5,0.6c0,0.3,0.6,0.3,0.7,0.6c0,0.3,0,0.3,0,0.6c0,0.3-0.2,0.3-0.2,0.6
			c0,0.3,0.1,0.3,0.1,0.6c0,0.3-0.2,0.3-0.2,0.6c0,0.3-0.1,0.3-0.1,0.6c0,0.3,0.4,0.3,0.4,0.6c0,0.3,0.3,0.3,0.3,0.6
			c0,0.3-0.4,0.3-0.4,0.6c0,0.3,0.4,0.3,0.4,0.6c0,0.3-0.4,0.3-0.4,0.6c0,0.3,0.4,0.3,0.4,0.6c0,0.3-0.5,0.3-0.5,0.6
			c0,0.3,0.2,0.3,0.2,0.6c0,0.3,0.4,0.3,0.4,0.6c0,0.3-0.2,0.3-0.2,0.6c0,0.3,0,0.3,0,0.6c0,0.3,0.3,0.3,0.3,0.6
			c0,0.3-0.1,0.3,0,0.6c0,0.3-0.2,0.3-0.2,0.6c0,0.3-0.4,0.3-0.3,0.6c0,0.3,0,0.3,0,0.6c0,0.3,0.4,0.3,0.4,0.6
			c0,0.3,0.2,0.3,0.2,0.6c0,0.3-0.2,0.3-0.2,0.6c0,0.3-0.1,0.3-0.1,0.6c0,0.3,0.4,0.3,0.4,0.6c0,0.3-0.3,0.3-0.3,0.6
			c0,0.3,0.3,0.3,0.3,0.6c0,0.3-0.5,0.3-0.5,0.6c0,0.3,0.3,0.3,0.3,0.6c0,0.3,0.1,0.3,0.1,0.6c0,0.3-0.6,0.3-0.6,0.6
			c0,0.3,0.1,0.3,0.1,0.6c0,0.3,0.1,0.3,0.1,0.6c0,0.3,0.3,0.3,0.3,0.6c0,0.3,0.3,0.3,0.3,0.6c0,0.3-0.1,0.3-0.1,0.6
			c0,0.3-0.3,0.3-0.3,0.6c0,0.3,0.2,0.3,0.2,0.6c0,0.3,0.2,0.3,0.2,0.6c0,0.3-0.3,0.3-0.3,0.6c0,0.3-0.3,0.3-0.3,0.6
			c0,0.3,0.3,0.3,0.3,0.6c0,0.3,0.2,0.3,0.2,0.6c0,0.3,0.2,0.3,0.2,0.6c0,0.3-0.1,0.3-0.1,0.6s-0.4,0.3-0.4,0.6
			c0,0.3,0.2,0.3,0.3,0.6c0,0.3-0.1,0.3,0,0.6s0.4,0.3,0.4,0.6c0,0.3-0.4,0.3-0.4,0.6c0,0.3,0.1,0.3,0.1,0.6c0,0.3,0.1,0.3,0.1,0.6
			c0,0.3,0,0.3,0,0.6c0,0.3,0,0.3,0,0.6c0,0.3,0.2,0.3,0.2,0.6c0,0.3-0.5,0.3-0.5,0.6c0,0.3-0.2,0.3-0.2,0.6c0,0.3,0.5,0.3,0.5,0.6
			c0,0.3-0.2,0.3-0.2,0.6c0,0.3-0.2,0.3-0.2,0.6c0,0.3,0.3,0.3,0.3,0.6c0,0.3-0.3,0.3-0.3,0.6c0,0.3,0.3,0.3,0.3,0.6
			c0,0.3-0.2,0.3-0.2,0.6c0,0.3-0.1,0.3-0.1,0.6s0.3,0.3,0.3,0.6c0,0.3-0.5,0.3-0.5,0.6c0,0.3,0.5,0.3,0.5,0.6
			c0,0.3-0.4,0.3-0.4,0.6c0,0.3-0.2,0.3-0.2,0.6c0,0.3,0.5,0.3,0.5,0.6c0,0.3,0.1,0.3,0.1,0.6c0,0.3-0.1,0.3-0.1,0.6
			c0,0.3-0.1,0.3-0.1,0.6c0,0.3-0.1,0.3-0.1,0.6c0,0.3-0.3,0.3-0.3,0.6c0,0.3,0,0.3,0,0.6c0,0.3,0.4,0.3,0.4,0.6
			c0,0.3-0.3,0.3-0.3,0.6c0,0.3,0,0.3,0,0.6c0,0.3-0.3,0.3-0.3,0.6c0,0.3,0.3,0.3,0.3,0.6c0,0.3,0.2,0.3,0.2,0.6
			c0,0.3-0.5,0.3-0.5,0.6c0,0.3-0.1,0.3-0.1,0.6c0,0.3,0.6,0.3,0.6,0.6c0,0.3,0,0.3,0,0.6c0,0.3-0.1,0.3-0.2,0.6
			c0,0.3,0.2,0.3,0.2,0.6c0,0.3,0,0.3-0.1,0.6c0,0.3-0.7,0.3-0.7,0.6c0,0.3,0.1,0.3,0,0.6c0,0.3,0.2,0.3,0.1,0.6
			c0,0.3-0.1,0.3-0.1,0.6c0,0.3-0.1,0.3-0.2,0.6c0,0.3,0.5,0.3,0.5,0.6c0,0.3-0.6,0.3-0.6,0.6c0,0.3,0.2,0.3,0.2,0.6
			c0,0.3,0.3,0.3,0.2,0.6c0,0.3-0.2,0.3-0.3,0.6c0,0.3,0.4,0.3,0.4,0.6c0,0.3-0.2,0.3-0.2,0.6c0,0.3,0,0.3,0,0.6
			c0,0.3-0.2,0.3-0.2,0.6c0,0.3-0.1,0.3-0.1,0.6c0,0.3-0.3,0.3-0.3,0.6c0,0.3-0.1,0.3-0.1,0.6c0,0.3,0.6,0.3,0.5,0.6
			c0,0.3,0.1,0.3,0,0.6c0,0.3-0.2,0.3-0.2,0.6c0,0.3-0.3,0.3-0.3,0.6c0,0.3,0.6,0.3,0.5,0.6c0,0.3-0.1,0.3-0.1,0.6
			c0,0.3,0,0.3,0,0.6c0,0.3-0.7,0.3-0.7,0.6c0,0.3,0.2,0.3,0.2,0.6c0,0.3-0.1,0.3-0.2,0.6c0,0.3,0,0.3,0,0.6c0,0.3,0.2,0.3,0.2,0.6
			c0,0.3,0.2,0.3,0.2,0.6c0,0.3-0.3,0.3-0.3,0.6c0,0.3,0.1,0.3,0,0.6c0,0.3-0.3,0.3-0.3,0.6c0,0.3,0.5,0.3,0.5,0.6
			c0,0.3-0.5,0.3-0.5,0.6c0,0.3,0.5,0.3,0.5,0.6c0,0.3-0.6,0.3-0.7,0.6c0,0.3,0,0.3,0,0.6c0,0.3,0.2,0.3,0.1,0.6
			c0,0.3,0.5,0.5,0.2,0.7c-0.2,0.2-0.4-0.3-0.7-0.3c-0.3,0-0.3-0.1-0.6-0.1c-0.3,0-0.3,0.6-0.6,0.6c-0.3,0-0.3-0.1-0.6-0.1
			c-0.3,0-0.3-0.5-0.6-0.5c-0.3,0-0.3,0.7-0.6,0.7c-0.3,0-0.3-0.2-0.6-0.2c-0.3,0-0.3,0.1-0.6,0.1c-0.3,0-0.3-0.3-0.6-0.3
			c-0.3,0-0.3-0.2-0.6-0.2s-0.3,0.1-0.6,0.1c-0.3,0-0.3,0.5-0.6,0.5c-0.3,0-0.3-0.2-0.6-0.2c-0.3,0-0.3,0.2-0.6,0.2
			c-0.3,0-0.3-0.1-0.6-0.1c-0.3,0-0.3-0.3-0.6-0.3c-0.3,0-0.3,0.2-0.6,0.2c-0.3,0-0.3-0.2-0.6-0.2c-0.3,0-0.3,0.4-0.6,0.4
			c-0.3,0-0.3-0.5-0.6-0.5c-0.3,0-0.3-0.2-0.6-0.2c-0.3,0-0.3,0.1-0.6,0.1c-0.3,0-0.3,0.4-0.6,0.4c-0.3,0-0.3,0-0.6,0
			c-0.3,0-0.3-0.2-0.6-0.2c-0.3,0-0.3,0.1-0.6,0.1c-0.3,0-0.3,0.2-0.6,0.2c-0.3,0-0.3,0-0.6,0c-0.3,0-0.3-0.1-0.6-0.1
			c-0.3,0-0.3,0.1-0.6,0.1c-0.3,0-0.3-0.3-0.6-0.3c-0.3,0-0.3,0.3-0.6,0.3c-0.3,0-0.3,0.3-0.6,0.3c-0.3,0-0.3-0.6-0.6-0.6
			c-0.3,0-0.3,0.4-0.6,0.4c-0.3,0-0.3-0.2-0.6-0.2c-0.3,0-0.3,0.3-0.6,0.3c-0.3,0-0.3,0-0.6,0c-0.3,0-0.3-0.3-0.6-0.3
			c-0.3,0-0.3-0.2-0.6-0.2s-0.3,0.1-0.6,0.1c-0.3,0-0.3,0.4-0.6,0.4c-0.3,0-0.3-0.1-0.6-0.1c-0.3,0-0.3-0.3-0.6-0.3
			c-0.3,0-0.3,0.2-0.6,0.2c-0.3,0-0.3-0.5-0.6-0.5c-0.3,0-0.3,0.6-0.6,0.6c-0.3,0-0.3-0.4-0.6-0.4c-0.3,0-0.3-0.2-0.6-0.2
			c-0.3,0-0.3,0.2-0.6,0.2s-0.3,0.4-0.6,0.4c-0.3,0-0.3-0.3-0.6-0.3c-0.3,0-0.3-0.4-0.6-0.4c-0.3,0-0.3,0.2-0.6,0.2
			c-0.3,0-0.3,0.4-0.6,0.4c-0.3,0-0.3-0.1-0.6-0.1c-0.3,0-0.3-0.3-0.6-0.3c-0.3,0-0.3,0.3-0.6,0.3c-0.3,0-0.3,0-0.6,0
			c-0.3,0-0.3,0-0.6,0c-0.3,0-0.3,0.1-0.6,0.1c-0.3,0-0.3,0.1-0.6,0.1s-0.3-0.7-0.6-0.7c-0.3,0-0.3,0.3-0.6,0.3
			c-0.3,0-0.3-0.2-0.6-0.2c-0.3,0-0.3,0.5-0.6,0.5c-0.3,0-0.3-0.2-0.6-0.2c-0.3,0-0.3-0.2-0.6-0.2c-0.3,0-0.3-0.1-0.6-0.1
			c-0.3,0-0.3,0.2-0.6,0.2c-0.3,0-0.3,0.3-0.6,0.3s-0.3-0.3-0.6-0.3c-0.3,0-0.3-0.2-0.6-0.2c-0.3,0-0.3,0.3-0.6,0.3
			c-0.3,0-0.3,0-0.6,0c-0.3,0-0.3-0.1-0.6-0.1c-0.3,0-0.3,0.4-0.6,0.4c-0.3,0-0.3-0.7-0.6-0.7c-0.3,0-0.3,0.7-0.6,0.7
			c-0.3,0-0.3-0.3-0.6-0.3c-0.3,0-0.3-0.2-0.6-0.2c-0.3,0-0.3,0.5-0.6,0.5c-0.3,0-0.3-0.5-0.6-0.5c-0.3,0-0.3,0.2-0.6,0.2
			c-0.3,0-0.3,0-0.6,0c-0.3,0-0.3-0.1-0.6-0.1c-0.3,0-0.3,0-0.6,0c-0.3,0-0.3,0.4-0.6,0.4c-0.3,0-0.3,0.2-0.6,0.2
			c-0.3,0-0.3-0.2-0.6-0.2c-0.3,0-0.3-0.1-0.6-0.1c-0.3,0-0.3-0.4-0.6-0.4c-0.3,0-0.3,0.1-0.6,0.1c-0.3,0-0.3,0.2-0.6,0.2
			c-0.3,0-0.3-0.5-0.6-0.5s-0.3,0-0.6,0s-0.3,0-0.6,0c-0.3,0-0.3,0.5-0.6,0.5c-0.3,0-0.3,0.1-0.6,0.1c-0.3,0-0.3-0.6-0.6-0.6
			c-0.3,0-0.3,0.4-0.6,0.4c-0.3,0-0.3-0.1-0.6-0.1c-0.3,0-0.3-0.1-0.6-0.1c-0.3,0-0.3,0-0.6,0c-0.3,0-0.3,0.3-0.6,0.3
			c-0.3,0-0.3-0.3-0.6-0.3c-0.3,0-0.3,0.1-0.6,0.1c-0.3,0-0.3-0.2-0.6-0.2s-0.3,0.4-0.6,0.4s-0.3,0-0.6,0c-0.3,0-0.3,0-0.6,0
			s-0.3-0.7-0.6-0.7c-0.3,0-0.3,0.1-0.6,0.1c-0.3,0-0.3,0.7-0.6,0.7c-0.3,0-0.3-0.7-0.6-0.7c-0.3,0-0.3,0-0.6,0c-0.3,0-0.3,0-0.6,0
			c-0.3,0-0.3,0.4-0.6,0.4c-0.3,0-0.3,0.2-0.6,0.2c-0.3,0-0.3,0-0.6,0c-0.3,0-0.3-0.3-0.6-0.3c-0.3,0-0.3,0-0.6,0
			c-0.3,0-0.3,0-0.6,0c-0.3,0-0.3-0.2-0.6-0.2c-0.3,0-0.3,0.7-0.6,0.7c-0.3,0-0.3-0.6-0.6-0.6c-0.3,0-0.3,0-0.6,0
			c-0.3,0-0.3,0.2-0.6,0.2c-0.3,0-0.3-0.2-0.6-0.2c-0.3,0-0.3,0-0.6,0c-0.3,0-0.3,0.5-0.6,0.5c-0.3,0-0.3-0.5-0.6-0.5
			c-0.3,0-0.3,0.7-0.6,0.7c-0.3,0-0.3-0.3-0.6-0.3c-0.3,0-0.3-0.1-0.6-0.1c-0.3,0-0.3-0.1-0.6-0.1c-0.3,0-0.3-0.1-0.6-0.1
			s-0.3,0.2-0.6,0.2c-0.3,0-0.3-0.2-0.6-0.2c-0.3,0-0.3,0-0.6,0c-0.3,0-0.3,0.3-0.6,0.3c-0.3,0-0.3-0.1-0.6-0.1
			c-0.3,0-0.3,0.3-0.6,0.3c-0.3,0-0.3-0.4-0.6-0.4c-0.3,0-0.3-0.2-0.6-0.2c-0.3,0-0.3,0.4-0.6,0.4c-0.3,0-0.3,0.1-0.6,0.1
			c-0.3,0-0.3,0-0.6,0c-0.3,0-0.3-0.1-0.6-0.1c-0.3,0-0.3-0.1-0.6-0.1c-0.3,0-0.3-0.4-0.6-0.4c-0.3,0-0.3,0.4-0.6,0.4
			c-0.3,0-0.3-0.4-0.6-0.4c-0.3,0-0.3,0.3-0.6,0.3c-0.3,0-0.3,0-0.6,0c-0.3,0-0.3-0.1-0.6-0.1c-0.3,0-0.3,0.4-0.6,0.4
			c-0.3,0-0.3-0.1-0.6-0.1c-0.3,0-0.3,0.2-0.6,0.2c-0.3,0-0.3,0.1-0.6,0.1c-0.3,0-0.6,0.1-0.9-0.1c-0.2-0.2-0.1-0.5-0.2-0.8
			c0-0.3,0.2-0.3,0.2-0.6c0-0.3-0.1-0.3-0.1-0.6c0-0.3,0.5-0.3,0.5-0.6c0-0.3-0.5-0.3-0.5-0.6c0-0.3,0-0.3,0-0.6c0-0.3,0-0.3,0-0.6
			c0-0.3-0.1-0.3-0.1-0.6c0-0.3,0.3-0.3,0.3-0.6c0-0.3-0.1-0.3-0.2-0.6c0-0.3,0.1-0.3,0.1-0.6c0-0.3,0.1-0.3,0.1-0.6
			c0-0.3,0.1-0.3,0.1-0.6c0-0.3-0.5-0.3-0.5-0.6c0-0.3,0.1-0.3,0.1-0.6c0-0.3,0.5-0.3,0.4-0.6c0-0.3-0.4-0.3-0.4-0.6
			c0-0.3,0.5-0.3,0.4-0.6c0-0.3-0.7-0.3-0.7-0.6c0-0.3,0.1-0.3,0.1-0.6c0-0.3,0.3-0.3,0.3-0.6c0-0.3-0.5-0.3-0.5-0.6
			c0-0.3,0.6-0.3,0.6-0.6c0-0.3-0.4-0.3-0.4-0.6c0-0.3-0.1-0.3-0.1-0.6c0-0.3,0.2-0.3,0.1-0.6c0-0.3-0.1-0.3-0.1-0.6
			c0-0.3,0.4-0.3,0.4-0.6C9.5,90.3,9,90.3,9,90c0-0.3,0.5-0.3,0.4-0.6c0-0.3-0.4-0.3-0.4-0.6c0-0.3-0.2-0.3-0.2-0.6
			c0-0.3,0-0.3-0.1-0.6c0-0.3,0.1-0.3,0.1-0.6c0-0.3,0.2-0.3,0.2-0.6C9,86,9,86,9,85.6c0-0.3-0.3-0.3-0.3-0.6c0-0.3,0.2-0.3,0.2-0.6
			c0-0.3-0.1-0.3-0.1-0.6c0-0.3,0.4-0.3,0.4-0.6c0-0.3-0.2-0.3-0.2-0.6c0-0.3,0.3-0.3,0.3-0.6c0-0.3-0.7-0.3-0.7-0.6
			c0-0.3,0.3-0.3,0.3-0.6s0.2-0.3,0.2-0.6c0-0.3-0.4-0.3-0.4-0.6c0-0.3,0.4-0.3,0.4-0.6c0-0.3-0.5-0.3-0.5-0.6
			c0-0.3-0.1-0.3-0.1-0.6c0-0.3,0.1-0.3,0.1-0.6c0-0.3,0.5-0.3,0.5-0.6c0-0.3-0.2-0.3-0.2-0.6c0-0.3-0.2-0.3-0.2-0.6
			c0-0.3,0.3-0.3,0.3-0.6c0-0.3,0-0.3,0-0.6c0-0.3-0.3-0.3-0.3-0.6c0-0.3-0.2-0.3-0.2-0.6c0-0.3,0-0.3,0-0.6c0-0.3,0.5-0.3,0.5-0.6
			c0-0.3-0.5-0.3-0.5-0.6c0-0.3,0.5-0.3,0.4-0.6c0-0.3-0.5-0.3-0.5-0.6c0-0.3-0.2-0.3-0.2-0.6c0-0.3,0.7-0.3,0.7-0.6
			c0-0.3-0.3-0.3-0.3-0.6c0-0.3-0.4-0.3-0.4-0.6c0-0.3,0.2-0.3,0.2-0.6c0-0.3-0.1-0.3-0.1-0.6c0-0.3,0.1-0.3,0.1-0.6
			C8.2,65,8,65,8,64.7c0-0.3,0-0.3,0-0.6c0-0.3,0.3-0.3,0.3-0.6c0-0.3-0.3-0.3-0.3-0.6c0-0.3,0-0.3,0-0.6c0-0.3,0.1-0.3,0.1-0.6
			c0-0.3-0.2-0.3-0.3-0.6c0-0.3,0.6-0.3,0.6-0.6c0-0.3-0.4-0.3-0.5-0.6c0-0.3,0-0.3,0-0.6c0-0.3,0.1-0.3,0.1-0.6c0-0.3,0-0.3,0-0.6
			c0-0.3-0.2-0.3-0.2-0.6c0-0.3,0.2-0.3,0.2-0.6c0-0.3-0.1-0.3-0.1-0.6c0-0.3,0.1-0.3,0.2-0.6c0-0.3-0.2-0.3-0.2-0.6
			c0-0.3,0.4-0.3,0.4-0.6c0-0.3-0.3-0.3-0.2-0.6c0-0.3,0.1-0.3,0.1-0.6c0-0.3-0.1-0.3-0.1-0.6c0-0.3-0.3-0.3-0.3-0.6
			c0-0.3,0.4-0.3,0.4-0.6c0-0.3-0.2-0.3-0.2-0.6c0-0.3,0.1-0.3,0.1-0.6c0-0.3,0.1-0.3,0.2-0.6c0-0.3,0.2-0.3,0.2-0.6
			c0-0.3,0.1-0.3,0.1-0.6c0-0.3,0.1-0.3,0.2-0.6c0-0.3-0.7-0.3-0.7-0.6c0-0.3,0.2-0.3,0.2-0.6c0-0.3-0.1-0.3-0.1-0.6
			c0-0.3,0.1-0.3,0.1-0.6c0-0.3,0.2-0.3,0.2-0.6c0-0.3,0.1-0.3,0.2-0.6c0-0.3-0.2-0.3-0.2-0.6c0-0.3,0.4-0.3,0.4-0.6
			c0-0.3-0.2-0.3-0.1-0.6c0-0.3-0.3-0.3-0.3-0.6c0-0.3,0.2-0.3,0.2-0.6c0-0.3-0.2-0.3-0.2-0.6c0-0.3,0.4-0.3,0.4-0.6
			c0-0.3-0.3-0.3-0.3-0.6c0-0.3,0-0.3,0-0.6c0-0.3,0.6-0.3,0.6-0.6c0-0.3-0.5-0.3-0.5-0.6s0.5-0.3,0.5-0.6c0-0.3-0.6-0.3-0.6-0.6
			c0-0.3,0.6-0.3,0.6-0.6c0-0.3-0.4-0.3-0.4-0.6c0-0.3,0.1-0.3,0.1-0.6c0-0.3,0.2-0.3,0.2-0.6c0-0.3-0.5-0.3-0.5-0.6
			c0-0.3,0.6-0.3,0.6-0.6c0-0.3-0.4-0.3-0.4-0.6c0-0.3,0.2-0.3,0.2-0.6c0-0.3,0-0.3,0-0.6c0-0.3,0-0.3,0-0.6c0-0.3,0.2-0.3,0.2-0.6
			c0-0.3,0.1-0.3,0.2-0.6c0-0.3,0-0.3,0.1-0.6c0-0.3-0.6-0.3-0.6-0.6c0-0.3,0.3-0.3,0.3-0.6c0-0.3,0-0.3,0-0.6
			c0-0.3,0.2-0.3,0.2-0.6c0-0.3-0.2-0.3-0.2-0.6c0-0.3-0.3-0.3-0.3-0.6c0-0.3,0.2-0.3,0.2-0.6c0-0.3,0.2-0.3,0.2-0.6
			c0-0.3-0.4-0.3-0.4-0.6c0-0.3,0.5-0.3,0.5-0.6c0-0.3-0.1-0.3-0.1-0.6c0-0.3,0.1-0.3,0.2-0.6c0-0.3-0.5-0.3-0.5-0.6
			c0-0.3,0.3-0.3,0.3-0.6c0-0.3,0.3-0.3,0.3-0.6c0-0.3-0.4-0.3-0.3-0.6c0-0.3-0.1-0.3,0-0.6c0-0.3,0.2-0.3,0.2-0.6
			c0-0.3,0-0.3,0-0.6c0-0.3,0-0.3,0-0.6c0-0.3,0.3-0.3,0.3-0.6c0-0.3,0-0.3,0-0.6C9.8,14,10,14,10,13.7c0-0.3-0.5-0.3-0.5-0.6
			c0-0.3,0-0.3,0-0.6c0-0.3,0.1-0.3,0.1-0.6c0-0.3,0.2-0.3,0.2-0.6c0-0.3,0.1-0.3,0.1-0.6c0-0.3,0.1-0.3,0.1-0.6
			c0-0.3-0.1-0.3-0.1-0.6c0-0.3,0.3-0.4,0.3-0.7C10.1,8.3,9.5,8.2,9.8,8z"/>
		<path id="XMLID_1407_" class="st0" d="M108,106c-0.2,0.2-0.4-0.5-0.7-0.5c-0.3,0-0.3,0.3-0.6,0.3c-0.3,0-0.3,0.3-0.6,0.3
			c-0.3,0-0.3,0.1-0.6,0.1c-0.3,0-0.3-0.3-0.6-0.3c-0.3,0-0.3,0.1-0.6,0.1c-0.3,0-0.3,0.1-0.6,0.1c-0.3,0-0.3-0.4-0.6-0.4
			s-0.3,0.3-0.6,0.3c-0.3,0-0.3-0.2-0.6-0.2c-0.3,0-0.3,0.4-0.6,0.4c-0.3,0-0.3,0-0.6,0c-0.3,0-0.3-0.5-0.6-0.5
			c-0.3,0-0.3,0.6-0.6,0.6c-0.3,0-0.3-0.6-0.6-0.6c-0.3,0-0.3,0.5-0.6,0.5c-0.3,0-0.3-0.2-0.6-0.2c-0.3,0-0.3-0.3-0.6-0.3
			c-0.3,0-0.3,0.6-0.6,0.6c-0.3,0-0.3,0.1-0.6,0.1c-0.3,0-0.3-0.5-0.6-0.5c-0.3,0-0.3,0.2-0.6,0.2c-0.3,0-0.3-0.2-0.6-0.2
			c-0.3,0-0.3,0.1-0.6,0.1c-0.3,0-0.3-0.1-0.6-0.1c-0.3,0-0.3,0.4-0.6,0.4c-0.3,0-0.3-0.4-0.6-0.4c-0.3,0-0.3,0.1-0.6,0.1
			c-0.3,0-0.3,0.4-0.6,0.4c-0.3,0-0.3-0.5-0.6-0.5c-0.3,0-0.3,0.4-0.6,0.4c-0.3,0-0.3-0.6-0.6-0.6c-0.3,0-0.3,0-0.6,0
			c-0.3,0-0.3,0.7-0.6,0.7c-0.3,0-0.3-0.4-0.6-0.4c-0.3,0-0.3-0.3-0.6-0.3c-0.3,0-0.3,0-0.6,0c-0.3,0-0.3,0.3-0.6,0.3
			c-0.3,0-0.3,0.2-0.6,0.2c-0.3,0-0.3-0.4-0.6-0.4c-0.3,0-0.3,0-0.6,0c-0.3,0-0.3,0.1-0.6,0.1c-0.3,0-0.3,0.4-0.6,0.4
			c-0.3,0-0.3-0.5-0.6-0.5c-0.3,0-0.3,0-0.6,0c-0.3,0-0.3,0.4-0.6,0.4c-0.3,0-0.3-0.1-0.6-0.1c-0.3,0-0.3,0.2-0.6,0.2
			c-0.3,0-0.3-0.6-0.6-0.6c-0.3,0-0.3,0.2-0.6,0.2c-0.3,0-0.3-0.1-0.6-0.1c-0.3,0-0.3,0.1-0.6,0.1c-0.3,0-0.3-0.1-0.6-0.1
			c-0.3,0-0.3,0.6-0.6,0.6c-0.3,0-0.3,0-0.6,0c-0.3,0-0.3,0.1-0.6,0.1c-0.3,0-0.3-0.1-0.6-0.1c-0.3,0-0.3-0.3-0.6-0.3
			c-0.3,0-0.3,0.4-0.6,0.4c-0.3,0-0.3-0.2-0.6-0.2s-0.3-0.2-0.6-0.2s-0.3,0.3-0.6,0.3c-0.3,0-0.3,0.2-0.6,0.2
			c-0.3,0-0.3-0.4-0.6-0.4c-0.3,0-0.3,0.3-0.6,0.3c-0.3,0-0.3-0.4-0.6-0.4c-0.3,0-0.3,0.1-0.6,0.1c-0.3,0-0.3,0.5-0.6,0.5
			c-0.3,0-0.3-0.4-0.6-0.4c-0.3,0-0.3,0.4-0.6,0.4c-0.3,0-0.3-0.3-0.6-0.3s-0.3-0.1-0.6-0.1c-0.3,0-0.3,0.4-0.6,0.4
			c-0.3,0-0.3-0.6-0.6-0.6c-0.3,0-0.3,0.6-0.6,0.6c-0.3,0-0.3-0.1-0.6-0.1c-0.3,0-0.3-0.1-0.6-0.1c-0.3,0-0.3,0-0.6,0
			c-0.3,0-0.3-0.5-0.6-0.5c-0.3,0-0.3,0.6-0.6,0.6c-0.3,0-0.3-0.5-0.6-0.5c-0.3,0-0.3,0.3-0.6,0.3c-0.3,0-0.3-0.3-0.6-0.3
			c-0.3,0-0.3,0.1-0.6,0.1c-0.3,0-0.3,0.4-0.6,0.4c-0.3,0-0.3,0.1-0.6,0.1c-0.3,0-0.3-0.2-0.6-0.2c-0.3,0-0.3,0.3-0.6,0.3
			c-0.3,0-0.3-0.5-0.6-0.5c-0.3,0-0.3,0.3-0.6,0.3c-0.3,0-0.3,0.2-0.6,0.2c-0.3,0-0.3-0.1-0.6-0.1c-0.3,0-0.3-0.5-0.6-0.5
			c-0.3,0-0.3,0.4-0.6,0.4c-0.3,0-0.3,0.2-0.6,0.2c-0.3,0-0.3-0.6-0.6-0.6s-0.3,0-0.6,0c-0.3,0-0.3-0.1-0.6-0.1
			c-0.3,0-0.3,0.1-0.6,0.1s-0.3,0.5-0.6,0.5c-0.3,0-0.3,0.1-0.6,0.1c-0.3,0-0.3-0.1-0.6-0.1c-0.3,0-0.3-0.4-0.6-0.4
			c-0.3,0-0.3,0.3-0.6,0.3c-0.3,0-0.3-0.2-0.6-0.2c-0.3,0-0.3-0.1-0.6-0.1c-0.3,0-0.3-0.2-0.6-0.2c-0.3,0-0.3,0.6-0.6,0.6
			c-0.3,0-0.3-0.2-0.6-0.2c-0.3,0-0.3,0.1-0.6,0.1c-0.3,0-0.3-0.5-0.6-0.5c-0.3,0-0.3,0.3-0.6,0.3c-0.3,0-0.3-0.1-0.6-0.1
			c-0.3,0-0.3,0.4-0.6,0.4c-0.3,0-0.3-0.4-0.6-0.4c-0.3,0-0.3,0.3-0.6,0.3c-0.3,0-0.3-0.3-0.6-0.3c-0.3,0-0.3-0.1-0.6-0.1
			c-0.3,0-0.3,0-0.6,0c-0.3,0-0.3,0.5-0.6,0.5c-0.3,0-0.3-0.7-0.6-0.7c-0.3,0-0.3,0.4-0.6,0.4c-0.3,0-0.3,0.2-0.6,0.2
			c-0.3,0-0.3-0.2-0.6-0.2c-0.3,0-0.3-0.3-0.6-0.3c-0.3,0-0.3,0-0.6,0c-0.3,0-0.3,0.5-0.6,0.5c-0.3,0-0.3-0.2-0.6-0.2
			c-0.3,0-0.3-0.2-0.6-0.2s-0.3,0-0.6,0c-0.3,0-0.3,0.4-0.6,0.4c-0.3,0-0.3-0.3-0.6-0.3c-0.3,0-0.3-0.4-0.6-0.4
			c-0.3,0-0.3,0.2-0.6,0.2c-0.3,0-0.3,0.5-0.6,0.5c-0.3,0-0.3,0-0.6,0c-0.3,0-0.3-0.4-0.6-0.4c-0.3,0-0.3,0.3-0.6,0.3
			c-0.3,0-0.3-0.3-0.6-0.3c-0.3,0-0.3,0.4-0.6,0.4c-0.3,0-0.3-0.3-0.6-0.3c-0.3,0-0.3,0.4-0.6,0.4c-0.3,0-0.3-0.3-0.6-0.3
			c-0.3,0-0.3-0.4-0.6-0.4c-0.3,0-0.3,0.6-0.6,0.6c-0.3,0-0.3-0.1-0.6-0.1c-0.3,0-0.3-0.4-0.6-0.4s-0.3-0.1-0.6-0.1
			c-0.3,0-0.3,0.7-0.6,0.7c-0.3,0-0.3-0.4-0.6-0.4c-0.3,0-0.3,0-0.6,0c-0.3,0-0.3-0.1-0.6-0.1c-0.3,0-0.3,0.3-0.6,0.3
			c-0.3,0-0.3-0.4-0.6-0.4c-0.3,0-0.3,0-0.6,0c-0.3,0-0.3,0.4-0.6,0.4c-0.3,0-0.3-0.3-0.6-0.3c-0.3,0-0.3,0-0.6,0
			c-0.3,0-0.3,0.2-0.6,0.2c-0.3,0-0.3,0.2-0.6,0.2c-0.3,0-0.5,0-0.8-0.2c-0.2-0.2,0.3-0.5,0.3-0.8c0-0.3,0.1-0.3,0.1-0.6
			c0-0.3-0.5-0.3-0.5-0.6c0-0.3,0.2-0.3,0.2-0.6c0-0.3,0.3-0.3,0.3-0.6c0-0.3-0.1-0.3-0.1-0.6c0-0.3-0.1-0.3-0.2-0.6
			c0-0.3-0.1-0.3-0.1-0.6c0-0.3-0.2-0.3-0.2-0.6c0-0.3,0.3-0.3,0.3-0.6c0-0.3,0.2-0.3,0.2-0.6c0-0.3-0.1-0.3-0.1-0.6
			c0-0.3-0.6-0.3-0.7-0.6c0-0.3,0.1-0.3,0.1-0.6c0-0.3,0-0.3,0-0.6c0-0.3,0.2-0.3,0.2-0.6c0-0.3-0.3-0.3-0.3-0.6
			c0-0.3,0.2-0.3,0.2-0.6c0-0.3,0.2-0.3,0.2-0.6c0-0.3-0.4-0.3-0.4-0.6c0-0.3,0.5-0.3,0.5-0.6c0-0.3-0.6-0.3-0.6-0.6
			c0-0.3,0.4-0.3,0.4-0.6c0-0.3-0.5-0.3-0.5-0.6c0-0.3,0.5-0.3,0.5-0.6c0-0.3-0.5-0.3-0.5-0.6c0-0.3,0.6-0.3,0.6-0.6
			c0-0.3-0.1-0.3-0.1-0.6c0-0.3-0.4-0.3-0.4-0.6c0-0.3,0.5-0.3,0.5-0.6c0-0.3-0.6-0.3-0.6-0.6c0-0.3,0-0.3,0-0.6
			c0-0.3,0.2-0.3,0.2-0.6c0-0.3-0.1-0.3-0.1-0.6c0-0.3,0.2-0.3,0.2-0.6c0-0.3,0.1-0.3,0.1-0.6c0-0.3-0.4-0.3-0.4-0.6
			c0-0.3-0.3-0.3-0.3-0.6c0-0.3,0.4-0.3,0.4-0.6c0-0.3-0.4-0.3-0.4-0.6c0-0.3,0.4-0.3,0.4-0.6c0-0.3-0.4-0.3-0.4-0.6
			c0-0.3,0.5-0.3,0.4-0.6c0-0.3-0.2-0.3-0.2-0.6c0-0.3-0.4-0.3-0.4-0.6c0-0.3,0.2-0.3,0.1-0.6c0-0.3,0-0.3,0-0.6
			c0-0.3-0.2-0.3-0.3-0.6c0-0.3,0.1-0.3,0-0.6c0-0.3,0.2-0.3,0.2-0.6c0-0.3,0.3-0.3,0.3-0.6c0-0.3,0-0.3,0-0.6
			c0-0.3-0.4-0.3-0.4-0.6c0-0.3-0.2-0.3-0.2-0.6c0-0.3,0.2-0.3,0.1-0.6c0-0.3,0.1-0.3,0.1-0.6s-0.4-0.3-0.4-0.6
			c0-0.3,0.3-0.3,0.3-0.6c0-0.3-0.3-0.3-0.3-0.6c0-0.3,0.5-0.3,0.5-0.6c0-0.3-0.3-0.3-0.3-0.6c0-0.3-0.1-0.3-0.1-0.6
			c0-0.3,0.6-0.3,0.5-0.6c0-0.3-0.1-0.3-0.1-0.6c0-0.3-0.1-0.3-0.1-0.6c0-0.3-0.3-0.3-0.3-0.6c0-0.3-0.3-0.3-0.3-0.6
			c0-0.3,0.1-0.3,0.1-0.6c0-0.3,0.3-0.3,0.3-0.6c0-0.3-0.2-0.3-0.2-0.6c0-0.3-0.2-0.3-0.2-0.6c0-0.3,0.3-0.3,0.2-0.6
			c0-0.3,0.3-0.3,0.3-0.6c0-0.3-0.3-0.3-0.3-0.6c0-0.3-0.2-0.3-0.2-0.6c0-0.3-0.1-0.3-0.2-0.6c0-0.3,0.1-0.3,0.1-0.6
			c0-0.3,0.4-0.3,0.4-0.6c0-0.3-0.2-0.3-0.2-0.6c0-0.3,0.1-0.3,0-0.6c0-0.3-0.4-0.3-0.4-0.6c0-0.3,0.4-0.3,0.4-0.6
			c0-0.3-0.1-0.3-0.1-0.6c0-0.3-0.1-0.3-0.1-0.6c0-0.3,0-0.3,0-0.6c0-0.3,0-0.3,0-0.6c0-0.3-0.2-0.3-0.2-0.6c0-0.3,0.5-0.3,0.5-0.6
			c0-0.3,0.2-0.3,0.2-0.6c0-0.3-0.5-0.3-0.5-0.6c0-0.3,0.1-0.3,0.2-0.6c0-0.3,0.2-0.3,0.2-0.6c0-0.3-0.3-0.3-0.3-0.6
			c0-0.3,0.3-0.3,0.3-0.6c0-0.3-0.3-0.3-0.2-0.6c0-0.3,0.2-0.3,0.2-0.6c0-0.3,0.1-0.3,0.1-0.6c0-0.3-0.3-0.3-0.3-0.6
			c0-0.3,0.4-0.3,0.5-0.6c0-0.3-0.5-0.3-0.5-0.6c0-0.3,0.4-0.3,0.4-0.6c0-0.3,0.2-0.3,0.2-0.6c0-0.3-0.5-0.3-0.5-0.6
			c0-0.3-0.1-0.3-0.1-0.6c0-0.3,0.1-0.3,0.1-0.6c0-0.3,0.1-0.3,0.1-0.6c0-0.3,0.1-0.3,0.1-0.6c0-0.3,0.3-0.3,0.3-0.6
			c0-0.3,0-0.3,0-0.6c0-0.3-0.4-0.3-0.3-0.6c0-0.3,0.3-0.3,0.3-0.6c0-0.3,0-0.3,0-0.6c0-0.3,0.3-0.3,0.3-0.6c0-0.3-0.3-0.3-0.2-0.6
			c0-0.3-0.2-0.3-0.2-0.6c0-0.3,0.4-0.3,0.5-0.6c0-0.3,0.1-0.3,0.1-0.6c0-0.3-0.6-0.3-0.6-0.6c0-0.3,0-0.3,0-0.6
			c0-0.3,0.1-0.3,0.1-0.6c0-0.3-0.2-0.3-0.2-0.6c0-0.3,0-0.3,0.1-0.6c0-0.3,0.7-0.3,0.7-0.6c0-0.3-0.1-0.3,0-0.6
			c0-0.3-0.2-0.3-0.1-0.6c0-0.3,0.1-0.3,0.1-0.6c0-0.3,0.1-0.3,0.2-0.6c0-0.3-0.5-0.3-0.5-0.6c0-0.3,0.5-0.3,0.5-0.6
			c0-0.3-0.2-0.3-0.2-0.6c0-0.3-0.3-0.3-0.2-0.6c0-0.3,0.2-0.3,0.2-0.6c0-0.3-0.4-0.3-0.4-0.6c0-0.3,0.2-0.3,0.2-0.6
			c0-0.3,0-0.3,0-0.6c0-0.3,0.2-0.3,0.2-0.6c0-0.3,0.1-0.3,0.1-0.6c0-0.3,0.3-0.3,0.3-0.6c0-0.3,0.1-0.3,0.1-0.6
			c0-0.3-0.5-0.3-0.5-0.6c0-0.3-0.1-0.3,0-0.6c0-0.3,0.2-0.3,0.2-0.6c0-0.3,0.3-0.3,0.3-0.6c0-0.3-0.5-0.3-0.5-0.6
			c0-0.3,0-0.3,0.1-0.6c0-0.3,0-0.3,0-0.6c0-0.3,0.6-0.3,0.6-0.6c0-0.3-0.2-0.3-0.2-0.6c0-0.3,0.1-0.3,0.2-0.6c0-0.3,0-0.3,0-0.6
			c0-0.3-0.2-0.3-0.2-0.6c0-0.3-0.2-0.3-0.2-0.6c0-0.3,0.3-0.3,0.3-0.6c0-0.3-0.1-0.3,0-0.6c0-0.3,0.3-0.3,0.3-0.6
			c0-0.3-0.5-0.3-0.5-0.6c0-0.3,0.5-0.3,0.5-0.6c0-0.3-0.5-0.3-0.5-0.6c0-0.3,0.6-0.3,0.6-0.6c0-0.3,0-0.3,0-0.6
			c0-0.3-0.2-0.3-0.1-0.6c0-0.3-0.4-0.4-0.2-0.7c0.2-0.2,0.3,0.3,0.6,0.3c0.3,0,0.3,0.1,0.6,0.1c0.3,0,0.3-0.6,0.6-0.6
			c0.3,0,0.3,0.1,0.6,0.1c0.3,0,0.3,0.5,0.6,0.5c0.3,0,0.3-0.7,0.6-0.7c0.3,0,0.3,0.2,0.6,0.2c0.3,0,0.3-0.1,0.6-0.1
			c0.3,0,0.3,0.3,0.6,0.3c0.3,0,0.3,0.2,0.6,0.2c0.3,0,0.3-0.1,0.6-0.1c0.3,0,0.3-0.4,0.6-0.4c0.3,0,0.3,0.2,0.6,0.2
			c0.3,0,0.3-0.2,0.6-0.2c0.3,0,0.3,0.1,0.6,0.1c0.3,0,0.3,0.3,0.6,0.3c0.3,0,0.3-0.2,0.6-0.2c0.3,0,0.3,0.2,0.6,0.2
			c0.3,0,0.3-0.4,0.6-0.4c0.3,0,0.3,0.5,0.6,0.5c0.3,0,0.3,0.2,0.6,0.2c0.3,0,0.3-0.1,0.6-0.1c0.3,0,0.3-0.4,0.6-0.4
			c0.3,0,0.3,0,0.6,0c0.3,0,0.3,0.2,0.6,0.2c0.3,0,0.3-0.1,0.6-0.1c0.3,0,0.3-0.1,0.6-0.1c0.3,0,0.3,0,0.6,0c0.3,0,0.3,0.1,0.6,0.1
			c0.3,0,0.3-0.1,0.6-0.1c0.3,0,0.3,0.3,0.6,0.3c0.3,0,0.3-0.2,0.6-0.2c0.3,0,0.3-0.2,0.6-0.2c0.3,0,0.3,0.5,0.6,0.5
			c0.3,0,0.3-0.4,0.6-0.4C33,9.8,33,10,33.3,10c0.3,0,0.3-0.2,0.6-0.2c0.3,0,0.3,0,0.6,0c0.3,0,0.3,0.3,0.6,0.3
			c0.3,0,0.3,0.2,0.6,0.2c0.3,0,0.3-0.1,0.6-0.1c0.3,0,0.3-0.4,0.6-0.4c0.3,0,0.3,0.1,0.6,0.1s0.3,0.3,0.6,0.3
			c0.3,0,0.3-0.2,0.6-0.2c0.3,0,0.3,0.5,0.6,0.5c0.3,0,0.3-0.6,0.6-0.6c0.3,0,0.3,0.3,0.6,0.3c0.3,0,0.3,0.2,0.6,0.2
			c0.3,0,0.3-0.2,0.6-0.2c0.3,0,0.3-0.4,0.6-0.4c0.3,0,0.3,0.3,0.6,0.3c0.3,0,0.3,0.4,0.6,0.4c0.3,0,0.3-0.2,0.6-0.2
			c0.3,0,0.3-0.4,0.6-0.4c0.3,0,0.3,0.1,0.6,0.1c0.3,0,0.3,0.3,0.6,0.3c0.3,0,0.3-0.3,0.6-0.3c0.3,0,0.3,0,0.6,0c0.3,0,0.3,0,0.6,0
			c0.3,0,0.3-0.1,0.6-0.1c0.3,0,0.3-0.1,0.6-0.1c0.3,0,0.3,0.7,0.6,0.7c0.3,0,0.3-0.3,0.6-0.3c0.3,0,0.3,0.2,0.6,0.2
			c0.3,0,0.3-0.4,0.6-0.4s0.3,0.2,0.6,0.2c0.3,0,0.3,0.2,0.6,0.2c0.3,0,0.3,0.1,0.6,0.1c0.3,0,0.3-0.2,0.6-0.2
			c0.3,0,0.3-0.3,0.6-0.3c0.3,0,0.3,0.3,0.6,0.3c0.3,0,0.3,0.2,0.6,0.2c0.3,0,0.3-0.2,0.6-0.2c0.3,0,0.3,0,0.6,0
			c0.3,0,0.3,0.1,0.6,0.1c0.3,0,0.3-0.4,0.6-0.4s0.3,0.6,0.6,0.6c0.3,0,0.3-0.6,0.6-0.6c0.3,0,0.3,0.3,0.6,0.3
			c0.3,0,0.3,0.2,0.6,0.2c0.3,0,0.3-0.4,0.6-0.4c0.3,0,0.3,0.5,0.6,0.5c0.3,0,0.3-0.1,0.6-0.1c0.3,0,0.3,0,0.6,0
			c0.3,0,0.3,0.1,0.6,0.1c0.3,0,0.3,0,0.6,0c0.3,0,0.3-0.4,0.6-0.4c0.3,0,0.3-0.2,0.6-0.2c0.3,0,0.3,0.2,0.6,0.2
			c0.3,0,0.3,0.1,0.6,0.1c0.3,0,0.3,0.3,0.6,0.3c0.3,0,0.3-0.1,0.6-0.1c0.3,0,0.3-0.2,0.6-0.2c0.3,0,0.3,0.5,0.6,0.5
			c0.3,0,0.3,0,0.6,0s0.3,0,0.6,0c0.3,0,0.3-0.5,0.6-0.5c0.3,0,0.3-0.1,0.6-0.1c0.3,0,0.3,0.6,0.6,0.6c0.3,0,0.3-0.4,0.6-0.4
			c0.3,0,0.3,0.1,0.6,0.1c0.3,0,0.3,0.1,0.6,0.1c0.3,0,0.3,0,0.6,0s0.3-0.3,0.6-0.3c0.3,0,0.3,0.3,0.6,0.3c0.3,0,0.3-0.1,0.6-0.1
			c0.3,0,0.3,0.2,0.6,0.2c0.3,0,0.3-0.4,0.6-0.4c0.3,0,0.3,0,0.6,0c0.3,0,0.3,0,0.6,0c0.3,0,0.3,0.7,0.6,0.7c0.3,0,0.3-0.1,0.6-0.1
			s0.3-0.6,0.6-0.6c0.3,0,0.3,0.6,0.6,0.6s0.3,0,0.6,0c0.3,0,0.3,0,0.6,0c0.3,0,0.3-0.3,0.6-0.3c0.3,0,0.3-0.2,0.6-0.2
			c0.3,0,0.3,0,0.6,0c0.3,0,0.3,0.3,0.6,0.3c0.3,0,0.3,0,0.6,0c0.3,0,0.3,0,0.6,0c0.3,0,0.3,0.2,0.6,0.2c0.3,0,0.3-0.7,0.6-0.7
			c0.3,0,0.3,0.6,0.6,0.6c0.3,0,0.3,0,0.6,0s0.3-0.2,0.6-0.2c0.3,0,0.3,0.2,0.6,0.2s0.3,0,0.6,0c0.3,0,0.3-0.5,0.6-0.5
			c0.3,0,0.3,0.5,0.6,0.5c0.3,0,0.3-0.7,0.6-0.7c0.3,0,0.3,0.3,0.6,0.3C92,10,92,10,92.3,10c0.3,0,0.3,0.1,0.6,0.1
			c0.3,0,0.3,0,0.6,0c0.3,0,0.3-0.2,0.6-0.2s0.3,0.2,0.6,0.2c0.3,0,0.3,0,0.6,0c0.3,0,0.3-0.3,0.6-0.3c0.3,0,0.3,0.1,0.6,0.1
			c0.3,0,0.3-0.3,0.6-0.3c0.3,0,0.3,0.4,0.6,0.4c0.3,0,0.3,0.2,0.6,0.2c0.3,0,0.3-0.4,0.6-0.4c0.3,0,0.3-0.1,0.6-0.1
			c0.3,0,0.3,0,0.6,0c0.3,0,0.3,0.1,0.6,0.1c0.3,0,0.3,0.1,0.6,0.1c0.3,0,0.3,0.4,0.6,0.4c0.3,0,0.3-0.4,0.6-0.4
			c0.3,0,0.3,0.4,0.6,0.4c0.3,0,0.3-0.3,0.6-0.3c0.3,0,0.3,0,0.6,0c0.3,0,0.3,0.1,0.6,0.1c0.3,0,0.3-0.3,0.6-0.3
			c0.3,0,0.3,0.1,0.6,0.1c0.3,0,0.3-0.2,0.6-0.2c0.3,0,0.3-0.1,0.6-0.1c0.3,0,0.6-0.1,0.8,0.1c0.2,0.2,0.1,0.5,0.2,0.8
			c0,0.3-0.2,0.3-0.2,0.6c0,0.3,0.1,0.3,0.1,0.6c0,0.3-0.5,0.3-0.5,0.6c0,0.3,0.5,0.3,0.5,0.6c0,0.3,0,0.3,0,0.6c0,0.3,0,0.3,0,0.6
			c0,0.3,0.1,0.3,0.1,0.6c0,0.3-0.3,0.3-0.3,0.6c0,0.3,0.1,0.3,0.2,0.6c0,0.3-0.1,0.3-0.1,0.6c0,0.3-0.1,0.3-0.1,0.6
			c0,0.3-0.1,0.3-0.1,0.6c0,0.3,0.5,0.3,0.5,0.6c0,0.3-0.1,0.3-0.1,0.6c0,0.3-0.4,0.3-0.4,0.6c0,0.3,0.4,0.3,0.4,0.6
			c0,0.3-0.4,0.3-0.4,0.6c0,0.3,0.7,0.3,0.7,0.6c0,0.3-0.1,0.3-0.1,0.6c0,0.3-0.3,0.3-0.3,0.6c0,0.3,0.5,0.3,0.5,0.6
			c0,0.3-0.6,0.3-0.6,0.6c0,0.3,0.4,0.3,0.4,0.6c0,0.3,0.1,0.3,0.1,0.6c0,0.3-0.1,0.3-0.1,0.6c0,0.3,0.1,0.3,0.1,0.6
			c0,0.3-0.4,0.3-0.4,0.6c0,0.3,0.5,0.3,0.5,0.6c0,0.3-0.4,0.3-0.4,0.6c0,0.3,0.4,0.3,0.4,0.6c0,0.3,0.2,0.3,0.2,0.6
			c0,0.3,0,0.3,0.1,0.6c0,0.3-0.1,0.3-0.1,0.6c0,0.3-0.2,0.3-0.2,0.6c0,0.3,0,0.3,0,0.6c0,0.3,0.3,0.3,0.3,0.6
			c0,0.3-0.2,0.3-0.2,0.6c0,0.3,0.1,0.3,0.1,0.6c0,0.3-0.4,0.3-0.4,0.6c0,0.3,0.2,0.3,0.2,0.6c0,0.3-0.3,0.3-0.3,0.6
			c0,0.3,0.7,0.3,0.7,0.6c0,0.3-0.3,0.3-0.3,0.6c0,0.3-0.2,0.3-0.2,0.6c0,0.3,0.4,0.3,0.4,0.6c0,0.3-0.4,0.3-0.4,0.6
			c0,0.3,0.5,0.3,0.5,0.6c0,0.3,0.1,0.3,0.1,0.6c0,0.3-0.1,0.3-0.1,0.6c0,0.3-0.5,0.3-0.5,0.6c0,0.3,0.2,0.3,0.2,0.6
			c0,0.3,0.2,0.3,0.2,0.6c0,0.3-0.3,0.3-0.3,0.6c0,0.3,0,0.3,0,0.6c0,0.3,0.3,0.3,0.3,0.6c0,0.3,0.2,0.3,0.2,0.6c0,0.3,0,0.3,0,0.6
			c0,0.3-0.5,0.3-0.4,0.6c0,0.3,0.5,0.3,0.5,0.6c0,0.3-0.4,0.3-0.4,0.6c0,0.3,0.5,0.3,0.5,0.6c0,0.3,0.2,0.3,0.2,0.6
			c0,0.3-0.7,0.3-0.7,0.6c0,0.3,0.3,0.3,0.3,0.6c0,0.3,0.4,0.3,0.4,0.6c0,0.3-0.2,0.3-0.2,0.6c0,0.3,0.1,0.3,0.1,0.6
			c0,0.3-0.1,0.3-0.1,0.6c0,0.3,0.2,0.3,0.2,0.6c0,0.3,0,0.3,0,0.6c0,0.3-0.3,0.3-0.3,0.6c0,0.3,0.3,0.3,0.3,0.6c0,0.3,0,0.3,0,0.6
			c0,0.3-0.1,0.3-0.1,0.6c0,0.3,0.2,0.3,0.2,0.6c0,0.3-0.6,0.3-0.6,0.6c0,0.3,0.4,0.3,0.4,0.6c0,0.3,0,0.3,0,0.6
			c0,0.3-0.1,0.3-0.1,0.6c0,0.3,0,0.3,0,0.6c0,0.3,0.2,0.3,0.1,0.6c0,0.3-0.2,0.3-0.2,0.6c0,0.3,0.1,0.3,0.1,0.6
			c0,0.3-0.1,0.3-0.1,0.6c0,0.3,0.2,0.3,0.2,0.6c0,0.3-0.4,0.3-0.4,0.6c0,0.3,0.2,0.3,0.2,0.6c0,0.3-0.1,0.3-0.1,0.6
			c0,0.3,0.1,0.3,0.1,0.6c0,0.3,0.3,0.3,0.3,0.6c0,0.3-0.3,0.3-0.4,0.6c0,0.3,0.2,0.3,0.2,0.6c0,0.3-0.1,0.3-0.1,0.6
			c0,0.3-0.1,0.3-0.1,0.6c0,0.3-0.2,0.3-0.2,0.6c0,0.3-0.1,0.3-0.1,0.6c0,0.3-0.1,0.3-0.1,0.6c0,0.3,0.7,0.3,0.7,0.6
			c0,0.3-0.2,0.3-0.2,0.6c0,0.3,0.1,0.3,0.1,0.6c0,0.3-0.1,0.3-0.1,0.6c0,0.3-0.2,0.3-0.2,0.6c0,0.3-0.1,0.3-0.2,0.6
			c0,0.3,0.2,0.3,0.2,0.6c0,0.3-0.4,0.3-0.4,0.6c0,0.3,0.2,0.3,0.1,0.6c0,0.3,0.3,0.3,0.3,0.6c0,0.3-0.2,0.3-0.2,0.6
			c0,0.3,0.2,0.3,0.2,0.6c0,0.3-0.3,0.3-0.4,0.6c0,0.3,0.3,0.3,0.3,0.6c0,0.3,0,0.3,0,0.6c0,0.3-0.6,0.3-0.6,0.6
			c0,0.3,0.5,0.3,0.5,0.6c0,0.3-0.5,0.3-0.5,0.6c0,0.3,0.6,0.3,0.6,0.6c0,0.3-0.6,0.3-0.6,0.6c0,0.3,0.4,0.3,0.4,0.6
			c0,0.3-0.1,0.3-0.1,0.6c0,0.3-0.2,0.3-0.2,0.6c0,0.3,0.5,0.3,0.5,0.6c0,0.3-0.6,0.3-0.6,0.6c0,0.3,0.4,0.3,0.4,0.6
			c0,0.3-0.2,0.3-0.2,0.6c0,0.3,0,0.3,0,0.6c0,0.3,0,0.3,0,0.6c0,0.3-0.2,0.3-0.2,0.6c0,0.3-0.1,0.3-0.1,0.6c0,0.3,0,0.3-0.1,0.6
			c0,0.3,0.6,0.3,0.5,0.6c0,0.3-0.3,0.3-0.3,0.6c0,0.3,0,0.3,0,0.6c0,0.3-0.2,0.3-0.2,0.6c0,0.3,0.2,0.3,0.2,0.6
			c0,0.3,0.3,0.3,0.3,0.6c0,0.3-0.2,0.3-0.2,0.6c0,0.3-0.2,0.3-0.2,0.6c0,0.3,0.4,0.3,0.4,0.6c0,0.3-0.5,0.3-0.5,0.6
			c0,0.3,0.1,0.3,0.1,0.6c0,0.3-0.1,0.3-0.1,0.6c0,0.3,0.5,0.3,0.4,0.6c0,0.3-0.3,0.3-0.3,0.6c0,0.3-0.3,0.3-0.3,0.6
			c0,0.3,0.3,0.3,0.3,0.6c0,0.3,0.1,0.3,0,0.6c0,0.3-0.1,0.3-0.2,0.6c0,0.3,0,0.3,0,0.6c0,0.3,0,0.3,0,0.6c0,0.3-0.3,0.3-0.3,0.6
			c0,0.3,0,0.3,0,0.6c0,0.3-0.2,0.3-0.2,0.6c0,0.3,0.5,0.3,0.5,0.6c0,0.3,0,0.3,0,0.6c0,0.3-0.1,0.3-0.1,0.6c0,0.3-0.2,0.3-0.2,0.6
			c0,0.3-0.1,0.3-0.1,0.6c0,0.3-0.1,0.3-0.1,0.6c0,0.3,0.1,0.3,0.1,0.6c0,0.3-0.3,0.4-0.2,0.7C107.7,105.7,108.2,105.8,108,106z"/>
		<g id="XMLID_1404_">
			<path id="XMLID_1406_" class="st166" d="M4.2,58c0-2.6-1.6-4.9-3.8-5.9c-0.1,0.1-0.1,0.2-0.1,0.4c0,0.4,0.6,0.4,0.5,0.7
				c0,0.4-0.2,0.3-0.2,0.7c0,0.4-0.6,0.3-0.6,0.7C0,55,0.2,55,0.2,55.3c0,0.4,0,0.4,0,0.7c0,0.4,0,0.4,0,0.7c0,0.4,0.2,0.4,0.1,0.7
				c0,0.4,0.2,0.4,0.2,0.7c0,0.4-0.5,0.3-0.5,0.7c0,0.4,0.4,0.4,0.4,0.7c0,0.4-0.1,0.4-0.1,0.7c0,0.4,0.3,0.3,0.3,0.7
				c0,0.4-0.5,0.4-0.5,0.7c0,0.4-0.2,0.4-0.2,0.7c0,0.4,0.2,0.3,0.2,0.7c0,0.4,0.2,0.3,0.2,0.7l0,0C2.7,62.8,4.2,60.6,4.2,58z"/>
			<path id="XMLID_1405_" class="st166" d="M118.9,63.1c0-0.4,0.5-0.3,0.5-0.7c0-0.4-0.2-0.4-0.2-0.7c0-0.4,0.2-0.3,0.2-0.7
				c0-0.4-0.1-0.4-0.1-0.7c0-0.4,0.3-0.3,0.3-0.7c0-0.4-0.2-0.4-0.2-0.7c0-0.4,0-0.4,0-0.7c0-0.4,0.1-0.4,0.1-0.7c0-0.4,0-0.4,0-0.7
				c0-0.4-0.5-0.3-0.5-0.7c0-0.4,0.7-0.4,0.7-0.7c0-0.4-0.3-0.3-0.3-0.7c0-0.4,0.1-0.4,0.1-0.7c0-0.4,0-0.4,0-0.7
				c0-0.4-0.3-0.3-0.3-0.7c0-0.3,0.3-0.4,0.3-0.6c-2.5,0.9-4.2,3.3-4.2,6.1c0,2.7,1.6,5,4,6c0,0,0-0.1,0-0.1
				C119.2,63.5,118.9,63.5,118.9,63.1z"/>
		</g>
		<g id="XMLID_1344_">
			<path id="XMLID_1403_" class="st6" d="M100.9,115.3c0.4,0,0.4,0.3,0.7,0.3c0.4,0,0.4-0.3,0.7-0.3c0.4,0,0.4,0.6,0.7,0.6
				c0.4,0,0.4-0.1,0.7-0.1c0.4,0,0.4-0.7,0.7-0.7c0.4,0,0.4,0.3,0.7,0.3c0.4,0,0.4,0.3,0.7,0.3c0.4,0,0.4-0.6,0.7-0.6
				c0.4,0,0.4,0.8,0.7,0.8c0.4,0,0.4-0.7,0.7-0.7c0.4,0,0.4,0.6,0.7,0.6c0.4,0,0.4,0,0.7,0c0.4,0,0.4-0.5,0.7-0.5
				c0.4,0,0.4,0.2,0.7,0.2c0.4,0,0.4-0.4,0.7-0.4c0.4,0,0.4,0.5,0.7,0.5s0.4-0.1,0.7-0.1c0.4,0,0.4-0.1,0.7-0.1
				c0.4,0,0.4,0.4,0.7,0.4c0.4,0,0.4-0.1,0.7-0.1s0.4-0.3,0.7-0.3c0.4,0,0.4-0.4,0.7-0.4c0.4,0,0.6,0.8,0.8,0.5
				c0.3-0.2-0.3-0.3-0.4-0.7c-0.1-0.3,0.3-0.4,0.3-0.8c0-0.4-0.1-0.4-0.1-0.7c0-0.4,0.1-0.4,0.1-0.7c0-0.4,0.1-0.4,0.2-0.7
				c0-0.4,0.2-0.3,0.2-0.7c0-0.4,0.1-0.4,0.1-0.7c0-0.4,0-0.4,0-0.7c0-0.4-0.6-0.4-0.6-0.7c0-0.4,0.2-0.3,0.2-0.7c0-0.4,0-0.4,0-0.7
				c0-0.4,0.3-0.3,0.3-0.7c0-0.4,0-0.4,0-0.7c0-0.4,0-0.4,0-0.7c0-0.4,0.2-0.3,0.2-0.7c0-0.4-0.1-0.4,0-0.7c0-0.4-0.4-0.4-0.4-0.7
				c0-0.4,0.3-0.3,0.3-0.7c0-0.4,0.4-0.3,0.4-0.7c0-0.4-0.5-0.4-0.5-0.7c0-0.4,0.2-0.3,0.2-0.7c0,0,0,0,0,0
				c-0.9-0.2-1.7-0.2-2.6-0.2c-8.4,0-15.1,6.8-15.1,15.1c0,0,0.1,0,0.2,0C100.6,115.4,100.6,115.3,100.9,115.3z"/>
			<path id="XMLID_1401_" class="st6" d="M115.2,19c1,0,2-0.1,2.9-0.3c0-0.2,0.2-0.3,0.1-0.6c0-0.4-0.1-0.4-0.1-0.7
				c0-0.4-0.5-0.3-0.5-0.7c0-0.4,0.7-0.4,0.7-0.7c0-0.4-0.6-0.3-0.6-0.7c0-0.4,0.3-0.4,0.3-0.7c0-0.4,0.1-0.4,0.1-0.7
				c0-0.4-0.8-0.3-0.8-0.7c0-0.4,0.5-0.4,0.5-0.7c0-0.4-0.5-0.3-0.5-0.7c0-0.4,0.5-0.4,0.5-0.7c0-0.4,0.1-0.4,0.1-0.7
				c0-0.4-0.6-0.3-0.6-0.7c0-0.4,0.1-0.4,0.1-0.7c0-0.4,0.2-0.4,0.1-0.7c0-0.4,0.1-0.4,0.1-0.7c0-0.4-0.2-0.3-0.2-0.7
				c0-0.4,0.4-0.4,0.4-0.7c0-0.4-0.1-0.4-0.1-0.7c0-0.4,0-0.4,0-0.7c0-0.4,0-0.4-0.1-0.7c0-0.4-0.6-0.3-0.6-0.7
				c0-0.4,0.6-0.4,0.6-0.7c0-0.4-0.2-0.3-0.2-0.7c0-0.4,0.2-0.4,0.2-0.7c0-0.4,0.1-0.7-0.2-1c-0.3-0.2-0.6-0.1-1-0.1
				c-0.4,0-0.4,0.1-0.7,0.1c-0.4,0-0.4,0.2-0.7,0.2c-0.4,0-0.4-0.2-0.7-0.2c-0.4,0-0.4,0.4-0.7,0.4s-0.4-0.1-0.7-0.1
				c-0.4,0-0.4,0-0.7,0c-0.4,0-0.4,0.3-0.7,0.3s-0.4-0.5-0.7-0.5c-0.4,0-0.4,0.5-0.7,0.5c-0.4,0-0.4-0.5-0.7-0.5
				c-0.4,0-0.4-0.1-0.7-0.1c-0.4,0-0.4-0.2-0.7-0.2c-0.4,0-0.4,0-0.7,0c-0.4,0-0.4,0.1-0.7,0.1c-0.4,0-0.4,0.5-0.7,0.5
				c-0.4,0-0.4-0.2-0.7-0.2c-0.4,0-0.4-0.4-0.7-0.4s-0.4,0.3-0.7,0.3c-0.4,0-0.4-0.1-0.7-0.1c-0.4,0-0.4,0.3-0.7,0.3
				c-0.4,0-0.4,0-0.7,0s-0.4-0.2-0.7-0.2c-0.3,0-0.3,0.1-0.5,0.1c-0.2,1-0.4,2.1-0.4,3.2C100,12.2,106.8,19,115.2,19z"/>
			<path id="XMLID_1400_" class="st6" d="M20.9,3.9c0-1.2-0.1-2.3-0.4-3.4c-0.1,0-0.2,0-0.3,0c-0.4,0-0.4-0.2-0.7-0.2
				c-0.4,0-0.4,0-0.7,0c-0.4,0-0.4,0.5-0.7,0.5c-0.4,0-0.4,0.2-0.7,0.2c-0.4,0-0.4-0.2-0.7-0.2c-0.4,0-0.4-0.6-0.7-0.6
				c-0.4,0-0.4,0.5-0.7,0.5c-0.4,0-0.4-0.2-0.7-0.2c-0.4,0-0.4,0.2-0.7,0.2c-0.4,0-0.4-0.3-0.7-0.3c-0.4,0-0.4-0.1-0.7-0.1
				c-0.4,0-0.4,0.2-0.7,0.2c-0.4,0-0.4-0.3-0.7-0.3c-0.4,0-0.4,0.5-0.7,0.5c-0.4,0-0.4,0.1-0.7,0.1c-0.4,0-0.4-0.2-0.7-0.2
				C8.4,0.5,8.4,0.1,8,0.1c-0.4,0-0.4,0.1-0.7,0.1C7,0.2,7,0,6.6,0C6.3,0,6.3,0.8,5.9,0.8c-0.4,0-0.4-0.6-0.7-0.6
				c-0.4,0-0.4-0.1-0.7-0.1c-0.4,0-0.4,0.7-0.7,0.7c-0.4,0-0.4-0.1-0.7-0.1c-0.4,0-0.5-0.6-0.8-0.4s0.3,0.4,0.3,0.8
				c0,0.4,0.2,0.4,0.2,0.7c0,0.4,0,0.4-0.1,0.7c0,0.4-0.7,0.3-0.8,0.7c0,0.4,0.6,0.4,0.6,0.7c0,0.4-0.6,0.3-0.6,0.7
				c0,0.4,0.6,0.4,0.6,0.7c0,0.4-0.3,0.3-0.3,0.7c0,0.4,0.1,0.4,0.1,0.7c0,0.4-0.4,0.3-0.4,0.7c0,0.4,0.2,0.4,0.2,0.7
				C2,8.6,2.3,8.6,2.2,9c0,0.4,0,0.4,0,0.7c0,0.4-0.2,0.3-0.2,0.7c0,0.4,0.2,0.4,0.2,0.7c0,0.4-0.8,0.3-0.8,0.7c0,0.4,0,0.4,0,0.7
				c0,0.4-0.1,0.4-0.1,0.7c0,0.4,0.6,0.4,0.6,0.7c0,0.4-0.4,0.3-0.4,0.7c0,0.4-0.2,0.3-0.2,0.7c0,0.4,0.1,0.4,0.1,0.7
				c0,0.4,0.6,0.4,0.6,0.7c0,0.4-0.1,0.4-0.1,0.7c0,0.4-0.3,0.3-0.3,0.7c0,0.1,0,0.2,0,0.2C3,18.8,4.4,19,5.7,19
				C14.1,19,20.9,12.2,20.9,3.9z"/>
			<path id="XMLID_1398_" class="st6" d="M5.7,100.3c-1.2,0-2.5,0.2-3.6,0.5c-0.1,0.2-0.5,0.3-0.5,0.6c0,0.4,0.5,0.3,0.5,0.7
				c0,0.4-0.3,0.4-0.3,0.7c0,0.4-0.3,0.4-0.3,0.7c0,0.4,0.3,0.3,0.3,0.7c0,0.4-0.3,0.4-0.3,0.7c0,0.4,0,0.4,0,0.7
				c0,0.4-0.1,0.4-0.1,0.7c0,0.4,0.8,0.3,0.8,0.7c0,0.4,0.1,0.4,0.1,0.7c0,0.4-0.3,0.4-0.2,0.7c0,0.4-0.2,0.5-0.2,0.8
				c0,0.4,0.1,0.2,0.2,0.6c0,0.4,0.1,0.4,0.1,0.7c0,0.4,0.2,0.3,0.2,0.7c0,0.4,0.1,0.3,0.1,0.7c0,0.4-0.4,0.4-0.4,0.7
				c0,0.4-0.3,0.4-0.3,0.7c0,0.4,0.6,0.3,0.6,0.7c0,0.4-0.1,0.4-0.1,0.7c0,0.4-0.6,0.7-0.4,0.9c0.3,0.2,0.5,0.2,0.9,0.2
				c0.4,0,0.4-0.3,0.7-0.3c0.4,0,0.4-0.3,0.7-0.3s0.4,0,0.7,0c0.4,0,0.4,0.4,0.7,0.4c0.4,0,0.4-0.5,0.7-0.5c0.4,0,0.4,0,0.7,0
				c0.4,0,0.4,0.5,0.7,0.5c0.4,0,0.4-0.3,0.7-0.3c0.4,0,0.4,0.1,0.7,0.1c0.4,0,0.4-0.1,0.7-0.1c0.4,0,0.4,0.4,0.7,0.4
				c0.4,0,0.4-0.8,0.7-0.8c0.4,0,0.4,0.1,0.7,0.1c0.4,0,0.4,0.5,0.7,0.5c0.4,0,0.4,0.1,0.7,0.1c0.4,0,0.4-0.7,0.7-0.7
				c0.4,0,0.4,0.5,0.7,0.5c0.4,0,0.4,0.3,0.7,0.3c0.4,0,0.4-0.5,0.7-0.5c0.4,0,0.4,0.4,0.7,0.4c0.4,0,0.4-0.4,0.7-0.4
				c0.4,0,0.4,0.4,0.7,0.4c0.4,0,0.4-0.3,0.7-0.3c0.4,0,0.4,0.5,0.7,0.5c0.3,0,0.4,0,0.6,0c0-0.2,0-0.3,0-0.5
				C20.9,107,14.1,100.3,5.7,100.3z"/>
		</g>
		<g id="XMLID_1339_">
			<path id="XMLID_1343_" class="st165" d="M111.6,115c0.4,0,0.4,0.5,0.7,0.5s0.4-0.1,0.7-0.1c0.4,0,0.4-0.1,0.7-0.1
				c0.4,0,0.4,0.4,0.7,0.4c0.4,0,0.4-0.1,0.7-0.1s0.4-0.3,0.7-0.3c0.4,0,0.4-0.4,0.7-0.4c0.4,0,0.6,0.8,0.8,0.5
				c0.3-0.2-0.3-0.3-0.4-0.7c-0.1-0.3,0.3-0.4,0.3-0.8c0-0.4-0.1-0.4-0.1-0.7c0-0.4,0.1-0.4,0.1-0.7c0-0.4,0.1-0.4,0.2-0.7
				c0-0.4,0.2-0.3,0.2-0.7c0-0.4,0.1-0.4,0.1-0.7c0-0.4,0-0.4,0-0.7c0-0.2-0.1-0.2-0.2-0.3c-2.8,1.3-5.2,3.3-7,5.9
				c0.1,0.1,0.2,0.1,0.4,0.1C111.3,115.4,111.3,115,111.6,115z"/>
			<path id="XMLID_1342_" class="st165" d="M117.4,9.7c0-0.4,0.1-0.4,0.1-0.7c0-0.4,0.2-0.4,0.1-0.7c0-0.4,0.1-0.4,0.1-0.7
				c0-0.4-0.2-0.3-0.2-0.7c0-0.4,0.4-0.4,0.4-0.7c0-0.4-0.1-0.4-0.1-0.7c0-0.4,0-0.4,0-0.7c0-0.4,0-0.4-0.1-0.7
				c0-0.4-0.6-0.3-0.6-0.7c0-0.4,0.6-0.4,0.6-0.7c0-0.4-0.2-0.3-0.2-0.7c0-0.4,0.2-0.4,0.2-0.7c0-0.4,0.1-0.7-0.2-1
				c-0.3-0.2-0.6-0.1-1-0.1c-0.4,0-0.4,0.1-0.7,0.1c-0.4,0-0.4,0.2-0.7,0.2c-0.4,0-0.4-0.2-0.7-0.2c-0.4,0-0.4,0.4-0.7,0.4
				s-0.4-0.1-0.7-0.1c-0.4,0-0.4,0-0.7,0c-0.4,0-0.4,0.3-0.7,0.3s-0.4-0.5-0.7-0.5c-0.4,0-0.4,0.5-0.7,0.5c-0.4,0-0.4-0.5-0.7-0.5
				c-0.4,0-0.4-0.1-0.7-0.1c-0.3,0-0.4-0.1-0.5-0.1c1.7,4.7,5.2,8.5,9.8,10.5c0-0.1,0-0.2,0-0.3C118,10,117.4,10,117.4,9.7z"/>
			<path id="XMLID_1341_" class="st165" d="M12.9,0.2c-0.2,0-0.3-0.1-0.6-0.1c-0.4,0-0.4,0.2-0.7,0.2c-0.4,0-0.4-0.3-0.7-0.3
				c-0.4,0-0.4,0.5-0.7,0.5c-0.4,0-0.4,0.1-0.7,0.1c-0.4,0-0.4-0.2-0.7-0.2C8.4,0.5,8.4,0.1,8,0.1c-0.4,0-0.4,0.1-0.7,0.1
				C7,0.2,7,0,6.6,0C6.3,0,6.3,0.8,5.9,0.8c-0.4,0-0.4-0.6-0.7-0.6c-0.4,0-0.4-0.1-0.7-0.1c-0.4,0-0.4,0.7-0.7,0.7
				c-0.4,0-0.4-0.1-0.7-0.1c-0.4,0-0.5-0.6-0.8-0.4s0.3,0.4,0.3,0.8c0,0.4,0.2,0.4,0.2,0.7c0,0.4,0,0.4-0.1,0.7
				c0,0.4-0.7,0.3-0.8,0.7c0,0.4,0.6,0.4,0.6,0.7c0,0.4-0.6,0.3-0.6,0.7c0,0.4,0.6,0.4,0.6,0.7c0,0.4-0.3,0.3-0.3,0.7
				c0,0.4,0.1,0.4,0.1,0.7c0,0.4-0.4,0.3-0.4,0.7c0,0.4,0.2,0.4,0.2,0.7C2,8.6,2.3,8.6,2.2,9c0,0.4,0,0.4,0,0.7
				c0,0.4-0.2,0.3-0.2,0.7c0,0.3,0.1,0.4,0.2,0.6C7.2,9.1,11.2,5.2,12.9,0.2z"/>
			<path id="XMLID_1340_" class="st165" d="M2.1,108.8c0,0.1-0.1,0.2-0.1,0.4c0,0.4,0.1,0.2,0.2,0.6c0,0.4,0.1,0.4,0.1,0.7
				c0,0.4,0.2,0.3,0.2,0.7c0,0.4,0.1,0.3,0.1,0.7c0,0.4-0.4,0.4-0.4,0.7c0,0.4-0.3,0.4-0.3,0.7c0,0.4,0.6,0.3,0.6,0.7
				c0,0.4-0.1,0.4-0.1,0.7c0,0.4-0.6,0.7-0.4,0.9c0.3,0.2,0.5,0.2,0.9,0.2c0.4,0,0.4-0.3,0.7-0.3c0.4,0,0.4-0.3,0.7-0.3s0.4,0,0.7,0
				c0.4,0,0.4,0.4,0.7,0.4c0.4,0,0.4-0.5,0.7-0.5c0.4,0,0.4,0,0.7,0c0.4,0,0.4,0.5,0.7,0.5c0.4,0,0.4-0.3,0.7-0.3
				c0.4,0,0.4,0.1,0.7,0.1c0.4,0,0.4-0.1,0.7-0.1c0.4,0,0.4,0.4,0.7,0.4c0,0,0.1,0,0.1,0C8.9,112.6,5.8,110.1,2.1,108.8z"/>
		</g>
		<path id="XMLID_1338_" class="st105" d="M7,2.6l0.5,1.2l0.1-0.9c0.8,0.6,1.7,1.2,2.3,1.7c0.7,0.6,1.5,1.6,2.2,2.7l-0.3,0.4l0.6,0
			l0,0c1,1.5,1.6,2.9,1.2,3.2c-0.6,0.5-3.4-0.6-5.6-2.3L8,8L7.5,8.2C7.4,8.1,7.3,8,7.2,7.9c-1-0.9-2-2.1-2.8-3.2l0.7,0.1L4,4.2
			c-0.7-1.1-1-2-0.8-2.5c0,0,0,0,0,0S2.7,0.9,2.3,0.6l0.1-0.2c0,0,0.6,0.5,1,1C4.1,1.1,5.6,1.7,7,2.6z"/>
		<path id="XMLID_1337_" class="st105" d="M112.8,113.4l-0.5-1.2l-0.1,0.9c-0.8-0.6-1.7-1.2-2.3-1.7c-0.7-0.6-1.5-1.6-2.2-2.7
			l0.3-0.4l-0.6,0l0,0c-1-1.5-1.6-2.9-1.2-3.2c0.6-0.5,3.4,0.6,5.6,2.3l-0.2,0.5l0.5-0.2c0.1,0.1,0.2,0.2,0.3,0.3
			c1,0.9,2,2.1,2.8,3.2l-0.7-0.1l1.1,0.6c0.7,1.1,1,2,0.8,2.5c0,0,0,0,0,0s0.5,0.8,0.9,1.1l-0.1,0.2c0,0-0.6-0.5-1-1
			C115.7,114.9,114.2,114.3,112.8,113.4z"/>
		<path id="XMLID_1336_" class="st105" d="M4.5,110.9l1.2-0.5l-0.9-0.1c0.6-0.8,1.2-1.7,1.7-2.3c0.6-0.7,1.6-1.5,2.7-2.2l0.4,0.3
			l0-0.6l0,0c1.5-1,2.9-1.6,3.2-1.2c0.5,0.6-0.6,3.4-2.3,5.6l-0.5-0.2l0.2,0.5c-0.1,0.1-0.2,0.2-0.3,0.3c-0.9,1-2.1,2-3.2,2.8
			l0.1-0.7l-0.6,1.1c-1.1,0.7-2,1-2.5,0.8c0,0,0,0,0,0s-0.8,0.5-1.1,0.9l-0.2-0.1c0,0,0.5-0.6,1-1C3,113.8,3.6,112.3,4.5,110.9z"/>
		<path id="XMLID_1335_" class="st105" d="M115.3,5.1l-1.2,0.5l0.9,0.1c-0.6,0.8-1.2,1.7-1.7,2.3c-0.6,0.7-1.6,1.5-2.7,2.2l-0.4-0.3
			l0,0.6l0,0c-1.5,1-2.9,1.6-3.2,1.2c-0.5-0.6,0.6-3.4,2.3-5.6l0.5,0.2l-0.2-0.5c0.1-0.1,0.2-0.2,0.3-0.3c0.9-1,2.1-2,3.2-2.8
			l-0.1,0.7l0.6-1.1c1.1-0.7,2-1,2.5-0.8c0,0,0,0,0,0s0.8-0.5,1.1-0.9l0.2,0.1c0,0-0.5,0.6-1,1C116.8,2.2,116.2,3.7,115.3,5.1z"/>
	</g>
</g>
</svg>
