<svg version="1.1" id="container-green_svg__Layer_1" xmlns="http://www.w3.org/2000/svg" x="0" y="0" viewBox="0 0 119.7 115.9" xml:space="preserve"><style>.container-green_svg__st6{fill:#a0b21f}.container-green_svg__st105{fill:#175823}.container-green_svg__st165{fill:#cbd342}.container-green_svg__st169{fill:#8e9e1c}</style><g id="container-green_svg__XMLID_776_"><g id="container-green_svg__XMLID_1812_"><path id="container-green_svg__XMLID_1966_" class="container-green_svg__st165" d="M117.5 115.6c-.3.2-.5-.5-.8-.5-.4 0-.4.4-.7.4-.4 0-.4.3-.7.3-.4 0-.4.1-.7.1-.4 0-.4-.4-.7-.4s-.4.1-.7.1c-.4 0-.4.1-.7.1-.4 0-.4-.5-.7-.5-.4 0-.4.4-.7.4-.4 0-.4-.2-.7-.2-.4 0-.4.5-.7.5h-.7c-.4 0-.4-.6-.7-.6-.4 0-.4.7-.7.7-.4 0-.4-.8-.7-.8-.4 0-.4.6-.7.6-.4 0-.4-.3-.7-.3-.4 0-.4-.3-.7-.3-.4 0-.4.7-.7.7-.4 0-.4.1-.7.1-.4 0-.4-.6-.7-.6-.4 0-.4.3-.7.3-.4 0-.4-.3-.7-.3-.4 0-.4.1-.7.1-.4 0-.4-.2-.7-.2-.4 0-.4.5-.7.5-.4 0-.4-.4-.7-.4-.4 0-.4.1-.7.1-.4 0-.4.4-.7.4-.4 0-.4-.6-.7-.6-.4 0-.4.5-.7.5-.4 0-.4-.8-.7-.8h-.7c-.4 0-.4.8-.7.8-.4 0-.4-.4-.7-.4-.4 0-.4-.4-.7-.4h-.7c-.4 0-.4.3-.7.3-.4 0-.4.2-.7.2-.4 0-.4-.5-.7-.5h-.7c-.4 0-.4.2-.7.2-.4 0-.4.5-.7.5-.4 0-.4-.6-.7-.6h-.7c-.4 0-.4.5-.7.5-.4 0-.4-.1-.7-.1-.4 0-.4.3-.7.3-.4 0-.4-.7-.7-.7-.4 0-.4.2-.7.2-.4 0-.4-.2-.7-.2s-.4.1-.7.1c-.4 0-.4-.1-.7-.1-.4 0-.4.7-.7.7h-.7c-.4 0-.4.1-.7.1-.4 0-.4-.2-.7-.2s-.4-.4-.7-.4c-.4 0-.4.4-.7.4-.4 0-.4-.3-.7-.3-.4 0-.4-.3-.7-.3-.4 0-.4.3-.7.3-.4 0-.4.3-.7.3-.4 0-.4-.5-.7-.5-.4 0-.4.4-.7.4-.4 0-.4-.5-.7-.5-.4 0-.4.2-.7.2-.4 0-.4.6-.7.6-.4 0-.4-.5-.7-.5s-.4.5-.7.5c-.4 0-.4-.4-.7-.4-.4 0-.4-.1-.7-.1-.4 0-.4.5-.7.5-.4 0-.4-.7-.7-.7-.4 0-.4.7-.7.7-.4 0-.4-.2-.7-.2-.4 0-.4-.1-.7-.1h-.7c-.4 0-.4-.6-.7-.6-.4 0-.4.7-.7.7-.4 0-.4-.6-.7-.6-.4 0-.4.4-.7.4-.4 0-.4-.4-.7-.4-.4 0-.4.1-.7.1-.4 0-.4.5-.7.5-.4 0-.4.1-.7.1-.4 0-.4-.3-.7-.3-.4 0-.4.3-.7.3-.4 0-.4-.6-.7-.6-.4 0-.4.3-.7.3-.4 0-.4.2-.7.2s-.4-.2-.7-.2c-.4 0-.4-.6-.7-.6-.4 0-.4.5-.7.5-.4 0-.4.2-.7.2-.4 0-.4-.7-.7-.7h-.7c-.4 0-.4-.1-.7-.1-.4 0-.4.1-.7.1-.4 0-.4.6-.7.6-.4 0-.4.1-.7.1-.4 0-.4-.1-.7-.1-.4 0-.4-.5-.7-.5-.4 0-.4.4-.7.4-.4 0-.4-.3-.7-.3s-.4-.1-.7-.1c-.4 0-.4-.2-.7-.2-.4 0-.4.8-.7.8-.4 0-.4-.3-.7-.3-.4 0-.4.1-.7.1-.4 0-.4-.6-.7-.6-.4 0-.4.4-.7.4-.4 0-.4-.1-.7-.1-.4 0-.4.5-.7.5-.4 0-.4-.4-.7-.4-.4 0-.4.3-.7.3-.4 0-.4-.4-.7-.4-.4 0-.4-.1-.7-.1h-.7c-.4 0-.4.7-.7.7-.4 0-.4-.8-.7-.8-.4 0-.4.5-.7.5-.4 0-.4.2-.7.2-.4 0-.4-.2-.7-.2-.4 0-.4-.4-.7-.4h-.7c-.4 0-.4.6-.7.6-.4 0-.4-.2-.7-.2-.4 0-.4-.2-.7-.2h-.7c-.4 0-.4.5-.7.5-.4 0-.4-.3-.7-.3-.4 0-.4-.4-.7-.4-.4 0-.4.2-.7.2-.4 0-.4.6-.7.6h-.7c-.4 0-.4-.5-.7-.5-.4 0-.4.3-.7.3-.4 0-.4-.4-.7-.4-.4 0-.4.4-.7.4-.4 0-.4-.4-.7-.4-.4 0-.4.5-.7.5-.4 0-.4-.3-.7-.3-.4 0-.4-.5-.7-.5-.4 0-.4.7-.7.7-.4 0-.4-.1-.7-.1-.4 0-.4-.5-.7-.5-.4 0-.4-.1-.7-.1-.4 0-.4.8-.7.8-.4 0-.4-.4-.7-.4-.4 0-.4.1-.7.1-.4 0-.4-.1-.7-.1-.4 0-.4.3-.7.3-.4 0-.4-.5-.7-.5h-.7c-.4 0-.4.5-.7.5-.4 0-.4-.4-.7-.4h-.7c-.4 0-.4.3-.7.3-.4 0-.4.3-.7.3-.4 0-.6 0-.9-.2-.3-.2.4-.6.4-.9s.1-.4.1-.7c0-.4-.6-.3-.6-.7 0-.4.3-.4.3-.7 0-.4.4-.4.4-.7 0-.4-.1-.3-.1-.7 0-.4-.2-.3-.2-.7s-.1-.4-.1-.7c0-.4-.1-.2-.2-.6 0-.4.2-.5.2-.8 0-.4.3-.4.2-.7 0-.4-.1-.4-.1-.7 0-.4-.8-.3-.8-.7 0-.4.1-.4.1-.7v-.7c0-.4.3-.4.3-.7 0-.4-.3-.3-.3-.7 0-.4.3-.4.3-.7 0-.4.3-.4.3-.7 0-.4-.5-.3-.5-.7 0-.4.6-.4.6-.7 0-.4-.7-.3-.7-.7 0-.4.5-.4.5-.7 0-.4-.6-.3-.6-.7 0-.4.6-.4.5-.7 0-.4-.6-.3-.6-.7 0-.4.7-.4.7-.7 0-.4-.1-.4-.1-.7 0-.4-.4-.3-.4-.7 0-.4.6-.4.6-.7 0-.4-.7-.3-.8-.7V93c0-.4.3-.4.3-.7 0-.4-.1-.4-.1-.7 0-.4.3-.4.3-.7 0-.4.1-.4.1-.7 0-.4-.4-.3-.4-.7 0-.4-.4-.3-.4-.7 0-.4.5-.4.5-.7 0-.4-.4-.3-.4-.7 0-.4.4-.4.4-.7C1.4 86 1 86 1 85.7c0-.4.5-.4.5-.7 0-.4-.2-.3-.2-.7 0-.4-.5-.3-.5-.7 0-.4.2-.4.2-.7v-.7c0-.4-.3-.3-.3-.7 0-.4.1-.4 0-.7 0-.5.3-.5.3-.8 0-.4.4-.4.4-.7v-.7c0-.4-.5-.3-.5-.7 0-.4-.2-.3-.3-.7 0-.4.2-.4.2-.7 0-.4.1-.4.1-.7 0-.4-.4-.3-.5-.7 0-.4.3-.4.3-.7 0-.4-.3-.3-.3-.7 0-.4.6-.4.6-.7 0-.4-.3-.3-.3-.7 0-.4-.1-.4-.1-.7 0-.4.7-.4.6-.7-.1-.5-.2-.5-.2-.9s-.1-.4-.1-.7c0-.4-.4-.3-.4-.7 0-.4-.3-.3-.4-.7 0-.4.1-.4.1-.7 0-.4.3-.4.3-.7 0-.4-.2-.3-.2-.7 0-.4-.2-.3-.2-.7 0-.4.3-.4.3-.7 0-.4.4-.4.4-.7 0-.4-.4-.3-.4-.7 0-.4-.2-.3-.2-.7 0-.4-.2-.3-.2-.7 0-.4.2-.4.2-.7 0-.4.5-.4.5-.7 0-.4-.3-.3-.3-.7 0-.4.1-.4.1-.7 0-.4-.4-.4-.4-.7 0-.4.5-.3.5-.7 0-.4-.2-.4-.2-.7 0-.4-.2-.4-.1-.7v-.7-.7C.2 54 0 54 0 53.7c0-.4.6-.3.6-.7 0-.4.2-.3.2-.7 0-.4-.6-.4-.5-.7 0-.4.2-.3.2-.7 0-.4.3-.3.3-.7 0-.4-.3-.4-.3-.7 0-.4.4-.3.4-.7 0-.4-.3-.4-.3-.7 0-.4.2-.3.2-.7 0-.4.1-.4.1-.7 0-.4-.4-.4-.4-.7 0-.4.5-.3.5-.7 0-.4-.6-.4-.6-.7 0-.4.4-.3.5-.7s.2-.3.2-.7c0-.4-.6-.4-.6-.7 0-.4-.1-.4-.1-.7 0-.4.1-.4.1-.7 0-.4.1-.4.2-.7 0-.4.1-.4.1-.7 0-.4.3-.3.3-.7 0-.4 0-.4.1-.7 0-.4-.4-.4-.4-.7 0-.4.3-.3.4-.7v-.7c0-.4.4-.3.4-.7 0-.4-.3-.4-.3-.7 0-.4-.2-.4-.2-.7 0-.4.5-.3.6-.7 0-.4.1-.4.1-.7 0-.4-.7-.4-.7-.7v-.7c0-.4.2-.3.2-.7 0-.4-.2-.4-.2-.7 0-.4.1-.4.1-.7 0-.4.8-.3.8-.7 0-.4-.1-.4 0-.7 0-.4-.2-.4-.2-.7 0-.4.1-.4.1-.7 0-.4.2-.3.2-.7 0-.4-.6-.4-.6-.7 0-.4.6-.3.7-.7 0-.4-.3-.4-.3-.7 0-.4-.3-.4-.3-.7 0-.4.3-.3.3-.7 0-.4-.4-.4-.4-.7 0-.4.3-.3.3-.7v-.7c0-.4.2-.3.2-.7 0-.4.1-.4.1-.7 0-.4.3-.3.3-.7 0-.4.1-.4.1-.7 0-.4-.6-.4-.6-.7 0-.4-.1-.4-.1-.7 0-.4.2-.3.2-.7 0-.4.4-.3.4-.7 0-.4-.6-.4-.6-.7 0-.4.1-.4.1-.7v-.7c0-.4.8-.3.8-.7 0-.4-.2-.4-.2-.7 0-.4.2-.3.2-.7v-.7c0-.4-.2-.4-.2-.7 0-.4-.2-.4-.2-.7 0-.4.4-.3.4-.7 0-.4-.1-.4-.1-.7 0-.4.3-.3.3-.7 0-.4-.6-.4-.6-.7 0-.4.6-.3.6-.7 0-.4-.6-.4-.6-.7 0-.4.7-.3.8-.7 0-.4 0-.4.1-.7 0-.4-.2-.4-.2-.7 0-.4-.5-.5-.3-.8.3-.2.4.4.8.4s.4.1.7.1c.4 0 .4-.7.7-.7.4 0 .4.1.7.1.4 0 .4.6.7.6 0-.8 0-1.6.3-1.6.4 0 .4.2.7.2.4 0 .4-.1.7-.1.4 0 .4.4.7.4.4 0 .4.2.7.2.4 0 .4-.1.7-.1.4 0 .4-.5.7-.5.4 0 .4.3.7.3.4 0 .4-.2.7-.2.4 0 .4.1.7.1.4 0 .4.3.7.3.4 0 .4-.2.7-.2.4 0 .4.2.7.2.4 0 .4-.5.7-.5.4 0 .4.6.7.6.4 0 .4.2.7.2.4 0 .4-.2.7-.2.4 0 .4-.5.7-.5h.7c.4 0 .4.2.7.2.4 0 .4-.1.7-.1.4 0 .4-.2.7-.2h.7c.4 0 .4.1.7.1.4 0 .4-.1.7-.1.4 0 .4.4.7.4.4 0 .4-.3.7-.3.4 0 .4-.3.7-.3.4 0 .4.6.7.6.4 0 .4-.5.7-.5.4 0 .4.3.7.3.4 0 .4-.3.7-.3h.7c.4 0 .4.4.7.4.4 0 .4.2.7.2.4 0 .4-.2.7-.2.9.1.9-.4 1.2-.4.4 0 .4.1.7.1.4 0 .4.4.7.4.4 0 .4-.2.7-.2.4 0 .4.6.7.6.4 0 .4-.7.7-.7.4 0 .4.4.7.4.4 0 .4.2.7.2.4 0 .4-.2.7-.2.4 0 .4-.5.7-.5.4 0 .4.4.7.4.4 0 .4.5.7.5.4 0 .4-.3.7-.3.4 0 .4-.5.7-.5.4 0 .4.1.7.1.4 0 .4.4.7.4.4 0 .4-.3.7-.3h1.4c.4 0 .4-.1.7-.1.4 0 .4-.2.7-.2.7-.1.7.7 1 .7.4 0 .4-.3.7-.3.4 0 .4.2.7.2.4 0 .4-.5.7-.5s.4.2.7.2c.4 0 .4.2.7.2.4 0 .4.1.7.1s.4-.2.7-.2c.4 0 .4-.3.7-.3.4 0 .4.3.7.3.4 0 .4.2.7.2.4 0 .4-.3.7-.3h.7c.4 0 .4.1.7.1.4 0 .4-.5.7-.5.4 0 .4.8.7.8.4 0 .4-.8.7-.8.4 0 .4.3.7.3.4 0 .4.3.7.3.4 0 .4-.5.7-.5.4 0 .4.6.7.6.4 0 .4-.2.7-.2h.7c.4 0 .4.1.7.1h.7c.4 0 .4-.5.7-.5.4 0 .4-.2.7-.2.4 0 .4.2.7.2.4 0 .4.1.7.1.4 0 .4.4.7.4.4 0 .4-.1.7-.1.4 0 .4-.3.7-.3.4 0 .4.6.7.6h1.4c.4 0 .4-.6.7-.6.4 0 .4-.2.7-.2.4 0 .4.7.7.7.4 0 .4-.5.7-.5.4 0 .4.2.7.2.4 0 .4.1.7.1.4 0 .4-.1.7-.1.4 0 .4-.4.7-.4.4 0 .4.4.7.4.4 0 .4-.1.7-.1.4 0 .4.3.7.3.4 0 .4-.5.7-.5h1.4c.4 0 .4.8.7.8.4 0 .4-.1.7-.1.4 0 .4-.8.7-.8.4 0 .4.8.7.8h1.4c.4 0 .4-.4.7-.4.4 0 .4-.3.7-.3h.7c.4 0 .4.4.7.4h.7c.4 0 .4.1.7.1.4 0 .4.3.7.3.4 0 .4-.8.7-.8.4 0 .4.7.7.7h.7c.4 0 .4-.2.7-.2.4 0 .4.2.7.2h.7c.4 0 .4-.6.7-.6.4 0 .4.6.7.6.4 0 .4-.8.7-.8.4 0 .4.4.7.4.4 0 .4.1.7.1.4 0 .4.2.7.2.4 0 .4.1.7.1.4 0 .4-.2.7-.2.4 0 .4.2.7.2h.7c.4 0 .4-.3.7-.3.4 0 .4.1.7.1.4 0 .4-.3.7-.3.4 0 .4.4.7.4.4 0 .4.2.7.2.4 0 .4-.5.7-.5.4 0 .4-.1.7-.1h.7c.4 0 .4.2.7.2.4 0 .4.1.7.1.4 0 .4.5.7.5.4 0 .4-.5.7-.5.4 0 .4.5.7.5.4 0 .4-.3.7-.3h.7c.4 0 .4.1.7.1.4 0 .4-.4.7-.4.4 0 .4.2.7.2.4 0 .4-.2.7-.2.4 0 .4-.1.7-.1.4 0 .7-.1 1 .1.3.2.2.6.2 1s-.2.4-.2.7c0 .4.2.3.2.7 0 .4-.6.4-.6.7 0 .4.6.3.6.7 0 .4 0 .4.1.7v.7c0 .4.1.4.1.7 0 .4-.4.4-.4.7 0 .4.2.3.2.7 0 .4-.1.4-.1.7 0 .4-.2.4-.1.7 0 .4-.1.4-.1.7 0 .4.6.3.6.7 0 .4-.1.4-.1.7 0 .4-.5.4-.5.7 0 .4.5.3.5.7 0 .4-.5.4-.5.7 0 .4.8.3.8.7 0 .4-.1.4-.1.7 0 .4-.3.4-.3.7 0 .4.6.3.6.7 0 .4-.7.4-.7.7 0 .4.5.3.5.7 0 .4.1.4.1.7 0 .4-.2.4-.2.7 0 .4.1.4.1.7 0 .4-.4.4-.4.7 0 .4.6.3.6.7 0 .4-.5.4-.5.7 0 .4.4.3.4.7 0 .4.2.3.2.7 0 .4 0 .4.1.7 0 .4-.1.4-.1.7 0 .4-.2.4-.2.7v.7c0 .4.4.3.4.7 0 .4-.3.4-.2.7 0 .4.1.4.1.7 0 .4-.5.4-.4.7 0 .4.2.3.2.7 0 .4-.4.4-.4.7 0 .4.8.3.8.7 0 .4-.4.4-.3.7 0 .4-.3.4-.3.7 0 .4.5.3.5.7 0 .4-.5.4-.5.7 0 .4.6.3.6.7 0 .4.1.4.1.7 0 .4-.1.4-.1.7 0 .4-.6.4-.6.7 0 .4.2.3.2.7 0 .4.2.3.2.7 0 .4-.3.4-.3.7v.7c0 .4.3.3.3.7 0 .4.2.3.2.7v.7c0 .4-.5.4-.5.7 0 .4.6.3.6.7 0 .4-.5.4-.5.7 0 .4.6.3.6.7 0 .4.2.3.2.7 0 .4-.9.4-.8.7 0 .4.4.3.4.7 0 .4.5.3.5.7 0 .4-.3.4-.3.7 0 .4.1.4.2.7 0 .4-.1.4-.1.7 0 .4.2.3.3.7v.7c0 .4-.3.4-.3.7 0 .4.3.3.3.7v.7c0 .4-.1.4-.1.7 0 .4.3.3.3.7 0 .4-.7.4-.7.7 0 .4.5.3.5.7v.7c0 .4-.1.4-.1.7v.7c0 .4.2.4.2.7 0 .4-.3.3-.3.7 0 .4.1.4.1.7 0 .4-.2.3-.2.7 0 .4.2.4.2.7 0 .4-.5.3-.5.7s.3.4.3.7c0 .4-.1.4-.1.7 0 .4.1.4.1.7 0 .4.4.4.4.7 0 .4-.4.3-.4.7 0 .4.2.4.2.7 0 .4-.1.4-.1.7 0 .4-.2.3-.2.7 0 .4-.2.3-.2.7 0 .4-.1.4-.1.7 0 .4-.2.3-.2.7 0 .4.8.4.8.7 0 .4-.3.3-.3.7 0 .4.2.4.1.7 0 .4-.1.4-.1.7 0 .4-.2.3-.2.7 0 .4-.2.3-.2.7 0 .4.2.4.2.7 0 .4-.5.3-.5.7 0 .4.2.4.2.7 0 .4.4.4.4.7 0 .4-.2.3-.2.7 0 .4.2.4.2.7 0 .4-.4.3-.4.7 0 .4.4.4.4.7v.7c0 .4-.7.3-.7.7 0 .4.6.4.5.7 0 .4-.6.3-.6.7 0 .4.7.4.7.7 0 .4-.7.3-.7.7 0 .4.5.4.5.7 0 .4-.1.3-.2.7 0 .4-.2.3-.2.7 0 .4.6.4.5.7 0 .4-.7.3-.7.7 0 .4.5.4.4.7 0 .4-.2.3-.2.7v1.4c0 .4-.2.3-.2.7 0 .4-.2.3-.2.7 0 .4 0 .4-.1.7 0 .4.7.4.6.7 0 .4-.4.3-.4.7v.7c0 .4-.2.3-.2.7 0 .4.2.4.2.7 0 .4.3.4.3.7 0 .4-.2.3-.2.7 0 .4-.2.3-.2.7 0 .4.4.4.4.7 0 .4-.6.3-.6.7 0 .4.2.4.1.7 0 .4-.2.3-.2.7 0 .4.5.4.5.7 0 .4-.4.3-.4.7 0 .4-.3.3-.3.7 0 .4.4.4.4.7 0 .4.1.4 0 .7 0 .4-.2.3-.2.7v1.4c0 .4-.3.3-.3.7v.7c0 .4-.2.3-.2.7 0 .4.6.4.6.7v.7c0 .4-.1.4-.1.7 0 .4-.2.3-.2.7 0 .4-.1.4-.2.7 0 .4-.1.4-.1.7 0 .4.1.4.1.7 0 .4-.4.5-.3.8 1.6 1.6 2.2 1.7 2 2z"/><path id="container-green_svg__XMLID_1965_" d="M9.8 8c.2-.2.4.5.7.5.3 0 .3-.3.6-.3s.3-.3.6-.3.3-.1.6-.1.3.4.6.4.3-.1.6-.1.3-.1.6-.1.3.4.6.4.3-.3.6-.3.3.2.6.2.3-.5.6-.5h.6c.3 0 .3.5.6.5s.3-.6.6-.6.3.7.6.7.3-.5.6-.5.3.3.6.3.3.3.6.3.3-.6.6-.6.3-.1.6-.1.3.5.6.5.3-.2.6-.2.3.2.6.2.3-.1.6-.1.3.1.6.1.3-.5.6-.5.3.4.6.4.3-.1.6-.1.3-.4.6-.4.3.6.6.6.3-.5.6-.5.3.7.6.7h.6c.3 0 .3-.7.6-.7s.3.4.6.4.3.3.6.3h.6c.3 0 .3-.3.6-.3s1-.2 1.3-.2c.3 0 .3.4.6.4h.6c.3 0 .3-.1.6-.1s.3-.4.6-.4.3.6.6.6h.6c.3 0 .3-.4.6-.4s.3.1.6.1.3-.2.6-.2.3.6.6.6.3-.2.6-.2.3.1.6.1.3-.1.6-.1.3.1.6.1.3-.6.6-.6h.6c.3 0 .3-.1.6-.1s.3.1.6.1.3.3.6.3.3-.4.6-.4.3.3.6.3.3.2.6.2.3-.3.6-.3.3-.3.6-.3.3.4.6.4.3-.3.6-.3.3.4.6.4.3-.1.6-.1.3-.5.6-.5.3.4.6.4.3-.5.6-.5.3.3.6.3.3.1.6.1.3-.4.6-.4.3.6.6.6.3-.6.6-.6.3.1.6.1.3.1.6.1h.6c.3 0 .3.5.6.5s.3-.6.6-.6.3.5.6.5.3-.3.6-.3c1.2.2 1.2.6 1.6.6.3 0 .3-.1.6-.1s.3-.4.6-.4.3-.1.6-.1.3.2.6.2.3-.3.6-.3.3.5.6.5.3-.3.6-.3c.4.1.4-.2.7-.2.3 0 .3.1.6.1s.3.5.6.5.3-.4.6-.4.3-.2.6-.2.3.6.6.6h.6c.3 0 .3.1.6.1s.3-.1.6-.1.3-.5.6-.5.3-.1.6-.1.3.1.6.1.3.4.6.4.3-.4.6-.4.3.2.6.2.3.1.6.1.3.2.6.2.3-.7.6-.7.7.4 1 .4c.3 0 .3-.1.6-.1s.3.5.6.5.3-.3.6-.3.3.1.6.1.3-.4.6-.4.3.4.6.4.3-.3.6-.3.3.3.6.3.3.1.6.1h.6c.3 0 .3-.6.6-.6s.3.7.6.7.3-.4.6-.4.3-.2.6-.2.3.2.6.2.3.3.6.3h.6c.3 0 .3-.5.6-.5s.7.2 1 .2c.3 0 .3.2.6.2h.6c.3 0 .3-.4.6-.4s.3.3.6.3.3.4.6.4.3-.2.6-.2.3-.5.6-.5h.6c.3 0 .3.4.6.4s.3-.3.6-.3.3.3.6.3.3-.4.6-.4.3.3.6.3.3-.4.6-.4.3.3.6.3.3.4.6.4.3-.6.6-.6.3.1.6.1.3.4.6.4.3.1.6.1.3-.7.6-.7.3.4.6.4h.6c.3 0 .3.1.6.1s.3-.3.6-.3.3.4.6.4h.6c.3 0 .3-.4.6-.4s.3.3.6.3h.6c.3 0 .3-.2.6-.2s.3-.2.6-.2.6 0 .8.2c.2.2-.3.5-.3.8 0 .3-.1.3-.1.6s.5.3.6.6c0 .3-.2.3-.2.6s-.3.3-.3.6.1.3.1.6.2.3.2.6.1.3.1.6.2.3.2.6-.3.3-.3.6-.2.3-.2.6.1.3.1.6.7.3.7.6-.1.3-.1.6v.6c0 .3-.2.3-.2.6s.3.3.3.6-.2.3-.2.6-.3.3-.2.6c0 .3.4.3.4.6s-.5.3-.5.6.6.3.6.6-.4.3-.4.6.5.3.5.6-.5.3-.5.6.5.3.5.6-.6.3-.6.6.1.3.1.6.4.3.4.6-.5.3-.5.6.6.3.7.6v.6c0 .3-.2.3-.2.6s.1.3.1.6-.2.3-.2.6-.1.3-.1.6.4.3.4.6.3.3.3.6-.4.3-.4.6.4.3.4.6-.4.3-.4.6.4.3.4.6-.5.3-.5.6.2.3.2.6.4.3.4.6-.2.3-.2.6v.6c0 .3.3.3.3.6s-.1.3 0 .6c0 .3-.2.3-.2.6s-.4.3-.3.6v.6c0 .3.4.3.4.6s.2.3.2.6-.2.3-.2.6-.1.3-.1.6.4.3.4.6-.3.3-.3.6.3.3.3.6-.5.3-.5.6.3.3.3.6.1.3.1.6-.6.3-.6.6.1.3.1.6.1.3.1.6.3.3.3.6.3.3.3.6-.1.3-.1.6-.3.3-.3.6.2.3.2.6.2.3.2.6-.3.3-.3.6-.3.3-.3.6.3.3.3.6.2.3.2.6.2.3.2.6-.1.3-.1.6-.4.3-.4.6.2.3.3.6c0 .3-.1.3 0 .6s.4.3.4.6-.4.3-.4.6.1.3.1.6.1.3.1.6v1.2c0 .3.2.3.2.6s-.5.3-.5.6-.2.3-.2.6.5.3.5.6-.2.3-.2.6-.2.3-.2.6.3.3.3.6-.3.3-.3.6.3.3.3.6-.2.3-.2.6-.1.3-.1.6.3.3.3.6-.5.3-.5.6.5.3.5.6-.4.3-.4.6-.2.3-.2.6.5.3.5.6.1.3.1.6-.1.3-.1.6-.1.3-.1.6-.1.3-.1.6-.3.3-.3.6v.6c0 .3.4.3.4.6s-.3.3-.3.6v.6c0 .3-.3.3-.3.6s.3.3.3.6.2.3.2.6-.5.3-.5.6-.1.3-.1.6.6.3.6.6v.6c0 .3-.1.3-.2.6s.2.3.2.6 0 .3-.1.6c0 .3-.7.3-.7.6s.1.3 0 .6c0 .3.2.3.1.6 0 .3-.1.3-.1.6s-.1.3-.2.6c0 .3.5.3.5.6s-.6.3-.6.6.2.3.2.6.3.3.2.6c0 .3-.2.3-.3.6 0 .3.4.3.4.6s-.2.3-.2.6v.6c0 .3-.2.3-.2.6s-.1.3-.1.6-.3.3-.3.6-.1.3-.1.6.6.3.5.6c0 .3.1.3 0 .6 0 .3-.2.3-.2.6s-.3.3-.3.6.6.3.5.6c0 .3-.1.3-.1.6v.6c0 .3-.7.3-.7.6s.2.3.2.6-.1.3-.2.6v.6c0 .3.2.3.2.6s.2.3.2.6-.3.3-.3.6.1.3 0 .6c0 .3-.3.3-.3.6s.5.3.5.6-.5.3-.5.6.5.3.5.6-.6.3-.7.6v.6c0 .3.2.3.1.6 0 .3.5.5.2.7-.2.2-.4-.3-.7-.3-.3 0-.3-.1-.6-.1s-.3.6-.6.6-.3-.1-.6-.1-.3-.5-.6-.5-.3.7-.6.7-.3-.2-.6-.2-.3.1-.6.1-.3-.3-.6-.3-.3-.2-.6-.2-.3.1-.6.1-.3.5-.6.5-.3-.2-.6-.2-.3.2-.6.2-.3-.1-.6-.1-.3-.3-.6-.3-.3.2-.6.2-.3-.2-.6-.2-.3.4-.6.4-.3-.5-.6-.5-.3-.2-.6-.2-.3.1-.6.1-.3.4-.6.4h-.6c-.3 0-.3-.2-.6-.2s-.3.1-.6.1-.3.2-.6.2h-.6c-.3 0-.3-.1-.6-.1s-.3.1-.6.1-.3-.3-.6-.3-.3.3-.6.3-.3.3-.6.3-.3-.6-.6-.6-.3.4-.6.4-.3-.2-.6-.2-.3.3-.6.3h-.6c-.3 0-.3-.3-.6-.3s-.3-.2-.6-.2-.3.1-.6.1-.3.4-.6.4-.3-.1-.6-.1-.3-.3-.6-.3-.3.2-.6.2-.3-.5-.6-.5-.3.6-.6.6-.3-.4-.6-.4-.3-.2-.6-.2-.3.2-.6.2-.3.4-.6.4-.3-.3-.6-.3-.3-.4-.6-.4-.3.2-.6.2-.3.4-.6.4-.3-.1-.6-.1-.3-.3-.6-.3-.3.3-.6.3h-1.2c-.3 0-.3.1-.6.1s-.3.1-.6.1-.3-.7-.6-.7-.3.3-.6.3-.3-.2-.6-.2-.3.5-.6.5-.3-.2-.6-.2-.3-.2-.6-.2-.3-.1-.6-.1-.3.2-.6.2-.3.3-.6.3-.3-.3-.6-.3-.3-.2-.6-.2-.3.3-.6.3h-.6c-.3 0-.3-.1-.6-.1s-.3.4-.6.4-.3-.7-.6-.7-.3.7-.6.7-.3-.3-.6-.3-.3-.2-.6-.2-.3.5-.6.5-.3-.5-.6-.5-.3.2-.6.2h-.6c-.3 0-.3-.1-.6-.1h-.6c-.3 0-.3.4-.6.4s-.3.2-.6.2-.3-.2-.6-.2-.3-.1-.6-.1-.3-.4-.6-.4-.3.1-.6.1-.3.2-.6.2-.3-.5-.6-.5h-1.2c-.3 0-.3.5-.6.5s-.3.1-.6.1-.3-.6-.6-.6-.3.4-.6.4-.3-.1-.6-.1-.3-.1-.6-.1h-.6c-.3 0-.3.3-.6.3s-.3-.3-.6-.3-.3.1-.6.1-.3-.2-.6-.2-.3.4-.6.4h-1.2c-.3 0-.3-.7-.6-.7s-.3.1-.6.1-.3.7-.6.7-.3-.7-.6-.7h-1.2c-.3 0-.3.4-.6.4s-.3.2-.6.2h-.6c-.3 0-.3-.3-.6-.3h-1.2c-.3 0-.3-.2-.6-.2s-.3.7-.6.7-.3-.6-.6-.6h-.6c-.3 0-.3.2-.6.2s-.3-.2-.6-.2h-.6c-.3 0-.3.5-.6.5s-.3-.5-.6-.5-.3.7-.6.7-.3-.3-.6-.3-.3-.1-.6-.1-.3-.1-.6-.1-.3-.1-.6-.1-.3.2-.6.2-.3-.2-.6-.2h-.6c-.3 0-.3.3-.6.3s-.3-.1-.6-.1-.3.3-.6.3-.3-.4-.6-.4-.3-.2-.6-.2-.3.4-.6.4-.3.1-.6.1h-.6c-.3 0-.3-.1-.6-.1s-.3-.1-.6-.1-.3-.4-.6-.4-.3.4-.6.4-.3-.4-.6-.4-.3.3-.6.3h-.6c-.3 0-.3-.1-.6-.1s-.3.4-.6.4-.3-.1-.6-.1-.3.2-.6.2-.3.1-.6.1-.6.1-.9-.1c-.2-.2-.1-.5-.2-.8 0-.3.2-.3.2-.6s-.1-.3-.1-.6.5-.3.5-.6-.5-.3-.5-.6v-.6-.6c0-.3-.1-.3-.1-.6s.3-.3.3-.6-.1-.3-.2-.6c0-.3.1-.3.1-.6s.1-.3.1-.6.1-.3.1-.6-.5-.3-.5-.6.1-.3.1-.6.5-.3.4-.6c0-.3-.4-.3-.4-.6s.5-.3.4-.6c0-.3-.7-.3-.7-.6s.1-.3.1-.6.3-.3.3-.6-.5-.3-.5-.6.6-.3.6-.6-.4-.3-.4-.6-.1-.3-.1-.6.2-.3.1-.6c0-.3-.1-.3-.1-.6s.4-.3.4-.6C9.5 90.3 9 90.3 9 90c0-.3.5-.3.4-.6 0-.3-.4-.3-.4-.6s-.2-.3-.2-.6 0-.3-.1-.6c0-.3.1-.3.1-.6s.2-.3.2-.6v-.8c0-.3-.3-.3-.3-.6s.2-.3.2-.6-.1-.3-.1-.6.4-.3.4-.6-.2-.3-.2-.6.3-.3.3-.6-.7-.3-.7-.6.3-.3.3-.6.2-.3.2-.6-.4-.3-.4-.6.4-.3.4-.6-.5-.3-.5-.6-.1-.3-.1-.6.1-.3.1-.6.5-.3.5-.6-.2-.3-.2-.6-.2-.3-.2-.6.3-.3.3-.6v-.6c0-.3-.3-.3-.3-.6s-.2-.3-.2-.6v-.6c0-.3.5-.3.5-.6s-.5-.3-.5-.6.5-.3.4-.6c0-.3-.5-.3-.5-.6s-.2-.3-.2-.6.7-.3.7-.6-.3-.3-.3-.6-.4-.3-.4-.6.2-.3.2-.6-.1-.3-.1-.6.1-.3.1-.6C8.2 65 8 65 8 64.7v-.6c0-.3.3-.3.3-.6s-.3-.3-.3-.6v-.6c0-.3.1-.3.1-.6s-.2-.3-.3-.6c0-.3.6-.3.6-.6s-.4-.3-.5-.6v-.6c0-.3.1-.3.1-.6v-.6c0-.3-.2-.3-.2-.6s.2-.3.2-.6-.1-.3-.1-.6.1-.3.2-.6c0-.3-.2-.3-.2-.6s.4-.3.4-.6-.3-.3-.2-.6c0-.3.1-.3.1-.6s-.1-.3-.1-.6-.3-.3-.3-.6.4-.3.4-.6-.2-.3-.2-.6.1-.3.1-.6.1-.3.2-.6c0-.3.2-.3.2-.6s.1-.3.1-.6.1-.3.2-.6c0-.3-.7-.3-.7-.6s.2-.3.2-.6-.1-.3-.1-.6.1-.3.1-.6.2-.3.2-.6.1-.3.2-.6c0-.3-.2-.3-.2-.6s.4-.3.4-.6-.2-.3-.1-.6c0-.3-.3-.3-.3-.6s.2-.3.2-.6-.2-.3-.2-.6.4-.3.4-.6-.3-.3-.3-.6v-.6c0-.3.6-.3.6-.6s-.5-.3-.5-.6.5-.3.5-.6-.6-.3-.6-.6.6-.3.6-.6-.4-.3-.4-.6.1-.3.1-.6.2-.3.2-.6-.5-.3-.5-.6.6-.3.6-.6-.4-.3-.4-.6.2-.3.2-.6v-.6-.6c0-.3.2-.3.2-.6s.1-.3.2-.6c0-.3 0-.3.1-.6 0-.3-.6-.3-.6-.6s.3-.3.3-.6v-.6c0-.3.2-.3.2-.6s-.2-.3-.2-.6-.3-.3-.3-.6.2-.3.2-.6.2-.3.2-.6-.4-.3-.4-.6.5-.3.5-.6-.1-.3-.1-.6.1-.3.2-.6c0-.3-.5-.3-.5-.6s.3-.3.3-.6.3-.3.3-.6-.4-.3-.3-.6c0-.3-.1-.3 0-.6 0-.3.2-.3.2-.6v-.6-.6c0-.3.3-.3.3-.6v-.6c0-1.5.2-1.5.2-1.8 0-.3-.5-.3-.5-.6v-.6c0-.3.1-.3.1-.6s.2-.3.2-.6.1-.3.1-.6.1-.3.1-.6-.1-.3-.1-.6.3-.4.3-.7c-.1-.5-.7-.6-.4-.8z" fill="#ede1cd"/><path id="container-green_svg__XMLID_1964_" d="M108 106c-.2.2-.4-.5-.7-.5-.3 0-.3.3-.6.3s-.3.3-.6.3-.3.1-.6.1-.3-.3-.6-.3-.3.1-.6.1-.3.1-.6.1-.3-.4-.6-.4-.3.3-.6.3-.3-.2-.6-.2-.3.4-.6.4h-.6c-.3 0-.3-.5-.6-.5s-.3.6-.6.6-.3-.6-.6-.6-.3.5-.6.5-.3-.2-.6-.2-.3-.3-.6-.3-.3.6-.6.6-.3.1-.6.1-.3-.5-.6-.5-.3.2-.6.2-.3-.2-.6-.2-.3.1-.6.1-.3-.1-.6-.1-.3.4-.6.4-.3-.4-.6-.4-.3.1-.6.1-.3.4-.6.4-.3-.5-.6-.5-.3.4-.6.4-.3-.6-.6-.6h-.6c-.3 0-.3.7-.6.7s-.3-.4-.6-.4-.3-.3-.6-.3h-.6c-.3 0-.3.3-.6.3s-.3.2-.6.2-.3-.4-.6-.4h-.6c-.3 0-.3.1-.6.1s-.3.4-.6.4-.3-.5-.6-.5h-.6c-.3 0-.3.4-.6.4s-.3-.1-.6-.1-.3.2-.6.2-.3-.6-.6-.6-.3.2-.6.2-.3-.1-.6-.1-.3.1-.6.1-.3-.1-.6-.1-.3.6-.6.6h-.6c-.3 0-.3.1-.6.1s-.3-.1-.6-.1-.3-.3-.6-.3-.3.4-.6.4-.3-.2-.6-.2-.3-.2-.6-.2-.3.3-.6.3-.3.2-.6.2-.3-.4-.6-.4-.3.3-.6.3-.3-.4-.6-.4-.3.1-.6.1-.3.5-.6.5-.3-.4-.6-.4-.3.4-.6.4-.3-.3-.6-.3-.3-.1-.6-.1-.3.4-.6.4-.3-.6-.6-.6-.3.6-.6.6-.3-.1-.6-.1-.3-.1-.6-.1h-.6c-.3 0-.3-.5-.6-.5s-.3.6-.6.6-.3-.5-.6-.5-.3.3-.6.3-.3-.3-.6-.3-.3.1-.6.1-.3.4-.6.4-.3.1-.6.1-.3-.2-.6-.2-.3.3-.6.3-.3-.5-.6-.5-.3.3-.6.3-.3.2-.6.2-.3-.1-.6-.1-.3-.5-.6-.5-.3.4-.6.4-.3.2-.6.2-.3-.6-.6-.6h-.6c-.3 0-.3-.1-.6-.1s-.3.1-.6.1-.3.5-.6.5-.3.1-.6.1-.3-.1-.6-.1-.3-.4-.6-.4-.3.3-.6.3-.3-.2-.6-.2-.3-.1-.6-.1-.3-.2-.6-.2-.3.6-.6.6-.3-.2-.6-.2-.3.1-.6.1-.3-.5-.6-.5-.3.3-.6.3-.3-.1-.6-.1-.3.4-.6.4-.3-.4-.6-.4-.3.3-.6.3-.3-.3-.6-.3-.3-.1-.6-.1h-.6c-.3 0-.3.5-.6.5s-.3-.7-.6-.7-.3.4-.6.4-.3.2-.6.2-.3-.2-.6-.2-.3-.3-.6-.3h-.6c-.3 0-.3.5-.6.5s-.3-.2-.6-.2-.3-.2-.6-.2h-.6c-.3 0-.3.4-.6.4s-.3-.3-.6-.3-.3-.4-.6-.4-.3.2-.6.2-.3.5-.6.5h-.6c-.3 0-.3-.4-.6-.4s-.3.3-.6.3-.3-.3-.6-.3-.3.4-.6.4-.3-.3-.6-.3-.3.4-.6.4-.3-.3-.6-.3-.3-.4-.6-.4-.3.6-.6.6-.3-.1-.6-.1-.3-.4-.6-.4-.3-.1-.6-.1-.3.7-.6.7-.3-.4-.6-.4h-.6c-.3 0-.3-.1-.6-.1s-.3.3-.6.3-.3-.4-.6-.4h-.6c-.3 0-.3.4-.6.4s-.3-.3-.6-.3h-.6c-.3 0-.3.2-.6.2s-.3.2-.6.2-.5 0-.8-.2c-.2-.2.3-.5.3-.8 0-.3.1-.3.1-.6s-.5-.3-.5-.6.2-.3.2-.6.3-.3.3-.6-.1-.3-.1-.6-.1-.3-.2-.6c0-.3-.1-.3-.1-.6s-.2-.3-.2-.6.3-.3.3-.6.2-.3.2-.6-.1-.3-.1-.6-.6-.3-.7-.6c0-.3.1-.3.1-.6v-.6c0-.3.2-.3.2-.6s-.3-.3-.3-.6.2-.3.2-.6.2-.3.2-.6-.4-.3-.4-.6.5-.3.5-.6-.6-.3-.6-.6.4-.3.4-.6-.5-.3-.5-.6.5-.3.5-.6-.5-.3-.5-.6.6-.3.6-.6-.1-.3-.1-.6-.4-.3-.4-.6.5-.3.5-.6-.6-.3-.6-.6V87c0-.3.2-.3.2-.6s-.1-.3-.1-.6.2-.3.2-.6.1-.3.1-.6-.4-.3-.4-.6-.3-.3-.3-.6.4-.3.4-.6-.4-.3-.4-.6.4-.3.4-.6-.4-.3-.4-.6.5-.3.4-.6c0-.3-.2-.3-.2-.6s-.4-.3-.4-.6.2-.3.1-.6V78c0-.3-.2-.3-.3-.6 0-.3.1-.3 0-.6 0-.3.2-.3.2-.6s.3-.3.3-.6V75c0-.3-.4-.3-.4-.6s-.2-.3-.2-.6.2-.3.1-.6c0-.3.1-.3.1-.6s-.4-.3-.4-.6.3-.3.3-.6-.3-.3-.3-.6.5-.3.5-.6-.3-.3-.3-.6-.1-.3-.1-.6.6-.3.5-.6c0-.3-.1-.3-.1-.6s-.1-.3-.1-.6-.3-.3-.3-.6-.3-.3-.3-.6.1-.3.1-.6.3-.3.3-.6-.2-.3-.2-.6-.2-.3-.2-.6.3-.3.2-.6c0-.3.3-.3.3-.6s-.3-.3-.3-.6-.2-.3-.2-.6-.1-.3-.2-.6c0-.3.1-.3.1-.6s.4-.3.4-.6-.2-.3-.2-.6.1-.3 0-.6c0-.3-.4-.3-.4-.6s.4-.3.4-.6-.1-.3-.1-.6-.1-.3-.1-.6v-.6-.6c0-.3-.2-.3-.2-.6s.5-.3.5-.6.2-.3.2-.6-.5-.3-.5-.6.1-.3.2-.6c0-.3.2-.3.2-.6s-.3-.3-.3-.6.3-.3.3-.6-.3-.3-.2-.6c0-.3.2-.3.2-.6s.1-.3.1-.6-.3-.3-.3-.6.4-.3.5-.6c0-.3-.5-.3-.5-.6s.4-.3.4-.6.2-.3.2-.6-.5-.3-.5-.6-.1-.3-.1-.6.1-.3.1-.6.1-.3.1-.6.1-.3.1-.6.3-.3.3-.6v-.6c0-.3-.4-.3-.3-.6 0-.3.3-.3.3-.6V39c0-.3.3-.3.3-.6s-.3-.3-.2-.6c0-.3-.2-.3-.2-.6s.4-.3.5-.6c0-.3.1-.3.1-.6s-.6-.3-.6-.6v-.6c0-.3.1-.3.1-.6s-.2-.3-.2-.6 0-.3.1-.6c0-.3.7-.3.7-.6s-.1-.3 0-.6c0-.3-.2-.3-.1-.6 0-.3.1-.3.1-.6s.1-.3.2-.6c0-.3-.5-.3-.5-.6s.5-.3.5-.6-.2-.3-.2-.6-.3-.3-.2-.6c0-.3.2-.3.2-.6s-.4-.3-.4-.6.2-.3.2-.6v-.6c0-.3.2-.3.2-.6s.1-.3.1-.6.3-.3.3-.6.1-.3.1-.6-.5-.3-.5-.6-.1-.3 0-.6c0-.3.2-.3.2-.6s.3-.3.3-.6-.5-.3-.5-.6 0-.3.1-.6v-.6c0-.3.6-.3.6-.6s-.2-.3-.2-.6.1-.3.2-.6v-.6c0-.3-.2-.3-.2-.6s-.2-.3-.2-.6.3-.3.3-.6-.1-.3 0-.6c0-.3.3-.3.3-.6s-.5-.3-.5-.6.5-.3.5-.6-.5-.3-.5-.6.6-.3.6-.6v-.6c0-.3-.2-.3-.1-.6 0-.3-.4-.4-.2-.7.2-.2.3.3.6.3s.3.1.6.1.3-.6.6-.6.3.1.6.1.3.5.6.5.3-.7.6-.7.3.2.6.2.3-.1.6-.1.3.3.6.3.3.2.6.2.3-.1.6-.1.3-.4.6-.4.3.2.6.2.3-.2.6-.2.3.1.6.1.3.3.6.3.3-.2.6-.2.3.2.6.2.3-.4.6-.4.3.5.6.5.3.2.6.2.3-.1.6-.1.3-.4.6-.4h.6c.3 0 .3.2.6.2s.8.9 1.1.9c.3 0 .3-.1.6-.1h.6c.3 0 .3.1.6.1s.3-.1.6-.1.3.3.6.3.3-.2.6-.2.3-.2.6-.2.3.5.6.5.3-.4.6-.4c.3-.1.3.1.6.1s.3-.2.6-.2h.6c.3 0 .3.3.6.3s.3.2.6.2.3-.1.6-.1.3-.4.6-.4.3.1.6.1.3.3.6.3.3-.2.6-.2.3.5.6.5.3-.6.6-.6.3.3.6.3.3.2.6.2.3-.2.6-.2.3-.4.6-.4.3.3.6.3.3.4.6.4.3-.2.6-.2.3-.4.6-.4.3.1.6.1.3.3.6.3.3-.3.6-.3h1.2c.3 0 .3-.1.6-.1s.3-.1.6-.1.3.7.6.7.3-.3.6-.3.3.2.6.2.3-.4.6-.4.3.2.6.2.3.2.6.2.3.1.6.1.3-.2.6-.2.3-.3.6-.3.3.3.6.3.3.2.6.2.3-.2.6-.2h.6c.3 0 .3.1.6.1s.3-.4.6-.4.3.6.6.6.3-.6.6-.6.3.3.6.3.3.2.6.2.3-.4.6-.4.3.5.6.5.3-.1.6-.1h.6c.3 0 .3.1.6.1h.6c.3 0 .3-.4.6-.4s.3-.2.6-.2.3.2.6.2.3.1.6.1.3.3.6.3.3-.1.6-.1.3-.2.6-.2.3.5.6.5h1.2c.3 0 .3-.5.6-.5s.3-.1.6-.1.3.6.6.6.3-.4.6-.4.3.1.6.1.3.1.6.1h.6c.3 0 .3-.3.6-.3s.3.3.6.3.3-.1.6-.1.3.2.6.2.3-.4.6-.4h1.2c.3 0 .3.7.6.7s.3-.1.6-.1.3-.6.6-.6.3.6.6.6h1.2c.3 0 .3-.3.6-.3s.3-.2.6-.2h.6c.3 0 .3.3.6.3h1.2c.3 0 .3.2.6.2s.3-.7.6-.7.3.6.6.6h.6c.3 0 .3-.2.6-.2s.3.2.6.2h.6c.3 0 .3-.5.6-.5s.3.5.6.5.3-.7.6-.7.3.3.6.3c-.1-.4-.1-.4.2-.4.3 0 .3.1.6.1h.6c.3 0 .3-.2.6-.2s.3.2.6.2h.6c.3 0 .3-.3.6-.3s.3.1.6.1.3-.3.6-.3.3.4.6.4.3.2.6.2.3-.4.6-.4.3-.1.6-.1h.6c.3 0 .3.1.6.1s.3.1.6.1.3.4.6.4.3-.4.6-.4.3.4.6.4.3-.3.6-.3h.6c.3 0 .3.1.6.1s.3-.3.6-.3.3.1.6.1.3-.2.6-.2.3-.1.6-.1.6-.1.8.1c.2.2.1.5.2.8 0 .3-.2.3-.2.6s.1.3.1.6-.5.3-.5.6.5.3.5.6v1.2c0 .3.1.3.1.6s-.3.3-.3.6.1.3.2.6c0 .3-.1.3-.1.6s-.1.3-.1.6-.1.3-.1.6.5.3.5.6-.1.3-.1.6-.4.3-.4.6.4.3.4.6-.4.3-.4.6.7.3.7.6-.1.3-.1.6-.3.3-.3.6.5.3.5.6-.6.3-.6.6.4.3.4.6.1.3.1.6-.1.3-.1.6.1.3.1.6-.4.3-.4.6.5.3.5.6-.4.3-.4.6.4.3.4.6.2.3.2.6 0 .3.1.6c0 .3-.1.3-.1.6s-.2.3-.2.6v.6c0 .3.3.3.3.6s-.2.3-.2.6.1.3.1.6-.4.3-.4.6.2.3.2.6-.3.3-.3.6.7.3.7.6-.3.3-.3.6-.2.3-.2.6.4.3.4.6-.4.3-.4.6.5.3.5.6.1.3.1.6-.1.3-.1.6-.5.3-.5.6.2.3.2.6.2.3.2.6-.3.3-.3.6v.6c0 .3.3.3.3.6s.2.3.2.6v.6c0 .3-.5.3-.4.6 0 .3.5.3.5.6s-.4.3-.4.6.5.3.5.6.2.3.2.6-.7.3-.7.6.3.3.3.6.4.3.4.6-.2.3-.2.6.1.3.1.6-.1.3-.1.6.2.3.2.6v.6c0 .3-.3.3-.3.6s.3.3.3.6v.6c0 .3-.1.3-.1.6s.2.3.2.6-.6.3-.6.6.4.3.4.6v.6c0 .3-.1.3-.1.6v.6c0 .3.2.3.1.6 0 .3-.2.3-.2.6s.1.3.1.6-.1.3-.1.6.2.3.2.6-.4.3-.4.6.2.3.2.6-.1.3-.1.6.1.3.1.6.3.3.3.6-.3.3-.4.6c0 .3.2.3.2.6s-.1.3-.1.6-.1.3-.1.6-.2.3-.2.6-.1.3-.1.6-.1.3-.1.6.7.3.7.6-.2.3-.2.6.1.3.1.6-.1.3-.1.6-.2.3-.2.6-.1.3-.2.6c0 .3.2.3.2.6s-.4.3-.4.6.2.3.1.6c0 .3.3.3.3.6s-.2.3-.2.6.2.3.2.6-.3.3-.4.6c0 .3.3.3.3.6v.6c0 .3-.6.3-.6.6s.5.3.5.6-.5.3-.5.6.6.3.6.6-.6.3-.6.6.4.3.4.6-.1.3-.1.6-.2.3-.2.6.5.3.5.6-.6.3-.6.6.4.3.4.6-.2.3-.2.6v1.2c0 .3-.2.3-.2.6s-.1.3-.1.6 0 .3-.1.6c0 .3.6.3.5.6 0 .3-.3.3-.3.6v.6c0 .3-.2.3-.2.6s.2.3.2.6.3.3.3.6-.2.3-.2.6-.2.3-.2.6.4.3.4.6-.5.3-.5.6.1.3.1.6-.1.3-.1.6.5.3.4.6c0 .3-.3.3-.3.6s-.3.3-.3.6.3.3.3.6.1.3 0 .6c0 .3-.1.3-.2.6v1.2c0 .3-.3.3-.3.6v.6c0 .3-.2.3-.2.6s.5.3.5.6v.6c0 .3-.1.3-.1.6s-.2.3-.2.6-.1.3-.1.6-.1.3-.1.6.1.3.1.6-.3.4-.2.7c.2-.9.7-.8.5-.6z" fill="#fffbf2"/><g id="container-green_svg__XMLID_1961_"><path id="container-green_svg__XMLID_1963_" class="container-green_svg__st169" d="M4.2 58c0-2.6-1.6-4.9-3.8-5.9-.1.1-.1.2-.1.4 0 .4.6.4.5.7 0 .4-.2.3-.2.7 0 .4-.6.3-.6.7 0 .4.2.4.2.7v1.4c0 .4.2.4.1.7 0 .4.2.4.2.7 0 .4-.5.3-.5.7 0 .4.4.4.4.7 0 .4-.1.4-.1.7 0 .4.3.3.3.7 0 .4-.5.4-.5.7 0 .4-.2.4-.2.7 0 .4.2.3.2.7 0 .4.2.3.2.7 2.4-.9 3.9-3.1 3.9-5.7z"/><path id="container-green_svg__XMLID_1962_" class="container-green_svg__st169" d="M118.9 63.1c0-.4.5-.3.5-.7 0-.4-.2-.4-.2-.7 0-.4.2-.3.2-.7 0-.4-.1-.4-.1-.7 0-.4.3-.3.3-.7 0-.4-.2-.4-.2-.7v-.7c0-.4.1-.4.1-.7v-.7c0-.4-.5-.3-.5-.7 0-.4.7-.4.7-.7 0-.4-.3-.3-.3-.7 0-.4.1-.4.1-.7v-.7c0-.4-.3-.3-.3-.7 0-.3.3-.4.3-.6-2.5.9-4.2 3.3-4.2 6.1 0 2.7 1.6 5 4 6V64c-.1-.5-.4-.5-.4-.9z"/></g><g id="container-green_svg__XMLID_1956_"><path id="container-green_svg__XMLID_1960_" class="container-green_svg__st6" d="M100.9 115.3c.4 0 .4.3.7.3.4 0 .4-.3.7-.3.4 0 .4.6.7.6.4 0 .4-.1.7-.1.4 0 .4-.7.7-.7.4 0 .4.3.7.3.4 0 .4.3.7.3.4 0 .4-.6.7-.6.4 0 .4.8.7.8.4 0 .4-.7.7-.7.4 0 .4.6.7.6h.7c.4 0 .4-.5.7-.5.4 0 .4.2.7.2.4 0 .4-.4.7-.4.4 0 .4.5.7.5s.4-.1.7-.1c.4 0 .4-.1.7-.1.4 0 .4.4.7.4.4 0 .4-.1.7-.1.4 0 .4-.3.7-.3.4 0 .4-.4.7-.4.4 0 .6.8.8.5.3-.2-.3-.3-.4-.7-.1-.3.3-.4.3-.8s-.1-.4-.1-.7c0-.4.1-.4.1-.7 0-.4.1-.4.2-.7 0-.4.2-.3.2-.7 0-.4.1-.4.1-.7v-.7c0-.4-.6-.4-.6-.7 0-.4.2-.3.2-.7v-.7c0-.4.3-.3.3-.7v-.7-.7c0-.4.2-.3.2-.7 0-.4-.1-.4 0-.7 0-.4-.4-.4-.4-.7 0-.4.3-.3.3-.7 0-.4.4-.3.4-.7 0-.4-.5-.4-.5-.7 0-.4.2-.3.2-.7-.9-.2-1.7-.2-2.6-.2-8.4 0-15.1 6.8-15.1 15.1h.2c.5-.2.5-.3.8-.3z"/><path id="container-green_svg__XMLID_1959_" class="container-green_svg__st6" d="M115.2 19c1 0 2-.1 2.9-.3 0-.2.2-.3.1-.6 0-.4-.1-.4-.1-.7 0-.4-.5-.3-.5-.7 0-.4.7-.4.7-.7 0-.4-.6-.3-.6-.7 0-.4.3-.4.3-.7 0-.4.1-.4.1-.7 0-.4-.8-.3-.8-.7 0-.4.5-.4.5-.7 0-.4-.5-.3-.5-.7 0-.4.5-.4.5-.7 0-.4.1-.4.1-.7 0-.4-.6-.3-.6-.7 0-.4.1-.4.1-.7 0-.4.2-.4.1-.7 0-.4.1-.4.1-.7 0-.4-.2-.3-.2-.7 0-.4.4-.4.4-.7 0-.4-.1-.4-.1-.7v-.7c0-.4 0-.4-.1-.7 0-.4-.6-.3-.6-.7 0-.4.6-.4.6-.7 0-.4-.2-.3-.2-.7 0-.4.2-.4.2-.7 0-.4.1-.7-.2-1-.3-.2-.6-.1-1-.1s-.4.1-.7.1c-.4 0-.4.2-.7.2-.4 0-.4-.2-.7-.2s-.4.4-.7.4-.4-.1-.7-.1h-.7c-.4 0-.4.3-.7.3-.4 0-.4-.5-.7-.5-.4 0-.4.5-.7.5-.4 0-.4-.5-.7-.5-.4 0-.4-.1-.7-.1-.4 0-.4-.2-.7-.2h-.7c-.4 0-.4.1-.7.1-.4 0-.4.5-.7.5-.4 0-.4-.2-.7-.2-.4 0-.4-.4-.7-.4s-.4.3-.7.3c-.4 0-.4-.1-.7-.1-.4 0-.4.3-.7.3h-.7c-.4 0-.4-.2-.7-.2-.3 0-.3.1-.5.1-.2 1-.4 2.1-.4 3.2-.1 8.5 6.7 15.3 15.1 15.3z"/><path id="container-green_svg__XMLID_1958_" class="container-green_svg__st6" d="M20.9 3.9c0-1.2-.1-2.3-.4-3.4h-.3c-.4 0-.4-.2-.7-.2h-.7c-.4 0-.4.5-.7.5-.4 0-.4.2-.7.2-.4 0-.4-.2-.7-.2-.4 0-.4-.6-.7-.6-.4 0-.4.5-.7.5-.4 0-.4-.2-.7-.2-.4 0-.4.2-.7.2-.4 0-.4-.3-.7-.3-.4 0-.4-.1-.7-.1-.4 0-.4.2-.7.2-.4 0-.4-.3-.7-.3-.4 0-.4.5-.7.5-.4 0-.4.1-.7.1-.4 0-.4-.2-.7-.2-.6-.1-.6-.5-1-.5s-.4.1-.7.1C7 .2 7 0 6.6 0c-.3 0-.3.8-.7.8-.4 0-.4-.6-.7-.6-.4 0-.4-.1-.7-.1-.4 0-.4.7-.7.7-.4 0-.4-.1-.7-.1S2.5.1 2.3.4s.3.4.3.8.2.4.2.7c0 .4 0 .4-.1.7 0 .4-.7.3-.8.7 0 .4.6.4.6.7 0 .4-.6.3-.6.7 0 .4.6.4.6.7 0 .4-.3.3-.3.7 0 .4.1.4.1.7 0 .4-.4.3-.4.7 0 .4.2.4.2.7-.1.4.2.4.1.8v.7c0 .4-.2.3-.2.7 0 .4.2.4.2.7 0 .4-.8.3-.8.7v.7c0 .4-.1.4-.1.7 0 .4.6.4.6.7 0 .4-.4.3-.4.7 0 .4-.2.3-.2.7 0 .4.1.4.1.7 0 .4.6.4.6.7 0 .4-.1.4-.1.7 0 .4-.3.3-.3.7v.2c1.4.5 2.8.7 4.1.7 8.4 0 15.2-6.8 15.2-15.1z"/><path id="container-green_svg__XMLID_1957_" class="container-green_svg__st6" d="M5.7 100.3c-1.2 0-2.5.2-3.6.5-.1.2-.5.3-.5.6 0 .4.5.3.5.7 0 .4-.3.4-.3.7 0 .4-.3.4-.3.7 0 .4.3.3.3.7 0 .4-.3.4-.3.7v.7c0 .4-.1.4-.1.7 0 .4.8.3.8.7 0 .4.1.4.1.7 0 .4-.3.4-.2.7 0 .4-.2.5-.2.8 0 .4.1.2.2.6 0 .4.1.4.1.7s.2.3.2.7c0 .4.1.3.1.7 0 .4-.4.4-.4.7 0 .4-.3.4-.3.7 0 .4.6.3.6.7 0 .4-.1.4-.1.7 0 .4-.6.7-.4.9.3.2.5.2.9.2s.4-.3.7-.3c.4 0 .4-.3.7-.3h.7c.4 0 .4.4.7.4.4 0 .4-.5.7-.5H7c.4 0 .4.5.7.5.4 0 .4-.3.7-.3.4 0 .4.1.7.1.4 0 .4-.1.7-.1.4 0 .4.4.7.4.4 0 .4-.8.7-.8.4 0 .4.1.7.1.4 0 .4.5.7.5.4 0 .4.1.7.1.4 0 .4-.7.7-.7.4 0 .4.5.7.5.4 0 .4.3.7.3.4 0 .4-.5.7-.5.4 0 .4.4.7.4.4 0 .4-.4.7-.4.4 0 .4.4.7.4.4 0 .4-.3.7-.3.4 0 .4.5.7.5h.6v-.5c.7-8.3-6.1-15-14.5-15z"/></g><g id="container-green_svg__XMLID_1926_"><path id="container-green_svg__XMLID_1955_" class="container-green_svg__st165" d="M111.6 115c.4 0 .4.5.7.5s.4-.1.7-.1c.4 0 .4-.1.7-.1.4 0 .4.4.7.4.4 0 .4-.1.7-.1.4 0 .4-.3.7-.3.4 0 .4-.4.7-.4.4 0 .6.8.8.5.3-.2-.3-.3-.4-.7-.1-.3.3-.4.3-.8s-.1-.4-.1-.7c0-.4.1-.4.1-.7 0-.4.1-.4.2-.7 0-.4.2-.3.2-.7 0-.4.1-.4.1-.7v-.7c0-.2-.1-.2-.2-.3-2.8 1.3-5.2 3.3-7 5.9.1.1.2.1.4.1.4 0 .4-.4.7-.4z"/><path id="container-green_svg__XMLID_1954_" class="container-green_svg__st165" d="M117.4 9.7c0-.4.1-.4.1-.7 0-.4.2-.4.1-.7 0-.4.1-.4.1-.7 0-.4-.2-.3-.2-.7 0-.4.4-.4.4-.7 0-.4-.1-.4-.1-.7v-.7c0-.4 0-.4-.1-.7 0-.4-.6-.3-.6-.7 0-.4.6-.4.6-.7 0-.4-.2-.3-.2-.7 0-.4.2-.4.2-.7 0-.4.1-.7-.2-1-.3-.2-.6-.1-1-.1s-.4.1-.7.1c-.4 0-.4.2-.7.2-.4 0-.4-.2-.7-.2s-.4.4-.7.4-.4-.1-.7-.1h-.7c-.4 0-.4.3-.7.3-.4 0-.4-.5-.7-.5-.4 0-.4.5-.7.5-.4 0-.4-.5-.7-.5-.4 0-.4-.1-.7-.1-.3 0-.4-.1-.5-.1 1.7 4.7 5.2 8.5 9.8 10.5v-.3c-.1-.4-.7-.4-.7-.7z"/><path id="container-green_svg__XMLID_1953_" class="container-green_svg__st165" d="M12.9.2c-.2 0-.3-.1-.6-.1-.4 0-.4.2-.7.2-.4 0-.4-.3-.7-.3-.4 0-.4.5-.7.5-.4 0-.4.1-.7.1-.4 0-.4-.2-.7-.2-.4.1-.4-.3-.8-.3s-.4.1-.7.1C7 .2 7 0 6.6 0c-.3 0-.3.8-.7.8-.4 0-.4-.6-.7-.6-.4 0-.4-.1-.7-.1-.4 0-.4.7-.7.7-.4 0-.4-.1-.7-.1S2.5.1 2.3.4s.3.4.3.8.2.4.2.7c0 .4 0 .4-.1.7 0 .4-.7.3-.8.7 0 .4.6.4.6.7 0 .4-.6.3-.6.7 0 .4.6.4.6.7 0 .4-.3.3-.3.7 0 .4.1.4.1.7 0 .4-.4.3-.4.7 0 .4.2.4.2.7-.1.4.2.4.1.8v.7c0 .4-.2.3-.2.7 0 .3.1.4.2.6 5-1.9 9-5.8 10.7-10.8z"/><path id="container-green_svg__XMLID_1952_" class="container-green_svg__st165" d="M2.1 108.8c0 .1-.1.2-.1.4 0 .4.1.2.2.6 0 .4.1.4.1.7s.2.3.2.7c0 .4.1.3.1.7 0 .4-.4.4-.4.7 0 .4-.3.4-.3.7 0 .4.6.3.6.7 0 .4-.1.4-.1.7 0 .4-.6.7-.4.9.3.2.5.2.9.2s.4-.3.7-.3c.4 0 .4-.3.7-.3H5c.4 0 .4.4.7.4.4 0 .4-.5.7-.5h.7c.4 0 .4.5.7.5.4 0 .4-.3.7-.3.4 0 .4.1.7.1.4 0 .4-.1.7-.1.4 0 .4.4.7.4h.1c-1.8-3.1-4.9-5.6-8.6-6.9z"/></g><path id="container-green_svg__XMLID_1925_" class="container-green_svg__st105" d="M7 2.6l.5 1.2.1-.9c.8.6 1.7 1.2 2.3 1.7.7.6 1.5 1.6 2.2 2.7l-.3.4h.6c1 1.5 1.6 2.9 1.2 3.2-.6.5-3.4-.6-5.6-2.3V8l-.5.2-.3-.3c-1-.9-2-2.1-2.8-3.2l.7.1L4 4.2c-.7-1.1-1-2-.8-2.5S2.7.9 2.3.6l.1-.2s.6.5 1 1c.7-.3 2.2.3 3.6 1.2z"/><path id="container-green_svg__XMLID_1924_" class="container-green_svg__st105" d="M112.8 113.4l-.5-1.2-.1.9c-.8-.6-1.7-1.2-2.3-1.7-.7-.6-1.5-1.6-2.2-2.7l.3-.4h-.6c-1-1.5-1.6-2.9-1.2-3.2.6-.5 3.4.6 5.6 2.3l-.2.5.5-.2.3.3c1 .9 2 2.1 2.8 3.2l-.7-.1 1.1.6c.7 1.1 1 2 .8 2.5s.5.8.9 1.1l-.1.2s-.6-.5-1-1c-.5.4-2-.2-3.4-1.1z"/><path id="container-green_svg__XMLID_1923_" class="container-green_svg__st105" d="M4.5 110.9l1.2-.5-.9-.1c.6-.8 1.2-1.7 1.7-2.3.6-.7 1.6-1.5 2.7-2.2l.4.3v-.6c1.5-1 2.9-1.6 3.2-1.2.5.6-.6 3.4-2.3 5.6l-.5-.2.2.5-.3.3c-.9 1-2.1 2-3.2 2.8l.1-.7-.6 1.1c-1.1.7-2 1-2.5.8s-.8.5-1.1.9l-.2-.1s.5-.6 1-1c-.4-.5.2-2 1.1-3.4z"/><path id="container-green_svg__XMLID_1922_" class="container-green_svg__st105" d="M115.3 5.1l-1.2.5.9.1c-.6.8-1.2 1.7-1.7 2.3-.6.7-1.6 1.5-2.7 2.2l-.4-.3v.6c-1.5 1-2.9 1.6-3.2 1.2-.5-.6.6-3.4 2.3-5.6l.5.2-.2-.5.3-.3c.9-1 2.1-2 3.2-2.8l-.1.7.6-1.1c1.1-.7 2-1 2.5-.8s.8-.5 1.1-.9l.2.1s-.5.6-1 1c.4.5-.2 2-1.1 3.4z"/></g></g></svg>