<?xml version="1.0" encoding="utf-8"?>
<!-- Generator: Adobe Illustrator 22.0.0, SVG Export Plug-In . SVG Version: 6.00 Build 0)  -->
<svg version="1.1" id="Layer_1" xmlns="http://www.w3.org/2000/svg" xmlns:xlink="http://www.w3.org/1999/xlink" x="0px" y="0px"
	 viewBox="0 0 1656.5 311.6" style="enable-background:new 0 0 1656.5 311.6;" xml:space="preserve">
<style type="text/css">
	.st0{fill:#FFFBF2;}
	.st1{fill:#F7F4DD;}
	.st2{fill:#593218;}
	.st3{opacity:0.51;fill:url(#);}
	.st4{fill:#565B21;}
	.st5{fill:#ABBF1A;}
	.st6{fill:#A0B21F;}
	.st7{fill:#4FB8B5;}
	.st8{fill:#F39100;}
	.st9{fill:#38A59E;}
	.st10{fill:#E73A2E;}
	.st11{fill:#E53212;}
	.st12{fill:#CA2718;}
	.st13{fill:#E57B08;}
	.st14{fill:#D5CDB0;}
	.st15{fill:#8F9B26;}
	.st16{fill:#268C87;}
	.st17{fill:#225B55;}
	.st18{fill:#28716A;}
	.st19{fill:#764119;}
	.st20{fill:#302015;}
	.st21{fill:#EA4E40;}
	.st22{fill:#FABA66;}
	.st23{fill:#91D0D4;}
	.st24{fill:#E37D08;}
	.st25{fill:#D06815;}
	.st26{fill:#F6A235;}
	.st27{fill:#F9C284;}
	.st28{fill:#F59A26;}
	.st29{fill:#C36317;}
	.st30{fill:#F8AD5C;}
	.st31{fill:#392215;}
	.st32{fill:#76411C;}
	.st33{fill:#743E18;}
	.st34{fill:#281B12;}
	.st35{fill:#8D9F27;}
	.st36{fill:#D2DB53;}
	.st37{fill:#5D6424;}
	.st38{fill:#2B9992;}
	.st39{fill:#77C6C4;}
	.st40{fill:#339C95;}
	.st41{fill:#1B675F;}
	.st42{fill:#C4B991;}
	.st43{fill:#3DA7A1;}
	.st44{fill:#41AAA4;}
	.st45{fill:#37988F;}
	.st46{fill:#70C4C3;}
	.st47{fill:#F9B050;}
	.st48{fill:#FABE77;}
	.st49{fill:#E2780B;}
	.st50{fill:#CE6716;}
	.st51{fill:none;stroke:#7F4014;stroke-width:4;}
	.st52{fill:none;stroke:#7F4014;stroke-width:3.1902;}
	.st53{fill:#92D0D2;}
	.st54{fill:#EA5345;}
	.st55{fill:#BB1E18;}
	.st56{opacity:0.6;fill:url(#);}
	.st57{fill:url(#);}
	.st58{fill:#492A17;}
	.st59{fill:#95A824;}
	.st60{opacity:0.7;fill:#E3DEC2;}
	.st61{fill:#E62E25;}
	.st62{fill:#E01D1C;}
	.st63{fill:#E0770D;}
	.st64{fill:#C86716;}
	.st65{fill:#FBC88D;}
	.st66{fill:#F1B261;}
	.st67{fill:#FFFFFF;}
	.st68{fill:none;stroke:#F39100;}
	.st69{fill:#5C3018;}
	.st70{fill:#26817A;}
	.st71{fill:#F7B695;}
	.st72{fill:none;stroke:#EE7370;stroke-width:2.0151;stroke-linecap:round;stroke-miterlimit:10;}
	.st73{fill:#CC2418;}
	.st74{fill:#DF8562;}
	.st75{fill:none;stroke:#593218;stroke-width:4.3735;stroke-linecap:round;stroke-miterlimit:10;}
	.st76{fill:#FAFAFB;}
	.st77{fill:#382B25;}
	.st78{fill:#5E463E;}
	.st79{fill:#DC750F;}
	.st80{fill:none;stroke:#7BC8C5;stroke-width:2.0151;stroke-linecap:round;stroke-miterlimit:10;}
	.st81{fill:#339993;}
	.st82{fill:#BB674B;}
	.st83{fill:none;stroke:#593218;stroke-width:1.9011;stroke-linecap:round;stroke-miterlimit:10;}
	.st84{fill:#341F15;}
	.st85{fill:none;stroke:#593218;stroke-width:1.1468;stroke-linecap:round;stroke-miterlimit:10;}
	.st86{fill:#398482;}
	.st87{fill:#45B8B4;}
	.st88{fill:#41ABA8;}
	.st89{fill:#3EA29F;}
	.st90{fill:#64605F;}
	.st91{opacity:0.2;fill:#4FB8B5;}
	.st92{opacity:0.16;fill:#1C481B;}
	.st93{fill:#495508;}
	.st94{fill:#3E4B04;}
	.st95{fill:#5E6C0D;}
	.st96{fill:#809114;}
	.st97{fill:#41ACA9;}
	.st98{fill:#3FA6A2;}
	.st99{fill:#58660C;}
	.st100{fill:#515F0A;}
	.st101{fill:#62710E;}
	.st102{fill:#54620B;}
	.st103{fill:#6E7D11;}
	.st104{fill:#22722E;}
	.st105{fill:#175823;}
	.st106{fill:#257E34;}
	.st107{fill:#278939;}
	.st108{fill:#E1DBC9;}
	.st109{fill:#C3BFB9;}
	.st110{fill:#F4EEE6;}
	.st111{fill:#E9E5E3;}
	.st112{fill:#C2D131;}
	.st113{fill:#97A918;}
	.st114{fill:#EDE1CD;}
	.st115{fill:#D98300;}
	.st116{fill:#C47800;}
	.st117{fill:#371A03;}
	.st118{fill:#834428;}
	.st119{fill:#934C2E;}
	.st120{fill:#814327;}
	.st121{fill:none;stroke:#4FB8B5;stroke-width:8.9839;stroke-linecap:round;}
	.st122{fill:#3B3734;}
	.st123{fill:#299137;}
	.st124{fill:#3F1F08;}
	.st125{opacity:0.87;fill:url(#);}
	.st126{fill:#2B948E;}
	.st127{fill:#2B7673;}
	.st128{fill:#358C89;}
	.st129{fill:#307F7C;}
	.st130{fill:#3FA7A4;}
	.st131{fill:#3B9B98;}
	.st132{fill:#D58100;}
	.st133{fill:#F6A544;}
	.st134{fill:#48250E;}
	.st135{fill:#F9FAFB;}
	.st136{fill:#B72C0A;}
	.st137{fill:#368D8A;}
	.st138{fill:#C9D644;}
	.st139{fill:#3B4703;}
	.st140{fill:#6F7F11;}
	.st141{fill:#616F0E;}
	.st142{fill:#53600B;}
	.st143{fill:#773E23;}
	.st144{fill:#BA2C0A;}
	.st145{fill:none;stroke:#7BC8C5;stroke-width:1.3449;stroke-linecap:round;stroke-miterlimit:10;}
	.st146{fill:none;stroke:#593218;stroke-width:2.919;stroke-linecap:round;stroke-miterlimit:10;}
	.st147{fill:#45230C;}
	.st148{fill:#2C1300;}
	.st149{fill:#EFE8C9;}
	.st150{fill:#308983;}
	.st151{fill:#69371D;}
	.st152{fill:#942503;}
	.st153{fill:#DD8500;}
	.st154{fill:#D14D96;}
	.st155{fill:#A41F69;}
	.st156{fill:#A79A62;}
	.st157{fill:#781A4A;}
	.st158{fill:#CC3A8D;}
	.st159{fill:#E67B07;}
	.st160{fill:#D46814;}
	.st161{fill:#E2760B;}
	.st162{fill:#E9E4C3;}
	.st163{fill:#E5DEBA;}
	.st164{fill:#F8EEDF;}
	.st165{fill:#CBD342;}
	.st166{fill:#439997;}
	.st167{fill:#CA7B00;}
	.st168{fill:#C02D0C;}
	.st169{fill:#8E9E1C;}
	.st170{fill:#206C2C;}
	.st171{fill:#1B5F26;}
	.st172{fill:#A1B21E;}
	.st173{fill:#8FA117;}
	.st174{fill:#DBDF5A;}
	.st175{fill:#328380;}
	.st176{fill:#1E6729;}
	.st177{fill:#257D34;}
	.st178{fill:#47240D;}
	.st179{fill:none;stroke:#C07842;stroke-width:2.3031;stroke-linecap:round;stroke-miterlimit:10;}
	.st180{fill:#C5D32D;}
	.st181{fill:#32712F;}
	.st182{fill:#2E6A2C;}
	.st183{fill:#88C05F;}
	.st184{fill:#278532;}
	.st185{fill:#9CAF21;}
	.st186{fill:#4EA535;}
	.st187{fill:#225221;}
	.st188{fill:#301500;}
	.st189{fill:#68361D;}
	.st190{fill:none;stroke:#C07842;stroke-width:1.9011;stroke-linecap:round;stroke-miterlimit:10;}
	.st191{fill:#2C662A;}
	.st192{fill:#CFCDC6;}
	.st193{fill:#E3E0D8;}
	.st194{fill:#A25935;}
	.st195{fill:none;stroke:#683C11;stroke-width:1.9011;stroke-linecap:round;stroke-miterlimit:10;}
	.st196{fill:#319D97;}
	.st197{fill:#814828;}
	.st198{fill:#1A4519;}
	.st199{fill:#265A24;}
	.st200{fill:#A9B632;}
	.st201{fill:none;stroke:#FFFBF2;stroke-width:2;stroke-linecap:round;stroke-miterlimit:10;}
	.st202{fill:#7B8B1A;}
	.st203{fill:#AD5D52;}
	.st204{fill:#BC6459;}
	.st205{fill:none;stroke:#432918;stroke-width:1.729;stroke-linecap:round;stroke-miterlimit:10;}
	.st206{fill:#F0867E;}
	.st207{fill:#A2574D;}
	.st208{fill:#CBBBA0;}
	.st209{fill:#F2E0D7;}
	.st210{fill:none;stroke:#A48A7B;stroke-linecap:round;stroke-miterlimit:10;}
	.st211{fill:none;stroke:#432918;stroke-width:2;stroke-linecap:round;stroke-miterlimit:10;}
	.st212{fill:#499932;}
	.st213{fill:#81921B;}
	.st214{fill:#F2E8D6;}
	.st215{opacity:0.11;fill:#175823;}
	.st216{fill:#337976;}
	.st217{fill:#A12806;}
	.st218{fill:#D0300E;}
</style>
<g id="XMLID_5354_">
	<g id="XMLID_5395_">
		<path id="XMLID_5403_" class="st5" d="M0,283.3c255.9,0.3,1509.6,1.8,1510.4,1.9c0.8,0,0.8,0.6,1.6,0.6c0.8,0,0.8,0.8,1.6,0.8
			c0.8,0,0.8-1.7,1.6-1.7c0.8,0,0.8,1.8,1.6,1.8c0.8,0,0.8-1.1,1.6-1.1c0.8,0,0.8,0.4,1.7,0.3c0.5,0,1,0,1.6,0
			c0.8,0,0.8-0.7,1.6-0.7c0.8,0,0.8,0.4,1.6,0.4c0.8,0,0.8,0.8,1.6,0.8c0.8,0,0.8-0.7,1.6-0.7c0.8,0,0.8-0.5,1.6-0.5
			c0.8,0,0.8,0.3,1.6,0.3c0.8,0,0.8,0.5,1.6,0.5c0.8,0,0.8,0.5,1.6,0.5c0.8,0,0.8-1.2,1.6-1.2c0.8,0,0.8,0.4,1.6,0.4
			c0.8,0,0.8-0.8,1.6-0.8c0.8,0,0.8,1.9,1.6,1.9c0.8,0,0.8-0.4,1.6-0.4c0.8,0,0.8-0.2,1.6-0.2s0.8,0,1.6,0c0.8,0,0.8,0,1.6,0
			c0.8,0,0.8-0.7,1.6-0.7c0.8,0,0.8,0.8,1.6,0.9c0.8,0,0.8,0.2,1.6,0.2c0.8,0,0.8-1.1,1.6-1.1c0.8,0,0.8-0.7,1.6-0.6
			c0.8,0,0.8,1.1,1.6,1.1c0.8,0,0.8,0.9,1.6,0.9c0.8,0,0.8-1.2,1.6-1.2c0.8,0,0.8-0.6,1.6-0.6c0.8,0,0.8,0.5,1.6,0.5
			c0.8,0,0.8,1,1.6,1c0.8,0,0.8-1.7,1.6-1.7c0.8,0,0.8,1.3,1.6,1.3c0.8,0,0.8-0.5,1.6-0.5c0.8,0,0.8,0.8,1.6,0.8
			c0.8,0,0.8,0.3,1.6,0.3c0.8,0,0.8-1.2,1.6-1.2c0.8,0,0.8-0.4,1.6-0.4c0.8,0,0.8,0.5,1.6,0.5c0.8,0,0.8,0.8,1.6,0.8
			c0.8,0,0.8-0.1,1.6-0.1c0.8,0,0.8-0.7,1.6-0.7c0.8,0,0.8,0.6,1.6,0.6c0.8,0,0.8-1.2,1.6-1.2c0.8,0,0.8,1.5,1.6,1.5
			c0.8,0,0.8-0.7,1.6-0.7c0.8,0,0.8-0.7,1.6-0.7c0.8,0,0.8,0.9,1.6,0.9c0.8,0,0.8-0.3,1.6-0.3c0.8,0,0.8,0.3,1.6,0.3
			c0.8,0,0.8,0.1,1.6,0.1c0.8,0,0.8-0.4,1.6-0.4c0.8,0,0.8-0.2,1.6-0.2c0.8,0,0.8,0.5,1.6,0.5c0.8,0,0.8,0.1,1.6,0.1
			c0.8,0,0.8-1.1,1.6-1.1c0.8,0,0.8-0.4,1.6-0.4c0.8,0,0.8,0.5,1.6,0.5c0.8,0,0.8,1.4,1.6,1.4c0.8,0,0.8-1.1,1.6-1.1
			c0.8,0,0.8,0.5,1.6,0.5c0.8,0,0.8-0.5,1.6-0.5c0.8,0,0.8,0.8,1.6,0.8c0.8,0,0.8,0.2,1.6,0.2c0.8,0,0.8-0.5,1.6-0.5
			c0.8,0,0.8,0.6,1.6,0.6c0.8,0,0.8-1.2,1.6-1.2c0.8,0,0.8-0.2,1.6-0.2c0.8,0,0.8,0.5,1.6,0.5c0.8,0,0.8,0.8,1.6,0.8
			c0.8,0,0.8-0.2,1.6-0.2c0.8,0,0.8,0.5,1.6,0.5c0.8,0,0.8-1.8,1.6-1.8c0.8,0,0.8,1.4,1.6,1.4c0.8,0,0.8,0.2,1.6,0.2
			c0.8,0,0.8-1.7,1.6-1.7s0.8,0.3,1.6,0.3c0.8,0,1.2,1.4,1.8,0.8c0.6-0.6-0.6-1-0.6-1.8c0-0.8-0.4-0.8-0.4-1.6
			c0-0.8,0.1-0.8,0.1-1.6c0-0.8,1.7-0.7,1.7-1.6c0-0.8-1.4-0.9-1.4-1.7c0-0.8,1.3-0.8,1.4-1.6c0-0.8-1.3-0.9-1.3-1.7
			c0-0.8,0.8-0.8,0.8-1.6c0-0.8-0.1-0.8-0.1-1.6c0-0.8,0.8-0.8,0.8-1.6c0-0.8-0.5-0.8-0.5-1.6c0-0.8-0.5-0.8-0.4-1.6
			c0-0.8-0.1-0.8-0.1-1.6c0-0.8,0.4-0.8,0.4-1.6c0-0.8-0.5-0.8-0.5-1.6c0-0.8,1.7-0.7,1.8-1.5c0-0.8-0.1-0.8,0-1.6
			c0-0.8,0.1-0.8,0.2-1.6c0-0.8-1.5-0.9-1.4-1.7c0-0.8,0.8-0.8,0.8-1.6c0-0.8,0.5-0.8,0.5-1.6c0-0.8-0.1-0.8-0.1-1.6
			c0-0.8-1.4-0.9-1.4-1.7c0-0.8,0.2-0.8,0.2-1.6c0-0.8,0.7-0.8,0.7-1.6c0-0.8,0.3-0.8,0.3-1.6c0-0.8,0.4-0.8,0.5-1.6
			c0-0.8-0.1-0.8-0.1-1.6c0-0.8,0.6-0.8,0.6-1.6c0-0.8-1-0.9-1-1.7c0-0.8,0.6-0.8,0.7-1.6c0-0.8-0.7-0.8-0.6-1.6
			c0-0.8-0.6-0.8-0.6-1.6c0-0.8,1.5-0.8,1.5-1.6c0-0.8-1.3-0.9-1.3-1.7c0-0.8,0.4-0.8,0.4-1.6c0-0.8,0.2-0.8,0.2-1.6
			c0-0.8-0.4-0.8-0.4-1.6c0-0.8-0.1-0.8-0.1-1.6c0-0.8,1.9-0.7,1.9-1.5c0-0.8,0.1-0.8,0.2-1.6c0-0.8-0.5-0.8-0.5-1.6
			c0-0.8,0.4-0.8,0.4-1.6c0-0.8-0.1-0.8,0-1.6c0-0.8-1.7-0.9-1.6-1.7c0-0.8,0.3-0.8,0.3-1.6c0-0.8,1.2-0.8,1.3-1.6
			c0-0.8-0.5-0.8-0.5-1.6c0-0.8-0.7-0.8-0.7-1.6c0-0.8,0.8-0.8,0.9-1.6c0-0.8-0.1-0.8-0.1-1.6c0-0.8,0.8-0.8,0.8-1.6
			c0-0.8-1-0.8-0.9-1.7c0-0.8,0.1-0.8,0.1-1.6c0-0.8,0.7-0.8,0.7-1.6c0-0.8,0.2-0.8,0.2-1.6c0-0.8,0.3-0.8,0.4-1.6
			c0-0.8,0.3-0.8,0.3-1.6c0-0.8-0.2-0.8-0.2-1.6c0-0.8-1.4-0.9-1.3-1.7c0-0.8,0.4-0.8,0.5-1.6c0-0.8,1-0.8,1-1.6
			c0-0.8-1.3-0.9-1.3-1.7c0-0.8,1.2-0.8,1.3-1.6c0-0.8-0.9-0.8-0.9-1.7c0-0.8,0.2-0.8,0.2-1.6c0-0.8,0.5-0.8,0.5-1.6
			c0-0.8-0.7-0.8-0.7-1.6c0-0.8,0.9-0.8,0.9-1.6c0-0.8-0.8-0.8-0.7-1.6c0-0.8,0.6-0.8,0.6-1.6c0-0.8,0.4-0.8,0.4-1.6
			c0-0.8-1.3-0.9-1.2-1.7c0-0.8,0.4-0.8,0.5-1.6c0-0.8,1.3-0.8,1.3-1.6c0-0.8-0.5-0.8-0.4-1.6c0-0.8,0.1-0.8,0.1-1.6
			c0-0.8,0-0.8,0-1.6c0-0.8-0.4-0.8-0.3-1.6c0-0.8-0.4-0.8-0.3-1.6c0-0.8,1.1-0.8,1.1-1.6c0-0.8-0.9-0.8-1-1.6
			c0-0.8,0.2-0.8,0.1-1.6c0-0.8-0.6-0.8-0.7-1.6c0-0.8,1.1-0.8,1-1.7c0-0.8,0.4-0.8,0.4-1.6c0-0.8-0.4-0.8-0.4-1.6
			c0-0.8-0.5-0.8-0.6-1.6c0-0.8-0.9-0.8-0.9-1.6c0-0.8,0.9-0.8,0.9-1.7c0-0.8,0.7-0.8,0.7-1.6c0-0.8-0.4-0.8-0.4-1.6
			c0-0.8-0.4-0.8-0.5-1.6c0-0.8,0.7-0.8,0.7-1.6c0-0.8,0.2-0.8,0.2-1.6c0-0.8-0.8-0.8-0.8-1.6c0-0.8-0.8-0.8-0.8-1.6
			c0-0.8-0.2-0.8-0.2-1.6c0-0.8-0.3-0.8-0.3-1.6c0-0.8,1.5-0.9,1.5-1.7c0-0.8-0.3-0.8-0.3-1.6c0-0.8-0.7-0.8-0.8-1.6
			c0-0.8,1.3-0.9,1.3-1.7c0-0.8-0.7-0.8-0.8-1.6c0-0.8,0.8-0.8,0.8-1.6c0-0.8-1-0.8-1-1.6c0-0.8,0.2-0.8,0.2-1.6
			c0-0.8,0.4-0.8,0.4-1.6c0-0.8-0.6-0.8-0.6-1.6c0-0.8-1-0.8-1.1-1.6c0-0.8,0-0.8,0-1.6c0-0.8,0.9-0.8,0.9-1.6
			c0-0.8,0.6-0.8,0.6-1.6c0-0.8,0.1-0.8,0.1-1.6c0-0.8-0.7-0.8-0.7-1.6c0-0.8,0-0.8,0-1.6c0-0.8,0.4-0.8,0.4-1.6
			c0-0.8-1-0.8-1.1-1.6c0-0.8-0.5-0.8-0.5-1.6c0-0.8,1.2-0.8,1.2-1.7c0-0.8-1-0.8-1-1.6c0-0.8,1-0.8,1-1.7c0-0.8-1-0.8-1-1.6
			c0-0.8,1.1-0.8,1.1-1.7c0-0.8-0.8-0.8-0.8-1.6c0-0.8-1-0.8-1-1.6c0-0.8,0.2-0.8,0.1-1.6c0-0.8,0.6-0.8,0.6-1.6
			c0-0.8-0.2-0.8-0.2-1.6c0-0.8,0.6-0.8,0.6-1.6c0-0.8,0.1-0.8,0.1-1.6c0-0.8-1.7-0.8-1.7-1.6c0-0.8,1.4-0.9,1.3-1.7
			c0-0.8-1-0.8-1-1.6c0-0.8-0.3-0.8-0.3-1.6c0-0.8,1.7-0.9,1.6-1.7c0-0.8-1.4-0.8-1.4-1.6c0-0.8,1.3-0.9,1.2-1.7
			c0-0.8-1.3-0.8-1.4-1.6c0-0.8,1.1-0.8,1.1-1.7c0-0.8-1.6-0.8-1.6-1.6c0-0.8,1.3-0.9,1.3-1.7c0-0.8-1.1-0.8-1.1-1.6
			c0-0.8,0.7-0.8,0.6-1.6c0-0.8,0.6-0.8,0.6-1.6c0-0.8-0.7-0.8-0.7-1.6c0-0.8,0.6-0.8,0.6-1.6c0-0.8,0-0.8-0.1-1.6
			c0-0.8,0.2-0.8,0.2-1.6c0-0.8-1.8-0.8-1.8-1.6c0-0.8-0.3-0.8-0.3-1.6c0-0.8,0.6-0.8,0.6-1.6c0-0.8,0.6-1.1,0.5-1.9
			c0-0.8-0.3-0.6-0.4-1.4c0-0.8-0.2-0.8-0.2-1.6c0-0.8-0.4-0.8-0.4-1.6c0-0.8-0.3-0.8-0.3-1.6c0-0.8,0.9-0.8,0.9-1.6
			c0-0.8,0.6-0.8,0.6-1.6c0-0.8-1.4-0.8-1.5-1.6c0-0.8,0.2-0.8,0.2-1.6c0-0.8,1.5-1.5,0.9-2.1c-0.6-0.6-1.2-0.5-2-0.5
			c-0.8,0-0.8,0.6-1.6,0.6c-0.8,0-0.8,0.7-1.6,0.6c-0.8,0-0.8,0-1.6,0c-0.8,0-0.8-0.9-1.6-0.9c-0.8,0-0.8,1.2-1.6,1.1
			c-0.5,0-1,0-1.6,0c-0.9,0-0.8-1.2-1.7-1.2c-0.8,0-0.8,0.7-1.6,0.7c-0.8,0-0.8-0.2-1.6-0.2c-0.8,0-0.8,0.1-1.6,0.1
			c-0.8,0-0.8-1-1.6-1c-0.8,0-0.8,1.8-1.6,1.8c-0.8,0-0.8-0.3-1.6-0.3c-0.8,0-0.8-1-1.6-1c-0.8,0-0.8-0.3-1.6-0.3
			c-0.8,0-0.8,1.6-1.6,1.6c-0.8,0-0.8-1.1-1.6-1.1c-0.8,0-0.8-0.7-1.6-0.7c-0.8,0-0.8,1.1-1.6,1.1c-0.8,0-0.8-0.9-1.6-0.9
			c-0.8,0-0.8,1-1.6,1c-0.8,0-0.8-0.9-1.6-0.9c-0.8,0-0.8,0.7-1.6,0.7c-0.8,0-0.8-1.2-1.6-1.2c-0.8,0-0.8,0-1.6,0
			c-0.8,0-0.8,1.3-1.6,1.3c-0.8,0-0.8,0.6-1.6,0.6c-0.8,0-0.8-1-1.6-1c-0.8,0-0.8-0.7-1.6-0.7c-0.8,0-0.8,1-1.6,1
			c-0.8,0-0.8,0-1.6,0c-0.8,0-0.8-0.6-1.6-0.6c-0.8,0-0.8-0.4-1.6-0.4c-0.8,0-0.8,1.3-1.6,1.3c-0.8,0-0.8,0-1.6,0
			c-0.8,0-0.8-0.9-1.6-0.9c-0.8,0-0.8-0.5-1.6-0.5c-0.8,0-0.8,0.5-1.6,0.5c-0.8,0-0.8,1.1-1.6,1.1c-0.8,0-0.8-1.8-1.6-1.8
			c-0.8,0-0.8,1.5-1.6,1.5c-0.8,0-0.8-0.1-1.6-0.1c-0.8,0-0.8-0.3-1.6-0.3c-0.8,0-0.8-0.8-1.6-0.8c-0.8,0-0.8,0.7-1.6,0.7
			c-0.8,0-0.8-1-1.6-1c-0.8,0-0.8,1.2-1.6,1.2c-0.8,0-0.8-0.3-1.6-0.3c-0.8,0-0.8,0.9-1.6,0.9c-0.8,0-0.8-1.4-1.6-1.4
			c-0.8,0-0.8,0.3-1.6,0.3c-0.8,0-0.8-0.7-1.6-0.7c-0.8,0-0.8,1.7-1.6,1.7c-0.8,0-0.8-0.5-1.6-0.5c-0.8,0-0.8-0.2-1.6-0.2
			c-0.8,0-0.8-0.6-1.6-0.6c-0.8,0-0.8,0.9-1.6,0.9c-0.8,0-0.8-1.1-1.6-1.1c-0.8,0-0.8-0.2-1.6-0.2c-0.8,0-0.8,0.2-1.6,0.2
			c-0.8,0-0.8,1.3-1.6,1.3c-0.8,0-0.8,0.2-1.6,0.2c-0.8,0-0.8-0.2-1.6-0.2c-0.8,0-0.8,0.1-1.6,0c-0.8,0-0.8-1.6-1.6-1.6
			c-0.8,0-0.8,0.5-1.6,0.5c-0.8,0-0.8,1-1.6,1c-0.8,0-0.8-1.3-1.6-1.3c-0.8,0-0.8-0.4-1.6-0.4c-0.8,0-0.8,0.6-1.6,0.6
			c-0.8,0-0.8,0.8-1.6,0.8c-0.8,0-0.8-1.4-1.6-1.4c-0.8,0-0.8,0.8-1.6,0.8c-0.8,0-0.8-0.6-1.6-0.6c-0.8,0-0.8,0.2-1.6,0.2
			c-0.8,0-0.8,1.1-1.6,1.1c-0.8,0-0.8,0.3-1.6,0.3c-0.8,0-0.8-0.9-1.6-0.9c-0.8,0-0.8,0.9-1.6,0.9c-0.8,0-0.8-1.4-1.6-1.4
			c-0.7,0-1258-1.2-1511.4-1.5V283.3z"/>
		<path id="XMLID_5402_" class="st114" d="M0,270.5c255.3,0.5,1514.2,2.8,1514.8,2.8c0.7,0,0.7,1.2,1.4,1.2c0.7,0,0.7-1.5,1.4-1.4
			c0.7,0,0.7,1.1,1.4,1.1c0.7,0,0.7,0,1.4,0c0.7,0,0.7,0.2,1.4,0.2c0.7,0,0.7,0.3,1.4,0.3c0.7,0,0.7-1.4,1.4-1.4
			c0.7,0,0.7,1.5,1.4,1.5c0.7,0,0.7-1,1.4-1s0.7,0.2,1.4,0.2c0.7,0,0.7,0.8,1.4,0.8c0.7,0,0.7-1.1,1.4-1.1c0.7,0,0.7,1,1.4,1
			c0.7,0,0.7-1.2,1.4-1.2c0.7,0,0.7-0.3,1.4-0.3c0.7,0,0.7,1,1.4,1.1c0.7,0,0.7-0.8,1.4-0.8c0.7,0,0.7,1,1.4,1.1
			c0.7,0,0.7-0.6,1.4-0.6c0.7,0,0.7-0.6,1.4-0.6c0.7,0,0.7,0.6,1.4,0.6c0.7,0,0.7,0.6,1.4,0.6c0.7,0,0.7-0.9,1.4-0.9
			c0.7,0,0.7,0.8,1.4,0.8c0.7,0,0.7,0.3,1.4,0.3c0.7,0,0.7-0.2,1.4-0.2c0.7,0,0.7,0.1,1.4,0.1c0.7,0,0.7-1.4,1.4-1.4
			c0.7,0,0.7,0.2,1.4,0.2c0.7,0,0.7-0.2,1.4-0.2c0.7,0,0.7,0.3,1.4,0.3c0.7,0,0.7-0.4,1.4-0.4c0.7,0,0.7,1.5,1.4,1.5
			c0.7,0,0.7-0.6,1.4-0.6c0.7,0,0.7,0.2,1.4,0.2c0.7,0,0.7-0.9,1.4-0.9c0.7,0,0.7,0,1.4,0c0.7,0,0.7,1.3,1.4,1.3c0.7,0,0.7-1,1.4-1
			c0.7,0,0.7-0.3,1.4-0.3c0.7,0,0.7,0,1.4,0c0.7,0,0.7,0.9,1.4,0.9c0.7,0,0.7-0.4,1.4-0.4c0.7,0,0.7-0.7,1.4-0.7c0.7,0,0.7,0,1.4,0
			c0.7,0,0.7,0.8,1.4,0.8c0.7,0,0.7,0.9,1.4,0.9c0.7,0,0.7-1.6,1.4-1.6c0.7,0,0.7-0.1,1.4-0.1c0.7,0,0.7,1.6,1.4,1.6
			c0.7,0,0.7-1.1,1.4-1.1c0.7,0,0.7,1.3,1.4,1.3c0.7,0,0.7-0.9,1.4-0.9c0.7,0,0.7-0.3,1.4-0.3c0.7,0,0.7,0.9,1.4,0.9
			c0.7,0,0.7-1.1,1.4-1.1c0.7,0,0.7,0.3,1.4,0.3c0.7,0,0.7-0.3,1.4-0.2c0.7,0,0.7,0.6,1.4,0.6c0.7,0,0.7-0.6,1.4-0.6
			c0.7,0,0.7,1.2,1.4,1.2c0.7,0,0.7-0.2,1.4-0.2c0.7,0,0.7-1.5,1.4-1.5c0.7,0,0.7,0.6,1.4,0.6c0.7,0,0.7,0.6,1.4,0.6
			c0.7,0,0.7-1.1,1.4-1.1c0.7,0,0.7,1.5,1.4,1.5s0.7-1.4,1.4-1.4c0.7,0,0.7,1.2,1.4,1.2c0.7,0,0.7,0,1.4,0c0.7,0,0.7-1.1,1.4-1.1
			c0.7,0,0.7,0.4,1.4,0.4c0.7,0,0.7-0.7,1.4-0.7c0.7,0,0.7,1,1.4,1c0.7,0,0.7-0.2,1.4-0.2c0.7,0,0.7-0.1,1.4-0.1
			c0.7,0,0.7,0.8,1.4,0.8c0.7,0,0.7-0.1,1.4-0.1c0.7,0,0.7-0.7,1.4-0.7c0.7,0,0.7-0.8,1.4-0.8c0.7,0,1.1,1.6,1.6,1.1
			c0.5-0.5-0.7-0.6-0.9-1.5c-0.2-0.7,0.5-0.9,0.6-1.6c0-0.7-0.2-0.7-0.2-1.5c0-0.7,0.2-0.7,0.2-1.4c0-0.7,0.3-0.7,0.3-1.4
			c0-0.7,0.4-0.7,0.4-1.4c0-0.7,0.2-0.7,0.2-1.4c0-0.7,0-0.7,0-1.5c0-0.7-1.1-0.8-1.1-1.5c0-0.7,0.4-0.7,0.5-1.4c0-0.7,0-0.7,0-1.5
			c0-0.7,0.6-0.7,0.6-1.4c0-0.7,0-0.7,0-1.5c0-0.7,0-0.7,0-1.5c0-0.7,0.3-0.7,0.4-1.4c0-0.7-0.1-0.7-0.1-1.5c0-0.7-0.8-0.8-0.7-1.5
			c0-0.7,0.6-0.7,0.6-1.4c0-0.7,0.7-0.7,0.7-1.4c0-0.7-1-0.8-1-1.5c0-0.7,0.3-0.7,0.3-1.4c0-0.7-0.3-0.7-0.3-1.5
			c0-0.7,1.1-0.7,1.2-1.4c0-0.7-0.8-0.8-0.8-1.5c0-0.7,0.4-0.7,0.5-1.4c0-0.7,0.4-0.7,0.5-1.4c0-0.7-0.6-0.8-0.6-1.5
			c0-0.7-0.5-0.7-0.4-1.5c0-0.7,0.4-0.7,0.4-1.4c0-0.7,0-0.7,0-1.5c0-0.7,0.7-0.7,0.7-1.4c0-0.7-1.3-0.8-1.2-1.5
			c0-0.7,0.1-0.7,0.1-1.4c0-0.7,0.3-0.7,0.3-1.4c0-0.7,0.4-0.7,0.4-1.4c0-0.7,0-0.7,0-1.5c0-0.7,0-0.7,0-1.5c0-0.7,0.4-0.7,0.5-1.4
			c0-0.7-0.9-0.8-0.9-1.5c0-0.7,1.4-0.7,1.4-1.4c0-0.7-1.1-0.8-1-1.5c0-0.7,0.4-0.7,0.4-1.4c0-0.7,0.3-0.7,0.3-1.4
			c0-0.7-1-0.8-1-1.5c0-0.7,1.3-0.7,1.3-1.4c0-0.7-1.4-0.8-1.3-1.5c0-0.7,1.1-0.7,1.2-1.4c0-0.7-1.1-0.8-1-1.5
			c0-0.7,1.3-0.7,1.3-1.4c0-0.7,0-0.7,0.1-1.4c0-0.7-0.7-0.8-0.7-1.5c0-0.7,0.8-0.7,0.8-1.4c0-0.7-0.4-0.7-0.3-1.5
			c0-0.7,0.4-0.7,0.4-1.4c0-0.7-0.7-0.8-0.7-1.5c0-0.7-0.3-0.7-0.3-1.5c0-0.7,0.9-0.7,1-1.4s-0.4-0.7-0.4-1.5c0-0.7,0.3-0.7,0.4-1.4
			c0-0.7,0.4-0.7,0.4-1.4c0-0.7,0.2-0.7,0.2-1.4c0-0.7-0.3-0.7-0.3-1.5c0-0.7,0.5-0.7,0.5-1.4c0-0.7-1.5-0.8-1.5-1.5
			c0-0.7,0.3-0.7,0.3-1.4c0-0.7,0.2-0.7,0.2-1.4c0-0.7,0.4-0.7,0.4-1.4c0-0.7,0.3-0.7,0.3-1.4c0-0.7,0.2-0.7,0.3-1.4
			c0-0.7-0.4-0.7-0.4-1.5c0-0.7,0.8-0.7,0.8-1.4c0-0.7-0.7-0.8-0.7-1.5c0-0.7-0.3-0.7-0.2-1.5c0-0.7,0.2-0.7,0.2-1.4
			c0-0.7-0.6-0.7-0.5-1.5c0-0.7,1-0.7,1-1.4c0-0.7-0.5-0.7-0.4-1.5c0-0.7,0.3-0.7,0.3-1.4c0-0.7-0.2-0.7-0.1-1.5
			c0-0.7,0.5-0.7,0.5-1.4c0-0.7-0.3-0.7-0.3-1.5c0-0.7,0.1-0.7,0-1.5c0-0.7,0.2-0.7,0.2-1.5c0-0.7,0-0.7,0-1.5c0-0.7-1-0.7-1-1.4
			c0-0.7,1.3-0.8,1.3-1.5c0-0.7-0.5-0.7-0.6-1.4c0-0.7,0.2-0.7,0.1-1.5c0-0.7,0-0.7,0-1.5c0-0.7-0.6-0.7-0.6-1.4
			c0-0.7,0.7-0.8,0.6-1.5c0-0.7,0.1-0.7,0.1-1.5c0-0.7-0.5-0.7-0.5-1.4c0-0.7,0.2-0.7,0.2-1.5c0-0.7-0.3-0.7-0.3-1.4
			c0-0.7,0.5-0.7,0.5-1.5c0-0.7-0.9-0.7-0.9-1.4c0-0.7-0.7-0.7-0.7-1.4c0-0.7,1.6-0.8,1.6-1.5c0-0.7-0.4-0.7-0.5-1.4
			c0-0.7-1.1-0.7-1.1-1.4c0-0.7,1-0.8,1-1.5c0-0.7-1.2-0.7-1.2-1.4c0-0.7,1-0.8,1-1.5c0-0.7,0-0.7-0.1-1.5c0-0.7-0.4-0.7-0.5-1.4
			c0-0.7-0.6-0.7-0.6-1.4c0-0.7,0.1-0.7,0-1.5c0-0.7,0.6-0.7,0.6-1.5c0-0.7-0.4-0.7-0.5-1.4c0-0.7-0.4-0.7-0.5-1.4
			c0-0.7,1.1-0.8,1.1-1.5c0-0.7,0.3-0.7,0.2-1.5c0-0.7-0.2-0.7-0.3-1.4c0-0.7-1.1-0.7-1.1-1.4c0-0.7,0.9-0.8,0.9-1.5
			c0-0.7-0.9-0.7-0.9-1.4c0-0.7,0.5-0.7,0.5-1.5c0-0.7,0.7-0.7,0.7-1.5c0-0.7-1.5-0.7-1.5-1.4c0-0.7,0.7-0.8,0.7-1.5
			c0-0.7-0.4-0.7-0.4-1.4c0-0.7,0.9-0.8,0.9-1.5c0-0.7-0.1-0.7-0.2-1.4c0-0.7,0.5-0.7,0.5-1.5c0-0.7-0.7-0.7-0.7-1.4
			c0-0.7-0.1-0.7-0.1-1.4c0-0.7,0.4-0.7,0.4-1.5c0-0.7,0.2-0.7,0.2-1.5c0-0.7-0.1-0.7-0.1-1.5c0-0.7-0.4-0.7-0.4-1.4
			c0-0.7-0.8-0.7-0.9-1.4c0-0.7,1-0.8,1-1.5c0-0.7-1.1-0.7-1.1-1.4c0-0.7,0.8-0.8,0.8-1.5c0-0.7-0.1-0.7-0.2-1.4
			c0-0.7,0.3-0.7,0.3-1.5c0-0.7-0.2-0.7-0.3-1.4c0-0.7-0.9-0.7-0.9-1.4c0-0.7,1.4-0.8,1.4-1.5c0-0.7-1.1-0.7-1.1-1.4
			c0-0.7,0.6-0.7,0.6-1.5c0-0.7,0.2-0.7,0.2-1.5c0-0.7-1.5-0.7-1.5-1.4c0-0.7,1-0.8,1-1.5c0-0.7-0.9-0.7-1-1.4c0-0.7,1-0.8,1-1.5
			c0-0.7,0.2-0.7,0.2-1.5c0-0.7-1.1-0.7-1.1-1.4c0-0.7,0.2-0.7,0.1-1.5c0-0.7,0.3-0.7,0.3-1.5c0-0.7,0.2-0.7,0.2-1.5
			c0-0.7-0.3-0.7-0.3-1.4c0-0.7,0.8-0.8,0.7-1.5c0-0.7-0.2-0.7-0.2-1.4c0-0.7,0-0.7,0-1.4c0-0.7-0.1-0.7-0.1-1.4
			c0-0.7-1.1-0.7-1.1-1.4c0-0.7,1.1-0.8,1.1-1.5c0-0.7-0.3-0.7-0.3-1.4c0-0.7,0.5-0.7,0.5-1.5c0-0.7,0.1-1.5-0.3-2
			c-0.5-0.5-1.2-0.2-1.9-0.2c-0.7,0-0.7,0.2-1.4,0.2c-0.7,0-0.7,0.4-1.4,0.4c-0.7,0-0.7-0.3-1.4-0.3c-0.7,0-0.7,0.9-1.4,0.8
			c-0.7,0-0.7-0.2-1.4-0.2c-0.7,0-0.7,0-1.4,0c-0.7,0-0.7,0.6-1.4,0.6c-0.7,0-0.7-1-1.4-1c-0.7,0-0.7,1-1.4,1c-0.7,0-0.7-1-1.4-1
			c-0.7,0-0.7-0.1-1.4-0.1c-0.7,0-0.7-0.3-1.4-0.3c-0.7,0-0.7,0.1-1.4,0.1c-0.7,0-0.7,0.3-1.4,0.3c-0.7,0-0.7,1-1.4,1
			c-0.7,0-0.7-0.5-1.4-0.5c-0.7,0-0.7-0.9-1.4-0.9c-0.7,0-0.7,0.7-1.4,0.7c-0.7,0-0.7-0.2-1.4-0.3c-0.7,0-0.7,0.7-1.4,0.7
			c-0.7,0-0.7,0-1.4,0c-0.7,0-0.7-0.4-1.4-0.4c-0.7,0-0.7,0.4-1.4,0.4c-0.7,0-0.7-0.1-1.4-0.1c-0.7,0-0.7-0.3-1.4-0.3
			c-0.7,0-0.7-0.1-1.4-0.2c-0.7,0-0.7-0.8-1.4-0.8c-0.7,0-0.7,1.7-1.4,1.7c-0.7,0-0.7-1.2-1.4-1.2c-0.7,0-0.7,1.2-1.4,1.2
			c-0.7,0-0.7-0.1-1.4-0.1c-0.7,0-0.7-0.4-1.4-0.4c-0.7,0-0.7,0.4-1.4,0.4c-0.7,0-0.7-0.1-1.4-0.1c-0.7,0-0.7-1.5-1.4-1.5
			c-0.7,0-0.7,1.7-1.4,1.7c-0.7,0-0.7-0.6-1.4-0.6c-0.7,0-0.7-0.1-1.4-0.1c-0.7,0-0.7,0.1-1.4,0.1c-0.7,0-0.7-0.8-1.4-0.8
			c-0.7,0-0.7-0.1-1.4-0.1c-0.7,0-0.7,0.5-1.4,0.5c-0.7,0-0.7,0.8-1.4,0.8c-0.7,0-0.7,0-1.4,0c-0.7,0-0.7,0-1.4,0
			c-0.7,0-0.7-1.6-1.4-1.6c-0.7,0-0.7,1.5-1.4,1.5c-0.7,0-0.7,0.2-1.4,0.1c-0.7,0-0.7-1.7-1.4-1.7c-0.7,0-0.7,0.1-1.4,0.1
			c-0.7,0-0.7,0-1.4,0c-0.7,0-0.7,1-1.4,1c-0.7,0-0.7-0.5-1.4-0.5c-0.7,0-0.7,0.3-1.4,0.3c-0.7,0-0.7-0.8-1.4-0.8
			c-0.7,0-0.7,0.8-1.4,0.8c-0.7,0-0.7,0.1-1.4,0.1c-0.7,0-0.7-0.2-1.4-0.2c-0.7,0-0.7-0.3-1.4-0.3c-0.7,0-0.7,1-1.4,1
			c-0.7,0-0.7-1.5-1.4-1.5c-0.7,0-0.7,0.3-1.4,0.3c-0.7,0-0.7,1.3-1.4,1.3c-0.7,0-0.7,0-1.4,0c-0.7,0-0.7,0.1-1.4,0.1
			c-0.7,0-0.7-1.1-1.4-1.2c-0.7,0-0.7,0.6-1.4,0.6c-0.7,0-0.7,0.2-1.4,0.2c-0.7,0-0.7-0.9-1.4-0.9c-0.7,0-0.7-0.2-1.4-0.2
			c-0.7,0-0.7-0.5-1.4-0.5c-0.7,0-0.7,0.4-1.4,0.4c-0.7,0-0.7,1-1.4,1c-0.7,0-0.7,0-1.4,0c-0.7,0-0.7-0.2-1.4-0.2
			c-0.7,0-0.7,0-1.4,0c-0.7,0-0.7,0.4-1.4,0.4c-0.7,0-0.7-1.2-1.4-1.2c-0.7,0-0.7,1.1-1.4,1.1c-0.7,0-0.7-0.6-1.4-0.6
			C1515,38.8,253.4,35.3,0,34.6V270.5z"/>
		<path id="XMLID_5401_" class="st214" d="M0,263.4c255.4,0.4,1516.9,2.5,1517.4,2.5c0.6,0,0.6,0.5,1.3,0.5c0.6,0,0.6,0.7,1.3,0.7
			c0.6,0,0.6-1.4,1.3-1.4c0.6,0,0.6,1.5,1.3,1.5c0.6,0,0.6-0.9,1.3-0.9c0.6,0,0.6,0.3,1.3,0.3c0.6,0,0.6,0,1.3,0
			c0.6,0,0.6-0.6,1.3-0.6c0.6,0,0.6,0.4,1.3,0.4c0.6,0,0.6,0.6,1.3,0.6c0.6,0,0.6-0.6,1.3-0.6c0.6,0,0.6-0.4,1.3-0.4
			c0.6,0,0.6,0.2,1.3,0.2c0.6,0,0.6,0.4,1.3,0.4c0.6,0,0.6,0.4,1.3,0.5c0.6,0,0.6-1,1.3-1c0.6,0,0.6,0.4,1.3,0.4
			c0.6,0,0.6-0.7,1.3-0.6c0.6,0,0.6,1.6,1.3,1.6c0.6,0,0.6-0.3,1.3-0.3c0.6,0,0.6-0.2,1.3-0.2c0.6,0,0.6,0,1.3,0c0.6,0,0.6,0,1.3,0
			c0.6,0,0.6-0.6,1.3-0.6c0.6,0,0.6,0.7,1.3,0.7c0.6,0,0.6,0.2,1.3,0.2c0.6,0,0.6-0.9,1.3-0.9c0.6,0,0.6-0.5,1.3-0.5
			s0.6,0.9,1.3,0.9c0.6,0,0.6,0.8,1.3,0.8c0.6,0,0.6-1,1.3-1c0.6,0,0.6-0.5,1.3-0.5c0.6,0,0.6,0.5,1.3,0.5c0.6,0,0.6,0.8,1.3,0.8
			c0.6,0,0.6-1.4,1.3-1.4c0.6,0,0.6,1.1,1.3,1.1c0.6,0,0.6-0.5,1.3-0.5c0.6,0,0.6,0.7,1.3,0.7c0.6,0,0.6,0.3,1.3,0.3
			c0.6,0,0.6-1,1.3-1c0.6,0,0.6-0.3,1.3-0.3c0.6,0,0.6,0.4,1.3,0.4c0.6,0,0.6,0.7,1.3,0.7c0.6,0,0.6-0.1,1.3-0.1
			c0.6,0,0.6-0.6,1.3-0.6c0.6,0,0.6,0.5,1.3,0.5c0.6,0,0.6-1,1.3-1c0.6,0,0.6,1.2,1.3,1.2c0.6,0,0.6-0.6,1.3-0.6
			c0.6,0,0.6-0.6,1.3-0.5c0.6,0,0.6,0.8,1.3,0.8c0.6,0,0.6-0.3,1.3-0.3c0.6,0,0.6,0.3,1.3,0.3s0.6,0.1,1.3,0.1
			c0.6,0,0.6-0.3,1.3-0.3c0.6,0,0.6-0.2,1.3-0.2c0.6,0,0.6,0.4,1.3,0.4c0.6,0,0.6,0.1,1.3,0.1c0.6,0,0.6-0.9,1.3-0.9
			c0.6,0,0.6-0.3,1.3-0.3c0.6,0,0.6,0.4,1.3,0.4c0.6,0,0.6,1.2,1.3,1.2c0.6,0,0.6-0.9,1.3-0.9c0.6,0,0.6,0.4,1.3,0.4
			c0.6,0,0.6-0.4,1.3-0.4c0.6,0,0.6,0.7,1.3,0.7c0.6,0,0.6,0.1,1.3,0.1c0.6,0,0.6-0.4,1.3-0.4c0.6,0,0.6,0.5,1.3,0.5
			c0.6,0,0.6-1,1.3-1c0.6,0,0.6-0.2,1.3-0.2c0.6,0,0.6,0.4,1.3,0.4c0.6,0,0.6,0.7,1.3,0.7c0.6,0,0.6-0.2,1.3-0.2
			c0.6,0,0.6,0.4,1.3,0.4c0.6,0,0.6-1.5,1.3-1.5c0.6,0,0.6,1.2,1.3,1.2c0.6,0,0.6,0.1,1.3,0.1c0.6,0,0.6-1.4,1.3-1.4
			c0.6,0,0.6,0.3,1.3,0.3c0.6,0,0.9,1.2,1.4,0.7c0.5-0.5-0.5-0.8-0.5-1.5c0-0.7-0.3-0.7-0.3-1.4c0-0.7,0.1-0.7,0.1-1.4
			c0-0.7,1.3-0.6,1.4-1.3c0-0.7-1.1-0.7-1.1-1.4c0-0.7,1.1-0.6,1.1-1.3c0-0.7-1.1-0.7-1-1.4c0-0.7,0.6-0.7,0.6-1.3
			c0-0.7-0.1-0.7-0.1-1.4c0-0.7,0.6-0.7,0.7-1.3c0-0.7-0.4-0.7-0.4-1.4c0-0.7-0.4-0.7-0.3-1.4c0-0.7-0.1-0.7-0.1-1.4
			c0-0.7,0.3-0.7,0.3-1.3c0-0.7-0.4-0.7-0.4-1.4c0-0.7,1.4-0.6,1.4-1.3c0-0.7-0.1-0.7,0-1.4c0-0.7,0.1-0.7,0.1-1.4
			c0-0.7-1.1-0.7-1.1-1.4c0-0.7,0.6-0.7,0.7-1.3c0-0.7,0.4-0.7,0.4-1.3c0-0.7-0.1-0.7-0.1-1.4c0-0.7-1.1-0.7-1.1-1.4
			c0-0.7,0.1-0.7,0.2-1.4c0-0.7,0.5-0.7,0.6-1.3c0-0.7,0.2-0.7,0.2-1.4c0-0.7,0.3-0.7,0.4-1.3c0-0.7-0.1-0.7,0-1.4
			c0-0.7,0.5-0.7,0.5-1.3c0-0.7-0.8-0.7-0.8-1.4c0-0.7,0.5-0.7,0.5-1.3c0-0.7-0.5-0.7-0.5-1.4c0-0.7-0.5-0.7-0.5-1.4
			c0-0.7,1.2-0.6,1.2-1.3c0-0.7-1.1-0.7-1-1.4c0-0.7,0.3-0.7,0.3-1.3c0-0.7,0.2-0.7,0.2-1.4c0-0.7-0.3-0.7-0.3-1.4
			c0-0.7-0.1-0.7-0.1-1.4c0-0.7,1.5-0.6,1.5-1.3c0-0.7,0.1-0.7,0.1-1.4c0-0.7-0.4-0.7-0.4-1.4c0-0.7,0.3-0.7,0.3-1.3
			c0-0.7,0-0.7,0-1.4c0-0.7-1.3-0.7-1.3-1.4c0-0.7,0.2-0.7,0.2-1.4c0-0.7,1-0.6,1-1.3c0-0.7-0.4-0.7-0.4-1.4c0-0.7-0.6-0.7-0.5-1.4
			c0-0.7,0.7-0.7,0.7-1.3c0-0.7-0.1-0.7,0-1.4c0-0.7,0.6-0.7,0.6-1.3c0-0.7-0.8-0.7-0.7-1.4c0-0.7,0.1-0.7,0.1-1.4
			c0-0.7,0.5-0.7,0.6-1.3c0-0.7,0.1-0.7,0.2-1.4c0-0.7,0.3-0.7,0.3-1.3c0-0.7,0.2-0.7,0.2-1.4c0-0.7-0.2-0.7-0.2-1.4
			c0-0.7-1.1-0.7-1-1.4c0-0.7,0.3-0.7,0.4-1.3c0-0.7,0.8-0.6,0.8-1.3c0-0.7-1-0.7-1-1.4c0-0.7,1-0.6,1-1.3c0-0.7-0.7-0.7-0.7-1.4
			c0-0.7,0.2-0.7,0.2-1.4c0-0.7,0.4-0.7,0.4-1.3c0-0.7-0.5-0.7-0.5-1.4c0-0.7,0.7-0.7,0.7-1.3c0-0.7-0.6-0.7-0.6-1.4
			c0-0.7,0.5-0.7,0.5-1.3c0-0.7,0.3-0.7,0.3-1.3c0-0.7-1-0.7-1-1.4c0-0.7,0.3-0.7,0.4-1.3c0-0.7,1-0.6,1-1.3c0-0.7-0.4-0.7-0.3-1.4
			c0-0.7,0.1-0.7,0.1-1.4c0-0.7,0-0.7,0-1.4c0-0.7-0.3-0.7-0.3-1.4c0-0.7-0.3-0.7-0.3-1.4c0-0.7,0.9-0.7,0.9-1.3
			c0-0.7-0.7-0.7-0.8-1.4c0-0.7,0.1-0.7,0.1-1.4c0-0.7-0.5-0.7-0.5-1.3c0-0.7,0.8-0.7,0.8-1.4c0-0.7,0.3-0.7,0.3-1.4
			c0-0.7-0.3-0.7-0.3-1.4c0-0.7-0.4-0.7-0.4-1.3c0-0.7-0.7-0.7-0.7-1.3c0-0.7,0.7-0.7,0.7-1.4c0-0.7,0.6-0.7,0.5-1.4
			c0-0.7-0.3-0.7-0.3-1.4c0-0.7-0.4-0.7-0.4-1.4c0-0.7,0.6-0.7,0.6-1.4c0-0.7,0.2-0.7,0.2-1.4c0-0.7-0.6-0.7-0.6-1.3
			c0-0.7-0.6-0.7-0.7-1.3c0-0.7-0.2-0.7-0.2-1.4c0-0.7-0.2-0.7-0.3-1.4c0-0.7,1.2-0.7,1.2-1.4c0-0.7-0.2-0.7-0.2-1.4
			c0-0.7-0.6-0.7-0.6-1.3c0-0.7,1-0.7,1-1.4c0-0.7-0.6-0.7-0.6-1.3c0-0.7,0.6-0.7,0.6-1.4c0-0.7-0.8-0.7-0.8-1.3
			c0-0.7,0.2-0.7,0.2-1.4c0-0.7,0.3-0.7,0.3-1.4c0-0.7-0.4-0.7-0.5-1.3c0-0.7-0.8-0.7-0.8-1.3c0-0.7,0-0.7,0-1.4
			c0-0.7,0.7-0.7,0.7-1.4c0-0.7,0.5-0.7,0.4-1.4c0-0.7,0.1-0.7,0.1-1.4c0-0.7-0.5-0.7-0.5-1.3c0-0.7,0-0.7,0-1.4
			c0-0.7,0.3-0.7,0.3-1.4c0-0.7-0.8-0.7-0.8-1.3c0-0.7-0.4-0.7-0.4-1.3c0-0.7,1-0.7,1-1.4c0-0.7-0.8-0.7-0.8-1.3
			c0-0.7,0.8-0.7,0.8-1.4c0-0.7-0.7-0.7-0.8-1.3c0-0.7,0.9-0.7,0.8-1.4c0-0.7-0.6-0.7-0.7-1.3c0-0.7-0.8-0.7-0.8-1.3
			c0-0.7,0.1-0.7,0.1-1.4c0-0.7,0.5-0.7,0.5-1.4c0-0.7-0.1-0.7-0.1-1.4c0-0.7,0.5-0.7,0.5-1.4c0-0.7,0.1-0.7,0-1.4
			c0-0.7-1.3-0.6-1.4-1.3c0-0.7,1.1-0.7,1-1.4c0-0.7-0.8-0.7-0.8-1.3c0-0.7-0.2-0.7-0.2-1.4c0-0.7,1.3-0.7,1.3-1.4
			c0-0.7-1.1-0.6-1.1-1.3c0-0.7,1-0.7,1-1.4c0-0.7-1-0.6-1.1-1.3c0-0.7,0.9-0.7,0.9-1.4c0-0.7-1.3-0.6-1.3-1.3c0-0.7,1-0.7,1-1.4
			c0-0.7-0.8-0.7-0.8-1.3c0-0.7,0.5-0.7,0.5-1.4c0-0.7,0.5-0.7,0.5-1.4c0-0.7-0.5-0.7-0.6-1.3c0-0.7,0.5-0.7,0.5-1.4
			c0-0.7,0-0.7-0.1-1.4c0-0.7,0.2-0.7,0.1-1.4c0-0.7-1.4-0.6-1.4-1.3c0-0.7-0.2-0.7-0.2-1.4c0-0.7,0.5-0.7,0.4-1.4
			c0-0.7,0.7-0.7,0.6-1.4c0-0.7-0.5-0.7-0.5-1.3c0-0.7-0.2-0.7-0.2-1.4c0-0.7-0.3-0.7-0.3-1.3c0-0.7-0.2-0.7-0.3-1.3
			c0-0.7,0.7-0.7,0.7-1.4c0-0.7,0.5-0.7,0.5-1.4c0-0.7-1.1-0.6-1.1-1.3c0-0.7,0.2-0.7,0.2-1.4c0-0.7,1.2-1.3,0.7-1.7
			c-0.5-0.5-1-0.4-1.6-0.5c-0.6,0-0.6,0.5-1.3,0.5c-0.6,0-0.6,0.5-1.3,0.5c-0.6,0-0.6,0-1.3,0c-0.6,0-0.6-0.8-1.3-0.8
			c-0.6,0-0.6,1-1.3,1c-0.6,0-0.6,0-1.3,0c-0.6,0-0.6-1-1.3-1c-0.6,0-0.6,0.6-1.3,0.6c-0.6,0-0.6-0.2-1.3-0.2
			c-0.6,0-0.6,0.1-1.3,0.1c-0.6,0-0.6-0.8-1.3-0.8c-0.6,0-0.6,1.5-1.3,1.5c-0.6,0-0.6-0.2-1.3-0.2s-0.6-0.9-1.3-0.9
			c-0.6,0-0.6-0.2-1.3-0.3c-0.6,0-0.6,1.4-1.3,1.4c-0.6,0-0.6-0.9-1.3-0.9c-0.6,0-0.6-0.6-1.3-0.6c-0.6,0-0.6,0.9-1.3,0.9
			s-0.6-0.7-1.3-0.7c-0.6,0-0.6,0.8-1.3,0.8c-0.6,0-0.6-0.7-1.3-0.7s-0.6,0.6-1.3,0.6c-0.6,0-0.6-1-1.3-1c-0.6,0-0.6,0-1.3,0
			c-0.6,0-0.6,1.1-1.3,1.1c-0.6,0-0.6,0.5-1.3,0.5c-0.6,0-0.6-0.8-1.3-0.8c-0.6,0-0.6-0.6-1.3-0.6c-0.6,0-0.6,0.9-1.3,0.9
			c-0.6,0-0.6,0-1.3,0c-0.6,0-0.6-0.5-1.3-0.5c-0.6,0-0.6-0.4-1.3-0.4c-0.6,0-0.6,1.1-1.3,1.1c-0.6,0-0.6,0-1.3,0
			c-0.6,0-0.6-0.8-1.3-0.8c-0.6,0-0.6-0.4-1.3-0.4c-0.6,0-0.6,0.4-1.3,0.4c-0.6,0-0.6,0.9-1.3,0.9c-0.6,0-0.6-1.5-1.3-1.5
			c-0.6,0-0.6,1.3-1.3,1.3c-0.6,0-0.6-0.1-1.3-0.1c-0.6,0-0.6-0.2-1.3-0.2c-0.6,0-0.6-0.7-1.3-0.7c-0.6,0-0.6,0.6-1.3,0.6
			c-0.6,0-0.6-0.8-1.3-0.8c-0.6,0-0.6,1-1.3,1c-0.6,0-0.6-0.3-1.3-0.3c-0.6,0-0.6,0.8-1.3,0.8c-0.6,0-0.6-1.2-1.3-1.2
			c-0.6,0-0.6,0.2-1.3,0.2c-0.6,0-0.6-0.6-1.3-0.6c-0.6,0-0.6,1.5-1.3,1.4c-0.6,0-0.6-0.4-1.3-0.4c-0.6,0-0.6-0.1-1.3-0.1
			c-0.6,0-0.6-0.5-1.3-0.5c-0.6,0-0.6,0.8-1.3,0.8c-0.6,0-0.6-0.9-1.3-0.9c-0.6,0-0.6-0.1-1.3-0.2c-0.6,0-0.6,0.2-1.3,0.2
			c-0.6,0-0.6,1.1-1.3,1.1c-0.6,0-0.6,0.2-1.3,0.2c-0.6,0-0.6-0.2-1.3-0.2c-0.6,0-0.6,0-1.3,0c-0.6,0-0.6-1.4-1.3-1.4
			c-0.6,0-0.6,0.4-1.3,0.4c-0.6,0-0.6,0.9-1.3,0.9c-0.6,0-0.6-1.1-1.3-1.1c-0.6,0-0.6-0.3-1.3-0.3c-0.6,0-0.6,0.5-1.3,0.5
			c-0.6,0-0.6,0.6-1.3,0.6c-0.6,0-0.6-1.1-1.3-1.2c-0.6,0-0.6,0.6-1.3,0.6c-0.6,0-0.6-0.5-1.3-0.5c-0.6,0-0.6,0.1-1.3,0.1
			c-0.6,0-0.6,0.9-1.3,0.9c-0.6,0-0.6,0.2-1.3,0.2c-0.6,0-0.6-0.7-1.3-0.7c-0.6,0-0.6,0.7-1.3,0.7c-0.6,0-0.6-1.2-1.3-1.2
			c-0.6,0-1264.6-1.8-1518.2-2.2V263.4z"/>
		<g id="XMLID_5396_">
			<path id="XMLID_5398_" class="st95" d="M1633.1,157.3c0,7.8,5.9,14.3,13.6,14.9c0.1-0.2,0.3-0.4,0.3-0.8c0-0.8,0.4-0.8,0.4-1.6
				c0-0.8-1.3-0.9-1.2-1.7c0-0.8,0.4-0.8,0.5-1.6s1.3-0.8,1.3-1.6c0-0.8-0.5-0.8-0.4-1.6c0-0.8,0.1-0.8,0.1-1.6c0-0.8,0-0.8,0-1.6
				c0-0.8-0.4-0.8-0.3-1.6c0-0.8-0.4-0.8-0.3-1.6c0-0.8,1.1-0.8,1.1-1.6c0-0.8-0.9-0.8-1-1.6c0-0.8,0.2-0.8,0.1-1.6
				c0-0.8-0.6-0.8-0.7-1.6c0-0.8,1.1-0.8,1-1.7c0-0.8,0.4-0.8,0.4-1.6c0-0.8-0.4-0.8-0.4-1.6c0-0.8-0.5-0.8-0.6-1.6
				c0-0.7-0.7-0.8-0.9-1.4C1638.9,143.5,1633.2,149.8,1633.1,157.3z"/>
		</g>
	</g>
	<g id="XMLID_5385_">
		<path id="XMLID_5394_" class="st215" d="M1391.9,285c0.4-0.2,0.6-0.6,1.2-0.6c0.6,0,0.8,0.7,1.2,1c0.2,0,0.4,0.1,0.6,0.1
			c0.6-0.2,0.7-1.1,1.4-1.1c0.8,0,0.8,1.1,1.6,1.1c0.8,0,0.8,0.1,1.6,0.1c0.8,0,0.8,0.4,1.6,0.4c0.8,0,0.8-0.1,1.6-0.1
			c0.8,0,0.8-0.3,1.6-0.3c0.8,0,0.8-1.1,1.6-1.1c0.8,0,0.8,0.5,1.6,0.5c0.8,0,0.8,1,1.6,1c0.8,0,0.8-0.8,1.6-0.8
			c0.8,0,0.8,0.3,1.6,0.3c0.8,0,0.8-0.8,1.6-0.8c0.8,0,0.8,0,1.6,0c0.8,0,0.8,0.5,1.6,0.5c0.8,0,0.8-0.4,1.6-0.4
			c0.8,0,0.8,0.1,1.6,0.1c0.8,0,0.8,0.4,1.6,0.4c0.8,0,0.8,0.2,1.6,0.2c0.8,0,0.8,0.9,1.6,0.9c0.8,0,0.8-1.9,1.6-1.9
			c0.8,0,0.8,1.3,1.6,1.3c0.8,0,0.8-1.3,1.6-1.3c0.8,0,0.8,0.1,1.6,0.1c0.8,0,0.8,0.4,1.6,0.4c0.8,0,0.8-0.4,1.6-0.4
			c0.8,0,0.8,0.1,1.6,0.1c0.8,0,0.8,1.7,1.6,1.7c0.8,0,0.8-1.9,1.6-1.9c0.8,0,0.8,0.6,1.6,0.6s0.8,0.1,1.6,0.1
			c0.8,0,0.8-0.1,1.6-0.1c0.8,0,0.8,0.9,1.6,0.9c0.8,0,0.8,0.1,1.6,0.1c0.8,0,0.8-0.6,1.6-0.6c0.8,0,0.8-0.9,1.6-0.9
			c0.8,0,0.8,0,1.6,0c0.8,0,0.8,0,1.6,0c0.8,0,0.8,1.8,1.6,1.8c0.8,0,0.8-1.7,1.6-1.7c0.8,0,0.8-0.2,1.6-0.2c0.8,0,0.8,1.9,1.6,1.9
			c0.8,0,0.8-0.1,1.6-0.1c0.8,0,0.8,0,1.6,0c0.8,0,0.8-1.1,1.6-1.1c0.8,0,0.8,0.6,1.6,0.6c0.8,0,0.8-0.3,1.6-0.3
			c0.8,0,0.8,0.9,1.6,0.9c0.8,0,0.8-0.8,1.6-0.8c0.8,0,0.8-0.1,1.6-0.1c0.8,0,0.8,0.2,1.6,0.2c0.8,0,0.8,0.4,1.6,0.4
			c0.8,0,0.8-1.2,1.6-1.2c0.8,0,0.8,1.7,1.6,1.7c0.8,0,0.8-0.4,1.6-0.4c0.8,0,0.8-1.4,1.6-1.4c0.8,0,0.8,0,1.6,0
			c0.8,0,0.8-0.1,1.6-0.1c0.8,0,0.8,1.3,1.6,1.3c0.8,0,0.8-0.6,1.6-0.6c0.8,0,0.8-0.3,1.6-0.3c0.8,0,0.8,1,1.6,1
			c0.8,0,0.8,0.2,1.6,0.2c0.8,0,0.8,0.5,1.6,0.5c0.8,0,0.8-0.4,1.6-0.4c0.8,0,0.8-1.1,1.6-1.1c0.8,0,0.8,0,1.6,0
			c0.8,0,0.8,0.2,1.6,0.2c0.8,0,0.8,0,1.6,0c0.8,0,0.8-0.4,1.6-0.4c0.8,0,0.8,1.3,1.6,1.4c0.8,0,0.8-1.2,1.6-1.2
			c0.8,0,0.8,0.6,1.6,0.6c0.8,0,0.8,0.8,1.6,0.8c0.8,0,0.8-1.7,1.6-1.7s0.8,1.8,1.6,1.8c0.8,0,0.8-1.1,1.6-1.1
			c0.8,0,0.8,0.3,1.6,0.3c0.8,0,0.8,0,1.6,0c0.8,0,0.8-0.7,1.6-0.7c0.8,0,0.8,0.4,1.6,0.4c0.8,0,0.8,0.8,1.6,0.8
			c0.8,0,0.8-0.7,1.6-0.7c0.8,0,0.8-0.5,1.6-0.5s0.8,0.3,1.6,0.3c0.8,0,0.8,0.5,1.6,0.5c0.8,0,0.8,0.5,1.6,0.5
			c0.8,0,0.8-1.2,1.6-1.2c0.8,0,0.8,0.4,1.6,0.4c0.8,0,0.8-0.8,1.6-0.8c0.8,0,0.8,1.9,1.6,1.9c0.8,0,0.8-0.4,1.6-0.4
			c0.8,0,0.8-0.2,1.6-0.2c0.8,0,0.8,0,1.6,0c0.8,0,0.8,0,1.6,0c0.8,0,0.8-0.7,1.6-0.7c0.8,0,0.8,0.8,1.6,0.9c0.8,0,0.8,0.2,1.6,0.2
			c0.8,0,0.8-1.1,1.6-1.1c0.8,0,0.8-0.7,1.6-0.6c0.8,0,0.8,1.1,1.6,1.1c0.8,0,0.8,0.9,1.6,0.9c0.8,0,0.8-1.2,1.6-1.2
			c0.8,0,0.8-0.6,1.6-0.6c0.8,0,0.8,0.5,1.6,0.5c0.8,0,0.8,1,1.6,1c0.8,0,0.8-1.7,1.6-1.7c0.8,0,0.8,1.3,1.6,1.3
			c0.8,0,0.8-0.5,1.6-0.5c0.8,0,0.8,0.8,1.6,0.8c0.8,0,0.8,0.3,1.6,0.3c0.8,0,0.8-1.2,1.6-1.2c0.8,0,0.8-0.4,1.6-0.4
			c0.8,0,0.8,0.5,1.6,0.5c0.8,0,0.8,0.8,1.6,0.8c0.8,0,0.8-0.1,1.6-0.1c0.8,0,0.8-0.7,1.6-0.7c0.8,0,0.8,0.6,1.6,0.6
			c0.8,0,0.8-1.2,1.6-1.2c0.8,0,0.8,1.5,1.6,1.5c0.8,0,0.8-0.7,1.6-0.7c0.8,0,0.8-0.7,1.6-0.7c0.8,0,0.8,0.9,1.6,0.9
			c0.8,0,0.8-0.3,1.6-0.3c0.8,0,0.8,0.3,1.6,0.3c0.8,0,0.8,0.1,1.6,0.1c0.8,0,0.8-0.4,1.6-0.4c0.8,0,0.8-0.2,1.6-0.2
			c0.8,0,0.8,0.5,1.6,0.5c0.8,0,0.8,0.1,1.6,0.1c0.8,0,0.8-1.1,1.6-1.1s0.8-0.4,1.6-0.4c0.8,0,0.8,0.5,1.6,0.5
			c0.8,0,0.8,1.4,1.6,1.4c0.8,0,0.8-1.1,1.6-1.1c0.8,0,0.8,0.5,1.6,0.5c0.8,0,0.8-0.5,1.6-0.5c0.8,0,0.8,0.8,1.6,0.8
			c0.8,0,0.8,0.2,1.6,0.2c0.8,0,0.8-0.5,1.6-0.5c0.8,0,0.8,0.6,1.6,0.6c0.8,0,0.8-1.2,1.6-1.2c0.8,0,0.8-0.2,1.6-0.2
			c0.8,0,0.8,0.5,1.6,0.5c0.8,0,0.8,0.8,1.6,0.8c0.8,0,0.8-0.2,1.6-0.2c0.8,0,0.8,0.5,1.6,0.5c0.8,0,0.8-1.8,1.6-1.8
			c0.7,0,0.8,1.1,1.4,1.3c0.9-0.2,1.8-0.4,2.7-0.5c0.2-0.4,0.4-0.9,0.9-0.9c0.8,0,0.8,0.3,1.6,0.3c0.1,0,0.1,0,0.2,0
			c0.4-0.1,0.8-0.2,1.2-0.3c-0.1-0.2-0.3-0.4-0.2-0.7c0-0.8-0.4-0.8-0.4-1.6c0-0.8,0.1-0.8,0.1-1.6c0-0.8,1.7-0.7,1.7-1.6
			c0-0.8-1.4-0.9-1.4-1.7c0-0.2,0.1-0.3,0.2-0.4c-10.4-3.7-34.5-7.1-81.7-10.1l0.3,2.2l-2.8-2.3c-5.8-0.4-12-0.7-18.5-1
			c-24.8-1.3-51.4-1.6-76.6-1.3l4,4.2l-9-4.2c-38.7,0.6-83.8,4.1-88.2,15.9C1369.3,281.5,1386.6,284.1,1391.9,285z"/>
		<path id="XMLID_5393_" class="st104" d="M1628.8,288.7l-3.3,3.5l1-3.1c-3.6,0.7-7.3,1.7-10,2.7c-3.3,1.2-7.4,3.5-11.1,5.9l0.6,1.7
			l-2-0.8l0,0c-5.2,3.6-9.4,7.4-8.5,9c1.3,2.4,12.4,2.7,22.1,0l0.2-1.9l1.4,1.4c0.5-0.2,1.1-0.4,1.6-0.6c4.5-1.7,9.8-4.3,14-7.1
			l-2.6-0.8l4.5-0.5c3.7-2.7,6.2-5.3,6.1-7.4c0.1,0,0.1,0,0.1,0s2.7-1.9,4.5-2.4l-0.3-0.7c0,0-2.7,0.7-4.9,1.8
			C1640.6,287.6,1634.9,287.7,1628.8,288.7z"/>
		<path id="XMLID_5392_" class="st105" d="M1642.3,291.1l0,2.4l-0.7-1.5c-1.1,1.5-2.1,3.1-2.8,4.4c-0.8,1.5-1.6,3.8-2.1,5.9l0.8,0.4
			l-1,0.3l0,0c-0.7,3.1-1,5.9-0.2,6.2c1.3,0.5,5.5-3.2,8.2-7.4l-0.6-0.8l1,0.1c0.1-0.2,0.3-0.5,0.4-0.7c1.1-2.2,2.2-4.9,2.8-7.3
			l-1.2,0.6l1.5-1.7c0.5-2.2,0.5-4.1-0.2-4.8c0,0,0,0,0,0s-0.3-1.4-0.7-0.3C1646.3,286.8,1644.2,288.7,1642.3,291.1z"/>
		<path id="XMLID_5391_" class="st105" d="M1621.2,282.9l-2.1-3l0.5,2.5c-2.7-0.9-5.4-2.1-7.4-3.2c-2.4-1.3-5.3-3.5-7.9-5.8l0.7-1.3
			l-1.6,0.4l0,0c-3.6-3.3-6.4-6.7-5.6-7.8c1.3-1.7,9.8-0.7,17,2.4l-0.1,1.5l1.2-0.9c0.4,0.2,0.8,0.4,1.2,0.6c3.3,1.8,7,4.4,10,7
			l-2.1,0.3l3.4,0.9c2.5,2.4,4.2,4.8,3.9,6.3c0.1,0,0.1,0,0.1,0s1.8,1.8,3.2,2.3l-0.3,0.5c0,0-2-0.8-3.5-1.9
			C1630.2,285,1625.8,284.3,1621.2,282.9z"/>
		<path id="XMLID_5390_" class="st104" d="M1635.1,283.4l-1.6-3.3l0.1,2.5c-2.5-1.4-5-2.9-6.8-4.3c-2.1-1.6-4.7-4.2-6.9-6.9l0.9-1.1
			l-1.7,0.2l0,0c-3.1-3.9-5.2-7.6-4.3-8.6c1.5-1.5,9.8,0.8,16.4,5l-0.3,1.4l1.4-0.7c0.4,0.3,0.7,0.5,1.1,0.8c3,2.3,6.3,5.4,8.8,8.4
			l-2.1,0l3.2,1.4c2.1,2.8,3.4,5.4,2.8,6.9c0,0,0.1,0,0.1,0s1.5,2,2.8,2.8l-0.4,0.5c0,0-1.9-1.1-3.2-2.5
			C1643.6,286.8,1639.3,285.5,1635.1,283.4z"/>
		<path id="XMLID_5389_" class="st105" d="M1643.8,283l0-1.9l-0.5,1.2c-0.9-1.2-1.6-2.4-2.2-3.4c-0.6-1.2-1.2-2.9-1.6-4.6l0.6-0.3
			l-0.8-0.3l0,0c-0.6-2.4-0.7-4.6-0.1-4.8c1-0.4,4.3,2.5,6.4,5.8l-0.5,0.6l0.8,0c0.1,0.2,0.2,0.4,0.3,0.6c0.9,1.7,1.7,3.8,2.2,5.7
			l-1-0.5l1.2,1.3c0.4,1.7,0.4,3.2-0.2,3.7c0,0,0,0,0,0s-0.2,1.1-0.5,0.2C1646.9,286.4,1645.3,284.9,1643.8,283z"/>
		<g id="XMLID_5386_">
			<path id="XMLID_5388_" class="st107" d="M1428.4,295.2l18.9-2.4l-10.4,3.3c12.2,1.1,25.9,2.1,41.4,2.9
				c31.4,1.6,60.4,1.5,85.3,0.4l10.4-4.7l-3.3,4.4c44.1-2.3,73.5-7.5,77.3-10.3l0,0c0,0,0.4-0.4,8-1.7c0,0,0.3-1.4-0.2-1.8
				c0,0-0.9,0.3-9.2,0.4l0,0c-6.3-4.5-29.8-8.8-86.4-12.3l0.3,2.2l-2.8-2.3c-5.8-0.4-12-0.7-18.5-1c-24.8-1.3-51.4-1.6-76.6-1.3
				l4,4.2l-9-4.2c-57.9,0.9-88.3,5.7-88.3,11.1C1369.4,284.3,1370.6,289.2,1428.4,295.2z"/>
			<path id="XMLID_5387_" class="st104" d="M1647.3,287.4c0,0-94.7-3.8-103.5-1.8C1543.8,285.6,1576.3,293.9,1647.3,287.4z"/>
		</g>
	</g>
	<g id="XMLID_5365_">
		<path id="XMLID_5374_" class="st215" d="M1393.1,23.8c0.4,0.2,0.6,0.6,1.2,0.6c0.6,0,0.8-0.7,1.2-1c0.2,0,0.4-0.1,0.6-0.1
			c0.6,0.2,0.7,1.1,1.4,1.1c0.8,0,0.8-1.1,1.6-1.1c0.8,0,0.8-0.1,1.6-0.1c0.8,0,0.8-0.4,1.6-0.4c0.8,0,0.8,0.1,1.6,0.1
			c0.8,0,0.8,0.3,1.6,0.3c0.8,0,0.8,1.1,1.6,1.1c0.8,0,0.8-0.5,1.6-0.5c0.8,0,0.8-1,1.6-1c0.8,0,0.8,0.8,1.6,0.8
			c0.8,0,0.8-0.3,1.6-0.3c0.8,0,0.8,0.8,1.6,0.8c0.8,0,0.8,0,1.6,0c0.8,0,0.8-0.5,1.6-0.4c0.8,0,0.8,0.4,1.6,0.4
			c0.8,0,0.8-0.1,1.6-0.1c0.8,0,0.8-0.4,1.6-0.4c0.8,0,0.8-0.2,1.6-0.2c0.8,0,0.8-0.8,1.6-0.8c0.8,0,0.8,1.9,1.6,1.9
			c0.8,0,0.8-1.3,1.6-1.3c0.8,0,0.8,1.3,1.6,1.3c0.8,0,0.8-0.1,1.6-0.1c0.8,0,0.8-0.4,1.6-0.4c0.8,0,0.8,0.4,1.6,0.4
			c0.8,0,0.8-0.1,1.6-0.1c0.8,0,0.8-1.7,1.6-1.7c0.8,0,0.8,1.9,1.6,1.9c0.8,0,0.8-0.6,1.6-0.6c0.8,0,0.8-0.1,1.6-0.1
			c0.8,0,0.8,0.1,1.6,0.1c0.8,0,0.8-0.9,1.6-0.9c0.8,0,0.8-0.1,1.6-0.1c0.8,0,0.8,0.6,1.6,0.6c0.8,0,0.8,0.9,1.6,0.9
			c0.8,0,0.8,0,1.6,0c0.8,0,0.8,0,1.6,0c0.8,0,0.8-1.7,1.6-1.7c0.8,0,0.8,1.7,1.6,1.7c0.8,0,0.8,0.2,1.6,0.2c0.8,0,0.8-1.9,1.6-1.9
			c0.8,0,0.8,0.1,1.6,0.1c0.8,0,0.8,0,1.6,0c0.8,0,0.8,1.2,1.6,1.2c0.8,0,0.8-0.6,1.6-0.6c0.8,0,0.8,0.3,1.6,0.3
			c0.8,0,0.8-0.9,1.6-0.9c0.8,0,0.8,0.9,1.6,0.9c0.8,0,0.8,0.1,1.6,0.1c0.8,0,0.8-0.2,1.6-0.2c0.8,0,0.8-0.3,1.6-0.3
			s0.8,1.2,1.6,1.2c0.8,0,0.8-1.7,1.6-1.7c0.8,0,0.8,0.4,1.6,0.4c0.8,0,0.8,1.4,1.6,1.4c0.8,0,0.8,0,1.6,0c0.8,0,0.8,0.1,1.6,0.1
			c0.8,0,0.8-1.3,1.6-1.3c0.8,0,0.8,0.6,1.6,0.6c0.8,0,0.8,0.3,1.6,0.3c0.8,0,0.8-0.9,1.6-0.9c0.8,0,0.8-0.2,1.6-0.2
			c0.8,0,0.8-0.5,1.6-0.5c0.8,0,0.8,0.4,1.6,0.4c0.8,0,0.8,1.1,1.6,1.1c0.8,0,0.8,0,1.6,0c0.8,0,0.8-0.2,1.6-0.2c0.8,0,0.8,0,1.6,0
			c0.8,0,0.8,0.4,1.6,0.4c0.8,0,0.8-1.3,1.6-1.3c0.8,0,0.8,1.2,1.6,1.2c0.8,0,0.8-0.6,1.6-0.6c0.8,0,0.8-0.8,1.6-0.8
			c0.8,0,0.8,1.7,1.6,1.7c0.8,0,0.8-1.8,1.6-1.8c0.8,0,0.8,1.1,1.6,1.1c0.8,0,0.8-0.3,1.6-0.3c0.8,0,0.8,0,1.6,0
			c0.8,0,0.8,0.7,1.6,0.7c0.8,0,0.8-0.4,1.6-0.4c0.8,0,0.8-0.8,1.6-0.8c0.8,0,0.8,0.7,1.6,0.7c0.8,0,0.8,0.5,1.6,0.5
			c0.8,0,0.8-0.2,1.6-0.2c0.8,0,0.8-0.5,1.6-0.5c0.8,0,0.8-0.5,1.6-0.5c0.8,0,0.8,1.2,1.6,1.2c0.8,0,0.8-0.4,1.6-0.4
			c0.8,0,0.8,0.8,1.6,0.8c0.8,0,0.8-1.9,1.6-1.9c0.8,0,0.8,0.4,1.6,0.4c0.8,0,0.8,0.2,1.6,0.2c0.8,0,0.8,0,1.6,0c0.8,0,0.8,0,1.6,0
			c0.8,0,0.8,0.7,1.6,0.7c0.8,0,0.8-0.8,1.6-0.8c0.8,0,0.8-0.2,1.6-0.2c0.8,0,0.8,1.1,1.6,1.1c0.8,0,0.8,0.7,1.6,0.7
			c0.8,0,0.8-1.1,1.6-1.1c0.8,0,0.8-0.9,1.6-0.9c0.8,0,0.8,1.2,1.6,1.2c0.8,0,0.8,0.6,1.6,0.6c0.8,0,0.8-0.5,1.6-0.5
			c0.8,0,0.8-0.9,1.6-0.9c0.8,0,0.8,1.7,1.6,1.7c0.8,0,0.8-1.3,1.6-1.3c0.8,0,0.8,0.6,1.6,0.6c0.8,0,0.8-0.8,1.6-0.8
			c0.8,0,0.8-0.3,1.6-0.3c0.8,0,0.8,1.2,1.6,1.2c0.8,0,0.8,0.4,1.6,0.4c0.8,0,0.8-0.5,1.6-0.5c0.8,0,0.8-0.8,1.6-0.8
			c0.8,0,0.8,0.1,1.6,0.1c0.8,0,0.8,0.7,1.6,0.7c0.8,0,0.8-0.6,1.6-0.6c0.8,0,0.8,1.2,1.6,1.2c0.8,0,0.8-1.4,1.6-1.4
			c0.8,0,0.8,0.7,1.6,0.7c0.8,0,0.8,0.7,1.6,0.7c0.8,0,0.8-0.9,1.6-0.9c0.8,0,0.8,0.3,1.6,0.3c0.8,0,0.8-0.3,1.6-0.3
			c0.8,0,0.8-0.1,1.6-0.1c0.8,0,0.8,0.4,1.6,0.4c0.8,0,0.8,0.2,1.6,0.2c0.8,0,0.8-0.5,1.6-0.5c0.8,0,0.8-0.1,1.6-0.1
			c0.8,0,0.8,1.1,1.6,1.1c0.8,0,0.8,0.4,1.6,0.4c0.8,0,0.8-0.5,1.6-0.5c0.8,0,0.8-1.4,1.6-1.4c0.8,0,0.8,1.1,1.6,1.1
			c0.8,0,0.8-0.5,1.6-0.5c0.8,0,0.8,0.5,1.6,0.5c0.8,0,0.8-0.8,1.6-0.8c0.8,0,0.8-0.2,1.6-0.2c0.8,0,0.8,0.5,1.6,0.5
			s0.8-0.6,1.6-0.6c0.8,0,0.8,1.2,1.6,1.2c0.8,0,0.8,0.2,1.6,0.2c0.8,0,0.8-0.5,1.6-0.5c0.8,0,0.8-0.8,1.6-0.8
			c0.8,0,0.8,0.2,1.6,0.2c0.8,0,0.8-0.5,1.6-0.5c0.8,0,0.8,1.8,1.6,1.8c0.7,0,0.8-1.1,1.4-1.3c0.9,0.2,1.8,0.4,2.6,0.5
			c0.2,0.4,0.4,0.9,0.9,0.9c0.8,0,0.8-0.3,1.6-0.3c0.1,0,0.1,0,0.2,0c0.4,0.1,0.8,0.2,1.2,0.3c-0.1,0.2-0.3,0.4-0.3,0.7
			c0,0.8-0.4,0.8-0.4,1.6c0,0.8,0.1,0.8,0.1,1.6c0,0.8,1.7,0.8,1.7,1.6c0,0.8-1.4,0.9-1.4,1.7c0,0.2,0.1,0.3,0.2,0.4
			c-10.4,3.6-34.6,6.8-81.8,9.3l0.3-2.2l-2.8,2.3c-5.8,0.3-12,0.6-18.5,0.9c-24.9,1.1-51.4,1.1-76.6,0.6l4-4.2l-9,4.1
			c-38.7-0.9-82.8-7.8-87.8-16.2C1370.7,27.6,1387.8,24.7,1393.1,23.8z"/>
		<path id="XMLID_5373_" class="st104" d="M1629.9,24.6l-3.5-3.8l1.1,3.4c-3.9-0.8-7.8-1.9-10.8-3.1c-3.5-1.3-7.9-3.8-11.9-6.5
			l0.7-1.9l-2.1,0.9l0,0c-5.6-3.9-10-8.1-9.1-9.7c1.5-2.6,13.4-2.8,23.8,0.3l0.1,2l1.5-1.5c0.6,0.2,1.2,0.4,1.7,0.6
			c4.9,1.9,10.5,4.7,15,7.8l-2.8,0.9l4.9,0.6c4,2.9,6.7,5.8,6.5,8c0.1,0,0.1,0,0.1,0s2.9,2.1,4.8,2.6l-0.3,0.8c0,0-2.9-0.8-5.2-2
			C1642.6,25.8,1636.4,25.7,1629.9,24.6z"/>
		<path id="XMLID_5372_" class="st105" d="M1642.8,19l0-2.3l-0.6,1.4c-1.1-1.4-2-3-2.7-4.3c-0.8-1.5-1.5-3.6-2-5.7l0.8-0.4l-1-0.3
			l0,0c-0.7-3-0.9-5.7-0.1-6c1.3-0.4,5.3,3.1,7.9,7.2l-0.6,0.7l1,0c0.1,0.2,0.3,0.5,0.4,0.7c1.1,2.1,2.1,4.7,2.7,7.1l-1.2-0.6
			l1.4,1.6c0.4,2.2,0.5,3.9-0.2,4.6c0,0,0,0,0,0s-0.3,1.3-0.7,0.2C1646.7,23.3,1644.7,21.4,1642.8,19z"/>
		<path id="XMLID_5371_" class="st105" d="M1622.4,28l-2.1,3l0.5-2.5c-2.7,0.9-5.4,2.1-7.4,3.1c-2.4,1.3-5.3,3.4-7.9,5.7l0.7,1.3
			l-1.6-0.4l0,0c-3.7,3.3-6.4,6.7-5.6,7.8c1.3,1.7,9.8,0.8,17-2.3l-0.1-1.5l1.2,0.9c0.4-0.2,0.8-0.4,1.2-0.6c3.3-1.8,7.1-4.3,10-6.9
			l-2.1-0.4l3.4-0.8c2.6-2.4,4.2-4.7,3.9-6.3c0.1,0,0.1,0,0.1,0s1.9-1.8,3.2-2.3l-0.3-0.5c0,0-2,0.8-3.5,1.9
			C1631.3,26,1626.9,26.7,1622.4,28z"/>
		<path id="XMLID_5370_" class="st104" d="M1636.2,27.7l-1.6,3.3l0.1-2.5c-2.6,1.3-5,2.9-6.9,4.3c-2.2,1.6-4.7,4.2-6.9,6.8l0.9,1.1
			l-1.6-0.2l0,0c-3.1,3.8-5.3,7.6-4.4,8.5c1.5,1.5,9.8-0.7,16.4-4.9l-0.3-1.4l1.4,0.7c0.4-0.3,0.7-0.5,1.1-0.8
			c3-2.3,6.3-5.4,8.9-8.3l-2.1,0l3.3-1.4c2.2-2.8,3.5-5.3,2.9-6.8c0,0,0.1,0,0.1,0s1.6-2,2.8-2.7l-0.4-0.5c0,0-1.9,1.1-3.2,2.4
			C1644.7,24.3,1640.5,25.6,1636.2,27.7z"/>
		<path id="XMLID_5369_" class="st105" d="M1644.9,28.1l0,1.9l-0.5-1.2c-0.9,1.2-1.7,2.4-2.2,3.4c-0.6,1.2-1.2,2.9-1.7,4.6l0.6,0.3
			l-0.8,0.3l0,0c-0.6,2.4-0.8,4.6-0.1,4.8c1,0.4,4.3-2.5,6.4-5.8l-0.4-0.6l0.8,0c0.1-0.2,0.2-0.4,0.3-0.6c0.9-1.7,1.7-3.8,2.2-5.7
			l-1,0.4l1.2-1.3c0.4-1.7,0.4-3.2-0.2-3.7c0,0,0,0,0,0s-0.2-1.1-0.5-0.2C1648.1,24.7,1646.4,26.2,1644.9,28.1z"/>
		<g id="XMLID_5366_">
			<path id="XMLID_5368_" class="st107" d="M1429.7,14l18.9,2.6l-10.4-3.3c12.2-1,26-1.9,41.4-2.6c31.4-1.3,60.5-0.9,85.3,0.4
				l10.4,4.8l-3.2-4.4c44.1,2.7,73.4,8.1,77.2,11l0,0c0,0,0.4,0.4,8,1.8c0,0,0.3,1.4-0.2,1.8c0,0-0.9-0.3-9.2-0.5l0,0
				c-6.3,4.5-29.8,8.5-86.5,11.5l0.3-2.2l-2.8,2.3c-5.8,0.3-12,0.6-18.5,0.9c-24.9,1.1-51.4,1.1-76.6,0.6l4-4.2l-9,4.1
				c-57.8-1.4-88.2-6.5-88.2-11.9C1370.6,24.3,1371.8,19.5,1429.7,14z"/>
			<path id="XMLID_5367_" class="st104" d="M1648.5,23.8c0,0-94.7,2.9-103.5,0.9C1545,24.6,1577.5,16.6,1648.5,23.8z"/>
		</g>
	</g>
</g>
</svg>
