<svg version="1.1" id="header-background-18_svg__Layer_1" xmlns="http://www.w3.org/2000/svg" x="0" y="0" viewBox="0 0 1656.5 311.6" xml:space="preserve"><style>.header-background-18_svg__st104{fill:#22722e}.header-background-18_svg__st105{fill:#175823}.header-background-18_svg__st107{fill:#278939}.header-background-18_svg__st215{opacity:.11;fill:#175823}</style><g id="header-background-18_svg__XMLID_5354_"><g id="header-background-18_svg__XMLID_5395_"><path id="header-background-18_svg__XMLID_5403_" d="M0 283.3c255.9.3 1509.6 1.8 1510.4 1.9.8 0 .8.6 1.6.6s.8.8 1.6.8.8-1.7 1.6-1.7.8 1.8 1.6 1.8.8-1.1 1.6-1.1.8.4 1.7.3h1.6c.8 0 .8-.7 1.6-.7s.8.4 1.6.4.8.8 1.6.8.8-.7 1.6-.7.8-.5 1.6-.5.8.3 1.6.3.8.5 1.6.5.8.5 1.6.5.8-1.2 1.6-1.2.8.4 1.6.4.8-.8 1.6-.8.8 1.9 1.6 1.9.8-.4 1.6-.4.8-.2 1.6-.2h3.2c.8 0 .8-.7 1.6-.7s.8.8 1.6.9c.8 0 .8.2 1.6.2s.8-1.1 1.6-1.1.8-.7 1.6-.6c.8 0 .8 1.1 1.6 1.1s.8.9 1.6.9.8-1.2 1.6-1.2.8-.6 1.6-.6.8.5 1.6.5.8 1 1.6 1 .8-1.7 1.6-1.7.8 1.3 1.6 1.3.8-.5 1.6-.5.8.8 1.6.8.8.3 1.6.3.8-1.2 1.6-1.2.8-.4 1.6-.4.8.5 1.6.5.8.8 1.6.8.8-.1 1.6-.1.8-.7 1.6-.7.8.6 1.6.6.8-1.2 1.6-1.2.8 1.5 1.6 1.5.8-.7 1.6-.7.8-.7 1.6-.7.8.9 1.6.9.8-.3 1.6-.3.8.3 1.6.3.8.1 1.6.1.8-.4 1.6-.4.8-.2 1.6-.2.8.5 1.6.5.8.1 1.6.1.8-1.1 1.6-1.1.8-.4 1.6-.4.8.5 1.6.5.8 1.4 1.6 1.4.8-1.1 1.6-1.1.8.5 1.6.5.8-.5 1.6-.5.8.8 1.6.8.8.2 1.6.2.8-.5 1.6-.5.8.6 1.6.6.8-1.2 1.6-1.2.8-.2 1.6-.2.8.5 1.6.5.8.8 1.6.8.8-.2 1.6-.2.8.5 1.6.5.8-1.8 1.6-1.8.8 1.4 1.6 1.4.8.2 1.6.2.8-1.7 1.6-1.7.8.3 1.6.3 1.2 1.4 1.8.8c.6-.6-.6-1-.6-1.8s-.4-.8-.4-1.6.1-.8.1-1.6 1.7-.7 1.7-1.6c0-.8-1.4-.9-1.4-1.7 0-.8 1.3-.8 1.4-1.6 0-.8-1.3-.9-1.3-1.7 0-.8.8-.8.8-1.6s-.1-.8-.1-1.6.8-.8.8-1.6-.5-.8-.5-1.6-.5-.8-.4-1.6c0-.8-.1-.8-.1-1.6s.4-.8.4-1.6-.5-.8-.5-1.6 1.7-.7 1.8-1.5c0-.8-.1-.8 0-1.6 0-.8.1-.8.2-1.6 0-.8-1.5-.9-1.4-1.7 0-.8.8-.8.8-1.6s.5-.8.5-1.6-.1-.8-.1-1.6-1.4-.9-1.4-1.7c0-.8.2-.8.2-1.6s.7-.8.7-1.6.3-.8.3-1.6.4-.8.5-1.6c0-.8-.1-.8-.1-1.6s.6-.8.6-1.6-1-.9-1-1.7c0-.8.6-.8.7-1.6 0-.8-.7-.8-.6-1.6 0-.8-.6-.8-.6-1.6s1.5-.8 1.5-1.6-1.3-.9-1.3-1.7c0-.8.4-.8.4-1.6s.2-.8.2-1.6-.4-.8-.4-1.6-.1-.8-.1-1.6 1.9-.7 1.9-1.5.1-.8.2-1.6c0-.8-.5-.8-.5-1.6s.4-.8.4-1.6-.1-.8 0-1.6c0-.8-1.7-.9-1.6-1.7 0-.8.3-.8.3-1.6s1.2-.8 1.3-1.6c0-.8-.5-.8-.5-1.6s-.7-.8-.7-1.6.8-.8.9-1.6c0-.8-.1-.8-.1-1.6s.8-.8.8-1.6-1-.8-.9-1.7c0-.8.1-.8.1-1.6s.7-.8.7-1.6.2-.8.2-1.6.3-.8.4-1.6c0-.8.3-.8.3-1.6s-.2-.8-.2-1.6-1.4-.9-1.3-1.7c0-.8.4-.8.5-1.6 0-.8 1-.8 1-1.6s-1.3-.9-1.3-1.7c0-.8 1.2-.8 1.3-1.6 0-.8-.9-.8-.9-1.7 0-.8.2-.8.2-1.6s.5-.8.5-1.6-.7-.8-.7-1.6.9-.8.9-1.6-.8-.8-.7-1.6c0-.8.6-.8.6-1.6s.4-.8.4-1.6-1.3-.9-1.2-1.7c0-.8.4-.8.5-1.6 0-.8 1.3-.8 1.3-1.6s-.5-.8-.4-1.6c0-.8.1-.8.1-1.6V160c0-.8-.4-.8-.3-1.6 0-.8-.4-.8-.3-1.6 0-.8 1.1-.8 1.1-1.6s-.9-.8-1-1.6c0-.8.2-.8.1-1.6 0-.8-.6-.8-.7-1.6 0-.8 1.1-.8 1-1.7 0-.8.4-.8.4-1.6s-.4-.8-.4-1.6-.5-.8-.6-1.6c0-.8-.9-.8-.9-1.6s.9-.8.9-1.7c0-.8.7-.8.7-1.6s-.4-.8-.4-1.6-.4-.8-.5-1.6c0-.8.7-.8.7-1.6s.2-.8.2-1.6-.8-.8-.8-1.6-.8-.8-.8-1.6-.2-.8-.2-1.6-.3-.8-.3-1.6 1.5-.9 1.5-1.7c0-.8-.3-.8-.3-1.6s-.7-.8-.8-1.6c0-.8 1.3-.9 1.3-1.7 0-.8-.7-.8-.8-1.6 0-.8.8-.8.8-1.6s-1-.8-1-1.6.2-.8.2-1.6.4-.8.4-1.6-.6-.8-.6-1.6-1-.8-1.1-1.6v-1.6c0-.8.9-.8.9-1.6s.6-.8.6-1.6.1-.8.1-1.6-.7-.8-.7-1.6v-1.6c0-.8.4-.8.4-1.6s-1-.8-1.1-1.6c0-.8-.5-.8-.5-1.6s1.2-.8 1.2-1.7c0-.8-1-.8-1-1.6s1-.8 1-1.7c0-.8-1-.8-1-1.6s1.1-.8 1.1-1.7c0-.8-.8-.8-.8-1.6s-1-.8-1-1.6.2-.8.1-1.6c0-.8.6-.8.6-1.6s-.2-.8-.2-1.6.6-.8.6-1.6.1-.8.1-1.6-1.7-.8-1.7-1.6 1.4-.9 1.3-1.7c0-.8-1-.8-1-1.6s-.3-.8-.3-1.6 1.7-.9 1.6-1.7c0-.8-1.4-.8-1.4-1.6s1.3-.9 1.2-1.7c0-.8-1.3-.8-1.4-1.6 0-.8 1.1-.8 1.1-1.7 0-.8-1.6-.8-1.6-1.6s1.3-.9 1.3-1.7c0-.8-1.1-.8-1.1-1.6s.7-.8.6-1.6c0-.8.6-.8.6-1.6s-.7-.8-.7-1.6.6-.8.6-1.6 0-.8-.1-1.6c0-.8.2-.8.2-1.6s-1.8-.8-1.8-1.6-.3-.8-.3-1.6.6-.8.6-1.6.6-1.1.5-1.9c0-.8-.3-.6-.4-1.4 0-.8-.2-.8-.2-1.6s-.4-.8-.4-1.6-.3-.8-.3-1.6.9-.8.9-1.6.6-.8.6-1.6-1.4-.8-1.5-1.6c0-.8.2-.8.2-1.6s1.5-1.5.9-2.1c-.6-.6-1.2-.5-2-.5s-.8.6-1.6.6-.8.7-1.6.6h-1.6c-.8 0-.8-.9-1.6-.9s-.8 1.2-1.6 1.1h-1.6c-.9 0-.8-1.2-1.7-1.2-.8 0-.8.7-1.6.7s-.8-.2-1.6-.2-.8.1-1.6.1-.8-1-1.6-1-.8 1.8-1.6 1.8-.8-.3-1.6-.3-.8-1-1.6-1-.8-.3-1.6-.3-.8 1.6-1.6 1.6-.8-1.1-1.6-1.1-.8-.7-1.6-.7-.8 1.1-1.6 1.1-.8-.9-1.6-.9-.8 1-1.6 1-.8-.9-1.6-.9-.8.7-1.6.7-.8-1.2-1.6-1.2h-1.6c-.8 0-.8 1.3-1.6 1.3s-.8.6-1.6.6-.8-1-1.6-1-.8-.7-1.6-.7-.8 1-1.6 1h-1.6c-.8 0-.8-.6-1.6-.6s-.8-.4-1.6-.4-.8 1.3-1.6 1.3h-1.6c-.8 0-.8-.9-1.6-.9s-.8-.5-1.6-.5-.8.5-1.6.5-.8 1.1-1.6 1.1-.8-1.8-1.6-1.8-.8 1.5-1.6 1.5-.8-.1-1.6-.1-.8-.3-1.6-.3-.8-.8-1.6-.8-.8.7-1.6.7-.8-1-1.6-1-.8 1.2-1.6 1.2-.8-.3-1.6-.3-.8.9-1.6.9-.8-1.4-1.6-1.4-.8.3-1.6.3-.8-.7-1.6-.7-.8 1.7-1.6 1.7-.8-.5-1.6-.5-.8-.2-1.6-.2-.8-.6-1.6-.6-.8.9-1.6.9-.8-1.1-1.6-1.1-.8-.2-1.6-.2-.8.2-1.6.2-.8 1.3-1.6 1.3-.8.2-1.6.2-.8-.2-1.6-.2-.8.1-1.6 0c-.8 0-.8-1.6-1.6-1.6s-.8.5-1.6.5-.8 1-1.6 1-.8-1.3-1.6-1.3-.8-.4-1.6-.4-.8.6-1.6.6-.8.8-1.6.8-.8-1.4-1.6-1.4-.8.8-1.6.8-.8-.6-1.6-.6-.8.2-1.6.2-.8 1.1-1.6 1.1-.8.3-1.6.3-.8-.9-1.6-.9-.8.9-1.6.9-.8-1.4-1.6-1.4c-.7 0-1258-1.2-1511.4-1.5v261.9z" fill="#abbf1a"/><path id="header-background-18_svg__XMLID_5402_" d="M0 270.5c255.3.5 1514.2 2.8 1514.8 2.8.7 0 .7 1.2 1.4 1.2s.7-1.5 1.4-1.4c.7 0 .7 1.1 1.4 1.1h1.4c.7 0 .7.2 1.4.2s.7.3 1.4.3.7-1.4 1.4-1.4.7 1.5 1.4 1.5.7-1 1.4-1 .7.2 1.4.2.7.8 1.4.8.7-1.1 1.4-1.1.7 1 1.4 1 .7-1.2 1.4-1.2.7-.3 1.4-.3.7 1 1.4 1.1c.7 0 .7-.8 1.4-.8s.7 1 1.4 1.1c.7 0 .7-.6 1.4-.6s.7-.6 1.4-.6.7.6 1.4.6.7.6 1.4.6.7-.9 1.4-.9.7.8 1.4.8.7.3 1.4.3.7-.2 1.4-.2.7.1 1.4.1.7-1.4 1.4-1.4.7.2 1.4.2.7-.2 1.4-.2.7.3 1.4.3.7-.4 1.4-.4.7 1.5 1.4 1.5.7-.6 1.4-.6.7.2 1.4.2.7-.9 1.4-.9h1.4c.7 0 .7 1.3 1.4 1.3s.7-1 1.4-1 .7-.3 1.4-.3h1.4c.7 0 .7.9 1.4.9s.7-.4 1.4-.4.7-.7 1.4-.7h1.4c.7 0 .7.8 1.4.8s.7.9 1.4.9.7-1.6 1.4-1.6.7-.1 1.4-.1.7 1.6 1.4 1.6.7-1.1 1.4-1.1.7 1.3 1.4 1.3.7-.9 1.4-.9.7-.3 1.4-.3.7.9 1.4.9.7-1.1 1.4-1.1.7.3 1.4.3.7-.3 1.4-.2c.7 0 .7.6 1.4.6s.7-.6 1.4-.6.7 1.2 1.4 1.2.7-.2 1.4-.2.7-1.5 1.4-1.5.7.6 1.4.6.7.6 1.4.6.7-1.1 1.4-1.1.7 1.5 1.4 1.5.7-1.4 1.4-1.4.7 1.2 1.4 1.2h1.4c.7 0 .7-1.1 1.4-1.1s.7.4 1.4.4.7-.7 1.4-.7.7 1 1.4 1 .7-.2 1.4-.2.7-.1 1.4-.1.7.8 1.4.8.7-.1 1.4-.1.7-.7 1.4-.7.7-.8 1.4-.8 1.1 1.6 1.6 1.1-.7-.6-.9-1.5c-.2-.7.5-.9.6-1.6 0-.7-.2-.7-.2-1.5 0-.7.2-.7.2-1.4s.3-.7.3-1.4.4-.7.4-1.4.2-.7.2-1.4v-1.5c0-.7-1.1-.8-1.1-1.5s.4-.7.5-1.4v-1.5c0-.7.6-.7.6-1.4v-1.5-1.5c0-.7.3-.7.4-1.4 0-.7-.1-.7-.1-1.5 0-.7-.8-.8-.7-1.5 0-.7.6-.7.6-1.4s.7-.7.7-1.4-1-.8-1-1.5.3-.7.3-1.4-.3-.7-.3-1.5c0-.7 1.1-.7 1.2-1.4 0-.7-.8-.8-.8-1.5s.4-.7.5-1.4c0-.7.4-.7.5-1.4 0-.7-.6-.8-.6-1.5s-.5-.7-.4-1.5c0-.7.4-.7.4-1.4v-1.5c0-.7.7-.7.7-1.4s-1.3-.8-1.2-1.5c0-.7.1-.7.1-1.4s.3-.7.3-1.4.4-.7.4-1.4v-1.5-1.5c0-.7.4-.7.5-1.4 0-.7-.9-.8-.9-1.5s1.4-.7 1.4-1.4-1.1-.8-1-1.5c0-.7.4-.7.4-1.4s.3-.7.3-1.4-1-.8-1-1.5 1.3-.7 1.3-1.4-1.4-.8-1.3-1.5c0-.7 1.1-.7 1.2-1.4 0-.7-1.1-.8-1-1.5 0-.7 1.3-.7 1.3-1.4s0-.7.1-1.4c0-.7-.7-.8-.7-1.5s.8-.7.8-1.4-.4-.7-.3-1.5c0-.7.4-.7.4-1.4s-.7-.8-.7-1.5-.3-.7-.3-1.5c0-.7.9-.7 1-1.4s-.4-.7-.4-1.5c0-.7.3-.7.4-1.4 0-.7.4-.7.4-1.4s.2-.7.2-1.4-.3-.7-.3-1.5c0-.7.5-.7.5-1.4s-1.5-.8-1.5-1.5.3-.7.3-1.4.2-.7.2-1.4.4-.7.4-1.4.3-.7.3-1.4.2-.7.3-1.4c0-.7-.4-.7-.4-1.5 0-.7.8-.7.8-1.4s-.7-.8-.7-1.5-.3-.7-.2-1.5c0-.7.2-.7.2-1.4s-.6-.7-.5-1.5c0-.7 1-.7 1-1.4s-.5-.7-.4-1.5c0-.7.3-.7.3-1.4s-.2-.7-.1-1.5c0-.7.5-.7.5-1.4s-.3-.7-.3-1.5c0-.7.1-.7 0-1.5 0-.7.2-.7.2-1.5v-1.5c0-.7-1-.7-1-1.4s1.3-.8 1.3-1.5-.5-.7-.6-1.4c0-.7.2-.7.1-1.5v-1.5c0-.7-.6-.7-.6-1.4s.7-.8.6-1.5c0-.7.1-.7.1-1.5 0-.7-.5-.7-.5-1.4s.2-.7.2-1.5c0-.7-.3-.7-.3-1.4s.5-.7.5-1.5c0-.7-.9-.7-.9-1.4s-.7-.7-.7-1.4 1.6-.8 1.6-1.5-.4-.7-.5-1.4c0-.7-1.1-.7-1.1-1.4s1-.8 1-1.5-1.2-.7-1.2-1.4 1-.8 1-1.5 0-.7-.1-1.5c0-.7-.4-.7-.5-1.4 0-.7-.6-.7-.6-1.4s.1-.7 0-1.5c0-.7.6-.7.6-1.5 0-.7-.4-.7-.5-1.4 0-.7-.4-.7-.5-1.4 0-.7 1.1-.8 1.1-1.5s.3-.7.2-1.5c0-.7-.2-.7-.3-1.4 0-.7-1.1-.7-1.1-1.4s.9-.8.9-1.5-.9-.7-.9-1.4.5-.7.5-1.5c0-.7.7-.7.7-1.5 0-.7-1.5-.7-1.5-1.4s.7-.8.7-1.5-.4-.7-.4-1.4.9-.8.9-1.5-.1-.7-.2-1.4c0-.7.5-.7.5-1.5 0-.7-.7-.7-.7-1.4s-.1-.7-.1-1.4.4-.7.4-1.5c0-.7.2-.7.2-1.5 0-.7-.1-.7-.1-1.5 0-.7-.4-.7-.4-1.4s-.8-.7-.9-1.4c0-.7 1-.8 1-1.5s-1.1-.7-1.1-1.4.8-.8.8-1.5-.1-.7-.2-1.4c0-.7.3-.7.3-1.5 0-.7-.2-.7-.3-1.4 0-.7-.9-.7-.9-1.4s1.4-.8 1.4-1.5-1.1-.7-1.1-1.4.6-.7.6-1.5c0-.7.2-.7.2-1.5 0-.7-1.5-.7-1.5-1.4s1-.8 1-1.5-.9-.7-1-1.4c0-.7 1-.8 1-1.5s.2-.7.2-1.5c0-.7-1.1-.7-1.1-1.4s.2-.7.1-1.5c0-.7.3-.7.3-1.5 0-.7.2-.7.2-1.5 0-.7-.3-.7-.3-1.4s.8-.8.7-1.5c0-.7-.2-.7-.2-1.4v-1.4c0-.7-.1-.7-.1-1.4s-1.1-.7-1.1-1.4 1.1-.8 1.1-1.5-.3-.7-.3-1.4.5-.7.5-1.5c0-.7.1-1.5-.3-2-.5-.5-1.2-.2-1.9-.2s-.7.2-1.4.2-.7.4-1.4.4-.7-.3-1.4-.3-.7.9-1.4.8c-.7 0-.7-.2-1.4-.2h-1.4c-.7 0-.7.6-1.4.6s-.7-1-1.4-1-.7 1-1.4 1-.7-1-1.4-1-.7-.1-1.4-.1-.7-.3-1.4-.3-.7.1-1.4.1-.7.3-1.4.3-.7 1-1.4 1-.7-.5-1.4-.5-.7-.9-1.4-.9-.7.7-1.4.7-.7-.2-1.4-.3c-.7 0-.7.7-1.4.7h-1.4c-.7 0-.7-.4-1.4-.4s-.7.4-1.4.4-.7-.1-1.4-.1-.7-.3-1.4-.3-.7-.1-1.4-.2c-.7 0-.7-.8-1.4-.8s-.7 1.7-1.4 1.7-.7-1.2-1.4-1.2-.7 1.2-1.4 1.2-.7-.1-1.4-.1-.7-.4-1.4-.4-.7.4-1.4.4-.7-.1-1.4-.1-.7-1.5-1.4-1.5-.7 1.7-1.4 1.7-.7-.6-1.4-.6-.7-.1-1.4-.1-.7.1-1.4.1-.7-.8-1.4-.8-.7-.1-1.4-.1-.7.5-1.4.5-.7.8-1.4.8h-2.8c-.7 0-.7-1.6-1.4-1.6s-.7 1.5-1.4 1.5-.7.2-1.4.1c-.7 0-.7-1.7-1.4-1.7s-.7.1-1.4.1h-1.4c-.7 0-.7 1-1.4 1s-.7-.5-1.4-.5-.7.3-1.4.3-.7-.8-1.4-.8-.7.8-1.4.8-.7.1-1.4.1-.7-.2-1.4-.2-.7-.3-1.4-.3-.7 1-1.4 1-.7-1.5-1.4-1.5-.7.3-1.4.3-.7 1.3-1.4 1.3h-1.4c-.7 0-.7.1-1.4.1s-.7-1.1-1.4-1.2c-.7 0-.7.6-1.4.6s-.7.2-1.4.2-.7-.9-1.4-.9-.7-.2-1.4-.2-.7-.5-1.4-.5-.7.4-1.4.4-.7 1-1.4 1h-1.4c-.7 0-.7-.2-1.4-.2h-1.4c-.7 0-.7.4-1.4.4s-.7-1.2-1.4-1.2-.7 1.1-1.4 1.1-.7-.6-1.4-.6c-.6.1-1262.2-3.4-1515.6-4.1v235.9z" fill="#ede1cd"/><path id="header-background-18_svg__XMLID_5401_" d="M0 263.4c255.4.4 1516.9 2.5 1517.4 2.5.6 0 .6.5 1.3.5.6 0 .6.7 1.3.7.6 0 .6-1.4 1.3-1.4.6 0 .6 1.5 1.3 1.5.6 0 .6-.9 1.3-.9.6 0 .6.3 1.3.3h1.3c.6 0 .6-.6 1.3-.6.6 0 .6.4 1.3.4.6 0 .6.6 1.3.6.6 0 .6-.6 1.3-.6.6 0 .6-.4 1.3-.4.6 0 .6.2 1.3.2.6 0 .6.4 1.3.4.6 0 .6.4 1.3.5.6 0 .6-1 1.3-1 .6 0 .6.4 1.3.4.6 0 .6-.7 1.3-.6.6 0 .6 1.6 1.3 1.6.6 0 .6-.3 1.3-.3.6 0 .6-.2 1.3-.2h2.6c.6 0 .6-.6 1.3-.6.6 0 .6.7 1.3.7.6 0 .6.2 1.3.2.6 0 .6-.9 1.3-.9.6 0 .6-.5 1.3-.5s.6.9 1.3.9c.6 0 .6.8 1.3.8.6 0 .6-1 1.3-1 .6 0 .6-.5 1.3-.5.6 0 .6.5 1.3.5.6 0 .6.8 1.3.8.6 0 .6-1.4 1.3-1.4.6 0 .6 1.1 1.3 1.1.6 0 .6-.5 1.3-.5.6 0 .6.7 1.3.7.6 0 .6.3 1.3.3.6 0 .6-1 1.3-1 .6 0 .6-.3 1.3-.3.6 0 .6.4 1.3.4.6 0 .6.7 1.3.7.6 0 .6-.1 1.3-.1.6 0 .6-.6 1.3-.6.6 0 .6.5 1.3.5.6 0 .6-1 1.3-1 .6 0 .6 1.2 1.3 1.2.6 0 .6-.6 1.3-.6.6 0 .6-.6 1.3-.5.6 0 .6.8 1.3.8.6 0 .6-.3 1.3-.3.6 0 .6.3 1.3.3s.6.1 1.3.1c.6 0 .6-.3 1.3-.3.6 0 .6-.2 1.3-.2.6 0 .6.4 1.3.4.6 0 .6.1 1.3.1.6 0 .6-.9 1.3-.9.6 0 .6-.3 1.3-.3.6 0 .6.4 1.3.4.6 0 .6 1.2 1.3 1.2.6 0 .6-.9 1.3-.9.6 0 .6.4 1.3.4.6 0 .6-.4 1.3-.4.6 0 .6.7 1.3.7.6 0 .6.1 1.3.1.6 0 .6-.4 1.3-.4.6 0 .6.5 1.3.5.6 0 .6-1 1.3-1 .6 0 .6-.2 1.3-.2.6 0 .6.4 1.3.4.6 0 .6.7 1.3.7.6 0 .6-.2 1.3-.2.6 0 .6.4 1.3.4.6 0 .6-1.5 1.3-1.5.6 0 .6 1.2 1.3 1.2.6 0 .6.1 1.3.1.6 0 .6-1.4 1.3-1.4.6 0 .6.3 1.3.3.6 0 .9 1.2 1.4.7.5-.5-.5-.8-.5-1.5s-.3-.7-.3-1.4.1-.7.1-1.4 1.3-.6 1.4-1.3c0-.7-1.1-.7-1.1-1.4s1.1-.6 1.1-1.3c0-.7-1.1-.7-1-1.4 0-.7.6-.7.6-1.3 0-.7-.1-.7-.1-1.4s.6-.7.7-1.3c0-.7-.4-.7-.4-1.4s-.4-.7-.3-1.4c0-.7-.1-.7-.1-1.4s.3-.7.3-1.3c0-.7-.4-.7-.4-1.4s1.4-.6 1.4-1.3c0-.7-.1-.7 0-1.4 0-.7.1-.7.1-1.4s-1.1-.7-1.1-1.4.6-.7.7-1.3c0-.7.4-.7.4-1.3 0-.7-.1-.7-.1-1.4s-1.1-.7-1.1-1.4.1-.7.2-1.4c0-.7.5-.7.6-1.3 0-.7.2-.7.2-1.4s.3-.7.4-1.3c0-.7-.1-.7 0-1.4 0-.7.5-.7.5-1.3 0-.7-.8-.7-.8-1.4s.5-.7.5-1.3c0-.7-.5-.7-.5-1.4s-.5-.7-.5-1.4 1.2-.6 1.2-1.3c0-.7-1.1-.7-1-1.4 0-.7.3-.7.3-1.3 0-.7.2-.7.2-1.4s-.3-.7-.3-1.4-.1-.7-.1-1.4 1.5-.6 1.5-1.3c0-.7.1-.7.1-1.4s-.4-.7-.4-1.4.3-.7.3-1.3V207c0-.7-1.3-.7-1.3-1.4s.2-.7.2-1.4 1-.6 1-1.3c0-.7-.4-.7-.4-1.4s-.6-.7-.5-1.4c0-.7.7-.7.7-1.3 0-.7-.1-.7 0-1.4 0-.7.6-.7.6-1.3 0-.7-.8-.7-.7-1.4 0-.7.1-.7.1-1.4s.5-.7.6-1.3c0-.7.1-.7.2-1.4 0-.7.3-.7.3-1.3 0-.7.2-.7.2-1.4s-.2-.7-.2-1.4-1.1-.7-1-1.4c0-.7.3-.7.4-1.3 0-.7.8-.6.8-1.3 0-.7-1-.7-1-1.4s1-.6 1-1.3c0-.7-.7-.7-.7-1.4s.2-.7.2-1.4.4-.7.4-1.3c0-.7-.5-.7-.5-1.4s.7-.7.7-1.3c0-.7-.6-.7-.6-1.4s.5-.7.5-1.3c0-.7.3-.7.3-1.3 0-.7-1-.7-1-1.4s.3-.7.4-1.3c0-.7 1-.6 1-1.3 0-.7-.4-.7-.3-1.4 0-.7.1-.7.1-1.4v-1.4c0-.7-.3-.7-.3-1.4s-.3-.7-.3-1.4.9-.7.9-1.3c0-.7-.7-.7-.8-1.4 0-.7.1-.7.1-1.4s-.5-.7-.5-1.3c0-.7.8-.7.8-1.4s.3-.7.3-1.4-.3-.7-.3-1.4-.4-.7-.4-1.3c0-.7-.7-.7-.7-1.3 0-.7.7-.7.7-1.4s.6-.7.5-1.4c0-.7-.3-.7-.3-1.4s-.4-.7-.4-1.4.6-.7.6-1.4.2-.7.2-1.4-.6-.7-.6-1.3c0-.7-.6-.7-.7-1.3 0-.7-.2-.7-.2-1.4s-.2-.7-.3-1.4c0-.7 1.2-.7 1.2-1.4s-.2-.7-.2-1.4-.6-.7-.6-1.3c0-.7 1-.7 1-1.4s-.6-.7-.6-1.3c0-.7.6-.7.6-1.4s-.8-.7-.8-1.3c0-.7.2-.7.2-1.4s.3-.7.3-1.4-.4-.7-.5-1.3c0-.7-.8-.7-.8-1.3v-1.4c0-.7.7-.7.7-1.4s.5-.7.4-1.4c0-.7.1-.7.1-1.4s-.5-.7-.5-1.3v-1.4c0-.7.3-.7.3-1.4s-.8-.7-.8-1.3c0-.7-.4-.7-.4-1.3 0-.7 1-.7 1-1.4s-.8-.7-.8-1.3c0-.7.8-.7.8-1.4s-.7-.7-.8-1.3c0-.7.9-.7.8-1.4 0-.7-.6-.7-.7-1.3 0-.7-.8-.7-.8-1.3 0-.7.1-.7.1-1.4s.5-.7.5-1.4-.1-.7-.1-1.4.5-.7.5-1.4.1-.7 0-1.4c0-.7-1.3-.6-1.4-1.3 0-.7 1.1-.7 1-1.4 0-.7-.8-.7-.8-1.3 0-.7-.2-.7-.2-1.4s1.3-.7 1.3-1.4-1.1-.6-1.1-1.3c0-.7 1-.7 1-1.4s-1-.6-1.1-1.3c0-.7.9-.7.9-1.4s-1.3-.6-1.3-1.3c0-.7 1-.7 1-1.4s-.8-.7-.8-1.3c0-.7.5-.7.5-1.4s.5-.7.5-1.4-.5-.7-.6-1.3c0-.7.5-.7.5-1.4s0-.7-.1-1.4c0-.7.2-.7.1-1.4 0-.7-1.4-.6-1.4-1.3 0-.7-.2-.7-.2-1.4s.5-.7.4-1.4c0-.7.7-.7.6-1.4 0-.7-.5-.7-.5-1.3 0-.7-.2-.7-.2-1.4s-.3-.7-.3-1.3c0-.7-.2-.7-.3-1.3 0-.7.7-.7.7-1.4s.5-.7.5-1.4-1.1-.6-1.1-1.3c0-.7.2-.7.2-1.4s1.2-1.3.7-1.7c-.5-.5-1-.4-1.6-.5-.6 0-.6.5-1.3.5-.6 0-.6.5-1.3.5h-1.3c-.6 0-.6-.8-1.3-.8-.6 0-.6 1-1.3 1h-1.3c-.6 0-.6-1-1.3-1-.6 0-.6.6-1.3.6-.6 0-.6-.2-1.3-.2-.6 0-.6.1-1.3.1-.6 0-.6-.8-1.3-.8-.6 0-.6 1.5-1.3 1.5-.6 0-.6-.2-1.3-.2s-.6-.9-1.3-.9c-.6 0-.6-.2-1.3-.3-.6 0-.6 1.4-1.3 1.4-.6 0-.6-.9-1.3-.9-.6 0-.6-.6-1.3-.6-.6 0-.6.9-1.3.9s-.6-.7-1.3-.7c-.6 0-.6.8-1.3.8-.6 0-.6-.7-1.3-.7s-.6.6-1.3.6c-.6 0-.6-1-1.3-1h-1.3c-.6 0-.6 1.1-1.3 1.1-.6 0-.6.5-1.3.5-.6 0-.6-.8-1.3-.8-.6 0-.6-.6-1.3-.6-.6 0-.6.9-1.3.9h-1.3c-.6 0-.6-.5-1.3-.5-.6 0-.6-.4-1.3-.4-.6 0-.6 1.1-1.3 1.1h-1.3c-.6 0-.6-.8-1.3-.8-.6 0-.6-.4-1.3-.4-.6 0-.6.4-1.3.4-.6 0-.6.9-1.3.9-.6 0-.6-1.5-1.3-1.5-.6 0-.6 1.3-1.3 1.3-.6 0-.6-.1-1.3-.1-.6 0-.6-.2-1.3-.2-.6 0-.6-.7-1.3-.7-.6 0-.6.6-1.3.6-.6 0-.6-.8-1.3-.8-.6 0-.6 1-1.3 1-.6 0-.6-.3-1.3-.3-.6 0-.6.8-1.3.8-.6 0-.6-1.2-1.3-1.2-.6 0-.6.2-1.3.2-.6 0-.6-.6-1.3-.6-.6 0-.6 1.5-1.3 1.4-.6 0-.6-.4-1.3-.4-.6 0-.6-.1-1.3-.1-.6 0-.6-.5-1.3-.5-.6 0-.6.8-1.3.8-.6 0-.6-.9-1.3-.9-.6 0-.6-.1-1.3-.2-.6 0-.6.2-1.3.2-.6 0-.6 1.1-1.3 1.1-.6 0-.6.2-1.3.2-.6 0-.6-.2-1.3-.2h-1.3c-.6 0-.6-1.4-1.3-1.4-.6 0-.6.4-1.3.4-.6 0-.6.9-1.3.9-.6 0-.6-1.1-1.3-1.1-.6 0-.6-.3-1.3-.3-.6 0-.6.5-1.3.5-.6 0-.6.6-1.3.6-.6 0-.6-1.1-1.3-1.2-.6 0-.6.6-1.3.6-.6 0-.6-.5-1.3-.5-.6 0-.6.1-1.3.1-.6 0-.6.9-1.3.9-.6 0-.6.2-1.3.2-.6 0-.6-.7-1.3-.7-.6 0-.6.7-1.3.7-.6 0-.6-1.2-1.3-1.2-.6 0-1264.6-1.8-1518.2-2.2v220.6z" fill="#f2e8d6"/><g id="header-background-18_svg__XMLID_5396_"><path id="header-background-18_svg__XMLID_5398_" d="M1633.1 157.3c0 7.8 5.9 14.3 13.6 14.9.1-.2.3-.4.3-.8 0-.8.4-.8.4-1.6s-1.3-.9-1.2-1.7c0-.8.4-.8.5-1.6s1.3-.8 1.3-1.6-.5-.8-.4-1.6c0-.8.1-.8.1-1.6v-1.6c0-.8-.4-.8-.3-1.6 0-.8-.4-.8-.3-1.6 0-.8 1.1-.8 1.1-1.6s-.9-.8-1-1.6c0-.8.2-.8.1-1.6 0-.8-.6-.8-.7-1.6 0-.8 1.1-.8 1-1.7 0-.8.4-.8.4-1.6s-.4-.8-.4-1.6-.5-.8-.6-1.6c0-.7-.7-.8-.9-1.4-7.2.9-12.9 7.2-13 14.7z" fill="#5e6c0d"/></g></g><g id="header-background-18_svg__XMLID_5385_"><path id="header-background-18_svg__XMLID_5394_" class="header-background-18_svg__st215" d="M1391.9 285c.4-.2.6-.6 1.2-.6s.8.7 1.2 1c.2 0 .4.1.6.1.6-.2.7-1.1 1.4-1.1.8 0 .8 1.1 1.6 1.1s.8.1 1.6.1.8.4 1.6.4.8-.1 1.6-.1.8-.3 1.6-.3.8-1.1 1.6-1.1.8.5 1.6.5.8 1 1.6 1 .8-.8 1.6-.8.8.3 1.6.3.8-.8 1.6-.8h1.6c.8 0 .8.5 1.6.5s.8-.4 1.6-.4.8.1 1.6.1.8.4 1.6.4.8.2 1.6.2.8.9 1.6.9.8-1.9 1.6-1.9.8 1.3 1.6 1.3.8-1.3 1.6-1.3.8.1 1.6.1.8.4 1.6.4.8-.4 1.6-.4.8.1 1.6.1.8 1.7 1.6 1.7.8-1.9 1.6-1.9.8.6 1.6.6.8.1 1.6.1.8-.1 1.6-.1.8.9 1.6.9.8.1 1.6.1.8-.6 1.6-.6.8-.9 1.6-.9h3.2c.8 0 .8 1.8 1.6 1.8s.8-1.7 1.6-1.7.8-.2 1.6-.2.8 1.9 1.6 1.9.8-.1 1.6-.1h1.6c.8 0 .8-1.1 1.6-1.1s.8.6 1.6.6.8-.3 1.6-.3.8.9 1.6.9.8-.8 1.6-.8.8-.1 1.6-.1.8.2 1.6.2.8.4 1.6.4.8-1.2 1.6-1.2.8 1.7 1.6 1.7.8-.4 1.6-.4.8-1.4 1.6-1.4h1.6c.8 0 .8-.1 1.6-.1s.8 1.3 1.6 1.3.8-.6 1.6-.6.8-.3 1.6-.3.8 1 1.6 1 .8.2 1.6.2.8.5 1.6.5.8-.4 1.6-.4.8-1.1 1.6-1.1h1.6c.8 0 .8.2 1.6.2h1.6c.8 0 .8-.4 1.6-.4s.8 1.3 1.6 1.4c.8 0 .8-1.2 1.6-1.2s.8.6 1.6.6.8.8 1.6.8.8-1.7 1.6-1.7.8 1.8 1.6 1.8.8-1.1 1.6-1.1.8.3 1.6.3h1.6c.8 0 .8-.7 1.6-.7s.8.4 1.6.4.8.8 1.6.8.8-.7 1.6-.7.8-.5 1.6-.5.8.3 1.6.3.8.5 1.6.5.8.5 1.6.5.8-1.2 1.6-1.2.8.4 1.6.4.8-.8 1.6-.8.8 1.9 1.6 1.9.8-.4 1.6-.4.8-.2 1.6-.2h3.2c.8 0 .8-.7 1.6-.7s.8.8 1.6.9c.8 0 .8.2 1.6.2s.8-1.1 1.6-1.1.8-.7 1.6-.6c.8 0 .8 1.1 1.6 1.1s.8.9 1.6.9.8-1.2 1.6-1.2.8-.6 1.6-.6.8.5 1.6.5.8 1 1.6 1 .8-1.7 1.6-1.7.8 1.3 1.6 1.3.8-.5 1.6-.5.8.8 1.6.8.8.3 1.6.3.8-1.2 1.6-1.2.8-.4 1.6-.4.8.5 1.6.5.8.8 1.6.8.8-.1 1.6-.1.8-.7 1.6-.7.8.6 1.6.6.8-1.2 1.6-1.2.8 1.5 1.6 1.5.8-.7 1.6-.7.8-.7 1.6-.7.8.9 1.6.9.8-.3 1.6-.3.8.3 1.6.3.8.1 1.6.1.8-.4 1.6-.4.8-.2 1.6-.2.8.5 1.6.5.8.1 1.6.1.8-1.1 1.6-1.1.8-.4 1.6-.4.8.5 1.6.5.8 1.4 1.6 1.4.8-1.1 1.6-1.1.8.5 1.6.5.8-.5 1.6-.5.8.8 1.6.8.8.2 1.6.2.8-.5 1.6-.5.8.6 1.6.6.8-1.2 1.6-1.2.8-.2 1.6-.2.8.5 1.6.5.8.8 1.6.8.8-.2 1.6-.2.8.5 1.6.5.8-1.8 1.6-1.8c.7 0 .8 1.1 1.4 1.3.9-.2 1.8-.4 2.7-.5.2-.4.4-.9.9-.9.8 0 .8.3 1.6.3h.2l1.2-.3c-.1-.2-.3-.4-.2-.7 0-.8-.4-.8-.4-1.6s.1-.8.1-1.6 1.7-.7 1.7-1.6c0-.8-1.4-.9-1.4-1.7 0-.2.1-.3.2-.4-10.4-3.7-34.5-7.1-81.7-10.1l.3 2.2-2.8-2.3c-5.8-.4-12-.7-18.5-1-24.8-1.3-51.4-1.6-76.6-1.3l4 4.2-9-4.2c-38.7.6-83.8 4.1-88.2 15.9 3.9.7 21.2 3.3 26.5 4.2z"/><path id="header-background-18_svg__XMLID_5393_" class="header-background-18_svg__st104" d="M1628.8 288.7l-3.3 3.5 1-3.1c-3.6.7-7.3 1.7-10 2.7-3.3 1.2-7.4 3.5-11.1 5.9l.6 1.7-2-.8c-5.2 3.6-9.4 7.4-8.5 9 1.3 2.4 12.4 2.7 22.1 0l.2-1.9 1.4 1.4c.5-.2 1.1-.4 1.6-.6 4.5-1.7 9.8-4.3 14-7.1l-2.6-.8 4.5-.5c3.7-2.7 6.2-5.3 6.1-7.4h.1s2.7-1.9 4.5-2.4l-.3-.7s-2.7.7-4.9 1.8c-1.6-1.8-7.3-1.7-13.4-.7z"/><path id="header-background-18_svg__XMLID_5392_" class="header-background-18_svg__st105" d="M1642.3 291.1v2.4l-.7-1.5c-1.1 1.5-2.1 3.1-2.8 4.4-.8 1.5-1.6 3.8-2.1 5.9l.8.4-1 .3c-.7 3.1-1 5.9-.2 6.2 1.3.5 5.5-3.2 8.2-7.4l-.6-.8 1 .1c.1-.2.3-.5.4-.7 1.1-2.2 2.2-4.9 2.8-7.3l-1.2.6 1.5-1.7c.5-2.2.5-4.1-.2-4.8s-.3-1.4-.7-.3c-1.2-.1-3.3 1.8-5.2 4.2z"/><path id="header-background-18_svg__XMLID_5391_" class="header-background-18_svg__st105" d="M1621.2 282.9l-2.1-3 .5 2.5c-2.7-.9-5.4-2.1-7.4-3.2-2.4-1.3-5.3-3.5-7.9-5.8l.7-1.3-1.6.4c-3.6-3.3-6.4-6.7-5.6-7.8 1.3-1.7 9.8-.7 17 2.4l-.1 1.5 1.2-.9 1.2.6c3.3 1.8 7 4.4 10 7l-2.1.3 3.4.9c2.5 2.4 4.2 4.8 3.9 6.3h.1s1.8 1.8 3.2 2.3l-.3.5s-2-.8-3.5-1.9c-1.6 1.3-6 .6-10.6-.8z"/><path id="header-background-18_svg__XMLID_5390_" class="header-background-18_svg__st104" d="M1635.1 283.4l-1.6-3.3.1 2.5c-2.5-1.4-5-2.9-6.8-4.3-2.1-1.6-4.7-4.2-6.9-6.9l.9-1.1-1.7.2c-3.1-3.9-5.2-7.6-4.3-8.6 1.5-1.5 9.8.8 16.4 5l-.3 1.4 1.4-.7c.4.3.7.5 1.1.8 3 2.3 6.3 5.4 8.8 8.4h-2.1l3.2 1.4c2.1 2.8 3.4 5.4 2.8 6.9h.1s1.5 2 2.8 2.8l-.4.5s-1.9-1.1-3.2-2.5c-1.8.9-6.1-.4-10.3-2.5z"/><path id="header-background-18_svg__XMLID_5389_" class="header-background-18_svg__st105" d="M1643.8 283v-1.9l-.5 1.2c-.9-1.2-1.6-2.4-2.2-3.4-.6-1.2-1.2-2.9-1.6-4.6l.6-.3-.8-.3c-.6-2.4-.7-4.6-.1-4.8 1-.4 4.3 2.5 6.4 5.8l-.5.6h.8l.3.6c.9 1.7 1.7 3.8 2.2 5.7l-1-.5 1.2 1.3c.4 1.7.4 3.2-.2 3.7s-.2 1.1-.5.2c-1 .1-2.6-1.4-4.1-3.3z"/><g id="header-background-18_svg__XMLID_5386_"><path id="header-background-18_svg__XMLID_5388_" class="header-background-18_svg__st107" d="M1428.4 295.2l18.9-2.4-10.4 3.3c12.2 1.1 25.9 2.1 41.4 2.9 31.4 1.6 60.4 1.5 85.3.4l10.4-4.7-3.3 4.4c44.1-2.3 73.5-7.5 77.3-10.3 0 0 .4-.4 8-1.7 0 0 .3-1.4-.2-1.8 0 0-.9.3-9.2.4-6.3-4.5-29.8-8.8-86.4-12.3l.3 2.2-2.8-2.3c-5.8-.4-12-.7-18.5-1-24.8-1.3-51.4-1.6-76.6-1.3l4 4.2-9-4.2c-57.9.9-88.3 5.7-88.3 11.1.1 2.2 1.3 7.1 59.1 13.1z"/><path id="header-background-18_svg__XMLID_5387_" class="header-background-18_svg__st104" d="M1647.3 287.4s-94.7-3.8-103.5-1.8c0 0 32.5 8.3 103.5 1.8z"/></g></g><g id="header-background-18_svg__XMLID_5365_"><path id="header-background-18_svg__XMLID_5374_" class="header-background-18_svg__st215" d="M1393.1 23.8c.4.2.6.6 1.2.6s.8-.7 1.2-1c.2 0 .4-.1.6-.1.6.2.7 1.1 1.4 1.1.8 0 .8-1.1 1.6-1.1s.8-.1 1.6-.1.8-.4 1.6-.4.8.1 1.6.1.8.3 1.6.3.8 1.1 1.6 1.1.8-.5 1.6-.5.8-1 1.6-1 .8.8 1.6.8.8-.3 1.6-.3.8.8 1.6.8h1.6c.8 0 .8-.5 1.6-.4.8 0 .8.4 1.6.4s.8-.1 1.6-.1.8-.4 1.6-.4.8-.2 1.6-.2.8-.8 1.6-.8.8 1.9 1.6 1.9.8-1.3 1.6-1.3.8 1.3 1.6 1.3.8-.1 1.6-.1.8-.4 1.6-.4.8.4 1.6.4.8-.1 1.6-.1.8-1.7 1.6-1.7.8 1.9 1.6 1.9.8-.6 1.6-.6.8-.1 1.6-.1.8.1 1.6.1.8-.9 1.6-.9.8-.1 1.6-.1.8.6 1.6.6.8.9 1.6.9h3.2c.8 0 .8-1.7 1.6-1.7s.8 1.7 1.6 1.7.8.2 1.6.2.8-1.9 1.6-1.9.8.1 1.6.1h1.6c.8 0 .8 1.2 1.6 1.2s.8-.6 1.6-.6.8.3 1.6.3.8-.9 1.6-.9.8.9 1.6.9.8.1 1.6.1.8-.2 1.6-.2.8-.3 1.6-.3.8 1.2 1.6 1.2.8-1.7 1.6-1.7.8.4 1.6.4.8 1.4 1.6 1.4h1.6c.8 0 .8.1 1.6.1s.8-1.3 1.6-1.3.8.6 1.6.6.8.3 1.6.3.8-.9 1.6-.9.8-.2 1.6-.2.8-.5 1.6-.5.8.4 1.6.4.8 1.1 1.6 1.1h1.6c.8 0 .8-.2 1.6-.2h1.6c.8 0 .8.4 1.6.4s.8-1.3 1.6-1.3.8 1.2 1.6 1.2.8-.6 1.6-.6.8-.8 1.6-.8.8 1.7 1.6 1.7.8-1.8 1.6-1.8.8 1.1 1.6 1.1.8-.3 1.6-.3h1.6c.8 0 .8.7 1.6.7s.8-.4 1.6-.4.8-.8 1.6-.8.8.7 1.6.7.8.5 1.6.5.8-.2 1.6-.2.8-.5 1.6-.5.8-.5 1.6-.5.8 1.2 1.6 1.2.8-.4 1.6-.4.8.8 1.6.8.8-1.9 1.6-1.9.8.4 1.6.4.8.2 1.6.2h3.2c.8 0 .8.7 1.6.7s.8-.8 1.6-.8.8-.2 1.6-.2.8 1.1 1.6 1.1.8.7 1.6.7.8-1.1 1.6-1.1.8-.9 1.6-.9.8 1.2 1.6 1.2.8.6 1.6.6.8-.5 1.6-.5.8-.9 1.6-.9.8 1.7 1.6 1.7.8-1.3 1.6-1.3.8.6 1.6.6.8-.8 1.6-.8.8-.3 1.6-.3.8 1.2 1.6 1.2.8.4 1.6.4.8-.5 1.6-.5.8-.8 1.6-.8.8.1 1.6.1.8.7 1.6.7.8-.6 1.6-.6.8 1.2 1.6 1.2.8-1.4 1.6-1.4.8.7 1.6.7.8.7 1.6.7.8-.9 1.6-.9.8.3 1.6.3.8-.3 1.6-.3.8-.1 1.6-.1.8.4 1.6.4.8.2 1.6.2.8-.5 1.6-.5.8-.1 1.6-.1.8 1.1 1.6 1.1.8.4 1.6.4.8-.5 1.6-.5.8-1.4 1.6-1.4.8 1.1 1.6 1.1.8-.5 1.6-.5.8.5 1.6.5.8-.8 1.6-.8.8-.2 1.6-.2.8.5 1.6.5.8-.6 1.6-.6.8 1.2 1.6 1.2.8.2 1.6.2.8-.5 1.6-.5.8-.8 1.6-.8.8.2 1.6.2.8-.5 1.6-.5.8 1.8 1.6 1.8c.7 0 .8-1.1 1.4-1.3.9.2 1.8.4 2.6.5.2.4.4.9.9.9.8 0 .8-.3 1.6-.3h.2l1.2.3c-.1.2-.3.4-.3.7 0 .8-.4.8-.4 1.6s.1.8.1 1.6 1.7.8 1.7 1.6-1.4.9-1.4 1.7c0 .2.1.3.2.4-10.4 3.6-34.6 6.8-81.8 9.3l.3-2.2-2.8 2.3c-5.8.3-12 .6-18.5.9-24.9 1.1-51.4 1.1-76.6.6l4-4.2-9 4.1c-38.7-.9-82.8-7.8-87.8-16.2 4 .2 21.1-2.7 26.4-3.6z"/><path id="header-background-18_svg__XMLID_5373_" class="header-background-18_svg__st104" d="M1629.9 24.6l-3.5-3.8 1.1 3.4c-3.9-.8-7.8-1.9-10.8-3.1-3.5-1.3-7.9-3.8-11.9-6.5l.7-1.9-2.1.9c-5.6-3.9-10-8.1-9.1-9.7 1.5-2.6 13.4-2.8 23.8.3l.1 2 1.5-1.5c.6.2 1.2.4 1.7.6 4.9 1.9 10.5 4.7 15 7.8l-2.8.9 4.9.6c4 2.9 6.7 5.8 6.5 8h.1s2.9 2.1 4.8 2.6l-.3.8s-2.9-.8-5.2-2c-1.8 1.8-8 1.7-14.5.6z"/><path id="header-background-18_svg__XMLID_5372_" class="header-background-18_svg__st105" d="M1642.8 19v-2.3l-.6 1.4c-1.1-1.4-2-3-2.7-4.3-.8-1.5-1.5-3.6-2-5.7l.8-.4-1-.3c-.7-3-.9-5.7-.1-6 1.3-.4 5.3 3.1 7.9 7.2l-.6.7h1c.1.2.3.5.4.7 1.1 2.1 2.1 4.7 2.7 7.1l-1.2-.6 1.4 1.6c.4 2.2.5 3.9-.2 4.6s-.3 1.3-.7.2c-1.2.4-3.2-1.5-5.1-3.9z"/><path id="header-background-18_svg__XMLID_5371_" class="header-background-18_svg__st105" d="M1622.4 28l-2.1 3 .5-2.5c-2.7.9-5.4 2.1-7.4 3.1-2.4 1.3-5.3 3.4-7.9 5.7l.7 1.3-1.6-.4c-3.7 3.3-6.4 6.7-5.6 7.8 1.3 1.7 9.8.8 17-2.3l-.1-1.5 1.2.9 1.2-.6c3.3-1.8 7.1-4.3 10-6.9l-2.1-.4 3.4-.8c2.6-2.4 4.2-4.7 3.9-6.3h.1s1.9-1.8 3.2-2.3l-.3-.5s-2 .8-3.5 1.9c-1.7-1.2-6.1-.5-10.6.8z"/><path id="header-background-18_svg__XMLID_5370_" class="header-background-18_svg__st104" d="M1636.2 27.7l-1.6 3.3.1-2.5c-2.6 1.3-5 2.9-6.9 4.3-2.2 1.6-4.7 4.2-6.9 6.8l.9 1.1-1.6-.2c-3.1 3.8-5.3 7.6-4.4 8.5 1.5 1.5 9.8-.7 16.4-4.9l-.3-1.4 1.4.7c.4-.3.7-.5 1.1-.8 3-2.3 6.3-5.4 8.9-8.3h-2.1l3.3-1.4c2.2-2.8 3.5-5.3 2.9-6.8h.1s1.6-2 2.8-2.7l-.4-.5s-1.9 1.1-3.2 2.4c-2-1-6.2.3-10.5 2.4z"/><path id="header-background-18_svg__XMLID_5369_" class="header-background-18_svg__st105" d="M1644.9 28.1V30l-.5-1.2c-.9 1.2-1.7 2.4-2.2 3.4-.6 1.2-1.2 2.9-1.7 4.6l.6.3-.8.3c-.6 2.4-.8 4.6-.1 4.8 1 .4 4.3-2.5 6.4-5.8l-.4-.6h.8l.3-.6c.9-1.7 1.7-3.8 2.2-5.7l-1 .4 1.2-1.3c.4-1.7.4-3.2-.2-3.7s-.2-1.1-.5-.2c-.9 0-2.6 1.5-4.1 3.4z"/><g id="header-background-18_svg__XMLID_5366_"><path id="header-background-18_svg__XMLID_5368_" class="header-background-18_svg__st107" d="M1429.7 14l18.9 2.6-10.4-3.3c12.2-1 26-1.9 41.4-2.6 31.4-1.3 60.5-.9 85.3.4l10.4 4.8-3.2-4.4c44.1 2.7 73.4 8.1 77.2 11 0 0 .4.4 8 1.8 0 0 .3 1.4-.2 1.8 0 0-.9-.3-9.2-.5-6.3 4.5-29.8 8.5-86.5 11.5l.3-2.2-2.8 2.3c-5.8.3-12 .6-18.5.9-24.9 1.1-51.4 1.1-76.6.6l4-4.2-9 4.1c-57.8-1.4-88.2-6.5-88.2-11.9 0-2.4 1.2-7.2 59.1-12.7z"/><path id="header-background-18_svg__XMLID_5367_" class="header-background-18_svg__st104" d="M1648.5 23.8s-94.7 2.9-103.5.9c0-.1 32.5-8.1 103.5-.9z"/></g></g></g></svg>