<?xml version="1.0" encoding="utf-8"?>
<!-- Generator: Adobe Illustrator 22.0.0, SVG Export Plug-In . SVG Version: 6.00 Build 0)  -->
<svg version="1.1" id="Layer_1" xmlns="http://www.w3.org/2000/svg" xmlns:xlink="http://www.w3.org/1999/xlink" x="0px" y="0px"
	 viewBox="0 0 215.6 280.2" style="enable-background:new 0 0 215.6 280.2;" xml:space="preserve">
<style type="text/css">
	.st0{fill:#FFFBF2;}
	.st1{fill:#F7F4DD;}
	.st2{fill:#593218;}
	.st3{opacity:0.51;fill:url(#);}
	.st4{fill:#565B21;}
	.st5{fill:#ABBF1A;}
	.st6{fill:#A0B21F;}
	.st7{fill:#4FB8B5;}
	.st8{fill:#F39100;}
	.st9{fill:#38A59E;}
	.st10{fill:#E73A2E;}
	.st11{fill:#E53212;}
	.st12{fill:#CA2718;}
	.st13{fill:#E57B08;}
	.st14{fill:#D5CDB0;}
	.st15{fill:#8F9B26;}
	.st16{fill:#268C87;}
	.st17{fill:#225B55;}
	.st18{fill:#28716A;}
	.st19{fill:#764119;}
	.st20{fill:#302015;}
	.st21{fill:#EA4E40;}
	.st22{fill:#FABA66;}
	.st23{fill:#91D0D4;}
	.st24{fill:#E37D08;}
	.st25{fill:#D06815;}
	.st26{fill:#F6A235;}
	.st27{fill:#F9C284;}
	.st28{fill:#F59A26;}
	.st29{fill:#C36317;}
	.st30{fill:#F8AD5C;}
	.st31{fill:#392215;}
	.st32{fill:#76411C;}
	.st33{fill:#743E18;}
	.st34{fill:#281B12;}
	.st35{fill:#8D9F27;}
	.st36{fill:#D2DB53;}
	.st37{fill:#5D6424;}
	.st38{fill:#2B9992;}
	.st39{fill:#77C6C4;}
	.st40{fill:#339C95;}
	.st41{fill:#1B675F;}
	.st42{fill:#C4B991;}
	.st43{fill:#3DA7A1;}
	.st44{fill:#41AAA4;}
	.st45{fill:#37988F;}
	.st46{fill:#70C4C3;}
	.st47{fill:#F9B050;}
	.st48{fill:#FABE77;}
	.st49{fill:#E2780B;}
	.st50{fill:#CE6716;}
	.st51{fill:none;stroke:#7F4014;stroke-width:4;}
	.st52{fill:none;stroke:#7F4014;stroke-width:3.1902;}
	.st53{fill:#92D0D2;}
	.st54{fill:#EA5345;}
	.st55{fill:#BB1E18;}
	.st56{opacity:0.6;fill:url(#);}
	.st57{fill:url(#);}
	.st58{fill:#492A17;}
	.st59{fill:#95A824;}
	.st60{opacity:0.7;fill:#E3DEC2;}
	.st61{fill:#E62E25;}
	.st62{fill:#E01D1C;}
	.st63{fill:#E0770D;}
	.st64{fill:#C86716;}
	.st65{fill:#FBC88D;}
	.st66{fill:#F1B261;}
	.st67{fill:#FFFFFF;}
	.st68{fill:none;stroke:#F39100;}
	.st69{fill:#5C3018;}
	.st70{fill:#26817A;}
	.st71{fill:#F7B695;}
	.st72{fill:none;stroke:#EE7370;stroke-width:2.0151;stroke-linecap:round;stroke-miterlimit:10;}
	.st73{fill:#CC2418;}
	.st74{fill:#DF8562;}
	.st75{fill:none;stroke:#593218;stroke-width:4.3735;stroke-linecap:round;stroke-miterlimit:10;}
	.st76{fill:#FAFAFB;}
	.st77{fill:#382B25;}
	.st78{fill:#5E463E;}
	.st79{fill:#DC750F;}
	.st80{fill:none;stroke:#7BC8C5;stroke-width:2.0151;stroke-linecap:round;stroke-miterlimit:10;}
	.st81{fill:#339993;}
	.st82{fill:#BB674B;}
	.st83{fill:none;stroke:#593218;stroke-width:1.9011;stroke-linecap:round;stroke-miterlimit:10;}
	.st84{fill:#341F15;}
	.st85{fill:none;stroke:#593218;stroke-width:1.1468;stroke-linecap:round;stroke-miterlimit:10;}
	.st86{fill:#398482;}
	.st87{fill:#45B8B4;}
	.st88{fill:#41ABA8;}
	.st89{fill:#3EA29F;}
	.st90{fill:#64605F;}
	.st91{opacity:0.2;fill:#4FB8B5;}
	.st92{opacity:0.16;fill:#1C481B;}
	.st93{fill:#495508;}
	.st94{fill:#3E4B04;}
	.st95{fill:#5E6C0D;}
	.st96{fill:#809114;}
	.st97{fill:#41ACA9;}
	.st98{fill:#3FA6A2;}
	.st99{fill:#58660C;}
	.st100{fill:#515F0A;}
	.st101{fill:#62710E;}
	.st102{fill:#54620B;}
	.st103{fill:#6E7D11;}
	.st104{fill:#22722E;}
	.st105{fill:#175823;}
	.st106{fill:#257E34;}
	.st107{fill:#278939;}
	.st108{fill:#E1DBC9;}
	.st109{fill:#C3BFB9;}
	.st110{fill:#F4EEE6;}
	.st111{fill:#E9E5E3;}
	.st112{fill:#C2D131;}
	.st113{fill:#97A918;}
	.st114{fill:#EDE1CD;}
	.st115{fill:#D98300;}
	.st116{fill:#C47800;}
	.st117{fill:#371A03;}
	.st118{fill:#834428;}
	.st119{fill:#934C2E;}
	.st120{fill:#814327;}
	.st121{fill:none;stroke:#4FB8B5;stroke-width:8.9839;stroke-linecap:round;}
	.st122{fill:#3B3734;}
	.st123{fill:#299137;}
	.st124{fill:#3F1F08;}
	.st125{opacity:0.87;fill:url(#);}
	.st126{fill:#2B948E;}
	.st127{fill:#2B7673;}
	.st128{fill:#358C89;}
	.st129{fill:#307F7C;}
	.st130{fill:#3FA7A4;}
	.st131{fill:#3B9B98;}
	.st132{fill:#D58100;}
	.st133{fill:#F6A544;}
	.st134{fill:#48250E;}
	.st135{fill:#F9FAFB;}
	.st136{fill:#B72C0A;}
	.st137{fill:#368D8A;}
	.st138{fill:#C9D644;}
	.st139{fill:#3B4703;}
	.st140{fill:#6F7F11;}
	.st141{fill:#616F0E;}
	.st142{fill:#53600B;}
	.st143{fill:#773E23;}
	.st144{fill:#BA2C0A;}
	.st145{fill:none;stroke:#7BC8C5;stroke-width:1.3449;stroke-linecap:round;stroke-miterlimit:10;}
	.st146{fill:none;stroke:#593218;stroke-width:2.919;stroke-linecap:round;stroke-miterlimit:10;}
	.st147{fill:#45230C;}
	.st148{fill:#2C1300;}
	.st149{fill:#EFE8C9;}
	.st150{fill:#308983;}
	.st151{fill:#69371D;}
	.st152{fill:#942503;}
	.st153{fill:#DD8500;}
	.st154{fill:#D14D96;}
	.st155{fill:#A41F69;}
	.st156{fill:#A79A62;}
	.st157{fill:#781A4A;}
	.st158{fill:#CC3A8D;}
	.st159{fill:#E67B07;}
	.st160{fill:#D46814;}
	.st161{fill:#E2760B;}
	.st162{fill:#E9E4C3;}
	.st163{fill:#E5DEBA;}
	.st164{fill:#F8EEDF;}
	.st165{fill:#CBD342;}
	.st166{fill:#439997;}
	.st167{fill:#CA7B00;}
	.st168{fill:#C02D0C;}
	.st169{fill:#8E9E1C;}
	.st170{fill:#206C2C;}
	.st171{fill:#1B5F26;}
	.st172{fill:#A1B21E;}
	.st173{fill:#8FA117;}
	.st174{fill:#DBDF5A;}
	.st175{fill:#328380;}
	.st176{fill:#1E6729;}
	.st177{fill:#257D34;}
	.st178{fill:#47240D;}
	.st179{fill:none;stroke:#C07842;stroke-width:2.3031;stroke-linecap:round;stroke-miterlimit:10;}
	.st180{fill:#C5D32D;}
	.st181{fill:#32712F;}
	.st182{fill:#2E6A2C;}
	.st183{fill:#88C05F;}
	.st184{fill:#278532;}
	.st185{fill:#9CAF21;}
	.st186{fill:#4EA535;}
	.st187{fill:#225221;}
	.st188{fill:#301500;}
	.st189{fill:#68361D;}
	.st190{fill:none;stroke:#C07842;stroke-width:1.9011;stroke-linecap:round;stroke-miterlimit:10;}
	.st191{fill:#2C662A;}
	.st192{fill:#CFCDC6;}
	.st193{fill:#E3E0D8;}
	.st194{fill:#A25935;}
	.st195{fill:none;stroke:#683C11;stroke-width:1.9011;stroke-linecap:round;stroke-miterlimit:10;}
	.st196{fill:#319D97;}
	.st197{fill:#814828;}
	.st198{fill:#1A4519;}
	.st199{fill:#265A24;}
	.st200{fill:#A9B632;}
	.st201{fill:none;stroke:#FFFBF2;stroke-width:2;stroke-linecap:round;stroke-miterlimit:10;}
	.st202{fill:#7B8B1A;}
	.st203{fill:#AD5D52;}
	.st204{fill:#BC6459;}
	.st205{fill:none;stroke:#432918;stroke-width:1.729;stroke-linecap:round;stroke-miterlimit:10;}
	.st206{fill:#F0867E;}
	.st207{fill:#A2574D;}
	.st208{fill:#CBBBA0;}
	.st209{fill:#F2E0D7;}
	.st210{fill:none;stroke:#A48A7B;stroke-linecap:round;stroke-miterlimit:10;}
	.st211{fill:none;stroke:#432918;stroke-width:2;stroke-linecap:round;stroke-miterlimit:10;}
	.st212{fill:#499932;}
	.st213{fill:#81921B;}
	.st214{opacity:0.11;fill:#175823;}
	.st215{fill:#337976;}
	.st216{fill:#A12806;}
	.st217{fill:#D0300E;}
</style>
<g id="XMLID_5354_">
	<g>
		<g>
			<path id="XMLID_5404_" class="st69" d="M201.7,131.8c0-0.8-0.9-0.8-0.9-1.6c0-0.8,0.3-0.8,0.2-1.6c0-0.8,0-0.8-0.1-1.6
				c0-0.8-0.9-0.8-1-1.6c0-0.8,1.1-0.8,1-1.6c0-0.8,0.2-0.8,0.1-1.6c0-0.8-0.7-0.8-0.8-1.6c0-0.8,0.4-0.8,0.3-1.6
				c0-0.8-0.5-0.8-0.5-1.6c0-0.8,0.8-0.8,0.8-1.6c0-0.8-1.4-0.8-1.5-1.6c0-0.8-1.1-0.8-1.1-1.6c0-0.8,2.6-0.9,2.6-1.7
				c0-0.8-0.7-0.8-0.7-1.6c0-0.8-1.7-0.8-1.8-1.6c0-0.8,1.6-0.8,1.6-1.7c0-0.8-1.9-0.8-1.9-1.6c0-0.8,1.7-0.9,1.6-1.7
				c0-0.8-0.1-0.8-0.1-1.6c0-0.8-0.7-0.8-0.7-1.6c0-0.8-1-0.8-1-1.6c0-0.8,0.1-0.8,0.1-1.6c0-0.8,1-0.8,0.9-1.6
				c0-0.8-0.7-0.8-0.8-1.6c0-0.8-0.7-0.8-0.8-1.6c0-0.8,1.8-0.9,1.7-1.7c0-0.8,0.4-0.8,0.4-1.6c0-0.8-0.4-0.8-0.4-1.6
				c0-0.8-1.7-0.8-1.7-1.6c0-0.8,1.5-0.8,1.5-1.7c0-0.8-1.4-0.8-1.5-1.6c0-0.8,0.8-0.8,0.8-1.6c0-0.8,1.1-0.8,1.1-1.6
				c0-0.8-2.4-0.8-2.5-1.6c0-0.8,1.2-0.8,1.1-1.6c0-0.8-0.7-0.8-0.7-1.6c0-0.8,1.4-0.8,1.4-1.7c0-0.8-0.2-0.8-0.3-1.6
				c0-0.8,0.8-0.8,0.8-1.6c0-0.8-1.2-0.8-1.2-1.6c0-0.8-0.1-0.8-0.1-1.6c0-0.8,0.7-0.8,0.6-1.6c0-0.8,0.3-0.8,0.3-1.6
				c0-0.8-0.1-0.8-0.2-1.6c0-0.8-0.7-0.8-0.7-1.6c0-0.8-1.3-0.8-1.4-1.6c0-0.8,1.6-0.8,1.6-1.7c0-0.8-1.8-0.8-1.8-1.6
				c0-0.8,1.4-0.8,1.3-1.6c0-0.8-0.2-0.8-0.3-1.6c0-0.8,0.5-0.8,0.5-1.6c0-0.8-0.4-0.8-0.4-1.6c0-0.8-1.4-0.8-1.5-1.6
				c0-0.8,2.2-0.9,2.2-1.7c0-0.8-1.7-0.8-1.8-1.6c0-0.8,1-0.8,0.9-1.6c0-0.8,0.4-0.8,0.4-1.6c0-0.8-2.4-0.8-2.4-1.6
				c0-0.8,1.6-0.8,1.6-1.7c0-0.8-1.5-0.8-1.5-1.6c0-0.8,1.6-0.8,1.6-1.7c0-0.8,0.4-0.8,0.3-1.6c0-0.8-1.8-0.8-1.8-1.6
				c0-0.8,0.3-0.8,0.2-1.6c0-0.8,0.5-0.8,0.5-1.6c0-0.8,0.3-0.8,0.3-1.6c0-0.8-0.5-0.8-0.6-1.6c0-0.8,1.2-0.8,1.2-1.6
				c0-0.8-0.2-0.8-0.3-1.6c0-0.8,0-0.8,0-1.6c0-0.8-0.1-0.8-0.2-1.6c0-0.8-1.7-0.8-1.7-1.6c0-0.8,1.8-0.9,1.8-1.7
				c0-0.8-0.5-0.8-0.5-1.6c0-0.8,0.8-0.8,0.7-1.6c0-0.8,0.2-1.7-0.6-2.2c-0.8-0.6-1.9-0.3-3-0.3c-1.1,0-1.1,0.3-2.2,0.3
				c-1.1,0-1.1,0.5-2.2,0.5c-1.1,0-1.1-0.4-2.2-0.4c-1.1,0-1.1,0.9-2.2,0.9c-1.1,0-1.1-0.2-2.2-0.2c-1.1,0-1.1,0-2.2,0
				c-1.1,0-1.1,0.7-2.2,0.7c-1.1,0-1.1-1.2-2.2-1.2c-1.1,0-1.1,1.2-2.2,1.2c-1.1,0-1.1-1.1-2.2-1.1c-1.1,0-1.1-0.1-2.2-0.1
				c-1.1,0-1.1-0.4-2.2-0.4c-1.1,0-1.1,0.1-2.2,0.1c-1.1,0-1.1,0.3-2.2,0.3c-1.1,0-1.1,1.1-2.2,1.1c-1.1,0-1.1-0.5-2.2-0.5
				c-1.1,0-1.1-1-2.2-1c-1.1,0-1.1,0.8-2.2,0.8c-1.1,0-1.1-0.3-2.2-0.3c-1.1,0-1.1,0.8-2.2,0.8c-1.1,0-1.1,0-2.2,0
				c-1.1,0-1.1-0.5-2.2-0.5c-1.1,0-1.1,0.4-2.2,0.4c-1.1,0-1.1-0.1-2.2-0.1c-1.1,0-1.1-0.4-2.2-0.4c-1.1,0-1.1-0.2-2.2-0.2
				c-1.1,0-1.1-0.9-2.2-0.9c-1.1,0-1.1,1.9-2.2,1.9c-1.1,0-1.1-1.3-2.2-1.3c-1.1,0-1.1,1.3-2.2,1.3c-1.1,0-1.1-0.1-2.2-0.1
				c-1.1,0-1.1-0.4-2.2-0.4c-1.1,0-1.1,0.4-2.2,0.4c-1.1,0-1.1-0.1-2.2-0.1c-1.1,0-1.1-1.7-2.2-1.7c-1.1,0-1.1,1.9-2.2,1.9
				c-1.1,0-1.1-0.6-2.2-0.6c-1.1,0-1.1-0.1-2.2-0.1c-1.1,0-1.1,0.1-2.2,0.1c-1.1,0-1.1-0.9-2.2-0.9c-1.1,0-1.1-0.1-2.2-0.1
				c-1.1,0-1.1,0.6-2.2,0.6c-1.1,0-1.1,0.9-2.2,0.9c-1.1,0-1.1,0-2.2,0c-1.1,0-1.1,0-2.2,0c-1.1,0-1.1-1.8-2.2-1.8
				c-1.1,0-1.1,1.7-2.2,1.7c-1.1,0-1.1,0.2-2.2,0.2c-1.1,0-1.1-1.9-2.2-1.9c-1.1,0-1.1,0.1-2.2,0.1c-1.1,0-1.1,0-2.2,0
				c-1.1,0-1.1,1.1-2.2,1.1c-1.1,0-1.1-0.6-2.2-0.6c-1.1,0-1.1,0.3-2.2,0.3c-1.1,0-1.1-0.9-2.2-0.9c-1.1,0-1.1,0.8-2.2,0.8
				c-1.1,0-1.1,0.1-2.2,0.1c-1.1,0-1.1-0.2-2.2-0.2c-1.1,0-1.1-0.4-2.2-0.4c-1.1,0-1.1,1.2-2.2,1.2c-1.1,0-1.1-1.7-2.2-1.7
				c-1.1,0-1.1,0.4-2.2,0.4c-1.1,0-1.1,1.4-2.2,1.4c-1.1,0-1.1,0-2.2,0c-1.1,0-1.1,0.1-2.2,0.1c-1.1,0-1.1-1.3-2.2-1.3
				c-1.1,0-1.1,0.6-2.2,0.6c-1.1,0-1.1,0.3-2.2,0.3c-1.1,0-1.1-1-2.2-1c-1.1,0-1.1-0.2-2.2-0.2c-1.1,0-1.1-0.5-2.2-0.5
				c-1.1,0-1.1,0.4-2.2,0.4c-1.1,0-1.1,1.1-2.2,1.1c-1.1,0-1.1,0-2.2,0c-1.1,0-1.1-0.2-2.2-0.2c-1.1,0-1.1,0-2.2,0
				c-0.6,0-0.9,0.1-1.2,0.2v261.8c0.9,0,1,0.2,2,0.2c1.1,0,1.1,0.4,2.2,0.4c1.1,0,1.1-1.5,2.2-1.5c1.1,0,1.1,1.6,2.2,1.7
				c1.1,0,1.1-1.1,2.2-1.1c1.1,0,1.1,0.3,2.2,0.3c1.1,0,1.1,0.9,2.2,0.9c1.1,0,1.1-1.2,2.2-1.2c1.1,0,1.1,1.1,2.2,1.2
				c1.1,0,1.1-1.4,2.2-1.4c1.1,0,1.1-0.3,2.2-0.3c1.1,0,1.1,1.2,2.2,1.2c1.1,0,1.1-0.9,2.2-0.9c1.1,0,1.1,1.2,2.2,1.2
				c1.1,0,1.1-0.7,2.2-0.7c1.1,0,1.1-0.7,2.2-0.7c1.1,0,1.1,0.7,2.2,0.7c1.1,0,1.1,0.7,2.2,0.7c1.1,0,1.1-1,2.2-1
				c1.1,0,1.1,0.9,2.2,0.9c1.1,0,1.1,0.3,2.2,0.3c1.1,0,1.1-0.2,2.2-0.2c1.1,0,1.1,0.1,2.2,0.1c1.1,0,1.1-1.5,2.2-1.5
				c1.1,0,1.1,0.2,2.2,0.2c1.1,0,1.1-0.2,2.2-0.2c1.1,0,1.1,0.4,2.2,0.4c1.1,0,1.1-0.5,2.2-0.5c1.1,0,1.1,1.7,2.2,1.7
				c1.1,0,1.1-0.6,2.2-0.6c1.1,0,1.1,0.2,2.2,0.2c1.1,0,1.1-1,2.2-1c1.1,0,1.1-0.1,2.2-0.1c1.1,0,1.1,1.5,2.2,1.5
				c1.1,0,1.1-1.2,2.2-1.2c1.1,0,1.1-0.4,2.2-0.4c1.1,0,1.1,0,2.2,0c1.1,0,1.1,1,2.2,1c1.1,0,1.1-0.4,2.2-0.4c1.1,0,1.1-0.7,2.2-0.7
				c1.1,0,1.1,0,2.2,0c1.1,0,1.1,0.9,2.2,0.9c1.1,0,1.1,1,2.2,1c1.1,0,1.1-1.8,2.2-1.8c1.1,0,1.1-0.1,2.2-0.1c1.1,0,1.1,1.7,2.2,1.7
				c1.1,0,1.1-1.2,2.2-1.2c1.1,0,1.1,1.5,2.2,1.5c1.1,0,1.1-1,2.2-1c1.1,0,1.1-0.3,2.2-0.3c1.1,0,1.1,1,2.2,1c1.1,0,1.1-1.2,2.2-1.2
				c1.1,0,1.1,0.4,2.2,0.4c1.1,0,1.1-0.3,2.2-0.3c1.1,0,1.1,0.7,2.2,0.7c1.1,0,1.1-0.6,2.2-0.6c1.1,0,1.1,1.4,2.2,1.4
				c1.1,0,1.1-0.2,2.2-0.2c1.1,0,1.1-1.6,2.2-1.6c1.1,0,1.1,0.7,2.2,0.7c1.1,0,1.1,0.7,2.2,0.7c1.1,0,1.1-1.3,2.2-1.3
				c1.1,0,1.1,1.7,2.2,1.7c1.1,0,1.1-1.6,2.2-1.6c1.1,0,1.1,1.4,2.2,1.4c1.1,0,1.1,0,2.2,0c1.1,0,1.1-1.2,2.2-1.2
				c1.1,0,1.1,0.4,2.2,0.4c1.1,0,1.1-0.8,2.2-0.8c1.1,0,1.1,1.1,2.2,1.1c1.1,0,1.1-0.2,2.2-0.2c1.1,0,1.1-0.2,2.2-0.1
				c1.1,0,1.1,0.9,2.2,0.9c1.1,0,1.1-0.1,2.2-0.1c1.1,0,1.1-0.7,2.2-0.7c1.1,0,1.1-0.9,2.2-0.9c1.1,0,1.7,1.8,2.5,1.3
				c0.8-0.6-1-0.7-1.4-1.7c-0.3-0.8,0.9-1,0.9-1.8c0-0.8-0.4-0.8-0.3-1.6c0-0.8,0.3-0.8,0.3-1.6c0-0.8,0.4-0.8,0.5-1.6
				c0-0.8,0.6-0.8,0.7-1.6c0-0.8,0.3-0.8,0.3-1.6c0-0.8,0-0.8,0-1.6c0-0.8-1.8-0.9-1.8-1.7c0-0.8,0.7-0.8,0.7-1.6c0-0.8,0-0.8,0-1.6
				c0-0.8,0.9-0.8,1-1.6c0-0.8,0-0.8,0-1.6c0-0.8,0-0.8,0.1-1.6c0-0.8,0.5-0.8,0.6-1.6c0-0.8-0.2-0.8-0.1-1.6c0-0.8-1.2-0.8-1.2-1.7
				c0-0.8,1-0.8,1-1.6c0-0.8,1.1-0.8,1.1-1.6c0-0.8-1.7-0.9-1.6-1.7c0-0.8,0.5-0.8,0.6-1.6c0-0.8-0.5-0.8-0.4-1.6
				c0-0.8,1.8-0.8,1.9-1.6c0-0.8-1.4-0.9-1.3-1.7c0-0.8,0.7-0.8,0.8-1.6c0-0.8,0.7-0.8,0.7-1.6c0-0.8-1-0.8-1-1.7
				c0-0.8-0.7-0.8-0.7-1.6c0-0.8,0.6-0.8,0.7-1.6c0-0.8,0-0.8,0-1.6c0-0.8,1.1-0.8,1.2-1.6c0-0.8-2-0.9-2-1.7c0-0.8,0.2-0.8,0.2-1.6
				c0-0.8,0.5-0.8,0.5-1.6c0-0.8,0.6-0.8,0.7-1.6c0-0.8,0-0.8,0.1-1.6c0-0.8,0-0.8,0-1.6c0-0.8,0.7-0.8,0.7-1.6
				c0-0.8-1.4-0.9-1.4-1.7c0-0.8,2.2-0.7,2.3-1.6c0-0.8-1.7-0.9-1.7-1.7c0-0.8,0.7-0.8,0.7-1.6c0-0.8,0.5-0.8,0.5-1.6
				c0-0.8-1.6-0.9-1.5-1.7c0-0.8,2.1-0.7,2.2-1.6c0-0.8-2.2-0.9-2.1-1.7c0-0.8,1.8-0.8,1.9-1.6c0-0.8-1.7-0.9-1.6-1.7
				c0-0.8,2.1-0.7,2.1-1.6c0-0.8,0.1-0.8,0.1-1.6c0-0.8-1.2-0.8-1.1-1.7c0-0.8,1.3-0.8,1.3-1.6c0-0.8-0.6-0.8-0.5-1.6
				c0-0.8,0.6-0.8,0.6-1.6c0-0.8-1.2-0.8-1.1-1.7c0-0.8-0.6-0.8-0.5-1.6c0-0.8,1.5-0.8,1.6-1.6c0-0.8-0.6-0.8-0.6-1.6
				c0-0.8,0.5-0.8,0.6-1.6c0-0.8,0.6-0.8,0.6-1.6c0-0.8,0.3-0.8,0.3-1.6c0-0.8-0.5-0.8-0.4-1.6c0-0.8,0.8-0.8,0.9-1.6
				c0-0.8-2.4-0.9-2.4-1.7c0-0.8,0.5-0.8,0.5-1.6c0-0.8,0.3-0.8,0.3-1.6c0-0.8,0.6-0.8,0.7-1.6c0-0.8,0.5-0.8,0.6-1.6
				c0-0.8,0.4-0.8,0.4-1.6c0-0.8-0.7-0.8-0.6-1.6c0-0.8,1.3-0.8,1.3-1.6c0-0.8-1.1-0.8-1.1-1.7c0-0.8-0.4-0.8-0.4-1.6
				c0-0.8,0.3-0.8,0.3-1.6c0-0.8-0.9-0.8-0.9-1.6c0-0.8,1.5-0.8,1.6-1.6c0-0.8-0.7-0.8-0.7-1.6c0-0.8,0.5-0.8,0.5-1.6
				c0-0.8-0.2-0.8-0.2-1.6c0-0.8,0.8-0.8,0.8-1.6c0-0.8-0.5-0.8-0.5-1.6c0-0.8,0.1-0.8,0.1-1.6c0-0.8,0.4-0.8,0.4-1.6
				c0-0.8,0-0.8,0-1.6c0-0.8-1.6-0.8-1.6-1.6C199.6,132.6,201.7,132.6,201.7,131.8z"/>
		</g>
		<path id="XMLID_5364_" class="st117" d="M201.7,132.2c0-0.7-0.9-0.7-0.9-1.5c0-0.7,0.3-0.8,0.2-1.5c0-0.7,0-0.7-0.1-1.5
			c0-0.7-0.9-0.7-1-1.5c0-0.7,1.1-0.8,1-1.5c0-0.7,0.2-0.8,0.1-1.5c0-0.7-0.7-0.7-0.8-1.5c0-0.7,0.4-0.8,0.3-1.5
			c0-0.7-0.5-0.7-0.5-1.5c0-0.7,0.8-0.8,0.8-1.5c0-0.7-1.4-0.7-1.5-1.5c0-0.7-1.1-0.7-1.1-1.5c0-0.7,2.6-0.8,2.6-1.5
			c0-0.7-0.7-0.7-0.7-1.5c0-0.7-1.7-0.7-1.8-1.5c0-0.7,1.6-0.8,1.6-1.5c0-0.7-1.9-0.7-1.9-1.4c0-0.7,1.7-0.8,1.6-1.5
			c0-0.7-0.1-0.7-0.1-1.5c0-0.7-0.7-0.7-0.7-1.5c0-0.7-1-0.7-1-1.5c0-0.7,0.1-0.7,0.1-1.5c0-0.7,1-0.8,0.9-1.5
			c0-0.7-0.7-0.7-0.8-1.5c0-0.7-0.7-0.7-0.8-1.5c0-0.7,1.8-0.8,1.7-1.5c0-0.7,0.4-0.8,0.4-1.5c0-0.7-0.4-0.7-0.4-1.5
			c0-0.7-1.7-0.7-1.7-1.5c0-0.7,1.5-0.8,1.5-1.5c0-0.7-1.4-0.7-1.5-1.5c0-0.7,0.8-0.8,0.8-1.5c0-0.7,1.1-0.8,1.1-1.5
			c0-0.7-2.4-0.7-2.5-1.4c0-0.7,1.2-0.8,1.1-1.5c0-0.7-0.7-0.7-0.7-1.5c0-0.7,1.4-0.8,1.4-1.5c0-0.7-0.2-0.7-0.3-1.5
			c0-0.7,0.8-0.8,0.8-1.5c0-0.7-1.2-0.7-1.2-1.5c0-0.7-0.1-0.7-0.1-1.5c0-0.7,0.7-0.8,0.6-1.5c0-0.7,0.3-0.8,0.3-1.5
			c0-0.7-0.1-0.7-0.2-1.5c0-0.7-0.7-0.7-0.7-1.5c0-0.7-1.3-0.7-1.4-1.5c0-0.7,1.6-0.8,1.6-1.5c0-0.7-1.8-0.7-1.8-1.5
			c0-0.7,1.4-0.8,1.3-1.5c0-0.7-0.2-0.7-0.3-1.5c0-0.7,0.5-0.8,0.5-1.5c0-0.7-0.4-0.7-0.4-1.5c0-0.7-1.4-0.7-1.5-1.5
			c0-0.7,2.2-0.8,2.2-1.5c0-0.7-1.7-0.7-1.8-1.5c0-0.7,1-0.8,0.9-1.5c0-0.7,0.4-0.8,0.4-1.5c0-0.7-2.4-0.7-2.4-1.4
			c0-0.7,1.6-0.8,1.6-1.5c0-0.7-1.5-0.7-1.5-1.5c0-0.7,1.6-0.8,1.6-1.5c0-0.7,0.4-0.8,0.3-1.5c0-0.7-1.8-0.7-1.8-1.5
			c0-0.7,0.3-0.8,0.2-1.5c0-0.7,0.5-0.8,0.5-1.5c0-0.7,0.3-0.8,0.3-1.5c0-0.7-0.5-0.7-0.6-1.5c0-0.7,1.2-0.8,1.2-1.5
			c0-0.7-0.2-0.7-0.3-1.5c0-0.7,0-0.7,0-1.5c0-0.7-0.1-0.7-0.2-1.5c0-0.7-1.7-0.7-1.7-1.4c0-0.7,1.8-0.8,1.8-1.5
			c0-0.7-0.5-0.7-0.5-1.5c0-0.7,0.8-0.8,0.7-1.5c0-0.7,0.2-1.5-0.6-2c-0.8-0.5-1.9-0.3-3-0.3c-1.1,0-1.1,0.3-2.2,0.2
			c-1.1,0-1.1,0.4-2.2,0.4c-1.1,0-1.1-0.4-2.2-0.4c-1.1,0-1.1,0.9-2.2,0.9c-1.1,0-1.1-0.2-2.2-0.2c-1.1,0-1.1,0-2.2,0
			c-1.1,0-1.1,0.7-2.2,0.7c-1.1,0-1.1-1.1-2.2-1.1c-1.1,0-1.1,1.1-2.2,1.1c-1.1,0-1.1-1-2.2-1c-1.1,0-1.1-0.1-2.2-0.1
			c-1.1,0-1.1-0.3-2.2-0.3c-1.1,0-1.1,0.1-2.2,0.1c-1.1,0-1.1,0.3-2.2,0.3c-1.1,0-1.1,1-2.2,1c-1.1,0-1.1-0.5-2.2-0.5
			c-1.1,0-1.1-0.9-2.2-0.9c-1.1,0-1.1,0.7-2.2,0.7c-1.1,0-1.1-0.3-2.2-0.3c-1.1,0-1.1,0.7-2.2,0.7c-1.1,0-1.1,0-2.2,0
			c-1.1,0-1.1-0.4-2.2-0.4c-1.1,0-1.1,0.4-2.2,0.4c-1.1,0-1.1-0.1-2.2-0.1c-1.1,0-1.1-0.3-2.2-0.4c-1.1,0-1.1-0.2-2.2-0.2
			c-1.1,0-1.1-0.8-2.2-0.8c-1.1,0-1.1,1.7-2.2,1.7c-1.1,0-1.1-1.2-2.2-1.2c-1.1,0-1.1,1.2-2.2,1.2c-1.1,0-1.1-0.1-2.2-0.1
			c-1.1,0-1.1-0.4-2.2-0.4c-1.1,0-1.1,0.4-2.2,0.4c-1.1,0-1.1-0.1-2.2-0.1c-1.1,0-1.1-1.5-2.2-1.6c-1.1,0-1.1,1.8-2.2,1.8
			c-1.1,0-1.1-0.6-2.2-0.6c-1.1,0-1.1-0.1-2.2-0.1c-1.1,0-1.1,0.1-2.2,0.1c-1.1,0-1.1-0.8-2.2-0.8c-1.1,0-1.1-0.1-2.2-0.1
			c-1.1,0-1.1,0.5-2.2,0.5c-1.1,0-1.1,0.8-2.2,0.8c-1.1,0-1.1,0-2.2,0c-1.1,0-1.1,0-2.2,0c-1.1,0-1.1-1.6-2.2-1.6
			c-1.1,0-1.1,1.6-2.2,1.6c-1.1,0-1.1,0.2-2.2,0.2c-1.1,0-1.1-1.7-2.2-1.7c-1.1,0-1.1,0.1-2.2,0.1c-1.1,0-1.1,0-2.2,0
			C80.1,18,80.1,19,79,19c-1.1,0-1.1-0.6-2.2-0.6c-1.1,0-1.1,0.3-2.2,0.3c-1.1,0-1.1-0.8-2.2-0.8c-1.1,0-1.1,0.8-2.2,0.8
			c-1.1,0-1.1,0.1-2.2,0.1c-1.1,0-1.1-0.2-2.2-0.2c-1.1,0-1.1-0.3-2.2-0.3c-1.1,0-1.1,1.1-2.2,1.1c-1.1,0-1.1-1.5-2.2-1.5
			c-1.1,0-1.1,0.3-2.2,0.3c-1.1,0-1.1,1.3-2.2,1.3c-1.1,0-1.1,0-2.2,0c-1.1,0-1.1,0.1-2.2,0.1c-1.1,0-1.1-1.2-2.2-1.2
			c-1.1,0-1.1,0.6-2.2,0.6c-1.1,0-1.1,0.2-2.2,0.2c-1.1,0-1.1-0.9-2.2-0.9c-1.1,0-1.1-0.2-2.2-0.2c-1.1,0-1.1-0.5-2.2-0.5
			c-1.1,0-1.1,0.4-2.2,0.4c-1.1,0-1.1,1-2.2,1c-1.1,0-1.1,0-2.2,0c-1.1,0-1.1-0.2-2.2-0.2c-1.1,0-1.1,0-2.2,0
			c-0.6,0-0.9,0.1-1.2,0.2V260c0.9,0,1,0.2,2,0.2c1.1,0,1.1,0.3,2.2,0.3c1.1,0,1.1-1.4,2.2-1.4c1.1,0,1.1,1.5,2.2,1.5
			c1.1,0,1.1-1,2.2-1c1.1,0,1.1,0.2,2.2,0.2c1.1,0,1.1,0.8,2.2,0.8c1.1,0,1.1-1.1,2.2-1.1c1.1,0,1.1,1.1,2.2,1.1
			c1.1,0,1.1-1.3,2.2-1.3c1.1,0,1.1-0.3,2.2-0.3c1.1,0,1.1,1.1,2.2,1.1c1.1,0,1.1-0.8,2.2-0.8c1.1,0,1.1,1.1,2.2,1.1
			c1.1,0,1.1-0.6,2.2-0.6c1.1,0,1.1-0.7,2.2-0.7c1.1,0,1.1,0.6,2.2,0.6c1.1,0,1.1,0.6,2.2,0.6c1.1,0,1.1-0.9,2.2-0.9
			c1.1,0,1.1,0.8,2.2,0.8c1.1,0,1.1,0.3,2.2,0.3c1.1,0,1.1-0.2,2.2-0.2c1.1,0,1.1,0.1,2.2,0.1c1.1,0,1.1-1.4,2.2-1.4
			c1.1,0,1.1,0.2,2.2,0.2c1.1,0,1.1-0.2,2.2-0.2c1.1,0,1.1,0.3,2.2,0.3c1.1,0,1.1-0.4,2.2-0.4c1.1,0,1.1,1.5,2.2,1.5
			c1.1,0,1.1-0.6,2.2-0.6c1.1,0,1.1,0.2,2.2,0.2c1.1,0,1.1-1,2.2-1c1.1,0,1.1-0.1,2.2,0c1.1,0,1.1,1.3,2.2,1.4
			c1.1,0,1.1-1.1,2.2-1.1c1.1,0,1.1-0.3,2.2-0.3c1.1,0,1.1,0,2.2,0c1.1,0,1.1,1,2.2,1c1.1,0,1.1-0.4,2.2-0.4c1.1,0,1.1-0.7,2.2-0.7
			c1.1,0,1.1,0,2.2,0c1.1,0,1.1,0.8,2.2,0.8c1.1,0,1.1,0.9,2.2,0.9c1.1,0,1.1-1.7,2.2-1.7c1.1,0,1.1-0.1,2.2-0.1
			c1.1,0,1.1,1.6,2.2,1.6c1.1,0,1.1-1.1,2.2-1.1c1.1,0,1.1,1.3,2.2,1.3c1.1,0,1.1-0.9,2.2-0.9c1.1,0,1.1-0.3,2.2-0.3
			c1.1,0,1.1,0.9,2.2,0.9c1.1,0,1.1-1.1,2.2-1.1c1.1,0,1.1,0.4,2.2,0.4c1.1,0,1.1-0.3,2.2-0.3c1.1,0,1.1,0.6,2.2,0.6
			c1.1,0,1.1-0.6,2.2-0.6c1.1,0,1.1,1.3,2.2,1.3c1.1,0,1.1-0.2,2.2-0.2c1.1,0,1.1-1.5,2.2-1.5c1.1,0,1.1,0.6,2.2,0.6
			c1.1,0,1.1,0.6,2.2,0.6c1.1,0,1.1-1.2,2.2-1.2c1.1,0,1.1,1.6,2.2,1.6c1.1,0,1.1-1.5,2.2-1.5c1.1,0,1.1,1.3,2.2,1.3
			c1.1,0,1.1,0,2.2,0c1.1,0,1.1-1.1,2.2-1.1c1.1,0,1.1,0.4,2.2,0.4c1.1,0,1.1-0.8,2.2-0.8c1.1,0,1.1,1.1,2.2,1.1
			c1.1,0,1.1-0.2,2.2-0.2c1.1,0,1.1-0.1,2.2-0.1c1.1,0,1.1,0.9,2.2,0.9c1.1,0,1.1-0.1,2.2-0.1c1.1,0,1.1-0.7,2.2-0.7
			c1.1,0,1.1-0.8,2.2-0.8c1.1,0,1.7,1.7,2.5,1.2c0.8-0.5-1-0.7-1.4-1.6c-0.3-0.7,0.9-0.9,0.9-1.7c0-0.7-0.4-0.8-0.3-1.5
			c0-0.7,0.3-0.7,0.3-1.5c0-0.7,0.4-0.7,0.5-1.5c0-0.7,0.6-0.7,0.7-1.5c0-0.7,0.3-0.7,0.3-1.5c0-0.7,0-0.7,0-1.5
			c0-0.7-1.8-0.8-1.8-1.5c0-0.7,0.7-0.7,0.7-1.5c0-0.7,0-0.7,0-1.5c0-0.7,0.9-0.7,1-1.5c0-0.7,0-0.7,0-1.5c0-0.7,0-0.7,0.1-1.5
			c0-0.7,0.5-0.7,0.6-1.5c0-0.7-0.2-0.8-0.1-1.5c0-0.7-1.2-0.8-1.2-1.5c0-0.7,1-0.7,1-1.5c0-0.7,1.1-0.7,1.1-1.5
			c0-0.7-1.7-0.8-1.6-1.5c0-0.7,0.5-0.7,0.6-1.5c0-0.7-0.5-0.8-0.4-1.5c0-0.7,1.8-0.7,1.9-1.4c0-0.7-1.4-0.8-1.3-1.5
			c0-0.7,0.7-0.7,0.8-1.5c0-0.7,0.7-0.7,0.7-1.5c0-0.7-1-0.8-1-1.5c0-0.7-0.7-0.8-0.7-1.5c0-0.7,0.6-0.7,0.7-1.5c0-0.7,0-0.7,0-1.5
			c0-0.7,1.1-0.7,1.2-1.5c0-0.7-2-0.8-2-1.5c0-0.7,0.2-0.7,0.2-1.5c0-0.7,0.5-0.7,0.5-1.5c0-0.7,0.6-0.7,0.7-1.5
			c0-0.7,0-0.7,0.1-1.5c0-0.7,0-0.7,0-1.5c0-0.7,0.7-0.7,0.7-1.5c0-0.7-1.4-0.8-1.4-1.5c0-0.7,2.2-0.7,2.3-1.4
			c0-0.7-1.7-0.8-1.7-1.5c0-0.7,0.7-0.7,0.7-1.5c0-0.7,0.5-0.7,0.5-1.5c0-0.7-1.6-0.8-1.5-1.5c0-0.7,2.1-0.7,2.2-1.4
			c0-0.7-2.2-0.8-2.1-1.5c0-0.7,1.8-0.7,1.9-1.4c0-0.7-1.7-0.8-1.6-1.5c0-0.7,2.1-0.7,2.1-1.4c0-0.7,0.1-0.7,0.1-1.5
			c0-0.7-1.2-0.8-1.1-1.5c0-0.7,1.3-0.7,1.3-1.5c0-0.7-0.6-0.8-0.5-1.5c0-0.7,0.6-0.7,0.6-1.5c0-0.7-1.2-0.8-1.1-1.5
			c0-0.7-0.6-0.8-0.5-1.5c0-0.7,1.5-0.7,1.6-1.4c0-0.7-0.6-0.8-0.6-1.5c0-0.7,0.5-0.7,0.6-1.5c0-0.7,0.6-0.7,0.6-1.5
			c0-0.7,0.3-0.7,0.3-1.5c0-0.7-0.5-0.8-0.4-1.5c0-0.7,0.8-0.7,0.9-1.5c0-0.7-2.4-0.8-2.4-1.6c0-0.7,0.5-0.7,0.5-1.5
			c0-0.7,0.3-0.7,0.3-1.5c0-0.7,0.6-0.7,0.7-1.5c0-0.7,0.5-0.7,0.6-1.5c0-0.7,0.4-0.7,0.4-1.5c0-0.7-0.7-0.8-0.6-1.5
			c0-0.7,1.3-0.7,1.3-1.5c0-0.7-1.1-0.8-1.1-1.5c0-0.7-0.4-0.8-0.4-1.5c0-0.7,0.3-0.7,0.3-1.5c0-0.7-0.9-0.8-0.9-1.5
			c0-0.7,1.5-0.7,1.6-1.4c0-0.7-0.7-0.8-0.7-1.5c0-0.7,0.5-0.7,0.5-1.5c0-0.7-0.2-0.8-0.2-1.5c0-0.7,0.8-0.7,0.8-1.5
			c0-0.7-0.5-0.8-0.5-1.5c0-0.7,0.1-0.7,0.1-1.5c0-0.7,0.4-0.8,0.4-1.5c0-0.7,0-0.7,0-1.5c0-0.7-1.6-0.7-1.6-1.5
			C199.6,133,201.7,132.9,201.7,132.2z"/>
		<g id="XMLID_5353_">
			<path id="XMLID_5363_" class="st119" d="M189.5,26.9l-3.4,3.1l3-1c-0.7,3.5-1.7,7-2.7,9.6c-1.2,3.1-3.4,7.1-5.8,10.6l-1.7-0.6
				l0.8,1.9l0,0c-3.5,5-7.2,8.9-8.7,8.1c-2.3-1.3-2.5-12,0.2-21.3l1.8-0.1l-1.4-1.4c0.2-0.5,0.4-1,0.6-1.5c1.7-4.4,4.2-9.4,6.9-13.4
				l0.8,2.5l0.5-4.3c2.6-3.5,5.2-5.9,7.2-5.8c0-0.1,0-0.1,0-0.1s1.9-2.6,2.3-4.3l0.7,0.3c0,0-0.7,2.6-1.8,4.7
				C190.7,15.6,190.5,21.1,189.5,26.9z"/>
			<path id="XMLID_5362_" class="st117" d="M187.3,13.9l-2.3,0l1.4,0.6c-1.4,1.1-3,2-4.2,2.7c-1.5,0.8-3.6,1.5-5.7,2l-0.4-0.8
				l-0.3,1l0,0c-3,0.7-5.7,0.9-6,0.1c-0.4-1.3,3.1-5.3,7.2-7.8l0.7,0.6l0-1c0.2-0.1,0.5-0.3,0.7-0.4c2.1-1.1,4.7-2.1,7.1-2.7
				l-0.6,1.2l1.6-1.4c2.2-0.4,3.9-0.5,4.6,0.2c0,0,0,0,0,0s1.3,0.3,0.2,0.7C191.5,10,189.6,12,187.3,13.9z"/>
			<path id="XMLID_5361_" class="st117" d="M195.1,34.1l2.9,2l-2.4-0.5c0.9,2.6,2,5.2,3,7.1c1.2,2.3,3.3,5.1,5.4,7.6l1.2-0.6
				l-0.4,1.5l0,0c3.2,3.5,6.4,6.1,7.4,5.4c1.7-1.2,0.8-9.4-2.2-16.2l-1.4,0.1l0.9-1.2c-0.2-0.4-0.4-0.8-0.6-1.1
				c-1.7-3.2-4.1-6.8-6.6-9.6l-0.3,2l-0.8-3.3c-2.3-2.5-4.5-4.1-6-3.8c0,0,0-0.1,0-0.1s-1.7-1.8-2.2-3l-0.5,0.3c0,0,0.8,1.9,1.8,3.4
				C193.1,25.5,193.7,29.7,195.1,34.1z"/>
			<path id="XMLID_5360_" class="st119" d="M194.7,20.8l3.2,1.6l-2.4-0.1c1.3,2.4,2.7,4.8,4.1,6.6c1.6,2.1,4,4.5,6.5,6.6l1.1-0.8
				l-0.2,1.6l0,0c3.7,3,7.3,5.1,8.2,4.2c1.5-1.5-0.7-9.4-4.7-15.7l-1.4,0.3l0.7-1.3c-0.2-0.3-0.5-0.7-0.7-1c-2.2-2.9-5.1-6-8-8.5
				l0,2l-1.3-3.1c-2.7-2.1-5.1-3.3-6.5-2.8c0,0,0-0.1,0-0.1s-1.9-1.5-2.6-2.7L190.1,8c0,0,1.1,1.8,2.3,3.1
				C191.4,12.7,192.7,16.7,194.7,20.8z"/>
			<path id="XMLID_5359_" class="st69" d="M195.1,12.5l1.8,0l-1.1,0.5c1.1,0.8,2.3,1.6,3.3,2.1c1.2,0.6,2.8,1.2,4.4,1.6l0.3-0.6
				l0.3,0.8l0,0c2.3,0.6,4.4,0.7,4.6,0.1c0.3-1-2.4-4.1-5.5-6.1l-0.6,0.4l0-0.7c-0.2-0.1-0.4-0.2-0.6-0.3c-1.6-0.8-3.6-1.6-5.5-2.1
				L197,9l-1.3-1.1c-1.7-0.4-3-0.4-3.6,0.2c0,0,0,0,0,0s-1,0.2-0.2,0.5C191.9,9.5,193.3,11.1,195.1,12.5z"/>
			<g id="XMLID_5356_">
				<g>
					<path id="XMLID_5358_" class="st69" d="M181.6,218.4l2.5-18.1l-3.2,9.9c-1-11.7-1.8-24.8-2.4-39.6c-1.3-30.1-0.9-57.8,0.4-81.6
						l4.6-9.9l-4.2,3.1c2.6-42.2,7.8-70.3,10.5-73.9l0,0c0,0,0.9-3.8,1.5-8.4c0,0,2.1,0,2.2,2c0,0,0,3.2-0.6,7.8l0,0
						c4.3,6.1,8.1,28.6,11,82.7l-2.1-0.3l2.2,2.7c0.3,5.6,0.6,11.4,0.8,17.7c1,23.8,1.1,49.2,0.6,73.3l-4-3.8l3.9,8.6
						c-1.3,55.3-6.2,84.4-11.4,84.4C191.5,275,186.9,273.8,181.6,218.4z"/>
				</g>
				<path id="XMLID_5357_" class="st120" d="M191,9.1c0,0,2.8,90.6,0.8,99.1C191.8,108.2,184.1,77,191,9.1z"/>
			</g>
		</g>
		<g id="XMLID_5375_">
			<path id="XMLID_5408_" class="st119" d="M26,253.1l3.5-3.1l-3,0.9c0.8-3.5,1.9-7,2.9-9.7c1.3-3.1,3.6-7.1,6.1-10.6l1.7,0.7
				l-0.8-1.9l0,0c3.7-5,7.5-8.9,9-8c2.3,1.4,2.3,12.2-0.7,21.5l-1.8,0.1l1.3,1.4c-0.2,0.5-0.4,1-0.6,1.5c-1.8,4.4-4.5,9.4-7.3,13.4
				l-0.7-2.6l-0.6,4.4c-2.7,3.5-5.4,5.9-7.3,5.7c0,0.1,0,0.1,0,0.1s-2,2.6-2.4,4.3l-0.7-0.3c0,0,0.8-2.6,1.9-4.7
				C24.7,264.5,24.9,258.9,26,253.1z"/>
			<path id="XMLID_5407_" class="st117" d="M28,266.3l2.3,0l-1.4-0.7c1.5-1,3-2,4.3-2.6c1.5-0.7,3.7-1.4,5.8-1.9l0.4,0.8l0.4-1l0,0
				c3-0.6,5.8-0.8,6,0c0.4,1.3-3.2,5.3-7.4,7.8l-0.7-0.6l0,1c-0.2,0.1-0.5,0.3-0.7,0.4c-2.1,1-4.8,2-7.2,2.6l0.6-1.2l-1.7,1.4
				c-2.2,0.4-4,0.4-4.6-0.3c0,0,0,0,0,0s-1.3-0.3-0.2-0.7C23.7,270,25.7,268.1,28,266.3z"/>
			<path id="XMLID_5406_" class="st117" d="M20.6,245.7l-2.9-2.1l2.4,0.5c-0.8-2.7-1.9-5.3-2.9-7.2c-1.2-2.3-3.2-5.2-5.3-7.7
				l-1.2,0.6l0.5-1.5l0,0c-3.1-3.6-6.3-6.3-7.4-5.6c-1.7,1.2-1,9.5,1.9,16.4l1.4,0l-0.9,1.2c0.2,0.4,0.4,0.8,0.6,1.1
				c1.7,3.2,4,6.9,6.4,9.8l0.4-2l0.8,3.3c2.3,2.5,4.5,4.2,6,3.9c0,0,0,0.1,0,0.1s1.7,1.8,2.1,3.1l0.5-0.3c0,0-0.8-2-1.8-3.5
				C22.4,254.4,21.9,250.1,20.6,245.7z"/>
			<path id="XMLID_5405_" class="st119" d="M20.7,259.1l-3.2-1.7l2.4,0.1c-1.2-2.5-2.7-4.9-4-6.7c-1.5-2.1-4-4.6-6.5-6.8l-1.1,0.8
				l0.2-1.6l0,0c-3.6-3.1-7.2-5.3-8.2-4.4c-1.5,1.4,0.5,9.5,4.4,15.9l1.4-0.3l-0.7,1.3c0.2,0.4,0.5,0.7,0.7,1
				c2.1,2.9,5.1,6.2,7.9,8.7l0.1-2l1.3,3.2c2.7,2.1,5.1,3.4,6.5,2.9c0,0,0,0.1,0,0.1s1.9,1.6,2.6,2.8l0.5-0.4c0,0-1.1-1.8-2.3-3.1
				C23.8,267.4,22.6,263.2,20.7,259.1z"/>
			<path id="XMLID_5400_" class="st69" d="M20.1,267.5l-1.8-0.1l1.1-0.5c-1.1-0.9-2.3-1.7-3.3-2.2c-1.2-0.6-2.8-1.2-4.4-1.7
				l-0.3,0.6l-0.2-0.8l0,0c-2.3-0.6-4.4-0.8-4.7-0.2c-0.4,1,2.3,4.2,5.5,6.3l0.6-0.4l-0.1,0.7c0.2,0.1,0.4,0.2,0.6,0.3
				c1.6,0.9,3.6,1.7,5.5,2.3l-0.4-0.9l1.3,1.2c1.7,0.4,3.1,0.5,3.6-0.1c0,0,0,0,0,0s1.1-0.2,0.2-0.5C23.3,270.6,21.9,269,20.1,267.5
				z"/>
			<g id="XMLID_5384_">
				<g>
					<path id="XMLID_5399_" class="st69" d="M37.9,60L35,78.2l3.4-10c0.8,11.8,1.3,25.1,1.7,40c0.7,30.4-0.3,58.4-2,82.3l-4.9,9.9
						l4.3-3c-3.4,42.5-9.2,70.7-12,74.3l0,0c0,0-1,3.8-1.7,8.4c0,0-2.1-0.1-2.2-2c0,0,0.1-3.3,0.8-7.9l0,0c-4.2-6.2-7.6-29-9.5-83.7
						l2.1,0.4l-2.2-2.8c-0.2-5.6-0.3-11.6-0.5-17.8c-0.6-24-0.1-49.7,0.9-73.9l4,4l-3.8-8.8c2.5-55.8,8-85,13.1-84.9
						C29,2.7,33.7,4.1,37.9,60z"/>
				</g>
				<path id="XMLID_5397_" class="st120" d="M24.3,271c0,0-1-91.5,1.1-100C25.4,171,32.5,202.6,24.3,271z"/>
			</g>
		</g>
	</g>
</g>
</svg>
