<svg version="1.1" id="indicator_svg__Layer_1" xmlns="http://www.w3.org/2000/svg" x="0" y="0" viewBox="0 0 215.6 280.2" xml:space="preserve"><style>.indicator_svg__st69{fill:#5c3018}.indicator_svg__st117{fill:#371a03}.indicator_svg__st119{fill:#934c2e}.indicator_svg__st120{fill:#814327}</style><g id="indicator_svg__XMLID_5354_"><path id="indicator_svg__XMLID_5404_" class="indicator_svg__st69" d="M201.7 131.8c0-.8-.9-.8-.9-1.6s.3-.8.2-1.6c0-.8 0-.8-.1-1.6 0-.8-.9-.8-1-1.6 0-.8 1.1-.8 1-1.6 0-.8.2-.8.1-1.6 0-.8-.7-.8-.8-1.6 0-.8.4-.8.3-1.6 0-.8-.5-.8-.5-1.6s.8-.8.8-1.6-1.4-.8-1.5-1.6c0-.8-1.1-.8-1.1-1.6s2.6-.9 2.6-1.7c0-.8-.7-.8-.7-1.6s-1.7-.8-1.8-1.6c0-.8 1.6-.8 1.6-1.7 0-.8-1.9-.8-1.9-1.6s1.7-.9 1.6-1.7c0-.8-.1-.8-.1-1.6s-.7-.8-.7-1.6-1-.8-1-1.6.1-.8.1-1.6 1-.8.9-1.6c0-.8-.7-.8-.8-1.6 0-.8-.7-.8-.8-1.6 0-.8 1.8-.9 1.7-1.7 0-.8.4-.8.4-1.6s-.4-.8-.4-1.6-1.7-.8-1.7-1.6 1.5-.8 1.5-1.7c0-.8-1.4-.8-1.5-1.6 0-.8.8-.8.8-1.6s1.1-.8 1.1-1.6-2.4-.8-2.5-1.6c0-.8 1.2-.8 1.1-1.6 0-.8-.7-.8-.7-1.6s1.4-.8 1.4-1.7c0-.8-.2-.8-.3-1.6 0-.8.8-.8.8-1.6s-1.2-.8-1.2-1.6-.1-.8-.1-1.6.7-.8.6-1.6c0-.8.3-.8.3-1.6s-.1-.8-.2-1.6c0-.8-.7-.8-.7-1.6s-1.3-.8-1.4-1.6c0-.8 1.6-.8 1.6-1.7 0-.8-1.8-.8-1.8-1.6s1.4-.8 1.3-1.6c0-.8-.2-.8-.3-1.6 0-.8.5-.8.5-1.6s-.4-.8-.4-1.6-1.4-.8-1.5-1.6c0-.8 2.2-.9 2.2-1.7 0-.8-1.7-.8-1.8-1.6 0-.8 1-.8.9-1.6 0-.8.4-.8.4-1.6s-2.4-.8-2.4-1.6 1.6-.8 1.6-1.7c0-.8-1.5-.8-1.5-1.6s1.6-.8 1.6-1.7c0-.8.4-.8.3-1.6 0-.8-1.8-.8-1.8-1.6s.3-.8.2-1.6c0-.8.5-.8.5-1.6s.3-.8.3-1.6-.5-.8-.6-1.6c0-.8 1.2-.8 1.2-1.6s-.2-.8-.3-1.6v-1.6c0-.8-.1-.8-.2-1.6 0-.8-1.7-.8-1.7-1.6s1.8-.9 1.8-1.7c0-.8-.5-.8-.5-1.6s.8-.8.7-1.6c0-.8.2-1.7-.6-2.2-.8-.6-1.9-.3-3-.3s-1.1.3-2.2.3-1.1.5-2.2.5-1.1-.4-2.2-.4-1.1.9-2.2.9-1.1-.2-2.2-.2h-2.2c-1.1 0-1.1.7-2.2.7s-1.1-1.2-2.2-1.2-1.1 1.2-2.2 1.2-1.1-1.1-2.2-1.1-1.1-.1-2.2-.1-1.1-.4-2.2-.4-1.1.1-2.2.1-1.1.3-2.2.3-1.1 1.1-2.2 1.1-1.1-.5-2.2-.5-1.1-1-2.2-1-1.1.8-2.2.8-1.1-.3-2.2-.3-1.1.8-2.2.8h-2.2c-1.1 0-1.1-.5-2.2-.5s-1.1.4-2.2.4-1.1-.1-2.2-.1-1.1-.4-2.2-.4-1.1-.2-2.2-.2-1.1-.9-2.2-.9-1.1 1.9-2.2 1.9-1.1-1.3-2.2-1.3-1.1 1.3-2.2 1.3-1.1-.1-2.2-.1-1.1-.4-2.2-.4-1.1.4-2.2.4-1.1-.1-2.2-.1S117 8 115.9 8s-1.1 1.9-2.2 1.9-1.1-.6-2.2-.6-1.1-.1-2.2-.1-1.1.1-2.2.1-1.1-.9-2.2-.9-1.1-.1-2.2-.1-1.1.6-2.2.6-1.1.9-2.2.9h-4.4c-1.1 0-1.1-1.8-2.2-1.8s-1.1 1.7-2.2 1.7-1.1.2-2.2.2S86.2 8 85.1 8s-1.1.1-2.2.1h-2.2c-1.1 0-1.1 1.1-2.2 1.1s-1.1-.6-2.2-.6-1.1.3-2.2.3S73 8 71.9 8s-1.1.8-2.2.8-1.1.1-2.2.1-1.1-.2-2.2-.2-1.1-.4-2.2-.4-1.1 1.2-2.2 1.2-1.1-1.7-2.2-1.7-1.1.4-2.2.4-1.1 1.4-2.2 1.4h-2.2c-1.1 0-1.1.1-2.2.1s-1.1-1.3-2.2-1.3-1.1.6-2.2.6-1.1.3-2.2.3-1.1-1-2.2-1-1.1-.2-2.2-.2-1.1-.5-2.2-.5-1.1.4-2.2.4-1.1 1.1-2.2 1.1h-2.2c-1.1 0-1.1-.2-2.2-.2h-2.2c-.6 0-.9.1-1.2.2v261.8c.9 0 1 .2 2 .2 1.1 0 1.1.4 2.2.4s1.1-1.5 2.2-1.5 1.1 1.6 2.2 1.7c1.1 0 1.1-1.1 2.2-1.1s1.1.3 2.2.3 1.1.9 2.2.9 1.1-1.2 2.2-1.2 1.1 1.1 2.2 1.2c1.1 0 1.1-1.4 2.2-1.4s1.1-.3 2.2-.3 1.1 1.2 2.2 1.2 1.1-.9 2.2-.9 1.1 1.2 2.2 1.2 1.1-.7 2.2-.7 1.1-.7 2.2-.7 1.1.7 2.2.7 1.1.7 2.2.7 1.1-1 2.2-1 1.1.9 2.2.9 1.1.3 2.2.3 1.1-.2 2.2-.2 1.1.1 2.2.1 1.1-1.5 2.2-1.5 1.1.2 2.2.2 1.1-.2 2.2-.2 1.1.4 2.2.4 1.1-.5 2.2-.5 1.1 1.7 2.2 1.7 1.1-.6 2.2-.6 1.1.2 2.2.2 1.1-1 2.2-1 1.1-.1 2.2-.1 1.1 1.5 2.2 1.5 1.1-1.2 2.2-1.2 1.1-.4 2.2-.4h2.2c1.1 0 1.1 1 2.2 1s1.1-.4 2.2-.4 1.1-.7 2.2-.7h2.2c1.1 0 1.1.9 2.2.9s1.1 1 2.2 1 1.1-1.8 2.2-1.8 1.1-.1 2.2-.1 1.1 1.7 2.2 1.7 1.1-1.2 2.2-1.2 1.1 1.5 2.2 1.5 1.1-1 2.2-1 1.1-.3 2.2-.3 1.1 1 2.2 1 1.1-1.2 2.2-1.2 1.1.4 2.2.4 1.1-.3 2.2-.3 1.1.7 2.2.7 1.1-.6 2.2-.6 1.1 1.4 2.2 1.4 1.1-.2 2.2-.2 1.1-1.6 2.2-1.6 1.1.7 2.2.7 1.1.7 2.2.7 1.1-1.3 2.2-1.3 1.1 1.7 2.2 1.7 1.1-1.6 2.2-1.6 1.1 1.4 2.2 1.4h2.2c1.1 0 1.1-1.2 2.2-1.2s1.1.4 2.2.4 1.1-.8 2.2-.8 1.1 1.1 2.2 1.1 1.1-.2 2.2-.2 1.1-.2 2.2-.1c1.1 0 1.1.9 2.2.9s1.1-.1 2.2-.1 1.1-.7 2.2-.7 1.1-.9 2.2-.9 1.7 1.8 2.5 1.3c.8-.6-1-.7-1.4-1.7-.3-.8.9-1 .9-1.8s-.4-.8-.3-1.6c0-.8.3-.8.3-1.6s.4-.8.5-1.6c0-.8.6-.8.7-1.6 0-.8.3-.8.3-1.6v-1.6c0-.8-1.8-.9-1.8-1.7 0-.8.7-.8.7-1.6v-1.6c0-.8.9-.8 1-1.6v-1.6c0-.8 0-.8.1-1.6 0-.8.5-.8.6-1.6 0-.8-.2-.8-.1-1.6 0-.8-1.2-.8-1.2-1.7 0-.8 1-.8 1-1.6s1.1-.8 1.1-1.6-1.7-.9-1.6-1.7c0-.8.5-.8.6-1.6 0-.8-.5-.8-.4-1.6 0-.8 1.8-.8 1.9-1.6 0-.8-1.4-.9-1.3-1.7 0-.8.7-.8.8-1.6 0-.8.7-.8.7-1.6s-1-.8-1-1.7c0-.8-.7-.8-.7-1.6s.6-.8.7-1.6v-1.6c0-.8 1.1-.8 1.2-1.6 0-.8-2-.9-2-1.7 0-.8.2-.8.2-1.6s.5-.8.5-1.6.6-.8.7-1.6c0-.8 0-.8.1-1.6v-1.6c0-.8.7-.8.7-1.6s-1.4-.9-1.4-1.7c0-.8 2.2-.7 2.3-1.6 0-.8-1.7-.9-1.7-1.7 0-.8.7-.8.7-1.6s.5-.8.5-1.6-1.6-.9-1.5-1.7c0-.8 2.1-.7 2.2-1.6 0-.8-2.2-.9-2.1-1.7 0-.8 1.8-.8 1.9-1.6 0-.8-1.7-.9-1.6-1.7 0-.8 2.1-.7 2.1-1.6 0-.8.1-.8.1-1.6s-1.2-.8-1.1-1.7c0-.8 1.3-.8 1.3-1.6s-.6-.8-.5-1.6c0-.8.6-.8.6-1.6s-1.2-.8-1.1-1.7c0-.8-.6-.8-.5-1.6 0-.8 1.5-.8 1.6-1.6 0-.8-.6-.8-.6-1.6s.5-.8.6-1.6c0-.8.6-.8.6-1.6s.3-.8.3-1.6-.5-.8-.4-1.6c0-.8.8-.8.9-1.6 0-.8-2.4-.9-2.4-1.7 0-.8.5-.8.5-1.6s.3-.8.3-1.6.6-.8.7-1.6c0-.8.5-.8.6-1.6 0-.8.4-.8.4-1.6s-.7-.8-.6-1.6c0-.8 1.3-.8 1.3-1.6s-1.1-.8-1.1-1.7c0-.8-.4-.8-.4-1.6s.3-.8.3-1.6-.9-.8-.9-1.6 1.5-.8 1.6-1.6c0-.8-.7-.8-.7-1.6s.5-.8.5-1.6-.2-.8-.2-1.6.8-.8.8-1.6-.5-.8-.5-1.6.1-.8.1-1.6.4-.8.4-1.6v-1.6c0-.8-1.6-.8-1.6-1.6-.2-1.3 1.9-1.3 1.9-2.1z"/><path id="indicator_svg__XMLID_5364_" class="indicator_svg__st117" d="M201.7 132.2c0-.7-.9-.7-.9-1.5 0-.7.3-.8.2-1.5 0-.7 0-.7-.1-1.5 0-.7-.9-.7-1-1.5 0-.7 1.1-.8 1-1.5 0-.7.2-.8.1-1.5 0-.7-.7-.7-.8-1.5 0-.7.4-.8.3-1.5 0-.7-.5-.7-.5-1.5 0-.7.8-.8.8-1.5s-1.4-.7-1.5-1.5c0-.7-1.1-.7-1.1-1.5 0-.7 2.6-.8 2.6-1.5s-.7-.7-.7-1.5c0-.7-1.7-.7-1.8-1.5 0-.7 1.6-.8 1.6-1.5s-1.9-.7-1.9-1.4 1.7-.8 1.6-1.5c0-.7-.1-.7-.1-1.5 0-.7-.7-.7-.7-1.5 0-.7-1-.7-1-1.5 0-.7.1-.7.1-1.5 0-.7 1-.8.9-1.5 0-.7-.7-.7-.8-1.5 0-.7-.7-.7-.8-1.5 0-.7 1.8-.8 1.7-1.5 0-.7.4-.8.4-1.5s-.4-.7-.4-1.5c0-.7-1.7-.7-1.7-1.5 0-.7 1.5-.8 1.5-1.5s-1.4-.7-1.5-1.5c0-.7.8-.8.8-1.5s1.1-.8 1.1-1.5-2.4-.7-2.5-1.4c0-.7 1.2-.8 1.1-1.5 0-.7-.7-.7-.7-1.5 0-.7 1.4-.8 1.4-1.5s-.2-.7-.3-1.5c0-.7.8-.8.8-1.5s-1.2-.7-1.2-1.5c0-.7-.1-.7-.1-1.5 0-.7.7-.8.6-1.5 0-.7.3-.8.3-1.5s-.1-.7-.2-1.5c0-.7-.7-.7-.7-1.5 0-.7-1.3-.7-1.4-1.5 0-.7 1.6-.8 1.6-1.5s-1.8-.7-1.8-1.5c0-.7 1.4-.8 1.3-1.5 0-.7-.2-.7-.3-1.5 0-.7.5-.8.5-1.5s-.4-.7-.4-1.5c0-.7-1.4-.7-1.5-1.5 0-.7 2.2-.8 2.2-1.5s-1.7-.7-1.8-1.5c0-.7 1-.8.9-1.5 0-.7.4-.8.4-1.5s-2.4-.7-2.4-1.4 1.6-.8 1.6-1.5-1.5-.7-1.5-1.5c0-.7 1.6-.8 1.6-1.5s.4-.8.3-1.5c0-.7-1.8-.7-1.8-1.5 0-.7.3-.8.2-1.5 0-.7.5-.8.5-1.5s.3-.8.3-1.5-.5-.7-.6-1.5c0-.7 1.2-.8 1.2-1.5s-.2-.7-.3-1.5v-1.5c0-.7-.1-.7-.2-1.5 0-.7-1.7-.7-1.7-1.4s1.8-.8 1.8-1.5-.5-.7-.5-1.5c0-.7.8-.8.7-1.5 0-.7.2-1.5-.6-2s-1.9-.3-3-.3-1.1.3-2.2.2c-1.1 0-1.1.4-2.2.4s-1.1-.4-2.2-.4-1.1.9-2.2.9-1.1-.2-2.2-.2h-2.2c-1.1 0-1.1.7-2.2.7s-1.1-1.1-2.2-1.1-1.1 1.1-2.2 1.1-1.1-1-2.2-1-1.1-.1-2.2-.1-1.1-.3-2.2-.3-1.1.1-2.2.1-1.1.3-2.2.3-1.1 1-2.2 1-1.1-.5-2.2-.5-1.1-.9-2.2-.9-1.1.7-2.2.7-1.1-.3-2.2-.3-1.1.7-2.2.7h-2.2c-1.1 0-1.1-.4-2.2-.4s-1.1.4-2.2.4-1.1-.1-2.2-.1-1.1-.3-2.2-.4c-1.1 0-1.1-.2-2.2-.2s-1.1-.8-2.2-.8-1.1 1.7-2.2 1.7-1.1-1.2-2.2-1.2-1.1 1.2-2.2 1.2-1.1-.1-2.2-.1-1.1-.4-2.2-.4-1.1.4-2.2.4-1.1-.1-2.2-.1-1.1-1.5-2.2-1.6c-1.1 0-1.1 1.8-2.2 1.8s-1.1-.6-2.2-.6-1.1-.1-2.2-.1-1.1.1-2.2.1-1.1-.8-2.2-.8-1.1-.1-2.2-.1-1.1.5-2.2.5-1.1.8-2.2.8h-4.4c-1.1 0-1.1-1.6-2.2-1.6s-1.1 1.6-2.2 1.6-1.1.2-2.2.2-1.1-1.7-2.2-1.7-1.1.1-2.2.1h-2.2c-.6.3-.6 1.3-1.7 1.3s-1.1-.6-2.2-.6-1.1.3-2.2.3-1.1-.8-2.2-.8-1.1.8-2.2.8-1.1.1-2.2.1-1.1-.2-2.2-.2-1.1-.3-2.2-.3-1.1 1.1-2.2 1.1-1.1-1.5-2.2-1.5-1.1.3-2.2.3-1.1 1.3-2.2 1.3h-2.2c-1.1 0-1.1.1-2.2.1s-1.1-1.2-2.2-1.2-1.1.6-2.2.6-1.1.2-2.2.2-1.1-.9-2.2-.9-1.1-.2-2.2-.2-1.1-.5-2.2-.5-1.1.4-2.2.4-1.1 1-2.2 1h-2.2c-1.1 0-1.1-.2-2.2-.2h-2.2c-.6 0-.9.1-1.2.2v241c.9 0 1 .2 2 .2 1.1 0 1.1.3 2.2.3s1.1-1.4 2.2-1.4 1.1 1.5 2.2 1.5 1.1-1 2.2-1 1.1.2 2.2.2 1.1.8 2.2.8 1.1-1.1 2.2-1.1 1.1 1.1 2.2 1.1 1.1-1.3 2.2-1.3 1.1-.3 2.2-.3 1.1 1.1 2.2 1.1 1.1-.8 2.2-.8 1.1 1.1 2.2 1.1 1.1-.6 2.2-.6 1.1-.7 2.2-.7 1.1.6 2.2.6 1.1.6 2.2.6 1.1-.9 2.2-.9 1.1.8 2.2.8 1.1.3 2.2.3 1.1-.2 2.2-.2 1.1.1 2.2.1 1.1-1.4 2.2-1.4 1.1.2 2.2.2 1.1-.2 2.2-.2 1.1.3 2.2.3 1.1-.4 2.2-.4 1.1 1.5 2.2 1.5 1.1-.6 2.2-.6 1.1.2 2.2.2 1.1-1 2.2-1 1.1-.1 2.2 0c1.1 0 1.1 1.3 2.2 1.4 1.1 0 1.1-1.1 2.2-1.1s1.1-.3 2.2-.3h2.2c1.1 0 1.1 1 2.2 1s1.1-.4 2.2-.4 1.1-.7 2.2-.7h2.2c1.1 0 1.1.8 2.2.8s1.1.9 2.2.9 1.1-1.7 2.2-1.7 1.1-.1 2.2-.1 1.1 1.6 2.2 1.6 1.1-1.1 2.2-1.1 1.1 1.3 2.2 1.3 1.1-.9 2.2-.9 1.1-.3 2.2-.3 1.1.9 2.2.9 1.1-1.1 2.2-1.1 1.1.4 2.2.4 1.1-.3 2.2-.3 1.1.6 2.2.6 1.1-.6 2.2-.6 1.1 1.3 2.2 1.3 1.1-.2 2.2-.2 1.1-1.5 2.2-1.5 1.1.6 2.2.6 1.1.6 2.2.6 1.1-1.2 2.2-1.2 1.1 1.6 2.2 1.6 1.1-1.5 2.2-1.5 1.1 1.3 2.2 1.3h2.2c1.1 0 1.1-1.1 2.2-1.1s1.1.4 2.2.4 1.1-.8 2.2-.8 1.1 1.1 2.2 1.1 1.1-.2 2.2-.2 1.1-.1 2.2-.1 1.1.9 2.2.9 1.1-.1 2.2-.1 1.1-.7 2.2-.7 1.1-.8 2.2-.8 1.7 1.7 2.5 1.2-1-.7-1.4-1.6c-.3-.7.9-.9.9-1.7 0-.7-.4-.8-.3-1.5 0-.7.3-.7.3-1.5 0-.7.4-.7.5-1.5 0-.7.6-.7.7-1.5 0-.7.3-.7.3-1.5v-1.5c0-.7-1.8-.8-1.8-1.5s.7-.7.7-1.5v-1.5c0-.7.9-.7 1-1.5v-1.5c0-.7 0-.7.1-1.5 0-.7.5-.7.6-1.5 0-.7-.2-.8-.1-1.5 0-.7-1.2-.8-1.2-1.5s1-.7 1-1.5c0-.7 1.1-.7 1.1-1.5 0-.7-1.7-.8-1.6-1.5 0-.7.5-.7.6-1.5 0-.7-.5-.8-.4-1.5 0-.7 1.8-.7 1.9-1.4 0-.7-1.4-.8-1.3-1.5 0-.7.7-.7.8-1.5 0-.7.7-.7.7-1.5 0-.7-1-.8-1-1.5s-.7-.8-.7-1.5.6-.7.7-1.5v-1.5c0-.7 1.1-.7 1.2-1.5 0-.7-2-.8-2-1.5s.2-.7.2-1.5c0-.7.5-.7.5-1.5 0-.7.6-.7.7-1.5 0-.7 0-.7.1-1.5v-1.5c0-.7.7-.7.7-1.5 0-.7-1.4-.8-1.4-1.5s2.2-.7 2.3-1.4c0-.7-1.7-.8-1.7-1.5s.7-.7.7-1.5c0-.7.5-.7.5-1.5 0-.7-1.6-.8-1.5-1.5 0-.7 2.1-.7 2.2-1.4 0-.7-2.2-.8-2.1-1.5 0-.7 1.8-.7 1.9-1.4 0-.7-1.7-.8-1.6-1.5 0-.7 2.1-.7 2.1-1.4s.1-.7.1-1.5c0-.7-1.2-.8-1.1-1.5 0-.7 1.3-.7 1.3-1.5 0-.7-.6-.8-.5-1.5 0-.7.6-.7.6-1.5 0-.7-1.2-.8-1.1-1.5 0-.7-.6-.8-.5-1.5 0-.7 1.5-.7 1.6-1.4 0-.7-.6-.8-.6-1.5s.5-.7.6-1.5c0-.7.6-.7.6-1.5 0-.7.3-.7.3-1.5 0-.7-.5-.8-.4-1.5 0-.7.8-.7.9-1.5 0-.7-2.4-.8-2.4-1.6 0-.7.5-.7.5-1.5 0-.7.3-.7.3-1.5 0-.7.6-.7.7-1.5 0-.7.5-.7.6-1.5 0-.7.4-.7.4-1.5 0-.7-.7-.8-.6-1.5 0-.7 1.3-.7 1.3-1.5 0-.7-1.1-.8-1.1-1.5s-.4-.8-.4-1.5.3-.7.3-1.5c0-.7-.9-.8-.9-1.5s1.5-.7 1.6-1.4c0-.7-.7-.8-.7-1.5s.5-.7.5-1.5c0-.7-.2-.8-.2-1.5s.8-.7.8-1.5c0-.7-.5-.8-.5-1.5s.1-.7.1-1.5c0-.7.4-.8.4-1.5v-1.5c0-.7-1.6-.7-1.6-1.5-.7.1 1.4 0 1.4-.7z"/><g id="indicator_svg__XMLID_5353_"><path id="indicator_svg__XMLID_5363_" class="indicator_svg__st119" d="M189.5 26.9l-3.4 3.1 3-1c-.7 3.5-1.7 7-2.7 9.6-1.2 3.1-3.4 7.1-5.8 10.6l-1.7-.6.8 1.9c-3.5 5-7.2 8.9-8.7 8.1-2.3-1.3-2.5-12 .2-21.3l1.8-.1-1.4-1.4.6-1.5c1.7-4.4 4.2-9.4 6.9-13.4l.8 2.5.5-4.3c2.6-3.5 5.2-5.9 7.2-5.8v-.1s1.9-2.6 2.3-4.3l.7.3s-.7 2.6-1.8 4.7c1.9 1.7 1.7 7.2.7 13z"/><path id="indicator_svg__XMLID_5362_" class="indicator_svg__st117" d="M187.3 13.9H185l1.4.6c-1.4 1.1-3 2-4.2 2.7-1.5.8-3.6 1.5-5.7 2l-.4-.8-.3 1c-3 .7-5.7.9-6 .1-.4-1.3 3.1-5.3 7.2-7.8l.7.6v-1c.2-.1.5-.3.7-.4 2.1-1.1 4.7-2.1 7.1-2.7l-.6 1.2 1.6-1.4c2.2-.4 3.9-.5 4.6.2s1.3.3.2.7c.2 1.1-1.7 3.1-4 5z"/><path id="indicator_svg__XMLID_5361_" class="indicator_svg__st117" d="M195.1 34.1l2.9 2-2.4-.5c.9 2.6 2 5.2 3 7.1 1.2 2.3 3.3 5.1 5.4 7.6l1.2-.6-.4 1.5c3.2 3.5 6.4 6.1 7.4 5.4 1.7-1.2.8-9.4-2.2-16.2l-1.4.1.9-1.2c-.2-.4-.4-.8-.6-1.1-1.7-3.2-4.1-6.8-6.6-9.6l-.3 2-.8-3.3c-2.3-2.5-4.5-4.1-6-3.8v-.1s-1.7-1.8-2.2-3l-.5.3s.8 1.9 1.8 3.4c-1.2 1.4-.6 5.6.8 10z"/><path id="indicator_svg__XMLID_5360_" class="indicator_svg__st119" d="M194.7 20.8l3.2 1.6-2.4-.1c1.3 2.4 2.7 4.8 4.1 6.6 1.6 2.1 4 4.5 6.5 6.6l1.1-.8-.2 1.6c3.7 3 7.3 5.1 8.2 4.2 1.5-1.5-.7-9.4-4.7-15.7l-1.4.3.7-1.3c-.2-.3-.5-.7-.7-1-2.2-2.9-5.1-6-8-8.5v2l-1.3-3.1c-2.7-2.1-5.1-3.3-6.5-2.8v-.1s-1.9-1.5-2.6-2.7l-.6.4s1.1 1.8 2.3 3.1c-1 1.6.3 5.6 2.3 9.7z"/><path id="indicator_svg__XMLID_5359_" class="indicator_svg__st69" d="M195.1 12.5h1.8l-1.1.5c1.1.8 2.3 1.6 3.3 2.1 1.2.6 2.8 1.2 4.4 1.6l.3-.6.3.8c2.3.6 4.4.7 4.6.1.3-1-2.4-4.1-5.5-6.1l-.6.4v-.7l-.6-.3c-1.6-.8-3.6-1.6-5.5-2.1l.5.8-1.3-1.1c-1.7-.4-3-.4-3.6.2s-1 .2-.2.5c0 .9 1.4 2.5 3.2 3.9z"/><g id="indicator_svg__XMLID_5356_"><path id="indicator_svg__XMLID_5358_" class="indicator_svg__st69" d="M181.6 218.4l2.5-18.1-3.2 9.9c-1-11.7-1.8-24.8-2.4-39.6-1.3-30.1-.9-57.8.4-81.6l4.6-9.9-4.2 3.1c2.6-42.2 7.8-70.3 10.5-73.9 0 0 .9-3.8 1.5-8.4 0 0 2.1 0 2.2 2 0 0 0 3.2-.6 7.8 4.3 6.1 8.1 28.6 11 82.7l-2.1-.3 2.2 2.7c.3 5.6.6 11.4.8 17.7 1 23.8 1.1 49.2.6 73.3l-4-3.8 3.9 8.6c-1.3 55.3-6.2 84.4-11.4 84.4-2.4 0-7-1.2-12.3-56.6z"/><path id="indicator_svg__XMLID_5357_" class="indicator_svg__st120" d="M191 9.1s2.8 90.6.8 99.1c0 0-7.7-31.2-.8-99.1z"/></g></g><g id="indicator_svg__XMLID_5375_"><path id="indicator_svg__XMLID_5408_" class="indicator_svg__st119" d="M26 253.1l3.5-3.1-3 .9c.8-3.5 1.9-7 2.9-9.7 1.3-3.1 3.6-7.1 6.1-10.6l1.7.7-.8-1.9c3.7-5 7.5-8.9 9-8 2.3 1.4 2.3 12.2-.7 21.5l-1.8.1 1.3 1.4-.6 1.5c-1.8 4.4-4.5 9.4-7.3 13.4l-.7-2.6-.6 4.4c-2.7 3.5-5.4 5.9-7.3 5.7v.1s-2 2.6-2.4 4.3l-.7-.3s.8-2.6 1.9-4.7c-1.8-1.7-1.6-7.3-.5-13.1z"/><path id="indicator_svg__XMLID_5407_" class="indicator_svg__st117" d="M28 266.3h2.3l-1.4-.7c1.5-1 3-2 4.3-2.6 1.5-.7 3.7-1.4 5.8-1.9l.4.8.4-1c3-.6 5.8-.8 6 0 .4 1.3-3.2 5.3-7.4 7.8l-.7-.6v1c-.2.1-.5.3-.7.4-2.1 1-4.8 2-7.2 2.6l.6-1.2-1.7 1.4c-2.2.4-4 .4-4.6-.3s-1.3-.3-.2-.7c-.2-1.3 1.8-3.2 4.1-5z"/><path id="indicator_svg__XMLID_5406_" class="indicator_svg__st117" d="M20.6 245.7l-2.9-2.1 2.4.5c-.8-2.7-1.9-5.3-2.9-7.2-1.2-2.3-3.2-5.2-5.3-7.7l-1.2.6.5-1.5c-3.1-3.6-6.3-6.3-7.4-5.6-1.7 1.2-1 9.5 1.9 16.4h1.4l-.9 1.2c.2.4.4.8.6 1.1 1.7 3.2 4 6.9 6.4 9.8l.4-2 .8 3.3c2.3 2.5 4.5 4.2 6 3.9v.1s1.7 1.8 2.1 3.1l.5-.3s-.8-2-1.8-3.5c1.2-1.4.7-5.7-.6-10.1z"/><path id="indicator_svg__XMLID_5405_" class="indicator_svg__st119" d="M20.7 259.1l-3.2-1.7 2.4.1c-1.2-2.5-2.7-4.9-4-6.7-1.5-2.1-4-4.6-6.5-6.8l-1.1.8.2-1.6c-3.6-3.1-7.2-5.3-8.2-4.4-1.5 1.4.5 9.5 4.4 15.9l1.4-.3-.7 1.3c.2.4.5.7.7 1 2.1 2.9 5.1 6.2 7.9 8.7l.1-2 1.3 3.2c2.7 2.1 5.1 3.4 6.5 2.9v.1s1.9 1.6 2.6 2.8l.5-.4s-1.1-1.8-2.3-3.1c1.1-1.5-.1-5.7-2-9.8z"/><path id="indicator_svg__XMLID_5400_" class="indicator_svg__st69" d="M20.1 267.5l-1.8-.1 1.1-.5c-1.1-.9-2.3-1.7-3.3-2.2-1.2-.6-2.8-1.2-4.4-1.7l-.3.6-.2-.8c-2.3-.6-4.4-.8-4.7-.2-.4 1 2.3 4.2 5.5 6.3l.6-.4-.1.7.6.3c1.6.9 3.6 1.7 5.5 2.3l-.4-.9 1.3 1.2c1.7.4 3.1.5 3.6-.1s1.1-.2.2-.5c0-.9-1.4-2.5-3.2-4z"/><g id="indicator_svg__XMLID_5384_"><path id="indicator_svg__XMLID_5399_" class="indicator_svg__st69" d="M37.9 60L35 78.2l3.4-10c.8 11.8 1.3 25.1 1.7 40 .7 30.4-.3 58.4-2 82.3l-4.9 9.9 4.3-3c-3.4 42.5-9.2 70.7-12 74.3 0 0-1 3.8-1.7 8.4 0 0-2.1-.1-2.2-2 0 0 .1-3.3.8-7.9-4.2-6.2-7.6-29-9.5-83.7l2.1.4-2.2-2.8c-.2-5.6-.3-11.6-.5-17.8-.6-24-.1-49.7.9-73.9l4 4-3.8-8.8c2.5-55.8 8-85 13.1-84.9 2.5 0 7.2 1.4 11.4 57.3z"/><path id="indicator_svg__XMLID_5397_" class="indicator_svg__st120" d="M24.3 271s-1-91.5 1.1-100c0 0 7.1 31.6-1.1 100z"/></g></g></g></svg>